<svg width="24" height="24" viewBox="0 0 24 24" fill="none" xmlns="http://www.w3.org/2000/svg">
<path fill-rule="evenodd" clip-rule="evenodd" d="M4.52606 1.90396C5.80953 1.25 7.48968 1.25 10.85 1.25L13.15 1.25C16.5103 1.25 18.1905 1.25 19.4739 1.90396C20.6029 2.4792 21.5208 3.39709 22.096 4.52606C22.75 5.80953 22.75 7.48969 22.75 10.85L22.75 13.15C22.75 16.5103 22.75 18.1905 22.096 19.4739C21.5208 20.6029 20.6029 21.5208 19.4739 22.096C18.1905 22.75 16.5103 22.75 13.15 22.75L10.85 22.75L10.85 22.75C7.48967 22.75 5.80952 22.75 4.52605 22.096C3.39708 21.5208 2.4792 20.6029 1.90396 19.4739C1.25 18.1905 1.25 16.5103 1.25 13.15L1.25 10.85C1.25 7.48969 1.25 5.80953 1.90396 4.52606C2.4792 3.39709 3.39708 2.4792 4.52606 1.90396ZM14.6241 8.58392C14.485 8.37527 14.2508 8.24994 14.0001 8.24994C13.7493 8.24994 13.5151 8.37527 13.376 8.58392L10.0001 13.6479L8.62409 11.5839C8.48499 11.3753 8.25082 11.2499 8.00005 11.2499L6.00005 11.2499C5.58584 11.2499 5.25005 11.5857 5.25005 11.9999C5.25005 12.4142 5.58584 12.7499 6.00005 12.7499L7.59867 12.7499L9.37602 15.416C9.51511 15.6246 9.74929 15.7499 10.0001 15.7499C10.2508 15.7499 10.485 15.6246 10.6241 15.416L14.0001 10.352L15.376 12.416C15.5151 12.6246 15.7493 12.7499 16.0001 12.7499L18.0001 12.7499C18.4143 12.7499 18.7501 12.4142 18.7501 11.9999C18.7501 11.5857 18.4143 11.2499 18.0001 11.2499L16.4014 11.2499L14.6241 8.58392Z" fill="#2F384C"/>
</svg>
