<svg width="24" height="24" viewBox="0 0 24 24" fill="none" xmlns="http://www.w3.org/2000/svg">
<path fill-rule="evenodd" clip-rule="evenodd" d="M14.0574 1.14124C15.5579 1.81876 16.6985 3.85563 18.9798 7.92937L20.6104 10.8412C22.8033 14.757 23.8998 16.715 23.7164 18.3182C23.5564 19.717 22.814 20.9835 21.6718 21.8066C20.3625 22.75 18.1185 22.75 13.6304 22.75H10.3692C5.88111 22.75 3.63708 22.75 2.32782 21.8066C1.18555 20.9835 0.443218 19.717 0.283207 18.3182C0.0998044 16.715 1.19625 14.757 3.38913 10.8412L5.01973 7.92937C7.30103 3.85563 8.44167 1.81876 9.94217 1.14124C11.2503 0.550575 12.7492 0.550575 14.0574 1.14124ZM12.7498 9C12.7498 8.58579 12.414 8.25 11.9998 8.25C11.5855 8.25 11.2498 8.58579 11.2498 9V13C11.2498 13.4142 11.5855 13.75 11.9998 13.75C12.414 13.75 12.7498 13.4142 12.7498 13V9ZM11.9998 15.25C11.3094 15.25 10.7498 15.8096 10.7498 16.5C10.7498 17.1904 11.3094 17.75 11.9998 17.75C12.6901 17.75 13.2498 17.1904 13.2498 16.5C13.2498 15.8096 12.6901 15.25 11.9998 15.25Z" fill="#2F384C"/>
</svg>
