<svg width="24" height="24" viewBox="0 0 24 24" fill="none" xmlns="http://www.w3.org/2000/svg">
<path fill-rule="evenodd" clip-rule="evenodd" d="M3.98005 1.79497C5.04961 1.25 6.44974 1.25 9.25 1.25H14.75C17.5503 1.25 18.9504 1.25 20.02 1.79497C20.9608 2.27433 21.7257 3.03924 22.205 3.98005C22.75 5.04961 22.75 6.44974 22.75 9.25V14.75C22.75 17.5503 22.75 18.9504 22.205 20.02C21.7257 20.9608 20.9608 21.7257 20.02 22.205C18.9504 22.75 17.5503 22.75 14.75 22.75H9.25C6.44974 22.75 5.04961 22.75 3.98005 22.205C3.03924 21.7257 2.27433 20.9608 1.79497 20.02C1.25 18.9504 1.25 17.5503 1.25 14.75V9.25C1.25 6.44974 1.25 5.04961 1.79497 3.98005C2.27433 3.03924 3.03924 2.27433 3.98005 1.79497ZM13.5303 7.46957C13.2374 7.17667 12.7626 7.17667 12.4697 7.46956C12.1768 7.76245 12.1768 8.23733 12.4697 8.53022L15.1894 11.25H7C6.58579 11.25 6.25 11.5857 6.25 12C6.25 12.4142 6.58579 12.75 7 12.75H15.1893L12.4697 15.4696C12.1768 15.7625 12.1768 16.2374 12.4697 16.5303C12.7626 16.8232 13.2374 16.8232 13.5303 16.5303L17.5303 12.5303C17.8232 12.2374 17.8232 11.7625 17.5303 11.4696L13.5303 7.46957Z" fill="#2F384C"/>
</svg>
