<svg width="24" height="24" viewBox="0 0 24 24" fill="none" xmlns="http://www.w3.org/2000/svg">
<path fill-rule="evenodd" clip-rule="evenodd" d="M3.98005 1.79497C5.04961 1.25 6.44974 1.25 9.25 1.25H14.75C17.5503 1.25 18.9504 1.25 20.02 1.79497C20.9608 2.27433 21.7257 3.03924 22.205 3.98005C22.75 5.04961 22.75 6.44974 22.75 9.25V14.75C22.75 17.5503 22.75 18.9504 22.205 20.02C21.7257 20.9608 20.9608 21.7257 20.02 22.205C18.9504 22.75 17.5503 22.75 14.75 22.75H9.25C6.44974 22.75 5.04961 22.75 3.98005 22.205C3.03924 21.7257 2.27433 20.9608 1.79497 20.02C1.25 18.9504 1.25 17.5503 1.25 14.75V9.25C1.25 6.44974 1.25 5.04961 1.79497 3.98005C2.27433 3.03924 3.03924 2.27433 3.98005 1.79497ZM12.75 7.00003C12.75 6.58582 12.4142 6.25003 12 6.25003C11.5858 6.25003 11.25 6.58582 11.25 7.00003V15.1894L8.5303 12.4697C8.2374 12.1768 7.76253 12.1768 7.46964 12.4697C7.17674 12.7626 7.17674 13.2375 7.46964 13.5304L11.4696 17.5304C11.7625 17.8233 12.2374 17.8233 12.5303 17.5304L16.5304 13.5304C16.8233 13.2375 16.8233 12.7626 16.5304 12.4697C16.2375 12.1768 15.7626 12.1768 15.4697 12.4697L12.75 15.1894V7.00003Z" fill="#2F384C"/>
</svg>
