<svg width="24" height="24" viewBox="0 0 24 24" fill="none" xmlns="http://www.w3.org/2000/svg">
<path fill-rule="evenodd" clip-rule="evenodd" d="M3.98005 1.79497C5.04961 1.25 6.44974 1.25 9.25 1.25H14.75C17.5503 1.25 18.9504 1.25 20.02 1.79497C20.9608 2.27433 21.7257 3.03924 22.205 3.98005C22.75 5.04961 22.75 6.44974 22.75 9.25V14.75C22.75 17.5503 22.75 18.9504 22.205 20.02C21.7257 20.9608 20.9608 21.7257 20.02 22.205C18.9504 22.75 17.5503 22.75 14.75 22.75H9.25C6.44974 22.75 5.04961 22.75 3.98005 22.205C3.03924 21.7257 2.27433 20.9608 1.79497 20.02C1.25 18.9504 1.25 17.5503 1.25 14.75V9.25C1.25 6.44974 1.25 5.04961 1.79497 3.98005C2.27433 3.03924 3.03924 2.27433 3.98005 1.79497ZM12.5304 6.4697C12.2375 6.17681 11.7626 6.17681 11.4697 6.4697L7.46964 10.4697C7.17675 10.7626 7.17674 11.2375 7.46963 11.5304C7.76252 11.8233 8.2374 11.8233 8.53029 11.5304L11.25 8.81067L11.25 17C11.25 17.4142 11.5858 17.75 12 17.75C12.4142 17.75 12.75 17.4142 12.75 17L12.75 8.81069L15.4697 11.5304C15.7626 11.8233 16.2375 11.8233 16.5304 11.5304C16.8233 11.2375 16.8233 10.7626 16.5304 10.4697L12.5304 6.4697Z" fill="#2F384C"/>
</svg>
