<svg width="24" height="24" viewBox="0 0 24 24" fill="none" xmlns="http://www.w3.org/2000/svg">
<path fill-rule="evenodd" clip-rule="evenodd" d="M3.53033 1.46967C3.23744 1.17678 2.76256 1.17678 2.46967 1.46967C2.17678 1.76256 2.17678 2.23744 2.46967 2.53033L5.64845 5.70911C5.39041 6.42438 5.24976 7.19577 5.24976 8V10.0692C5.24976 10.7747 4.98555 11.4546 4.50918 11.9749L3.10847 13.5049C1.88345 14.843 2.37893 16.9935 4.06597 17.6606C8.59238 19.4506 13.5731 19.651 18.2013 18.2619L21.4697 21.5303C21.7626 21.8232 22.2374 21.8232 22.5303 21.5303C22.8232 21.2374 22.8232 20.7626 22.5303 20.4697L3.53033 1.46967ZM11.9999 1.25C10.7615 1.25 9.5912 1.55071 8.56006 2.08376C8.19211 2.27397 8.04802 2.72646 8.23823 3.09441C8.42845 3.46237 8.88093 3.60646 9.24889 3.41624C10.0721 2.99068 11.0068 2.75 11.9999 2.75C15.3136 2.75 17.9999 5.43629 17.9999 8.75V10.8192C17.9999 11.7122 18.3343 12.5727 18.9373 13.2314L20.338 14.7614C20.6177 15.0669 21.0921 15.0878 21.3976 14.8081C21.7031 14.5284 21.7241 14.054 21.4444 13.7485L20.0436 12.2185C19.6939 11.8364 19.4999 11.3372 19.4999 10.8192V8.75C19.4999 4.60786 16.142 1.25 11.9999 1.25ZM11.9999 23.0002C10.1678 23.0002 8.62334 21.7684 8.14954 20.0879C10.6972 20.5299 13.3026 20.5299 15.8502 20.0879C15.3764 21.7684 13.832 23.0002 11.9999 23.0002Z" fill="#2F384C"/>
</svg>
