<svg width="24" height="24" viewBox="0 0 24 24" fill="none" xmlns="http://www.w3.org/2000/svg">
<path d="M12 1.25C8.27208 1.25 5.25 4.27207 5.25 8V10.0692C5.25 10.7747 4.98579 11.4546 4.50942 11.9749L3.10871 13.5049C1.88369 14.843 2.37917 16.9935 4.06621 17.6606C9.16336 19.6763 14.8366 19.6763 19.9338 17.6606C21.6208 16.9935 22.1163 14.843 20.8913 13.5049L19.4906 11.9749C19.0142 11.4546 18.75 10.7747 18.75 10.0692V8C18.75 4.27208 15.7279 1.25 12 1.25Z" fill="#2F384C"/>
<path d="M8.14978 20.0879C8.62358 21.7684 10.168 23.0002 12.0001 23.0002C13.8322 23.0002 15.3766 21.7684 15.8504 20.0879C13.3028 20.5299 10.6974 20.5299 8.14978 20.0879Z" fill="#2F384C"/>
</svg>
