<svg width="24" height="24" viewBox="0 0 24 24" fill="none" xmlns="http://www.w3.org/2000/svg">
<path fill-rule="evenodd" clip-rule="evenodd" d="M22.2065 1.35502C21.9935 1.24571 21.7123 1.24458 21.15 1.24232C19.5779 1.236 18 1.25792 16.4538 1.52901C16.0981 1.59138 15.7497 1.66744 15.4043 1.75978C14.7337 1.9391 14.3983 2.02876 13.9246 2.392C13.5814 2.65517 13.1441 3.22469 12.9785 3.62425C12.75 4.17575 12.75 4.68234 12.75 5.69552V9.99989C12.75 10.4141 12.4142 10.7499 12 10.7499C11.5858 10.7499 11.25 10.4141 11.25 9.99989V5.69552C11.25 4.68234 11.25 4.17575 11.0215 3.62425C10.8559 3.22469 10.4186 2.65517 10.0754 2.392C9.60165 2.02876 9.26632 1.9391 8.59568 1.75978C8.25035 1.66744 7.90193 1.59138 7.54618 1.52901C5.99997 1.25792 4.42208 1.236 2.84998 1.24232C2.28768 1.24458 2.00654 1.24571 1.7935 1.35502C1.60561 1.45142 1.45409 1.60355 1.35845 1.79183C1.25 2.0053 1.25 2.28683 1.25 2.84989V11.807C1.25 13.3974 1.25 14.1926 1.5397 14.803C1.81132 15.3754 2.17112 15.7706 2.71551 16.0947C3.29615 16.4403 4.2131 16.5266 6.04701 16.6992C6.46239 16.7383 6.87605 16.7915 7.28715 16.8636C8.70571 17.1123 10.0018 17.6069 11.5944 18.6308L12 18.8915L12.4056 18.6308C13.9982 17.6069 15.2943 17.1123 16.7129 16.8636C17.1239 16.7915 17.5376 16.7383 17.953 16.6992C19.7869 16.5266 20.7039 16.4403 21.2845 16.0947C21.8289 15.7706 22.1887 15.3754 22.4603 14.803C22.75 14.1926 22.75 13.3974 22.75 11.807V2.84989C22.75 2.28683 22.75 2.0053 22.6416 1.79183C22.5459 1.60355 22.3944 1.45142 22.2065 1.35502ZM3 18.7499C2.58578 18.7499 2.25 19.0857 2.25 19.4999C2.25 19.9141 2.58578 20.2499 3 20.2499C4.97376 20.2499 6.39687 20.3742 7.67766 20.7235C8.95055 21.0706 10.1262 21.6521 11.584 22.6239C11.8359 22.7919 12.1641 22.7919 12.416 22.6239C13.8738 21.6521 15.0494 21.0706 16.3223 20.7235C17.6031 20.3742 19.0262 20.2499 21 20.2499C21.4142 20.2499 21.75 19.9141 21.75 19.4999C21.75 19.0857 21.4142 18.7499 21 18.7499C18.9738 18.7499 17.3969 18.8756 15.9277 19.2763C14.585 19.6425 13.3686 20.2282 12 21.1039C10.6314 20.2282 9.41498 19.6425 8.07234 19.2763C6.60313 18.8756 5.02623 18.7499 3 18.7499Z" fill="#2F384C"/>
</svg>
