<svg width="24" height="24" viewBox="0 0 24 24" fill="none" xmlns="http://www.w3.org/2000/svg">
<path d="M12.4116 0.372446C12.2619 0.282656 12.1871 0.237761 12.1072 0.22022C12.0366 0.204705 11.9634 0.204705 11.8928 0.22022C11.8129 0.237761 11.7381 0.282656 11.5884 0.372446L2.65298 5.7337C2.27336 5.96147 2.08356 6.07536 2.01967 6.2223C1.96391 6.35053 1.9644 6.49625 2.02102 6.6241C2.08589 6.77061 2.27646 6.88322 2.65759 7.10844L5.8728 9.00833C6.02299 9.09708 6.09809 9.14146 6.17805 9.15847C6.24879 9.17351 6.32194 9.17303 6.39247 9.15706C6.47221 9.13901 6.54672 9.09366 6.69574 9.00295L15.5427 3.61784C15.916 3.39061 16.1027 3.27699 16.1658 3.13088C16.2209 3.00335 16.2204 2.85865 16.1645 2.73147C16.1005 2.58577 15.9131 2.47334 15.5383 2.24849L12.4116 0.372446Z" fill="#2F384C"/>
<path d="M8.8891 9.42389C8.51331 9.65263 8.32541 9.767 8.26239 9.91375C8.20738 10.0418 8.20833 10.187 8.26501 10.3144C8.32995 10.4603 8.51932 10.5722 8.89807 10.796L11.593 12.3885C11.7411 12.476 11.8152 12.5197 11.8941 12.5368C11.9639 12.552 12.0361 12.552 12.1059 12.5368C12.1848 12.5197 12.2589 12.476 12.407 12.3885L21.3424 7.10844C21.7235 6.88322 21.9141 6.77061 21.979 6.6241C22.0356 6.49625 22.0361 6.35053 21.9803 6.2223C21.9164 6.07535 21.7266 5.96147 21.347 5.7337L18.5409 4.05C18.3902 3.9596 18.3148 3.9144 18.2345 3.8969C18.1634 3.88143 18.0897 3.88167 18.0187 3.89759C17.9384 3.91559 17.8634 3.96128 17.7133 4.05264L8.8891 9.42389Z" fill="#2F384C"/>
<path d="M22.75 9.42095C22.75 8.96159 22.75 8.73191 22.6536 8.60009C22.5696 8.48514 22.4405 8.41148 22.2987 8.39759C22.1362 8.38167 21.9385 8.49852 21.543 8.73221L13.143 13.6958C12.9998 13.7805 12.9281 13.8228 12.8761 13.8815C12.83 13.9334 12.7952 13.9943 12.774 14.0603C12.75 14.135 12.75 14.2182 12.75 14.3846V22.0118C12.75 22.4743 12.75 22.7055 12.847 22.8376C12.9315 22.9528 13.0613 23.0263 13.2036 23.0395C13.3667 23.0547 13.565 22.9358 13.9616 22.6978L21.1964 18.3569C21.7629 18.017 22.0462 17.8471 22.2519 17.6131C22.434 17.406 22.5713 17.1635 22.6552 16.9008C22.75 16.604 22.75 16.2736 22.75 15.613V9.42095Z" fill="#2F384C"/>
<path d="M10.0384 22.6978C10.435 22.9358 10.6333 23.0547 10.7964 23.0395C10.9387 23.0263 11.0685 22.9528 11.153 22.8376C11.25 22.7055 11.25 22.4743 11.25 22.0118V14.3846C11.25 14.2182 11.25 14.135 11.226 14.0603C11.2048 13.9943 11.17 13.9334 11.1239 13.8815C11.0719 13.8228 11.0002 13.7805 10.857 13.6958L2.45698 8.73221C2.06151 8.49852 1.86378 8.38167 1.70126 8.39759C1.55953 8.41148 1.43044 8.48514 1.34638 8.60009C1.25 8.73191 1.25 8.96159 1.25 9.42095V15.613C1.25 16.2736 1.25 16.604 1.34479 16.9008C1.42868 17.1635 1.56597 17.406 1.74806 17.6131C1.95382 17.8471 2.23708 18.017 2.80361 18.3569L10.0384 22.6978Z" fill="#2F384C"/>
</svg>
