<svg width="24" height="24" viewBox="0 0 24 24" fill="none" xmlns="http://www.w3.org/2000/svg">
<path fill-rule="evenodd" clip-rule="evenodd" d="M8.83697 5.25C9.17555 3.81665 10.4632 2.75 12 2.75C13.5368 2.75 14.8245 3.81665 15.163 5.25H8.83697ZM7.30888 5.25C7.66846 2.98301 9.63185 1.25 12 1.25C14.3682 1.25 16.3315 2.98301 16.6911 5.25H16.75H19.55C20.6701 5.25 21.2302 5.25 21.658 5.46799C22.0343 5.65973 22.3403 5.96569 22.532 6.34202C22.75 6.76984 22.75 7.3299 22.75 8.45V9.55C22.75 10.6701 22.75 11.2302 22.532 11.658C22.3403 12.0343 22.0343 12.3403 21.658 12.532C21.2302 12.75 20.6701 12.75 19.55 12.75H17.1C16.9067 12.75 16.75 12.5933 16.75 12.4V11.75C16.75 11.3358 16.4142 11 16 11C15.5858 11 15.25 11.3358 15.25 11.75V12.4C15.25 12.5933 15.0933 12.75 14.9 12.75H9.1C8.9067 12.75 8.75 12.5933 8.75 12.4V11.75C8.75 11.3358 8.41421 11 8 11C7.58579 11 7.25 11.3358 7.25 11.75V12.4C7.25 12.5933 7.0933 12.75 6.9 12.75H4.45C3.3299 12.75 2.76984 12.75 2.34202 12.532C1.96569 12.3403 1.65973 12.0343 1.46799 11.658C1.25 11.2302 1.25 10.6701 1.25 9.55V8.45C1.25 7.3299 1.25 6.76984 1.46799 6.34202C1.65973 5.96569 1.96569 5.65973 2.34202 5.46799C2.76984 5.25 3.3299 5.25 4.45 5.25H7.30888ZM15.25 14.6C15.25 14.4067 15.0933 14.25 14.9 14.25H9.1C8.9067 14.25 8.75 14.4067 8.75 14.6V15.25C8.75 15.6642 8.41421 16 8 16C7.58579 16 7.25 15.6642 7.25 15.25V14.6C7.25 14.4067 7.0933 14.25 6.9 14.25H5.08333C4.30764 14.25 3.9198 14.25 3.60712 14.3561C3.01834 14.556 2.556 15.0183 2.35614 15.6071C2.25 15.9198 2.25 16.3076 2.25 17.0833C2.25 18.6347 2.25 19.4104 2.46228 20.0358C2.86201 21.2133 3.78668 22.138 4.96424 22.5377C5.5896 22.75 6.36529 22.75 7.91667 22.75H16.0833C17.6347 22.75 18.4104 22.75 19.0358 22.5377C20.2133 22.138 21.138 21.2133 21.5377 20.0358C21.75 19.4104 21.75 18.6347 21.75 17.0833C21.75 16.3076 21.75 15.9198 21.6439 15.6071C21.444 15.0183 20.9817 14.556 20.3929 14.3561C20.0802 14.25 19.6924 14.25 18.9167 14.25H17.1C16.9067 14.25 16.75 14.4067 16.75 14.6V15.25C16.75 15.6642 16.4142 16 16 16C15.5858 16 15.25 15.6642 15.25 15.25V14.6Z" fill="#2F384C"/>
</svg>
