<svg width="24" height="24" viewBox="0 0 24 24" fill="none" xmlns="http://www.w3.org/2000/svg">
<path fill-rule="evenodd" clip-rule="evenodd" d="M2.73229 1.50169C3.24991 1.25 3.86279 1.25 5.08853 1.25C6.08418 1.25 6.58201 1.25 7.00245 1.40583C7.48759 1.58563 7.90499 1.91153 8.19709 2.33858C8.45023 2.70867 8.57098 3.19163 8.81246 4.15755L8.81246 4.15756L9.02766 5.01836L9.02766 5.01836C9.31811 6.18019 9.46334 6.7611 9.44146 7.33118C9.42209 7.83603 9.30725 8.33264 9.10302 8.79474C8.8724 9.31655 8.48688 9.77472 7.71584 10.6911L7.2217 11.2784L7.2217 11.2784C6.68711 11.9137 6.41982 12.2314 6.3023 12.6418C6.20905 12.9673 6.20972 13.4233 6.30392 13.7486C6.42265 14.1587 6.64769 14.4246 7.09777 14.9563C7.63215 15.5876 8.21146 16.1767 8.83324 16.721C9.33989 17.1646 9.59321 17.3864 9.98771 17.513C10.301 17.6136 10.7429 17.6304 11.063 17.5541C11.466 17.458 11.7872 17.2174 12.4298 16.7363L13.4 16.0098L13.4 16.0098C14.2949 15.3398 14.7424 15.0047 15.2406 14.8078C15.6821 14.6333 16.1511 14.5388 16.6256 14.5287C17.1613 14.5172 17.7036 14.6528 18.7882 14.924L19.8424 15.1875C20.8084 15.429 21.2913 15.5498 21.6614 15.8029C22.0885 16.095 22.4144 16.5124 22.5942 16.9975C22.75 17.418 22.75 17.9158 22.75 18.9115C22.75 20.1367 22.75 20.7494 22.4981 21.2671C22.2292 21.8202 21.6472 22.336 21.0659 22.5367C20.5216 22.7246 19.9877 22.6601 18.9199 22.5311C15.8754 22.1631 12.9309 21.2931 10.2624 19.6373C7.73479 18.0689 5.66357 15.9505 4.14703 13.3812C2.6247 10.8021 1.81716 7.98616 1.4675 5.08015C1.33892 4.01151 1.27463 3.4772 1.46268 2.93321C1.6636 2.35198 2.17922 1.7706 2.73229 1.50169ZM20.4696 2.46967C20.7625 2.17678 21.2374 2.17678 21.5303 2.46967C21.8232 2.76256 21.8232 3.23744 21.5303 3.53033L16.8106 8.25H20C20.4142 8.25 20.75 8.58579 20.75 9C20.75 9.41421 20.4142 9.75 20 9.75H15C14.5858 9.75 14.25 9.41421 14.25 9V4C14.25 3.58579 14.5858 3.25 15 3.25C15.4142 3.25 15.75 3.58579 15.75 4V7.18934L20.4696 2.46967Z" fill="#2F384C"/>
</svg>
