<svg width="24" height="24" viewBox="0 0 24 24" fill="none" xmlns="http://www.w3.org/2000/svg">
<path fill-rule="evenodd" clip-rule="evenodd" d="M5.02327 4.63052C5.9998 4.43521 6.85875 3.85998 7.41115 3.03137L7.44295 2.98368C8.16502 1.90057 9.38063 1.25 10.6824 1.25L13.3179 1.25C14.6196 1.25 15.8352 1.90057 16.5573 2.98368L16.5891 3.03137C17.1415 3.85998 18.0004 4.43521 18.977 4.63052C21.1709 5.0693 22.7501 6.99565 22.7501 9.23302V14.75C22.7501 17.5503 22.7501 18.9504 22.2052 20.02C21.7258 20.9608 20.9609 21.7257 20.0201 22.205C18.9505 22.75 17.5504 22.75 14.7501 22.75H9.25012C6.44986 22.75 5.04973 22.75 3.98017 22.205C3.03936 21.7257 2.27446 20.9608 1.79509 20.02C1.25012 18.9504 1.25012 17.5503 1.25012 14.75L1.25012 9.23302C1.25012 6.99565 2.82935 5.0693 5.02327 4.63052ZM12.0001 17C14.2093 17 16.0001 15.2091 16.0001 13C16.0001 10.7909 14.2093 9 12.0001 9C9.79098 9 8.00012 10.7909 8.00012 13C8.00012 15.2091 9.79098 17 12.0001 17Z" fill="#2F384C"/>
</svg>
