<svg width="24" height="24" viewBox="0 0 24 24" fill="none" xmlns="http://www.w3.org/2000/svg">
<path fill-rule="evenodd" clip-rule="evenodd" d="M2.53033 1.46943C2.23744 1.17653 1.76256 1.17653 1.46967 1.46943C1.17678 1.76232 1.17678 2.23719 1.46967 2.53009L4.803 5.86342L20.0052 21.0656L21.9697 23.0301C22.2626 23.323 22.7374 23.323 23.0303 23.0301C23.3232 22.7372 23.3232 22.2623 23.0303 21.9694L21.5615 20.5006C21.6301 20.4111 21.6962 20.3195 21.7597 20.2259C22.2884 19.4459 22.5246 18.5451 22.6384 17.4384C22.75 16.3533 22.75 14.9898 22.75 13.2504L22.75 13.2076L22.75 9.38723C22.75 7.06005 21.1074 5.05638 18.8254 4.59999C17.9523 4.42537 17.2202 3.97804 16.7515 3.27486C15.908 2.00969 14.4881 1.24976 12.9675 1.24976L11.0325 1.24976C9.51193 1.24976 8.09199 2.00969 7.24854 3.27486C6.88026 3.82729 6.24322 4.27545 5.55999 4.49909L2.53033 1.46943ZM10.3957 9.33478L15.6653 14.6044C15.8806 14.1133 16.0001 13.5706 16.0001 13C16.0001 10.7909 14.2092 9.00002 12.0001 9.00002C11.4295 9.00002 10.8868 9.11949 10.3957 9.33478ZM3.37153 7.43325C3.61094 7.09523 3.531 6.62713 3.19298 6.38772C2.85497 6.14831 2.38687 6.22825 2.14746 6.56627C1.57935 7.36837 1.25 8.34586 1.25 9.38723L1.25 13.2076L1.25 13.2504L1.25 13.2505C1.24999 14.9898 1.24999 16.3534 1.36158 17.4384C1.4754 18.5451 1.71164 19.4459 2.24031 20.2259C2.64959 20.8297 3.17004 21.3502 3.77388 21.7594C4.55386 22.2881 5.45468 22.5244 6.56138 22.6382C7.64641 22.7498 9.00994 22.7498 10.7494 22.7498L10.7922 22.7498L13.2078 22.7498L13.2375 22.7498C14.7899 22.7498 16.0405 22.7498 17.0571 22.6722C17.4701 22.6406 17.7794 22.2802 17.7478 21.8672C17.7163 21.4542 17.3559 21.145 16.9429 21.1765C15.9899 21.2493 14.796 21.2498 13.2078 21.2498L10.7922 21.2498C9.0007 21.2498 7.7142 21.2488 6.71483 21.1461C5.72825 21.0446 5.10599 20.8503 4.61548 20.5178C4.16916 20.2153 3.78448 19.8306 3.48197 19.3843C3.1495 18.8938 2.95517 18.2715 2.85371 17.2849C2.75093 16.2856 2.75 14.9991 2.75 13.2076L2.75 9.38723C2.75 8.6653 2.97775 7.98922 3.37153 7.43325ZM8.85235 12.1869C8.95559 11.7858 8.7141 11.3769 8.31296 11.2737C7.91182 11.1704 7.50294 11.4119 7.39969 11.8131C7.30184 12.1932 7.25 12.5911 7.25 13C7.25 15.6234 9.37665 17.75 12 17.75C12.4089 17.75 12.8068 17.6982 13.1869 17.6003C13.5881 17.4971 13.8296 17.0882 13.7263 16.687C13.6231 16.2859 13.2142 16.0444 12.8131 16.1477C12.554 16.2143 12.2817 16.25 12 16.25C10.2051 16.25 8.75 14.7949 8.75 13C8.75 12.7183 8.78567 12.446 8.85235 12.1869Z" fill="#2F384C"/>
</svg>
