<svg width="24" height="24" viewBox="0 0 24 24" fill="none" xmlns="http://www.w3.org/2000/svg">
<path d="M12.0508 1.27035C11.7847 1.25668 11.6517 1.24985 11.5392 1.30219C11.4434 1.34672 11.3574 1.4284 11.308 1.52173C11.25 1.63144 11.25 1.77096 11.25 2.05V7.95C11.25 9.63016 11.25 10.4702 11.577 11.112C11.8646 11.6765 12.3235 12.1354 12.888 12.423C13.5298 12.75 14.3698 12.75 16.05 12.75H21.95C22.2291 12.75 22.3687 12.75 22.4783 12.692C22.5716 12.6427 22.6532 12.557 22.6978 12.4613C22.7502 12.3489 22.7435 12.2156 22.7302 11.949C22.4059 5.46912 18.1263 1.58241 12.0508 1.27035Z" fill="#2F384C"/>
<path d="M9.75 2.45811C9.75 2.15147 9.75 1.99816 9.69606 1.89165C9.62414 1.74963 9.4889 1.65035 9.33186 1.62429C9.21408 1.60475 9.06781 1.65069 8.77526 1.74257C4.41455 3.11219 1.25 7.18571 1.25 12.0003C1.25 17.9374 6.06294 22.7503 12 22.7503C16.8146 22.7503 20.8881 19.5858 22.2577 15.225C22.3496 14.9325 22.3956 14.7862 22.376 14.6684C22.35 14.5114 22.2507 14.3762 22.1087 14.3042C22.0021 14.2503 21.8488 14.2503 21.5422 14.2503H16.15C13.9098 14.2503 12.7897 14.2503 11.934 13.8143C11.1814 13.4308 10.5695 12.8189 10.186 12.0663C9.75 11.2106 9.75 10.0905 9.75 7.8503V2.45811Z" fill="#2F384C"/>
</svg>
