<svg width="24" height="24" viewBox="0 0 24 24" fill="none" xmlns="http://www.w3.org/2000/svg">
<path fill-rule="evenodd" clip-rule="evenodd" d="M1.5 12C1.5 6.20101 6.20101 1.5 12 1.5C15.1385 1.5 17.9554 2.87701 19.8795 5.05983L12 12.9393L9.53033 10.4697C9.23744 10.1768 8.76256 10.1768 8.46967 10.4697C8.17678 10.7626 8.17678 11.2374 8.46967 11.5303L11.4697 14.5303C11.7626 14.8232 12.2374 14.8232 12.5303 14.5303L20.7964 6.26426C21.8737 7.91311 22.5 9.88342 22.5 12C22.5 17.799 17.799 22.5 12 22.5C6.20101 22.5 1.5 17.799 1.5 12ZM20.7964 6.26426L23.5303 3.53033C23.8232 3.23744 23.8232 2.76256 23.5303 2.46967C23.2374 2.17678 22.7626 2.17678 22.4697 2.46967L19.8795 5.05983C20.2129 5.4381 20.5196 5.84056 20.7964 6.26426Z" fill="#2F384C"/>
</svg>
