<svg width="24" height="24" viewBox="0 0 24 24" fill="none" xmlns="http://www.w3.org/2000/svg">
<path fill-rule="evenodd" clip-rule="evenodd" d="M1.25 12C1.25 6.06294 6.06294 1.25 12 1.25C17.9371 1.25 22.75 6.06294 22.75 12C22.75 17.9371 17.9371 22.75 12 22.75C6.06294 22.75 1.25 17.9371 1.25 12ZM16.1172 8.94212C16.3904 8.34111 16.527 8.04061 16.4707 7.85888C16.4219 7.70143 16.2986 7.57815 16.1411 7.52934C15.9594 7.47301 15.6589 7.6096 15.0579 7.88278L12.3099 9.13187C11.5014 9.49938 11.0971 9.68314 10.7509 9.9419C10.4439 10.1714 10.1714 10.4439 9.9419 10.7509C9.68314 11.0971 9.49938 11.5014 9.13187 12.3099L7.88278 15.0579C7.6096 15.6589 7.47301 15.9594 7.52934 16.1411C7.57815 16.2986 7.70143 16.4219 7.85888 16.4707C8.04061 16.527 8.34111 16.3904 8.94211 16.1172L11.6901 14.8681C12.4986 14.5006 12.9029 14.3169 13.2491 14.0581C13.5561 13.8286 13.8286 13.5561 14.0581 13.2491C14.3169 12.9029 14.5006 12.4986 14.8681 11.6901L16.1172 8.94212Z" fill="#2F384C"/>
</svg>
