<svg width="24" height="24" viewBox="0 0 24 24" fill="none" xmlns="http://www.w3.org/2000/svg">
<path fill-rule="evenodd" clip-rule="evenodd" d="M3.70704 1.74047C4.66965 1.25 5.92976 1.25 8.45 1.25H14.3283C15.429 1.25 15.9793 1.25 16.4972 1.37434C16.9564 1.48457 17.3953 1.66639 17.7979 1.91312C18.2521 2.19141 18.6412 2.58055 19.4195 3.35883L20.6412 4.58051C21.4195 5.35879 21.8086 5.74793 22.0869 6.20206C22.3336 6.60468 22.5154 7.04363 22.6257 7.5028C22.75 8.02069 22.75 8.57102 22.75 9.67168V15.55C22.75 18.0702 22.75 19.3304 22.2595 20.293C21.8281 21.1397 21.1397 21.8281 20.293 22.2595C19.3304 22.75 18.0702 22.75 15.55 22.75H8.45C5.92976 22.75 4.66965 22.75 3.70704 22.2595C2.86031 21.8281 2.1719 21.1397 1.74047 20.293C1.25 19.3304 1.25 18.0702 1.25 15.55V8.45C1.25 5.92976 1.25 4.66965 1.74047 3.70704C2.1719 2.86031 2.86031 2.1719 3.70704 1.74047ZM8.75 8.75C8.33579 8.75 8 8.41421 8 8C8 7.58579 8.33579 7.25 8.75 7.25H15.25C15.6642 7.25 16 7.58579 16 8C16 8.41421 15.6642 8.75 15.25 8.75H8.75ZM8.21799 14.092C8 14.5198 8 15.0799 8 16.2V18.6C8 19.4401 8 19.8601 8.16349 20.181C8.3073 20.4632 8.53677 20.6927 8.81901 20.8365C9.13988 21 9.55992 21 10.4 21H13.6C14.4401 21 14.8601 21 15.181 20.8365C15.4632 20.6927 15.6927 20.4632 15.8365 20.181C16 19.8601 16 19.4401 16 18.6V16.2C16 15.0799 16 14.5198 15.782 14.092C15.5903 13.7157 15.2843 13.4097 14.908 13.218C14.4802 13 13.9201 13 12.8 13H11.2C10.0799 13 9.51984 13 9.09202 13.218C8.71569 13.4097 8.40973 13.7157 8.21799 14.092Z" fill="#2F384C"/>
</svg>
