<svg width="24" height="24" viewBox="0 0 24 24" fill="none" xmlns="http://www.w3.org/2000/svg">
<path fill-rule="evenodd" clip-rule="evenodd" d="M7.8268 2.09007C4.51549 3.4862 2.0499 6.49355 1.41206 10.1301C4.88406 10.452 8.41523 9.96623 11.7002 8.67048C10.5759 6.40933 9.28464 4.20989 7.8268 2.09007ZM1.25652 11.6221C1.25218 11.7475 1.25 11.8735 1.25 12C1.25 14.6899 2.23798 17.1491 3.87088 19.0345C6.35903 15.9648 9.72256 13.7384 13.473 12.6265C13.1226 11.7521 12.7485 10.885 12.3508 10.0261C8.81089 11.4409 4.99994 11.9718 1.25652 11.6221ZM4.93611 20.1035C6.82526 21.7517 9.29604 22.75 12 22.75C13.5101 22.75 14.9475 22.4386 16.2514 21.8766C15.7058 19.22 14.9597 16.5971 14.0134 14.0313C10.4552 15.0604 7.26723 17.1743 4.93611 20.1035ZM17.6334 21.1575C20.2459 19.547 22.1171 16.8497 22.617 13.696C20.1983 13.1986 17.7787 13.2134 15.4798 13.6732C16.3752 16.1242 17.0932 18.6254 17.6334 21.1575ZM22.7483 12.1924C22.7494 12.1284 22.75 12.0643 22.75 12C22.75 9.30735 21.76 6.84593 20.1242 4.95984C18.1977 6.84108 16.0316 8.32924 13.7257 9.42533C14.1572 10.3589 14.5617 11.3019 14.939 12.2532C17.4492 11.717 20.0977 11.6716 22.7483 12.1924ZM19.0651 3.8975C17.1758 2.24873 14.7045 1.25 12 1.25C11.0683 1.25 10.1644 1.36852 9.30231 1.5913C10.7175 3.68302 11.9762 5.84873 13.0779 8.07228C15.2353 7.04717 17.262 5.65582 19.0651 3.8975Z" fill="#2F384C"/>
</svg>
