<svg width="24" height="24" viewBox="0 0 24 24" fill="none" xmlns="http://www.w3.org/2000/svg">
<path fill-rule="evenodd" clip-rule="evenodd" d="M5.25 1.25C3.84987 1.25 3.1498 1.25 2.61502 1.52248C2.14462 1.76217 1.76217 2.14462 1.52248 2.61502C1.25 3.1498 1.25 3.84987 1.25 5.25V6.75C1.25 8.15013 1.25 8.8502 1.52248 9.38498C1.76217 9.85538 2.14462 10.2378 2.61502 10.4775C3.1498 10.75 3.84987 10.75 5.25 10.75H6.75C8.15013 10.75 8.8502 10.75 9.38498 10.4775C9.85538 10.2378 10.2378 9.85538 10.4775 9.38498C10.75 8.8502 10.75 8.15013 10.75 6.75V5.25C10.75 3.84987 10.75 3.1498 10.4775 2.61502C10.2378 2.14462 9.85538 1.76217 9.38498 1.52248C8.8502 1.25 8.15013 1.25 6.75 1.25H5.25ZM1.25 17.25C1.25 15.8499 1.25 15.1498 1.52248 14.615C1.76217 14.1446 2.14462 13.7622 2.61502 13.5225C3.1498 13.25 3.84987 13.25 5.25 13.25H6.75C8.15013 13.25 8.8502 13.25 9.38498 13.5225C9.85538 13.7622 10.2378 14.1446 10.4775 14.615C10.75 15.1498 10.75 15.8499 10.75 17.25V18.75C10.75 20.1501 10.75 20.8502 10.4775 21.385C10.2378 21.8554 9.85538 22.2378 9.38498 22.4775C8.8502 22.75 8.15013 22.75 6.75 22.75H5.25C3.84987 22.75 3.1498 22.75 2.61502 22.4775C2.14462 22.2378 1.76217 21.8554 1.52248 21.385C1.25 20.8502 1.25 20.1501 1.25 18.75V17.25ZM14.615 13.5225C15.1498 13.25 15.8499 13.25 17.25 13.25H18.75C20.1501 13.25 20.8502 13.25 21.385 13.5225C21.8554 13.7622 22.2378 14.1446 22.4775 14.615C22.75 15.1498 22.75 15.8499 22.75 17.25V18.75C22.75 20.1501 22.75 20.8502 22.4775 21.385C22.2378 21.8554 21.8554 22.2378 21.385 22.4775C20.8502 22.75 20.1501 22.75 18.75 22.75H17.25C15.8499 22.75 15.1498 22.75 14.615 22.4775C14.1446 22.2378 13.7622 21.8554 13.5225 21.385C13.25 20.8502 13.25 20.1501 13.25 18.75V17.25C13.25 15.8499 13.25 15.1498 13.5225 14.615C13.7622 14.1446 14.1446 13.7622 14.615 13.5225ZM18.75 2C18.75 1.58579 18.4142 1.25 18 1.25C17.5858 1.25 17.25 1.58579 17.25 2V5.25H14C13.5858 5.25 13.25 5.58579 13.25 6C13.25 6.41421 13.5858 6.75 14 6.75H17.25V10C17.25 10.4142 17.5858 10.75 18 10.75C18.4142 10.75 18.75 10.4142 18.75 10V6.75H22C22.4142 6.75 22.75 6.41421 22.75 6C22.75 5.58579 22.4142 5.25 22 5.25H18.75V2Z" fill="#2F384C"/>
</svg>
