<svg width="24" height="24" viewBox="0 0 24 24" fill="none" xmlns="http://www.w3.org/2000/svg">
<path fill-rule="evenodd" clip-rule="evenodd" d="M13.25 1.26003C12.9109 1.25 12.5071 1.25 11.997 1.25H11.25C8.44974 1.25 7.04961 1.25 5.98005 1.79497C5.03924 2.27433 4.27433 3.03924 3.79497 3.98005C3.25 5.04961 3.25 6.44974 3.25 9.25V14.75C3.25 17.5503 3.25 18.9504 3.79497 20.02C4.27433 20.9608 5.03924 21.7257 5.98005 22.205C7.04961 22.75 8.44974 22.75 11.25 22.75H12.75C15.5503 22.75 16.9504 22.75 18.02 22.205C18.9608 21.7257 19.7257 20.9608 20.205 20.02C20.75 18.9504 20.75 17.5503 20.75 14.75V10.003C20.75 9.49288 20.75 9.08913 20.74 8.75001H17.2H17.1695H17.1695C16.6354 8.75002 16.1895 8.75003 15.8253 8.72027C15.4454 8.68924 15.0888 8.62213 14.7515 8.45028C14.2341 8.18663 13.8134 7.76593 13.5497 7.24849C13.3779 6.91122 13.3108 6.55457 13.2797 6.17468C13.25 5.81045 13.25 5.3646 13.25 4.83044V4.80001V1.26003ZM20.5164 7.25001C20.3941 6.86403 20.2252 6.4939 20.0132 6.14791C19.704 5.64333 19.2716 5.21096 18.4069 4.34621L18.4069 4.34619L17.6538 3.59315L17.6538 3.59314C16.789 2.72839 16.3567 2.29601 15.8521 1.9868C15.5061 1.77478 15.136 1.6059 14.75 1.48359V4.80001C14.75 5.37244 14.7506 5.75666 14.7748 6.05254C14.7982 6.33966 14.8401 6.47694 14.8862 6.5675C15.0061 6.8027 15.1973 6.99393 15.4325 7.11377C15.5231 7.15991 15.6604 7.2018 15.9475 7.22526C16.2434 7.24943 16.6276 7.25001 17.2 7.25001H20.5164ZM9 11.25C8.58579 11.25 8.25 11.5858 8.25 12C8.25 12.4142 8.58579 12.75 9 12.75H15C15.4142 12.75 15.75 12.4142 15.75 12C15.75 11.5858 15.4142 11.25 15 11.25H9ZM9 15.25C8.58579 15.25 8.25 15.5858 8.25 16C8.25 16.4142 8.58579 16.75 9 16.75H13C13.4142 16.75 13.75 16.4142 13.75 16C13.75 15.5858 13.4142 15.25 13 15.25H9Z" fill="#2F384C"/>
</svg>
