<svg width="24" height="24" viewBox="0 0 24 24" fill="none" xmlns="http://www.w3.org/2000/svg">
<path d="M11.4306 9.25C9.98598 9.25 9.26368 9.25 8.67784 9.51281C8.16143 9.74447 7.72109 10.1175 7.40768 10.5888C7.05214 11.1235 6.93339 11.8359 6.6959 13.2609L5.42489 20.887C5.31806 21.5279 5.26464 21.8484 5.35741 22.0982C5.43882 22.3174 5.59446 22.5011 5.79728 22.6174C6.0284 22.75 6.3533 22.75 7.00312 22.75H17.5689C19.0135 22.75 19.7358 22.75 20.3216 22.4872C20.838 22.2555 21.2784 21.8825 21.5918 21.4112C21.9473 20.8765 22.0661 20.1641 22.3036 18.7391L23.2641 12.9761C23.4777 11.6941 23.5845 11.0532 23.399 10.5536C23.2362 10.1153 22.9249 9.74781 22.5193 9.51514C22.057 9.25 21.4072 9.25 20.1076 9.25H11.4306Z" fill="#2F384C"/>
<path d="M1.24963 6.04951C1.24963 4.36935 1.24963 3.52928 1.57661 2.88754C1.86423 2.32305 2.32318 1.86411 2.88766 1.57649C3.5294 1.24951 4.36948 1.24951 6.04963 1.24951H7.77988C8.5815 1.24951 8.98232 1.24951 9.34419 1.34098C9.94222 1.49213 10.4791 1.82395 10.8818 2.29125C11.1254 2.57402 11.3047 2.93252 11.6632 3.64951C11.9022 4.12751 12.0217 4.36651 12.1841 4.55502C12.4525 4.86655 12.8105 5.08777 13.2091 5.18854C13.4504 5.24951 13.7176 5.24951 14.252 5.24951H18.2492C19.6301 5.24951 20.7496 6.36901 20.7496 7.74999H11.5152C9.58907 7.74999 8.62599 7.74999 7.84488 8.1004C7.15633 8.40929 6.56921 8.90666 6.15133 9.53505C5.67727 10.2479 5.51895 11.1979 5.20229 13.0978L3.66103 22.3454C3.62216 22.5786 3.42041 22.7495 3.18401 22.7495C2.11568 22.7495 1.24963 21.8835 1.24963 20.8151V6.04951Z" fill="#2F384C"/>
</svg>
