<svg width="24" height="24" viewBox="0 0 24 24" fill="none" xmlns="http://www.w3.org/2000/svg">
<path fill-rule="evenodd" clip-rule="evenodd" d="M12.75 1C12.75 0.585786 12.4142 0.25 12 0.25C11.5858 0.25 11.25 0.585786 11.25 1V2.27845C9.97147 2.37581 8.76065 2.72 7.66623 3.26388C7.29529 3.44822 7.14403 3.89836 7.32836 4.26929C7.5127 4.64023 7.96284 4.79149 8.33377 4.60716C9.43734 4.05873 10.6815 3.75 12 3.75C16.5564 3.75 20.25 7.44365 20.25 12C20.25 13.3185 19.9413 14.5627 19.3928 15.6662C19.2085 16.0372 19.3598 16.4873 19.7307 16.6716C20.1016 16.856 20.5518 16.7047 20.7361 16.3338C21.28 15.2394 21.6242 14.0285 21.7215 12.75H23C23.4142 12.75 23.75 12.4142 23.75 12C23.75 11.5858 23.4142 11.25 23 11.25H21.7216C21.3574 6.4632 17.5368 2.64256 12.75 2.27842V1ZM2.53033 1.46967C2.23744 1.17678 1.76256 1.17678 1.46967 1.46967C1.17678 1.76256 1.17678 2.23744 1.46967 2.53033L4.5957 5.65636C3.2863 7.18345 2.44047 9.12152 2.27844 11.25H1C0.585786 11.25 0.25 11.5858 0.25 12C0.25 12.4142 0.585786 12.75 1 12.75H2.27842C2.64256 17.5368 6.4632 21.3574 11.25 21.7216V23C11.25 23.4142 11.5858 23.75 12 23.75C12.4142 23.75 12.75 23.4142 12.75 23V21.7216C14.8785 21.5595 16.8165 20.7137 18.3436 19.4043L21.4697 22.5303C21.7626 22.8232 22.2374 22.8232 22.5303 22.5303C22.8232 22.2374 22.8232 21.7626 22.5303 21.4697L18.8953 17.8346L18.8943 17.8336L14.6603 13.5842L14.6584 13.5823L10.409 9.34835L10.408 9.34738L6.16637 5.10571L2.53033 1.46967ZM3.75 12C3.75 9.99158 4.46691 8.15171 5.66002 6.72068L8.87136 9.93202C8.82976 9.99485 8.78999 10.059 8.75214 10.1245C8.43263 10.6768 8.25 11.3182 8.25 12C8.25 14.0711 9.92893 15.75 12 15.75C12.7673 15.75 13.4818 15.5189 14.0762 15.1231L17.2804 18.3391C15.8492 19.5327 14.0089 20.25 12 20.25C7.44365 20.25 3.75 16.5564 3.75 12Z" fill="#2F384C"/>
</svg>
