<svg width="24" height="24" viewBox="0 0 24 24" fill="none" xmlns="http://www.w3.org/2000/svg">
<path fill-rule="evenodd" clip-rule="evenodd" d="M12.75 1C12.75 0.585786 12.4142 0.25 12 0.25C11.5858 0.25 11.25 0.585786 11.25 1V2.27842C6.4632 2.64256 2.64256 6.4632 2.27842 11.25H1C0.585786 11.25 0.25 11.5858 0.25 12C0.25 12.4142 0.585786 12.75 1 12.75H2.27842C2.64256 17.5368 6.4632 21.3574 11.25 21.7216V23C11.25 23.4142 11.5858 23.75 12 23.75C12.4142 23.75 12.75 23.4142 12.75 23V21.7216C17.5368 21.3574 21.3574 17.5368 21.7216 12.75H23C23.4142 12.75 23.75 12.4142 23.75 12C23.75 11.5858 23.4142 11.25 23 11.25H21.7216C21.3574 6.4632 17.5368 2.64256 12.75 2.27842V1ZM3.75 12C3.75 7.44365 7.44365 3.75 12 3.75C16.5564 3.75 20.25 7.44365 20.25 12C20.25 16.5564 16.5564 20.25 12 20.25C7.44365 20.25 3.75 16.5564 3.75 12ZM8.25 12C8.25 9.92893 9.92893 8.25 12 8.25C14.0711 8.25 15.75 9.92893 15.75 12C15.75 14.0711 14.0711 15.75 12 15.75C9.92893 15.75 8.25 14.0711 8.25 12Z" fill="#2F384C"/>
</svg>
