<svg width="24" height="24" viewBox="0 0 24 24" fill="none" xmlns="http://www.w3.org/2000/svg">
<path fill-rule="evenodd" clip-rule="evenodd" d="M12.75 2C12.75 1.58579 12.4142 1.25 12 1.25C11.5858 1.25 11.25 1.58579 11.25 2V7.25H7.65C5.40979 7.25 4.28968 7.25 3.43404 7.68597C2.68139 8.06947 2.06947 8.68139 1.68597 9.43404C1.25 10.2897 1.25 11.4098 1.25 13.65L1.25 16.35C1.25 18.5902 1.25 19.7103 1.68597 20.566C2.06947 21.3186 2.68139 21.9305 3.43404 22.314C4.28969 22.75 5.40979 22.75 7.65 22.75H16.35C18.5902 22.75 19.7103 22.75 20.566 22.314C21.3186 21.9305 21.9305 21.3186 22.314 20.566C22.75 19.7103 22.75 18.5902 22.75 16.35V13.65C22.75 11.4098 22.75 10.2897 22.314 9.43404C21.9305 8.68139 21.3186 8.06947 20.566 7.68597C19.7103 7.25 18.5902 7.25 16.35 7.25H12.75V2ZM12.75 7.25H11.25L11.25 15.1893L8.53035 12.4697C8.23746 12.1768 7.76259 12.1768 7.46969 12.4697C7.1768 12.7626 7.1768 13.2374 7.46969 13.5303L11.4697 17.5303C11.6103 17.671 11.8011 17.75 12 17.75C12.1989 17.75 12.3897 17.671 12.5304 17.5303L16.5304 13.5303C16.8232 13.2374 16.8232 12.7626 16.5304 12.4697C16.2375 12.1768 15.7626 12.1768 15.4697 12.4697L12.75 15.1893V7.25Z" fill="#2F384C"/>
</svg>
