<svg width="24" height="24" viewBox="0 0 24 24" fill="none" xmlns="http://www.w3.org/2000/svg">
<path fill-rule="evenodd" clip-rule="evenodd" d="M1.7956 13.1776C1.91504 13.25 2.08967 13.25 2.43893 13.25H5.23789C5.78087 13.25 6.05236 13.25 6.30533 13.2936C6.94284 13.4035 7.52775 13.7165 7.97283 14.186C8.14943 14.3723 8.30002 14.5982 8.6012 15.05L8.60122 15.05C8.80202 15.3512 8.90241 15.5018 9.02015 15.626C9.31687 15.939 9.70681 16.1477 10.1318 16.2209C10.3005 16.25 10.4815 16.25 10.8434 16.25H13.1562C13.5182 16.25 13.6992 16.25 13.8679 16.2209C14.2929 16.1477 14.6828 15.939 14.9795 15.626C15.0973 15.5018 15.1976 15.3512 15.3984 15.05C15.6996 14.5982 15.8502 14.3723 16.0268 14.186C16.4719 13.7165 17.0568 13.4035 17.6943 13.2936C17.9473 13.25 18.2188 13.25 18.7618 13.25H21.5609C21.9101 13.25 22.0847 13.25 22.2042 13.1776C22.3089 13.1142 22.3866 13.0146 22.4228 12.8976C22.464 12.7642 22.4217 12.5948 22.337 12.256L21.1005 7.3098C20.5588 5.14312 20.288 4.05977 19.684 3.25314C19.1511 2.54144 18.4381 1.98471 17.6184 1.64032C16.6894 1.25 15.5727 1.25 13.3393 1.25H10.6606C8.42727 1.25 7.31061 1.25 6.3816 1.64031C5.56192 1.98469 4.84889 2.5414 4.31598 3.25308C3.712 4.05968 3.44115 5.14299 2.89947 7.30962L1.66282 12.256C1.57811 12.5948 1.53575 12.7642 1.57699 12.8976C1.61313 13.0146 1.69091 13.1142 1.7956 13.1776ZM1.79559 14.8224C1.91503 14.75 2.08966 14.75 2.43891 14.75H5.74215C6.05522 14.75 6.21176 14.75 6.35385 14.7932C6.47964 14.8314 6.59666 14.894 6.69822 14.9775C6.81294 15.0717 6.89977 15.202 7.07343 15.4625L7.17348 15.6126C7.69447 16.394 7.95496 16.7848 8.29912 17.0676C8.6038 17.3181 8.95487 17.5059 9.33224 17.6205C9.75851 17.75 10.2281 17.75 11.1673 17.75H13.2379C13.7809 17.75 14.0524 17.75 14.3053 17.7064C14.9428 17.5965 15.5278 17.2835 15.9728 16.814C16.1494 16.6277 16.3 16.4018 16.6012 15.95C16.802 15.6488 16.9024 15.4982 17.0201 15.374C17.3169 15.061 17.7068 14.8523 18.1318 14.7791C18.3005 14.75 18.4815 14.75 18.8434 14.75H21.5608C21.9101 14.75 22.0847 14.75 22.2042 14.8224C22.3088 14.8858 22.3866 14.9854 22.4228 15.1024C22.464 15.2358 22.4217 15.4052 22.337 15.744L22.337 15.744L22.3369 15.744L22.1004 16.6903C21.5587 18.8569 21.2879 19.9403 20.6839 20.7469C20.151 21.4586 19.438 22.0153 18.6183 22.3597C17.6893 22.75 16.5726 22.75 14.3392 22.75H9.6605C7.42716 22.75 6.31049 22.75 5.38147 22.3597C4.56178 22.0153 3.84875 21.4586 3.31584 20.7469C2.71186 19.9403 2.44103 18.8569 1.89936 16.6903L1.6628 15.744C1.57809 15.4052 1.53574 15.2358 1.57698 15.1024C1.61312 14.9854 1.6909 14.8858 1.79559 14.8224ZM9 5.25C8.58579 5.25 8.25 5.58579 8.25 6C8.25 6.41421 8.58579 6.75 9 6.75H15C15.4142 6.75 15.75 6.41421 15.75 6C15.75 5.58579 15.4142 5.25 15 5.25H9ZM10 9.25C9.58579 9.25 9.25 9.58579 9.25 10C9.25 10.4142 9.58579 10.75 10 10.75H14C14.4142 10.75 14.75 10.4142 14.75 10C14.75 9.58579 14.4142 9.25 14 9.25H10Z" fill="#2F384C"/>
</svg>
