<svg width="24" height="24" viewBox="0 0 24 24" fill="none" xmlns="http://www.w3.org/2000/svg">
<path fill-rule="evenodd" clip-rule="evenodd" d="M12 1.25C9.03168 1.25 6.34315 2.45406 4.3986 4.3986C2.45406 6.34315 1.25 9.03168 1.25 12C1.25 14.9683 2.45406 17.6569 4.3986 19.6014C6.34315 21.5459 9.03168 22.75 12 22.75C14.9683 22.75 17.6569 21.5459 19.6014 19.6014C21.5459 17.6569 22.75 14.9683 22.75 12C22.75 9.03168 21.5459 6.34315 19.6014 4.3986C17.6569 2.45406 14.9683 1.25 12 1.25ZM14.7166 15.7772C14.5526 15.6133 14.4707 15.5313 14.3864 15.4937C14.3017 15.4558 14.2417 15.4451 14.1491 15.4513C14.057 15.4574 13.9288 15.5165 13.6724 15.6347C13.1635 15.8692 12.597 16 12 16C11.403 16 10.8365 15.8692 10.3276 15.6347C10.0712 15.5165 9.94304 15.4574 9.85092 15.4513C9.75833 15.4451 9.69835 15.4558 9.61362 15.4937C9.52933 15.5313 9.44736 15.6133 9.28343 15.7772L6.53033 18.5303C6.23744 18.8232 5.76256 18.8232 5.46967 18.5303C5.17678 18.2374 5.17678 17.7626 5.46967 17.4697L8.22277 14.7166C8.3867 14.5526 8.46867 14.4707 8.50633 14.3864C8.54419 14.3017 8.55491 14.2417 8.54872 14.1491C8.54257 14.057 8.48349 13.9288 8.36533 13.6724C8.13081 13.1635 8 12.597 8 12C8 11.403 8.13081 10.8365 8.36533 10.3276C8.48349 10.0712 8.54257 9.94304 8.54872 9.85092C8.55491 9.75833 8.54419 9.69835 8.50633 9.61362C8.46867 9.52933 8.3867 9.44736 8.22277 9.28343L5.46967 6.53033C5.17678 6.23744 5.17678 5.76256 5.46967 5.46967C5.76256 5.17678 6.23744 5.17678 6.53033 5.46967L9.28343 8.22277C9.44736 8.3867 9.52933 8.46867 9.61362 8.50633C9.69835 8.54419 9.75833 8.55491 9.85092 8.54872C9.94304 8.54257 10.0712 8.48349 10.3276 8.36533C10.8365 8.13081 11.403 8 12 8C12.597 8 13.1635 8.13081 13.6724 8.36533C13.9288 8.48349 14.057 8.54257 14.1491 8.54872C14.2417 8.55491 14.3017 8.54419 14.3864 8.50633C14.4707 8.46867 14.5526 8.3867 14.7166 8.22277L17.4697 5.46967C17.7626 5.17678 18.2374 5.17678 18.5303 5.46967C18.8232 5.76256 18.8232 6.23744 18.5303 6.53033L15.7772 9.28343C15.6133 9.44736 15.5313 9.52933 15.4937 9.61362C15.4558 9.69835 15.4451 9.75833 15.4513 9.85092C15.4574 9.94304 15.5165 10.0712 15.6347 10.3276C15.8692 10.8365 16 11.403 16 12C16 12.597 15.8692 13.1635 15.6347 13.6724C15.5165 13.9288 15.4574 14.057 15.4513 14.1491C15.4451 14.2417 15.4558 14.3017 15.4937 14.3864C15.5313 14.4707 15.6133 14.5526 15.7772 14.7166L18.5303 17.4697C18.8232 17.7626 18.8232 18.2374 18.5303 18.5303C18.2374 18.8232 17.7626 18.8232 17.4697 18.5303L14.7166 15.7772Z" fill="#2F384C"/>
</svg>
