<svg width="24" height="24" viewBox="0 0 24 24" fill="none" xmlns="http://www.w3.org/2000/svg">
<path d="M14.75 5.98431C14.75 3.1865 14.75 1.78759 14.2269 1.21472C13.7741 0.718861 13.1027 0.483335 12.4393 0.587665C11.6729 0.708198 10.799 1.80056 9.05126 3.9853L4.5988 9.55088C3.26732 11.2152 2.60158 12.0474 2.60083 12.7477C2.60017 13.3568 2.8771 13.933 3.35312 14.313C3.90048 14.7499 4.96618 14.7499 7.09758 14.7499H7.65004C8.2101 14.7499 8.49012 14.7499 8.70403 14.8589C8.8922 14.9548 9.04518 15.1077 9.14105 15.2959C9.25004 15.5098 9.25004 15.7898 9.25004 16.3499V18.0155C9.25004 20.8133 9.25004 22.2122 9.77318 22.7851C10.226 23.2809 10.8974 23.5165 11.5608 23.4121C12.3271 23.2916 13.201 22.1992 14.9488 20.0145L19.4013 14.4489C20.7328 12.7846 21.3985 11.9524 21.3993 11.2521C21.3999 10.643 21.123 10.0668 20.647 9.68682C20.0996 9.2499 19.0339 9.2499 16.9025 9.2499H16.35C15.79 9.2499 15.51 9.2499 15.2961 9.14091C15.1079 9.04504 14.9549 8.89205 14.859 8.70389C14.75 8.48998 14.75 8.20995 14.75 7.6499V5.98431Z" fill="#2F384C"/>
</svg>
