<svg width="24" height="24" viewBox="0 0 24 24" fill="none" xmlns="http://www.w3.org/2000/svg">
<path fill-rule="evenodd" clip-rule="evenodd" d="M14.1615 1.75892C13.6521 1.20107 12.8967 0.936108 12.1504 1.05348C11.5891 1.14176 11.1277 1.55106 10.7285 1.97159C10.307 2.41567 9.79932 3.05023 9.16409 3.84429L9.16408 3.8443L9.14026 3.87407L9.01435 4.03146L8.61435 4.53146C8.35559 4.85491 8.40803 5.32688 8.73148 5.58564C9.05492 5.84439 9.52689 5.79195 9.78565 5.46851L10.1857 4.96851L10.3116 4.81111C10.976 3.98055 11.4441 3.39651 11.8164 3.00426C12.0005 2.8103 12.139 2.68745 12.2449 2.61256C12.3382 2.54651 12.3811 2.53587 12.3842 2.53516C12.6325 2.49634 12.8837 2.58447 13.0533 2.76989C13.0553 2.77234 13.0821 2.80739 13.1138 2.91735C13.1497 3.04198 13.181 3.2244 13.2036 3.49087C13.2493 4.02976 13.25 4.77822 13.25 5.84186V7.59999V7.62891C13.25 8.02426 13.25 8.36533 13.2729 8.64626C13.2972 8.94276 13.3506 9.23768 13.4952 9.52146C13.711 9.94483 14.0552 10.289 14.4785 10.5047C14.7623 10.6493 15.0572 10.7028 15.3537 10.7271C15.6347 10.75 15.9757 10.75 16.3711 10.75H16.4H17.1977C17.9275 10.75 18.4282 10.7506 18.7967 10.7808C19.1782 10.812 19.2841 10.8682 19.3056 10.8831C19.5235 11.0337 19.6457 11.2881 19.6272 11.5523C19.6254 11.5784 19.6031 11.6962 19.3892 12.0136C19.1826 12.3202 18.8703 12.7115 18.4143 13.2815L18.2143 13.5315C17.9556 13.8549 18.008 14.3269 18.3315 14.5856C18.6549 14.8444 19.1269 14.792 19.3857 14.4685L19.5857 14.2185L19.6068 14.192L19.6069 14.192C20.0364 13.655 20.3879 13.2157 20.6331 12.852C20.8749 12.4932 21.0927 12.0979 21.1236 11.657C21.179 10.8643 20.8122 10.1011 20.1586 9.64922C19.7951 9.39791 19.3503 9.32106 18.9191 9.28576C18.4819 9.24997 17.9193 9.24998 17.2316 9.24998H17.2316H17.1977H16.4C15.9676 9.24998 15.6884 9.2494 15.4759 9.23204C15.2721 9.21539 15.1966 9.18713 15.1595 9.16824C15.0184 9.09633 14.9037 8.9816 14.8317 8.84048C14.8128 8.80339 14.7846 8.72786 14.7679 8.52411C14.7506 8.3116 14.75 8.0324 14.75 7.59999V5.84186V5.80372C14.75 4.78683 14.75 3.97421 14.6983 3.36412C14.6493 2.78637 14.5446 2.17849 14.1615 1.75892ZM12.3842 2.53516C12.3843 2.53513 12.3843 2.53511 12.3843 2.53511C12.3843 2.53511 12.3841 2.53517 12.3835 2.53526C12.3837 2.53523 12.3839 2.53519 12.3842 2.53516ZM3.53033 2.46965C3.23744 2.17676 2.76256 2.17676 2.46967 2.46965C2.17678 2.76255 2.17678 3.23742 2.46967 3.53032L6.32834 7.38898L4.53376 9.6322L4.51009 9.66179C4.0309 10.2608 3.63888 10.7508 3.37028 11.157C3.10493 11.5584 2.87147 12.0028 2.87094 12.4976C2.8702 13.1828 3.18174 13.831 3.71727 14.2585C4.10391 14.5671 4.59679 14.6624 5.07597 14.7059C5.56101 14.75 6.18852 14.75 6.95558 14.75H6.9935H7.6C8.03241 14.75 8.31162 14.7506 8.52412 14.7679C8.72787 14.7846 8.80341 14.8128 8.84049 14.8317C8.98161 14.9036 9.09635 15.0184 9.16825 15.1595C9.18715 15.1966 9.21541 15.2721 9.23205 15.4759C9.24942 15.6884 9.25 15.9676 9.25 16.4V18.1581V18.1962C9.24999 19.2131 9.24999 20.0258 9.30173 20.6359C9.35072 21.2136 9.45538 21.8215 9.83853 22.2411C10.3479 22.7989 11.1033 23.0639 11.8496 22.9465C12.4109 22.8582 12.8723 22.4489 13.2715 22.0284C13.693 21.5843 14.2007 20.9497 14.8359 20.1557L14.8597 20.1259L16.7289 17.7895L20.4697 21.5303C20.7626 21.8232 21.2374 21.8232 21.5303 21.5303C21.8232 21.2374 21.8232 20.7626 21.5303 20.4697L17.197 16.1363L7.86366 6.80299L3.53033 2.46965Z" fill="#2F384C"/>
</svg>
