<svg width="24" height="24" viewBox="0 0 24 24" fill="none" xmlns="http://www.w3.org/2000/svg">
<path fill-rule="evenodd" clip-rule="evenodd" d="M11.8 1.25H11.7679H11.7679C10.9551 1.24999 10.2994 1.24999 9.76853 1.29336C9.2219 1.33803 8.74175 1.43239 8.29754 1.65873C7.59193 2.01825 7.01825 2.59193 6.65873 3.29754C6.43238 3.74175 6.33803 4.2219 6.29336 4.76853C6.24999 5.29944 6.24999 5.95506 6.25 6.7679L6.25 6.8V7.28838C5.46558 7.33627 4.90905 7.44394 4.43404 7.68597C3.68139 8.06947 3.06947 8.68139 2.68597 9.43404C2.25 10.2897 2.25 11.4098 2.25 13.65V16.35C2.25 18.5902 2.25 19.7103 2.68597 20.566C3.06947 21.3186 3.68139 21.9305 4.43404 22.314C5.28969 22.75 6.40979 22.75 8.65 22.75H15.35C17.5902 22.75 18.7103 22.75 19.566 22.314C20.3186 21.9305 20.9305 21.3186 21.314 20.566C21.75 19.7103 21.75 18.5902 21.75 16.35V13.65C21.75 11.4098 21.75 10.2897 21.314 9.43404C20.9305 8.68139 20.3186 8.06947 19.566 7.68597C18.7103 7.25 17.5902 7.25 15.35 7.25H8.65C8.32766 7.25 8.02851 7.25 7.75 7.2513V6.8C7.75 5.94755 7.75058 5.35331 7.78838 4.89068C7.82546 4.43681 7.8946 4.17604 7.99524 3.97852C8.21095 3.55516 8.55516 3.21095 8.97852 2.99524C9.17604 2.8946 9.4368 2.82547 9.89068 2.78838C10.3533 2.75058 10.9475 2.75 11.8 2.75H15C15.6904 2.75 16.25 3.30964 16.25 4V4.5C16.25 4.91421 16.5858 5.25 17 5.25C17.4142 5.25 17.75 4.91421 17.75 4.5V4C17.75 2.48122 16.5188 1.25 15 1.25H11.8ZM12 13.25C12.4142 13.25 12.75 13.5858 12.75 14V16C12.75 16.4142 12.4142 16.75 12 16.75C11.5858 16.75 11.25 16.4142 11.25 16V14C11.25 13.5858 11.5858 13.25 12 13.25Z" fill="#2F384C"/>
</svg>
