<svg width="24" height="24" viewBox="0 0 24 24" fill="none" xmlns="http://www.w3.org/2000/svg">
<path fill-rule="evenodd" clip-rule="evenodd" d="M3.43404 1.68597C4.28969 1.25 5.40979 1.25 7.65 1.25H8.35C10.5902 1.25 11.7103 1.25 12.566 1.68597C13.3186 2.06947 13.9305 2.68139 14.314 3.43404C14.75 4.28968 14.75 5.40979 14.75 7.65V11.2501H8C7.58579 11.2501 7.25 11.5859 7.25 12.0001C7.25 12.4143 7.58579 12.7501 8 12.7501H14.75V16.35C14.75 18.5902 14.75 19.7103 14.314 20.566C13.9305 21.3186 13.3186 21.9305 12.566 22.314C11.7103 22.75 10.5902 22.75 8.35 22.75H7.65C5.40979 22.75 4.28969 22.75 3.43404 22.314C2.68139 21.9305 2.06947 21.3186 1.68598 20.566C1.25 19.7103 1.25 18.5902 1.25 16.35L1.25 7.65C1.25 5.40979 1.25 4.28968 1.68598 3.43404C2.06947 2.68139 2.68139 2.06947 3.43404 1.68597ZM14.75 12.7501L20.1895 12.7501L17.4698 15.4698C17.1769 15.7626 17.1769 16.2375 17.4698 16.5304C17.7627 16.8233 18.2376 16.8233 18.5305 16.5304L22.5305 12.5304C22.8233 12.2375 22.8233 11.7626 22.5305 11.4698L18.5305 7.46975C18.2376 7.17686 17.7627 7.17686 17.4698 7.46975C17.1769 7.76264 17.1769 8.23752 17.4698 8.53041L20.1895 11.2501L14.75 11.2501V12.7501Z" fill="#2F384C"/>
</svg>
