<svg width="24" height="24" viewBox="0 0 24 24" fill="none" xmlns="http://www.w3.org/2000/svg">
<path fill-rule="evenodd" clip-rule="evenodd" d="M9.43404 1.68597C10.2897 1.25 11.4098 1.25 13.65 1.25H16.35C18.5902 1.25 19.7103 1.25 20.566 1.68597C21.3186 2.06947 21.9305 2.68139 22.314 3.43404C22.75 4.28969 22.75 5.40979 22.75 7.65V16.35C22.75 18.5902 22.75 19.7103 22.314 20.566C21.9305 21.3186 21.3186 21.9305 20.566 22.314C19.7103 22.75 18.5902 22.75 16.35 22.75H13.65C11.4098 22.75 10.2897 22.75 9.43404 22.314C8.68139 21.9305 8.06947 21.3186 7.68597 20.566C7.25 19.7103 7.25 18.5902 7.25 16.35V12.7501L15.1893 12.7501L12.4697 15.4698C12.1768 15.7626 12.1768 16.2375 12.4697 16.5304C12.7626 16.8233 13.2374 16.8233 13.5303 16.5304L17.5303 12.5304C17.8232 12.2375 17.8232 11.7626 17.5303 11.4698L13.5303 7.46975C13.2374 7.17686 12.7626 7.17686 12.4697 7.46975C12.1768 7.76265 12.1768 8.23752 12.4697 8.53041L15.1893 11.2501L7.25 11.2501V7.65C7.25 5.40979 7.25 4.28969 7.68597 3.43404C8.06947 2.68139 8.68139 2.06947 9.43404 1.68597ZM7.25 11.2501H2C1.58579 11.2501 1.25 11.5859 1.25 12.0001C1.25 12.4143 1.58579 12.7501 2 12.7501H7.25V11.2501Z" fill="#2F384C"/>
</svg>
