<svg width="24" height="24" viewBox="0 0 24 24" fill="none" xmlns="http://www.w3.org/2000/svg">
<path d="M20.75 4.62164C20.75 2.70623 20.75 1.74852 20.3654 1.22163C19.9971 0.717142 19.4142 0.413686 18.7897 0.401276C18.1375 0.388314 17.3529 0.937523 15.7838 2.03594L12.1149 4.60413C11.6153 4.95387 11.3655 5.12874 11.1849 5.3557C11.025 5.55666 10.9053 5.78654 10.8324 6.03277C10.75 6.31085 10.75 6.61579 10.75 7.22567L10.75 14.7745C10.75 15.3843 10.75 15.6893 10.8324 15.9674C10.9053 16.2136 11.025 16.4435 11.1849 16.6444C11.3655 16.8714 11.6153 17.0463 12.1149 17.396L15.7837 19.9641C17.3529 21.0626 18.1375 21.6118 18.7898 21.5988C19.4142 21.5864 19.997 21.283 20.3653 20.7785C20.75 20.2516 20.75 19.2939 20.75 17.3784V14.3005C20.75 14.1128 20.8438 13.9375 21 13.8334L21.752 13.3321C22.5317 12.8122 23 11.9371 23 11C23 10.0629 22.5316 9.18777 21.7519 8.66795L21 8.16672C20.8438 8.0626 20.75 7.88731 20.75 7.6996V4.62164Z" fill="#2F384C"/>
<path d="M9.00758 6.25006C9.14146 6.25006 9.25 6.3586 9.25 6.49249V19.8751C9.25 20.9106 8.41053 21.7501 7.375 21.7501C6.33947 21.7501 5.5 20.9106 5.5 19.8751V15.7501C3.15279 15.7501 1.25 13.8473 1.25 11.5001L1.25 11.0001C1.25 8.37671 3.37665 6.25006 6 6.25006H9.00758Z" fill="#2F384C"/>
</svg>
