<svg width="24" height="24" viewBox="0 0 24 24" fill="none" xmlns="http://www.w3.org/2000/svg">
<path fill-rule="evenodd" clip-rule="evenodd" d="M9.75 9.58536L20.25 6.96036V12.9995C19.6233 12.5287 18.8442 12.2498 18 12.2498C15.9289 12.2498 14.25 13.9287 14.25 15.9998C14.25 18.0708 15.9289 19.7498 18 19.7498C20.0711 19.7498 21.75 18.0708 21.75 15.9998V5.99977V5.96645C21.75 5.32364 21.75 4.79335 21.7134 4.36729C21.6757 3.92834 21.5942 3.51613 21.378 3.14384C21.0289 2.54266 20.4649 2.09603 19.7998 1.89384C19.3878 1.76864 18.9679 1.78371 18.532 1.84756C18.1089 1.90953 17.5927 2.03099 16.967 2.17823L16.967 2.17824L16.9345 2.18587L11.2953 3.51275L11.2698 3.51876C10.8509 3.6173 10.4979 3.70035 10.2103 3.79055C9.90781 3.88541 9.62957 4.00201 9.37319 4.19013C8.97475 4.48247 8.66245 4.87678 8.46913 5.33159C8.34474 5.62425 8.29496 5.92179 8.27191 6.23796C8.24998 6.5386 8.24999 6.90123 8.25 7.33151V7.35775V8.99977V15.9995C7.62325 15.5287 6.8442 15.2498 6 15.2498C3.92893 15.2498 2.25 16.9287 2.25 18.9998C2.25 21.0708 3.92893 22.7498 6 22.7498C8.07107 22.7498 9.75 21.0708 9.75 18.9998V9.58536Z" fill="#2F384C"/>
</svg>
