<svg width="24" height="24" viewBox="0 0 24 24" fill="none" xmlns="http://www.w3.org/2000/svg">
<path fill-rule="evenodd" clip-rule="evenodd" d="M14.0822 1.79784L14.0822 1.79785L14.8783 2.48025L14.8783 2.48026C15.211 2.76543 15.3774 2.90802 15.565 3.00958C15.7315 3.09967 15.9099 3.16567 16.0949 3.2056C16.3035 3.25063 16.5226 3.25063 16.9608 3.25063L17.5496 3.25063C18.6697 3.25063 19.2298 3.25063 19.6576 3.46861C20.0339 3.66036 20.3399 3.96632 20.5317 4.34265C20.7496 4.77047 20.7496 5.33052 20.7496 6.45063L20.7496 7.03943L20.7496 7.03946C20.7496 7.47764 20.7496 7.69673 20.7947 7.90532C20.8346 8.09034 20.9006 8.26876 20.9907 8.43523C21.0923 8.6229 21.2348 8.78925 21.52 9.12196L22.2024 9.9181C22.836 10.6572 23.1528 11.0268 23.2735 11.4413C23.3799 11.8066 23.3799 12.1947 23.2735 12.56C23.1528 12.9744 22.836 13.344 22.2024 14.0832L21.52 14.8793C21.2348 15.212 21.0923 15.3784 20.9907 15.566C20.9006 15.7325 20.8346 15.9109 20.7947 16.0959C20.7496 16.3045 20.7496 16.5236 20.7496 16.9618L20.7496 17.5506C20.7496 18.6707 20.7496 19.2308 20.5317 19.6586C20.3399 20.0349 20.0339 20.3409 19.6576 20.5326C19.2298 20.7506 18.6697 20.7506 17.5496 20.7506L16.9608 20.7506C16.5226 20.7506 16.3035 20.7506 16.095 20.7957C15.9099 20.8356 15.7315 20.9016 15.565 20.9917C15.3774 21.0932 15.211 21.2358 14.8783 21.521L14.8783 21.521L14.0822 22.2034C13.343 22.837 12.9735 23.1537 12.559 23.2745C12.1937 23.3809 11.8056 23.3809 11.4403 23.2745C11.0258 23.1537 10.6563 22.837 9.91712 22.2034L9.91711 22.2034L9.12097 21.521C8.78826 21.2358 8.62191 21.0932 8.43424 20.9917C8.26777 20.9016 8.08935 20.8356 7.90433 20.7957C7.69574 20.7506 7.47664 20.7506 7.03844 20.7506L6.41542 20.7506C5.29532 20.7506 4.73527 20.7506 4.30744 20.5326C3.93112 20.3409 3.62516 20.0349 3.43341 19.6586C3.21542 19.2308 3.21542 18.6707 3.21542 17.5506L3.21542 16.9491C3.21542 16.5146 3.21542 16.2974 3.17111 16.0904C3.13181 15.9068 3.06684 15.7297 2.97813 15.5642C2.87813 15.3776 2.73768 15.2119 2.4568 14.8804L1.76957 14.0694C1.1468 13.3344 0.835413 12.9669 0.716605 12.5556C0.611878 12.193 0.611878 11.8082 0.716605 11.4456C0.835413 11.0343 1.1468 10.6668 1.76957 9.93189L2.4568 9.12087L2.45681 9.12086C2.73769 8.78939 2.87813 8.62365 2.97813 8.43709C3.06684 8.2716 3.13181 8.09444 3.17111 7.91084C3.21542 7.70385 3.21542 7.48661 3.21542 7.05213L3.21542 6.45063C3.21542 5.33052 3.21542 4.77047 3.43341 4.34265C3.62516 3.96632 3.93112 3.66036 4.30744 3.46861C4.73527 3.25063 5.29532 3.25063 6.41542 3.25063L7.03844 3.25063C7.47664 3.25063 7.69574 3.25063 7.90433 3.2056C8.08935 3.16567 8.26777 3.09967 8.43424 3.00958C8.62191 2.90801 8.78826 2.76543 9.12097 2.48025L9.12097 2.48025L9.91711 1.79785C10.6563 1.16429 11.0258 0.847516 11.4403 0.726782C11.8056 0.620372 12.1937 0.620372 12.559 0.726782C12.9735 0.847515 13.343 1.16429 14.0822 1.79784ZM12.75 8.00012C12.75 7.58591 12.4142 7.25012 12 7.25012C11.5858 7.25012 11.25 7.58591 11.25 8.00012L11.25 13.0001C11.25 13.4143 11.5858 13.7501 12 13.7501C12.4142 13.7501 12.75 13.4143 12.75 13.0001L12.75 8.00012ZM12 14.7501C11.3096 14.7501 10.75 15.3098 10.75 16.0001C10.75 16.6905 11.3096 17.2501 12 17.2501C12.6903 17.2501 13.25 16.6905 13.25 16.0001C13.25 15.3098 12.6903 14.7501 12 14.7501Z" fill="#2F384C"/>
</svg>
