<svg width="24" height="24" viewBox="0 0 24 24" fill="none" xmlns="http://www.w3.org/2000/svg">
<path fill-rule="evenodd" clip-rule="evenodd" d="M10.8657 1.02409C10.3036 0.837672 9.69638 0.837672 9.1343 1.02409C8.84172 1.12113 8.59112 1.27504 8.34333 1.45922C8.1069 1.63495 7.83714 1.86618 7.5161 2.14137L7.49696 2.15778C6.9505 2.62617 6.79777 2.74591 6.64428 2.81077C6.44777 2.89381 6.23327 2.92518 6.0212 2.90188C5.85557 2.88368 5.67495 2.8127 5.01725 2.52038L2.3046 1.31476C2.07261 1.21165 1.80419 1.23291 1.59132 1.37125C1.37844 1.5096 1.25 1.74624 1.25 2.00012V15.6001V15.6331C1.24999 16.7253 1.24999 17.5908 1.30699 18.2884C1.36527 19.0018 1.48688 19.6054 1.76772 20.1566C2.22312 21.0503 2.94978 21.777 3.84355 22.2324C4.39472 22.5132 4.99834 22.6348 5.71173 22.6931C6.40935 22.7501 7.27484 22.7501 8.36698 22.7501H8.4H20C21.5188 22.7501 22.75 21.5189 22.75 20.0001V16.0001L22.75 15.8843V15.8843C22.7503 15.0663 22.7505 14.5082 22.6222 14.0296C22.2755 12.7355 21.2647 11.7247 19.9706 11.3779C19.6269 11.2858 19.2423 11.2599 18.75 11.2528V2.00012C18.75 1.74624 18.6216 1.5096 18.4087 1.37125C18.1958 1.23291 17.9274 1.21165 17.6954 1.31476L14.9828 2.52038C14.325 2.8127 14.1444 2.88368 13.9788 2.90188C13.7667 2.92518 13.5522 2.89381 13.3557 2.81077C13.2022 2.74591 13.0495 2.62617 12.503 2.15778L12.4839 2.14135L12.4839 2.14134C12.1628 1.86617 11.8931 1.63494 11.6567 1.45922C11.4089 1.27504 11.1583 1.12113 10.8657 1.02409ZM21.25 20.0001C21.25 20.6905 20.6904 21.2501 20 21.2501C19.3096 21.2501 18.75 20.6905 18.75 20.0001V12.7538C19.185 12.7604 19.4025 12.7786 19.5823 12.8268C20.3588 13.0348 20.9653 13.6413 21.1733 14.4178C21.2436 14.6799 21.25 15.0219 21.25 16.0001V20.0001ZM6.25 9C6.25 8.58579 6.58579 8.25 7 8.25H11C11.4142 8.25 11.75 8.58579 11.75 9C11.75 9.41421 11.4142 9.75 11 9.75H7C6.58579 9.75 6.25 9.41421 6.25 9ZM6.25 13C6.25 12.5858 6.58579 12.25 7 12.25H13C13.4142 12.25 13.75 12.5858 13.75 13C13.75 13.4142 13.4142 13.75 13 13.75H7C6.58579 13.75 6.25 13.4142 6.25 13ZM6.25 17C6.25 16.5858 6.58579 16.25 7 16.25H13C13.4142 16.25 13.75 16.5858 13.75 17C13.75 17.4142 13.4142 17.75 13 17.75H7C6.58579 17.75 6.25 17.4142 6.25 17Z" fill="#2F384C"/>
</svg>
