<svg width="24" height="24" viewBox="0 0 24 24" fill="none" xmlns="http://www.w3.org/2000/svg">
<path fill-rule="evenodd" clip-rule="evenodd" d="M10.85 1.25C7.48969 1.25 5.80953 1.25 4.52606 1.90396C3.39708 2.4792 2.4792 3.39708 1.90396 4.52606C1.25 5.80953 1.25 7.48968 1.25 10.85V13.15C1.25 16.5103 1.25 18.1905 1.90396 19.4739C2.4792 20.6029 3.39708 21.5208 4.52606 22.096C5.80953 22.75 7.48968 22.75 10.85 22.75H15.1716L15.25 22.75V19.2V19.1696C15.25 18.6354 15.25 18.1896 15.2797 17.8253C15.3108 17.4454 15.3779 17.0888 15.5497 16.7515C15.8134 16.2341 16.2341 15.8134 16.7515 15.5497C17.0888 15.3779 17.4454 15.3108 17.8253 15.2797C18.1896 15.25 18.6354 15.25 19.1695 15.25H19.1695H19.2H22.75L22.75 15.1716V10.85C22.75 7.48969 22.75 5.80953 22.096 4.52606C21.5208 3.39708 20.6029 2.4792 19.4739 1.90396C18.1905 1.25 16.5103 1.25 13.15 1.25H10.85ZM19.6079 21.4075C18.7829 22.0775 17.7964 22.5151 16.75 22.6783V19.2C16.75 18.6276 16.7506 18.2434 16.7748 17.9475C16.7982 17.6604 16.8401 17.5231 16.8862 17.4325C17.0061 17.1973 17.1973 17.0061 17.4325 16.8862C17.5231 16.8401 17.6604 16.7982 17.9475 16.7748C18.2434 16.7506 18.6276 16.75 19.2 16.75H22.6783C22.5151 17.7964 22.0775 18.7829 21.4075 19.6079C21.212 19.8487 20.9848 20.0759 20.5304 20.5303L20.5303 20.5303L20.5303 20.5304C20.0759 20.9848 19.8487 21.212 19.6079 21.4075ZM8 7.25C7.58579 7.25 7.25 7.58579 7.25 8C7.25 8.41421 7.58579 8.75 8 8.75H16C16.4142 8.75 16.75 8.41421 16.75 8C16.75 7.58579 16.4142 7.25 16 7.25H8ZM8 11.25C7.58579 11.25 7.25 11.5858 7.25 12C7.25 12.4142 7.58579 12.75 8 12.75H14C14.4142 12.75 14.75 12.4142 14.75 12C14.75 11.5858 14.4142 11.25 14 11.25H8ZM8 15.25C7.58579 15.25 7.25 15.5858 7.25 16C7.25 16.4142 7.58579 16.75 8 16.75H10C10.4142 16.75 10.75 16.4142 10.75 16C10.75 15.5858 10.4142 15.25 10 15.25H8Z" fill="#2F384C"/>
</svg>
