<svg width="24" height="24" viewBox="0 0 24 24" fill="none" xmlns="http://www.w3.org/2000/svg">
<g clip-path="url(#clip0_3115_7047)">
<path fill-rule="evenodd" clip-rule="evenodd" d="M1.79019 5.13244C1.66317 4.41271 1.59967 4.05284 1.67762 3.88278C1.79198 3.63329 2.06104 3.4932 2.33102 3.54259C2.51503 3.57625 2.77343 3.83465 3.29023 4.35144L6.93939 8.00061C7.23228 8.2935 7.70716 8.2935 8.00005 8.00061C8.29294 7.70771 8.29294 7.23284 8.00005 6.93995L4.35142 3.29131C3.83483 2.77473 3.57653 2.51643 3.54284 2.3325C3.49337 2.06243 3.63353 1.79324 3.88314 1.6789C4.05314 1.60102 4.41287 1.6645 5.13232 1.79147L14.4967 3.444C15.5561 3.63096 16.0858 3.72444 16.5298 3.89364C18.1489 4.51078 19.3332 5.92228 19.6595 7.62409C19.749 8.09069 19.749 8.62859 19.749 9.70439C19.749 10.1464 19.749 10.3674 19.7263 10.5796C19.6446 11.3433 19.3447 12.0675 18.8624 12.6653C18.7285 12.8314 18.5722 12.9877 18.2597 13.3003L13.3005 18.2602C12.9878 18.5729 12.8314 18.7293 12.6652 18.8634C12.0674 19.3457 11.3433 19.6456 10.5795 19.7274C10.3672 19.7501 10.1461 19.7501 9.70377 19.7501C8.62751 19.7501 8.08937 19.7501 7.62258 19.6606C5.92109 19.3341 4.50985 18.1501 3.89268 16.5312C3.72336 16.0871 3.62984 15.5572 3.4428 14.4973L1.79019 5.13244ZM13 11.0001C13 12.1047 12.1046 13.0001 11 13.0001C9.89542 13.0001 8.99999 12.1047 8.99999 11.0001C8.99999 9.89555 9.89542 9.00012 11 9.00012C12.1046 9.00012 13 9.89555 13 11.0001Z" fill="#2F384C"/>
<path d="M19.7187 13.2198C20.4258 12.5127 21.5722 12.5127 22.2793 13.2198C22.9864 13.9269 22.9864 15.0733 22.2793 15.7804L15.2793 22.7805C14.5722 23.4876 13.4258 23.4876 12.7187 22.7805C12.0116 22.0734 12.0116 20.927 12.7187 20.2199L19.7187 13.2198Z" fill="#2F384C"/>
</g>
<defs>
<clipPath id="clip0_3115_7047">
<rect width="24" height="24" fill="white"/>
</clipPath>
</defs>
</svg>
