<svg width="24" height="24" viewBox="0 0 24 24" fill="none" xmlns="http://www.w3.org/2000/svg">
<path d="M5.08854 1.25C3.8628 1.25 3.24993 1.25 2.7323 1.50169C2.17924 1.7706 1.66362 2.35198 1.4627 2.93321C1.27465 3.4772 1.33894 4.01151 1.46752 5.08015C1.81717 7.98616 2.62472 10.8021 4.14704 13.3812C5.66358 15.9505 7.73481 18.0689 10.2624 19.6373C12.931 21.2931 15.8754 22.1631 18.9199 22.5311C19.9878 22.6601 20.5217 22.7246 21.0659 22.5367C21.6472 22.336 22.2292 21.8202 22.4982 21.2671C22.75 20.7494 22.75 20.1367 22.75 18.9115C22.75 17.9158 22.75 17.418 22.5942 16.9975C22.4144 16.5124 22.0885 16.095 21.6614 15.8029C21.2913 15.5498 20.8084 15.429 19.8424 15.1875L18.7882 14.924C17.7036 14.6528 17.1613 14.5172 16.6256 14.5287C16.1511 14.5388 15.6821 14.6333 15.2406 14.8078C14.7424 15.0047 14.2949 15.3398 13.4 16.0098L12.4298 16.7363C11.7873 17.2174 11.466 17.458 11.063 17.5541C10.7429 17.6304 10.301 17.6136 9.98773 17.513C9.59322 17.3864 9.3399 17.1646 8.83326 16.721C8.21147 16.1767 7.63217 15.5876 7.09778 14.9563C6.64771 14.4246 6.42267 14.1587 6.30394 13.7486C6.20974 13.4233 6.20907 12.9673 6.30231 12.6418C6.41984 12.2314 6.68713 11.9137 7.22172 11.2784L7.71586 10.6911C8.48689 9.77472 8.87241 9.31655 9.10303 8.79474C9.30726 8.33264 9.4221 7.83603 9.44148 7.33118C9.46336 6.7611 9.31813 6.18018 9.02767 5.01836L8.81247 4.15756C8.57099 3.19163 8.45025 2.70867 8.19711 2.33858C7.905 1.91153 7.4876 1.58563 7.00246 1.40583C6.58202 1.25 6.0842 1.25 5.08854 1.25Z" fill="#2F384C"/>
</svg>
