<svg width="24" height="24" viewBox="0 0 24 24" fill="none" xmlns="http://www.w3.org/2000/svg">
<path fill-rule="evenodd" clip-rule="evenodd" d="M11 1.25C5.61522 1.25 1.25 5.61522 1.25 11C1.25 16.3848 5.61522 20.75 11 20.75C13.6922 20.75 16.1307 19.6579 17.8943 17.8943C19.6579 16.1307 20.75 13.6922 20.75 11C20.75 5.61522 16.3848 1.25 11 1.25ZM19.5303 18.4697C19.2374 18.1768 18.7626 18.1768 18.4697 18.4697C18.1768 18.7626 18.1768 19.2374 18.4697 19.5303L20.4697 21.5303C20.7626 21.8232 21.2374 21.8232 21.5303 21.5303C21.8232 21.2374 21.8232 20.7626 21.5303 20.4697L19.5303 18.4697Z" fill="#2F384C"/>
</svg>
