<svg width="24" height="24" viewBox="0 0 24 24" fill="none" xmlns="http://www.w3.org/2000/svg">
<g clip-path="url(#clip0_3115_7127)">
<path d="M6.88154 12.2192C3.45325 10.9006 1.7391 10.2413 1.30796 9.35607C0.935078 8.59041 0.977616 7.68758 1.42084 6.96037C1.93331 6.11955 3.70185 5.62436 7.23894 4.63398L17.234 1.83536C19.4734 1.20832 20.5931 0.894806 21.3615 1.1858C22.0314 1.43952 22.5603 1.96841 22.814 2.63831C23.1049 3.40666 22.7914 4.52637 22.1644 6.76577L19.3657 16.7608C18.3753 20.2979 17.88 22.0664 17.0392 22.5789C16.312 23.0221 15.4092 23.0646 14.6435 22.6917C13.7582 22.2606 13.099 20.5464 11.7804 17.1181L11.0877 15.3167C10.9525 14.9655 10.885 14.7898 10.8813 14.6152C10.878 14.4609 10.9104 14.3079 10.9761 14.1682C11.0504 14.0102 11.1835 13.8772 11.4496 13.611L13.9999 11.0607C14.2928 10.7678 14.2928 10.293 13.9999 10.0001C13.7071 9.70718 13.2322 9.70718 12.9393 10.0001L10.3891 12.5502C10.123 12.8164 9.98991 12.9494 9.83189 13.0238C9.69221 13.0895 9.53921 13.1219 9.38489 13.1186C9.2103 13.1149 9.03466 13.0473 8.68338 12.9122L6.88154 12.2192Z" fill="#2F384C"/>
</g>
<defs>
<clipPath id="clip0_3115_7127">
<rect width="24" height="24" fill="white"/>
</clipPath>
</defs>
</svg>
