<svg width="24" height="24" viewBox="0 0 24 24" fill="none" xmlns="http://www.w3.org/2000/svg">
<path fill-rule="evenodd" clip-rule="evenodd" d="M8.8352 5.25755C9.17103 3.8204 10.4605 2.75 12 2.75C13.5395 2.75 14.829 3.8204 15.1648 5.25755C14.6613 5.25 14.086 5.25 13.4178 5.25H10.5823C9.91405 5.25 9.33872 5.25 8.8352 5.25755ZM7.29684 5.33032C7.62228 3.02407 9.60396 1.25 12 1.25C14.396 1.25 16.3777 3.02407 16.7032 5.33032C17.2085 5.38135 17.623 5.46481 18.0041 5.60129C19.556 6.15705 20.8109 7.3268 21.4741 8.83589C21.8933 9.78978 21.9776 10.9886 22.1462 13.3863C22.3375 16.1074 22.4332 17.468 22.0894 18.5567C21.5451 20.2804 20.2527 21.6669 18.5715 22.3307C17.5096 22.75 16.1456 22.75 13.4178 22.75H10.5823C7.85438 22.75 6.49044 22.75 5.42856 22.3307C3.74728 21.6669 2.45489 20.2804 1.91059 18.5567C1.56682 17.468 1.66248 16.1074 1.85381 13.3863C2.0224 10.9886 2.10669 9.78978 2.52592 8.83589C3.18916 7.3268 4.44405 6.15705 5.99594 5.60129C6.37706 5.46481 6.79152 5.38135 7.29684 5.33032ZM7.99999 11C8.55228 11 8.99999 10.5523 8.99999 10C8.99999 9.44771 8.55228 9 7.99999 9C7.44771 9 6.99999 9.44771 6.99999 10C6.99999 10.5523 7.44771 11 7.99999 11ZM17 10C17 10.5523 16.5523 11 16 11C15.4477 11 15 10.5523 15 10C15 9.44771 15.4477 9 16 9C16.5523 9 17 9.44771 17 10Z" fill="#2F384C"/>
</svg>
