<svg width="24" height="24" viewBox="0 0 24 24" fill="none" xmlns="http://www.w3.org/2000/svg">
<path fill-rule="evenodd" clip-rule="evenodd" d="M7.93141 1.4893C8.82295 1.25 9.88194 1.25 11.9999 1.25C14.1179 1.25 15.1769 1.25 16.0685 1.4893C18.2278 2.0689 19.9804 3.64515 20.785 5.73121C21.1171 6.59248 21.229 7.64555 21.4528 9.75168L21.6892 11.9767C21.9858 14.7686 22.1341 16.1645 21.8778 17.2964C21.3406 19.6679 19.6112 21.5908 17.3097 22.3755C16.2112 22.75 14.8075 22.75 11.9999 22.75C9.19239 22.75 7.78862 22.75 6.69016 22.3755C4.38866 21.5908 2.65927 19.6679 2.12211 17.2964C1.86574 16.1645 2.01405 14.7686 2.31068 11.9767L2.5471 9.75168C2.77087 7.64555 2.88276 6.59248 3.21492 5.73121C4.01942 3.64515 5.77202 2.0689 7.93141 1.4893ZM9.75011 9.00003C9.75011 10.2427 10.7575 11.25 12.0001 11.25C13.2428 11.25 14.2501 10.2427 14.2501 9.00003V7.00003C14.2501 6.58581 14.5859 6.25003 15.0001 6.25003C15.4143 6.25003 15.7501 6.58581 15.7501 7.00003V9.00003C15.7501 11.0711 14.0712 12.75 12.0001 12.75C9.92904 12.75 8.25011 11.0711 8.25011 9.00003V7.00003C8.25011 6.58581 8.5859 6.25003 9.00011 6.25003C9.41432 6.25003 9.75011 6.58581 9.75011 7.00003V9.00003Z" fill="#2F384C"/>
</svg>
