<svg width="24" height="24" viewBox="0 0 24 24" fill="none" xmlns="http://www.w3.org/2000/svg">
<path fill-rule="evenodd" clip-rule="evenodd" d="M12.3519 1.72836C12.9033 1.5 13.6022 1.5 15 1.5C16.3978 1.5 17.0967 1.5 17.6481 1.72836C18.3831 2.03284 18.9672 2.61687 19.2716 3.35195C19.4549 3.79449 19.4911 4.33212 19.4982 5.25H22C22.4142 5.25 22.75 5.58579 22.75 6C22.75 6.41421 22.4142 6.75 22 6.75H19.4982C19.4911 7.66788 19.4549 8.20551 19.2716 8.64805C18.9672 9.38313 18.3831 9.96716 17.6481 10.2716C17.0967 10.5 16.3978 10.5 15 10.5C13.6022 10.5 12.9033 10.5 12.3519 10.2716C11.6169 9.96716 11.0328 9.38313 10.7284 8.64805C10.5 8.09674 10.5 7.39782 10.5 6C10.5 4.60218 10.5 3.90326 10.7284 3.35195C11.0328 2.61687 11.6169 2.03284 12.3519 1.72836ZM6.35195 13.7284C6.90326 13.5 7.60218 13.5 9 13.5C10.3978 13.5 11.0967 13.5 11.6481 13.7284C12.3831 14.0328 12.9672 14.6169 13.2716 15.3519C13.5 15.9033 13.5 16.6022 13.5 18C13.5 19.3978 13.5 20.0967 13.2716 20.6481C12.9672 21.3831 12.3831 21.9672 11.6481 22.2716C11.0967 22.5 10.3978 22.5 9 22.5C7.60218 22.5 6.90326 22.5 6.35195 22.2716C5.61687 21.9672 5.03284 21.3831 4.72836 20.6481C4.54506 20.2055 4.50889 19.6679 4.50175 18.75H2C1.58579 18.75 1.25 18.4142 1.25 18C1.25 17.5858 1.58579 17.25 2 17.25H4.50175C4.50889 16.3321 4.54506 15.7945 4.72836 15.3519C5.03284 14.6169 5.61687 14.0328 6.35195 13.7284ZM2 5.25C1.58579 5.25 1.25 5.58579 1.25 6C1.25 6.41421 1.58579 6.75 2 6.75H8C8.41421 6.75 8.75 6.41421 8.75 6C8.75 5.58579 8.41421 5.25 8 5.25H2ZM16 17.25C15.5858 17.25 15.25 17.5858 15.25 18C15.25 18.4142 15.5858 18.75 16 18.75H22C22.4142 18.75 22.75 18.4142 22.75 18C22.75 17.5858 22.4142 17.25 22 17.25L16 17.25Z" fill="#2F384C"/>
</svg>
