<svg width="24" height="24" viewBox="0 0 24 24" fill="none" xmlns="http://www.w3.org/2000/svg">
<path d="M15.5621 4.44723C14.4311 2.18521 13.8656 1.0542 13.126 0.681093C12.4179 0.32386 11.5822 0.32386 10.874 0.681091C10.1344 1.05419 9.56892 2.18521 8.43791 4.44724C8.13099 5.06106 7.97754 5.36797 7.76834 5.60795C7.49876 5.91719 7.15723 6.15534 6.77386 6.30139C6.47635 6.41473 6.14153 6.45193 5.47188 6.52634C3.13977 6.78546 1.97372 6.91502 1.39896 7.38952C0.657283 8.00182 0.332614 8.9853 0.563974 9.91882C0.743268 10.6423 1.61602 11.4527 3.36154 13.0735C3.90529 13.5784 4.17717 13.8309 4.35485 14.1183C4.62987 14.5631 4.75847 15.083 4.72253 15.6047C4.69931 15.9418 4.57828 16.2868 4.33623 16.9766C3.54952 19.2187 3.15617 20.3398 3.30443 21.0286C3.53549 22.1022 4.4401 22.8993 5.53423 22.9934C6.23626 23.0538 7.29889 22.5225 9.42416 21.4598L10.2112 21.0663C10.8671 20.7384 11.195 20.5744 11.539 20.5099C11.8437 20.4527 12.1564 20.4527 12.461 20.5099C12.805 20.5744 13.133 20.7384 13.7889 21.0663L14.5759 21.4598C16.7012 22.5225 17.7638 23.0538 18.4658 22.9934C19.5599 22.8993 20.4646 22.1022 20.6956 21.0286C20.8439 20.3398 20.4505 19.2187 19.6638 16.9766C19.4218 16.2868 19.3007 15.9418 19.2775 15.6047C19.2416 15.083 19.3702 14.5631 19.6452 14.1183C19.8229 13.8309 20.0948 13.5784 20.6385 13.0735C22.384 11.4527 23.2568 10.6423 23.4361 9.91882C23.6674 8.9853 23.3428 8.00182 22.6011 7.38952C22.0263 6.91502 20.8603 6.78546 18.5282 6.52634C17.8585 6.45193 17.5237 6.41473 17.2262 6.30139C16.8428 6.15534 16.5013 5.91719 16.2317 5.60795C16.0225 5.36797 15.8691 5.06106 15.5621 4.44723Z" fill="#2F384C"/>
</svg>
