<svg width="24" height="24" viewBox="0 0 24 24" fill="none" xmlns="http://www.w3.org/2000/svg">
<path fill-rule="evenodd" clip-rule="evenodd" d="M6.05 1.25C4.36984 1.25 3.52976 1.25 2.88803 1.57698C2.32354 1.8646 1.8646 2.32354 1.57698 2.88803C1.25 3.52976 1.25 4.36984 1.25 6.05V17.95C1.25 19.6302 1.25 20.4702 1.57698 21.112C1.8646 21.6765 2.32354 22.1354 2.88803 22.423C3.52976 22.75 4.36984 22.75 6.05 22.75H7.99829L8 22.75L11.95 22.75C12.23 22.75 12.37 22.75 12.477 22.6955C12.5711 22.6476 12.6476 22.5711 12.6955 22.477C12.75 22.37 12.75 22.23 12.75 21.95V6.05C12.75 4.36984 12.75 3.52976 12.423 2.88803C12.1354 2.32354 11.6765 1.8646 11.112 1.57698C10.4702 1.25 9.63016 1.25 7.95 1.25H6.05ZM8 17C8 17.5523 7.55228 18 7 18C6.44772 18 6 17.5523 6 17C6 16.4477 6.44772 16 7 16C7.55228 16 8 16.4477 8 17Z" fill="#2F384C"/>
<path d="M14.6285 3.31026C14.3862 3.55265 14.25 3.88139 14.25 4.22417V18.5513C15.9315 16.4838 17.5414 14.0931 19.2958 11.9059C20.3798 10.5544 20.9218 9.87873 21.0916 9.36381C21.3555 8.56328 21.3217 7.94672 20.972 7.1798C20.747 6.68649 20.2176 6.15716 19.1589 5.09851L17.3703 3.31015C16.6131 2.55307 15.3856 2.55312 14.6285 3.31026Z" fill="#2F384C"/>
<path d="M21.7801 12.25C21.4885 12.25 21.2124 12.3812 21.0282 12.6072L14.25 20.926V21.95C14.25 22.23 14.25 22.37 14.3045 22.477C14.3524 22.5711 14.4289 22.6476 14.523 22.6955C14.63 22.75 14.77 22.75 15.05 22.75H17.5C18.6622 22.75 19.2434 22.75 19.7219 22.6301C21.1536 22.2715 22.2715 21.1536 22.6301 19.7219C22.75 19.2434 22.75 18.6622 22.75 17.5V13.2199C22.75 12.6842 22.3158 12.25 21.7801 12.25Z" fill="#2F384C"/>
</svg>
