<svg width="24" height="24" viewBox="0 0 24 24" fill="none" xmlns="http://www.w3.org/2000/svg">
<path fill-rule="evenodd" clip-rule="evenodd" d="M8.25 2.25V6C8.25 6.41421 8.58579 6.75 9 6.75C9.41421 6.75 9.75 6.41421 9.75 6V2.25H16.35C18.5902 2.25 19.7103 2.25 20.566 2.68597C21.3186 3.06947 21.9305 3.68139 22.314 4.43404C22.75 5.28969 22.75 6.40979 22.75 8.65V9.41667C22.75 9.60076 22.6008 9.75 22.4167 9.75H22C20.7574 9.75 19.75 10.7574 19.75 12C19.75 13.2426 20.7574 14.25 22 14.25H22.4167C22.6008 14.25 22.75 14.3992 22.75 14.5833V15.35C22.75 17.5902 22.75 18.7103 22.314 19.566C21.9305 20.3186 21.3186 20.9305 20.566 21.314C19.7103 21.75 18.5902 21.75 16.35 21.75H9.75V18C9.75 17.5858 9.41421 17.25 9 17.25C8.58579 17.25 8.25 17.5858 8.25 18V21.75H7.65C5.40979 21.75 4.28969 21.75 3.43404 21.314C2.68139 20.9305 2.06947 20.3186 1.68597 19.566C1.25 18.7103 1.25 17.5902 1.25 15.35V14.5833C1.25 14.3992 1.39924 14.25 1.58333 14.25H2C3.24264 14.25 4.25 13.2426 4.25 12C4.25 10.7574 3.24264 9.75 2 9.75H1.58333C1.39924 9.75 1.25 9.60076 1.25 9.41667V8.65C1.25 6.40979 1.25 5.28969 1.68597 4.43404C2.06947 3.68139 2.68139 3.06947 3.43404 2.68597C4.28969 2.25 5.40979 2.25 7.65 2.25H8.25ZM9.75 10C9.75 9.58579 9.41421 9.25 9 9.25C8.58579 9.25 8.25 9.58579 8.25 10V14C8.25 14.4142 8.58579 14.75 9 14.75C9.41421 14.75 9.75 14.4142 9.75 14V10Z" fill="#2F384C"/>
</svg>
