<svg width="24" height="24" viewBox="0 0 24 24" fill="none" xmlns="http://www.w3.org/2000/svg">
<path fill-rule="evenodd" clip-rule="evenodd" d="M10.621 1.25011L10.7298 1.25021H13.2702L13.379 1.25011C13.8916 1.24934 14.3415 1.24867 14.7424 1.40634C15.0929 1.5442 15.4032 1.76786 15.6449 2.05682C15.9212 2.38727 16.0629 2.8143 16.2242 3.30084L16.2585 3.4041L16.5406 4.25021H20H22C22.4142 4.25021 22.75 4.586 22.75 5.00021C22.75 5.41443 22.4142 5.75021 22 5.75021H20.7072L20.1031 16.0201L20.1012 16.0521L20.1012 16.0522V16.0522C20.0404 17.0853 19.9922 17.9051 19.9003 18.5654C19.8062 19.2415 19.6594 19.8115 19.3684 20.3289C18.8953 21.1699 18.1773 21.847 17.3099 22.2698C16.7763 22.53 16.1987 22.6431 15.5182 22.6973C14.8537 22.7502 14.0323 22.7502 12.9973 22.7502H12.9654H11.0346H11.0027C9.9677 22.7502 9.14635 22.7502 8.48175 22.6973C7.80125 22.6431 7.22368 22.53 6.6901 22.2698C5.8227 21.847 5.10467 21.1699 4.63159 20.3289C4.34057 19.8115 4.19376 19.2415 4.09968 18.5654C4.0078 17.9051 3.95958 17.0851 3.89881 16.052L3.89693 16.0201L3.29282 5.75021H2C1.58579 5.75021 1.25 5.41443 1.25 5.00021C1.25 4.586 1.58579 4.25021 2 4.25021H4H7.45943L7.74147 3.4041L7.77577 3.30085C7.93715 2.81431 8.07878 2.38727 8.35513 2.05682C8.59677 1.76786 8.90709 1.5442 9.25763 1.40634C9.65851 1.24867 10.1084 1.24934 10.621 1.25011ZM14.9594 4.25021H9.04057L9.16449 3.87844C9.38144 3.22761 9.43668 3.10174 9.5058 3.01908C9.58635 2.92276 9.68979 2.84821 9.80663 2.80225C9.9069 2.76282 10.0438 2.75021 10.7298 2.75021H13.2702C13.9562 2.75021 14.0931 2.76282 14.1934 2.80225C14.3102 2.84821 14.4137 2.92276 14.4942 3.01908C14.5633 3.10174 14.6186 3.22761 14.8355 3.87844L14.9594 4.25021ZM10.75 10C10.75 9.58579 10.4142 9.25 10 9.25C9.58579 9.25 9.25 9.58579 9.25 10V17C9.25 17.4142 9.58579 17.75 10 17.75C10.4142 17.75 10.75 17.4142 10.75 17V10ZM14.75 10C14.75 9.58579 14.4142 9.25 14 9.25C13.5858 9.25 13.25 9.58579 13.25 10V14C13.25 14.4142 13.5858 14.75 14 14.75C14.4142 14.75 14.75 14.4142 14.75 14V10Z" fill="#2F384C"/>
</svg>
