<svg width="24" height="24" viewBox="0 0 24 24" fill="none" xmlns="http://www.w3.org/2000/svg">
<path fill-rule="evenodd" clip-rule="evenodd" d="M0.25 11.5C0.25 8.46942 0.25 6.95412 0.784817 5.77376C1.38557 4.44786 2.44786 3.38557 3.77376 2.78482C4.95412 2.25 6.46942 2.25 9.5 2.25L12.0532 2.25C12.7003 2.25 13.0238 2.25 13.2965 2.27494C16.1784 2.53853 18.4615 4.82162 18.7251 7.7035C18.75 7.97618 18.75 8.29972 18.75 8.94679C18.75 9.00636 18.75 9.03614 18.7524 9.05325C18.7789 9.24448 19.003 9.33472 19.1547 9.21528C19.1682 9.20459 19.1889 9.18312 19.2302 9.14018L19.3056 9.06178C20.1356 8.19851 20.5506 7.76687 20.8641 7.61201C21.9343 7.08322 23.2264 7.60366 23.6314 8.72661C23.75 9.05548 23.75 9.65428 23.75 10.8519L23.75 13.1482C23.75 14.3458 23.75 14.9446 23.6314 15.2734C23.2264 16.3964 21.9343 16.9168 20.8641 16.388C20.5507 16.2332 20.1356 15.8015 19.3056 14.9383L19.2302 14.8599C19.1889 14.8169 19.1682 14.7955 19.1547 14.7848C19.003 14.6653 18.7789 14.7556 18.7524 14.9468C18.75 14.9639 18.75 14.9937 18.75 15.0533C18.75 15.7003 18.75 16.0238 18.7251 16.2964C18.4615 19.1784 16.1784 21.4615 13.2964 21.7251C13.0238 21.75 12.7003 21.75 12.0533 21.75H9.5C6.46942 21.75 4.95412 21.75 3.77376 21.2152C2.44786 20.6144 1.38557 19.5521 0.784817 18.2262C0.25 17.0459 0.25 15.5306 0.25 12.5L0.25 11.5ZM13.5 9C14.3284 9 15 8.32843 15 7.5C15 6.67157 14.3284 6 13.5 6C12.6716 6 12 6.67157 12 7.5C12 8.32843 12.6716 9 13.5 9Z" fill="#2F384C"/>
</svg>
