<svg width="24" height="24" viewBox="0 0 24 24" fill="none" xmlns="http://www.w3.org/2000/svg">
<path fill-rule="evenodd" clip-rule="evenodd" d="M1.53033 0.46967C1.23744 0.176777 0.762563 0.176777 0.46967 0.46967C0.176777 0.762563 0.176777 1.23744 0.46967 1.53033L2.43102 3.49168C2.02064 3.81656 1.65624 4.19619 1.34815 4.62023C0.762324 5.42656 0.500006 6.37094 0.373728 7.53648C0.249985 8.67861 0.249991 10.1182 0.25 11.9548L0.25 12L0.25 12.0452C0.249991 13.8818 0.249985 15.3214 0.373728 16.4635C0.500006 17.6291 0.762324 18.5734 1.34815 19.3798C1.70281 19.8679 2.13209 20.2972 2.62023 20.6518C3.42656 21.2377 4.37094 21.5 5.53648 21.6263C6.67861 21.75 8.1182 21.75 9.95473 21.75L10 21.75L10.0453 21.75L10.0453 21.75C11.8818 21.75 13.3214 21.75 14.4635 21.6263C15.6291 21.5 16.5734 21.2377 17.3798 20.6518C17.8038 20.3438 18.1834 19.9794 18.5083 19.569L20.9697 22.0303C21.2626 22.3232 21.7374 22.3232 22.0303 22.0303C22.3232 21.7374 22.3232 21.2626 22.0303 20.9697L18.9093 17.8486L4.15136 3.0907L1.53033 0.46967ZM10 3.75C11.8916 3.75 13.25 3.75103 14.302 3.865C15.3399 3.97745 15.9901 4.19259 16.4981 4.56168C16.8589 4.82382 17.1762 5.14111 17.4383 5.50191C17.9509 6.20746 18.158 7.17075 18.2215 9.02568C18.2499 9.85445 18.25 10.8269 18.25 12L18.25 12.0026L18.25 12.0053L18.25 12.0079L18.25 12.0105L18.25 12.0132L18.25 12.0158L18.25 12.0184L18.25 12.0211L18.25 12.0237L18.25 12.0263L18.25 12.0289L18.25 12.0316L18.25 12.0342L18.25 12.0368L18.25 12.0394L18.25 12.0421L18.25 12.0447L18.25 12.0473L18.25 12.0499L18.25 12.0525L18.25 12.0551L18.25 12.0577L18.25 12.0604L18.25 12.063L18.25 12.0656L18.25 12.0682L18.25 12.0708L18.25 12.0734L18.25 12.076L18.25 12.0786L18.25 12.0812L18.25 12.0838L18.25 12.0864L18.25 12.089L18.25 12.0916L18.25 12.0942L18.25 12.0968L18.25 12.0994L18.25 12.102L18.25 12.1046L18.25 12.1072L18.25 12.1097L18.25 12.1123L18.25 12.1149L18.25 12.1175L18.25 12.1201L18.25 12.1227L18.25 12.1253L18.25 12.1278L18.25 12.1304L18.25 12.133L18.25 12.1356L18.25 12.1381L18.25 12.1407L18.25 12.1433L18.25 12.1459L18.25 12.1484L18.25 12.151L18.25 12.1536L18.25 12.1561L18.25 12.1587L18.25 12.1613L18.25 12.1638L18.25 12.1664L18.25 12.169L18.25 12.1715L18.25 12.1741L18.25 12.1766L18.25 12.1792L18.25 12.1817L18.25 12.1843L18.25 12.1868L18.25 12.1894L18.25 12.1919L18.25 12.1945L18.25 12.197L18.25 12.1996L18.25 12.2021L18.25 12.2047L18.25 12.2072L18.25 12.2098L18.25 12.2123L18.25 12.2148L18.25 12.2174L18.25 12.2199L18.25 12.2224L18.25 12.225L18.25 12.2275L18.25 12.23L18.25 12.2326L18.25 12.2351L18.25 12.2376L18.25 12.2402L18.25 12.2427L18.25 12.2452L18.25 12.2477L18.25 12.2502L18.25 12.2528L18.25 12.2553L18.25 12.2578L18.25 12.2603L18.25 12.2628L18.25 12.2653L18.25 12.2679L18.25 12.2704L18.25 12.2729L18.25 12.2754L18.25 12.2779L18.25 12.2804L18.25 12.2829L18.25 12.2854L18.25 12.2879L18.25 12.2904L18.25 12.2929L18.25 12.2954L18.25 12.2979L18.25 12.3004L18.25 12.3029L18.25 12.3054L18.25 12.3079L18.25 12.3104L18.25 12.3129L18.25 12.3153L18.25 12.3178L18.25 12.3203L18.25 12.3228L18.25 12.3253L18.25 12.3278L18.25 12.3302L18.25 12.3327L18.25 12.3352L18.25 12.3377L18.25 12.3401L18.25 12.3426L18.25 12.3451L18.25 12.3476L18.25 12.35L18.25 12.3525L18.25 12.355L18.25 12.3574L18.25 12.3599L18.25 12.3624L18.25 12.3648L18.25 12.3673L18.25 12.3697L18.25 12.3722L18.25 12.3747L18.25 12.3771L18.25 12.3796L18.25 12.382L18.25 12.3845L18.25 12.3869L18.25 12.3894L18.25 12.3918L18.25 12.3943L18.25 12.3967L18.25 12.3991L18.25 12.4016L18.25 12.404L18.25 12.4065L18.25 12.4089L18.25 12.4113L18.25 12.4138L18.25 12.4162L18.25 12.4186L18.25 12.4211L18.25 12.4235L18.25 12.4259L18.25 12.4283L18.25 12.4308L18.25 12.4332L18.25 12.4356L18.25 12.438L18.25 12.4405L18.25 12.4429L18.25 12.4453L18.25 12.4477L18.25 12.4501L18.25 12.4525L18.25 12.4549L18.25 12.4574L18.25 12.4598L18.25 12.4622L18.25 12.4646L18.25 12.467L18.25 12.4694L18.25 12.4718L18.25 12.4742L18.25 12.4766L18.25 12.479L18.25 12.4814L18.25 12.4838L18.25 12.4862L18.25 12.4886L18.25 12.4909L18.25 12.4933L18.25 12.4957L18.25 12.4981L18.25 12.5005L18.25 12.5029L18.25 12.5053L18.25 12.5076L18.25 12.51L18.25 12.5124L18.25 12.5148L18.25 12.5172L18.25 12.5195L18.25 12.5219L18.25 12.5243L18.25 12.5266L18.25 12.529L18.25 12.5314L18.25 12.5337L18.25 12.5361L18.25 12.5385L18.25 12.5408L18.25 12.5432L18.25 12.5455L18.25 12.5479L18.25 12.5503L18.25 12.5526L18.25 12.555L18.25 12.5573L18.25 12.5597L18.25 12.562L18.25 12.5644L18.25 12.5667L18.25 12.5691L18.25 12.5714L18.25 12.5737L18.25 12.5761L18.25 12.5784L18.25 12.5808L18.25 12.5831L18.25 12.5854L18.25 12.5878L18.25 12.5901L18.25 12.5924L18.25 12.5947L18.25 12.5971L18.25 12.5994L18.25 12.6017L18.25 12.604L18.25 12.6064L18.25 12.6087L18.25 12.611L18.25 12.6133L18.25 12.6156L18.25 12.6179L18.25 12.6203L18.25 12.6226L18.25 12.6249L18.25 12.6272L18.25 12.6295L18.25 12.6318L18.25 12.6341L18.25 12.6364L18.25 12.6387L18.25 12.641L18.25 12.6433L18.25 12.6456L18.25 12.6479L18.25 12.6502L18.25 12.6525L18.25 12.6548L18.25 12.6571L18.25 12.6593L18.25 12.6616L18.25 12.6639L18.25 12.6662L18.25 12.6685L18.25 12.6708L18.25 12.673L18.25 12.6753L18.25 12.6776L18.25 12.6799L18.25 12.6821L18.25 12.6844L18.25 12.6867L18.25 12.6889L18.25 12.6912L18.25 12.6935L18.25 12.6957L18.25 12.698L18.25 12.7003L18.25 12.7025L18.25 12.7048L18.25 12.707L18.25 12.7093L18.25 12.7115L18.25 12.7138L18.25 12.716L18.25 12.7183L18.25 12.7205L18.25 12.7228L18.25 12.725L18.25 12.7273L18.25 12.7295L18.25 12.7317L18.25 12.734L18.25 12.7362L18.25 12.7384L18.25 12.7407L18.25 12.7429L18.25 12.7451L18.25 12.7474L18.25 12.7496L18.25 12.7518L18.25 12.754L18.25 12.7563L18.25 12.7585L18.25 12.7607L18.25 12.7629L18.25 12.7651L18.25 12.7674L18.25 12.7696L18.25 12.7718L18.25 12.774L18.25 12.7762L18.25 12.7784L18.25 12.7806L18.25 12.7828L18.25 12.785L18.25 12.7872L18.25 12.7894L18.25 12.7916L18.25 12.7938L18.25 12.796L18.25 12.7982L18.25 12.8004L18.25 12.8026L18.25 12.8048L18.25 12.807L18.25 12.8091L18.25 12.8113L18.25 12.8135L18.25 12.8157L18.25 12.8179L18.25 12.82L18.25 12.8222L18.25 12.8244L18.25 12.8266L18.25 12.8287L18.25 12.8309L18.25 12.8331L18.25 12.8352L18.25 12.8374L18.25 12.8396L18.25 12.8417L18.25 12.8439L18.25 12.846L18.25 12.8482L18.25 12.8504L18.25 12.8525L18.25 12.8547L18.25 12.8568L18.25 12.859L18.25 12.8611L18.25 12.8633L18.25 12.8654L18.25 12.8675L18.25 12.8697L18.25 12.8718L18.25 12.874L18.25 12.8761L18.25 12.8782L18.25 12.8804L18.25 12.8825L18.25 12.8846L18.25 12.8867L18.25 12.8889L18.25 12.891L18.25 12.8931L18.25 12.8952L18.25 12.8974L18.25 12.8995L18.25 12.9016L18.25 12.9037L18.25 12.9058L18.25 12.9079L18.25 12.91L18.25 12.9122L18.25 12.9143L18.25 12.9164L18.25 12.9185L18.25 12.9206L18.25 12.9227L18.25 12.9248L18.25 12.9269L18.25 12.929L18.25 12.9311L18.25 12.9331L18.25 12.9352L18.25 12.9373L18.25 12.9394L18.25 12.9415L18.25 12.9436L18.25 12.9457L18.25 12.9477L18.25 12.9498L18.25 12.9519L18.25 12.954L18.25 12.9561L18.25 12.9581L18.25 12.9602L18.25 12.9623L18.25 12.9643L18.25 12.9664L18.25 12.9685L18.25 12.9705L18.25 12.9726L18.25 12.9746L18.25 12.9767L18.25 12.9788L18.25 12.9808L18.25 12.9829L18.25 12.9849L18.25 12.987L18.25 12.989L18.25 12.9911L18.25 12.9931L18.25 12.9951L18.25 12.9972L18.25 12.9992L18.25 13.0013L18.25 13.0033L18.25 13.0053L18.25 13.0074L18.25 13.0094L18.25 13.0114L18.25 13.0134L18.25 13.0155L18.25 13.0175L18.25 13.0195L18.25 13.0215L18.25 13.0236L18.25 13.0256L18.25 13.0276L18.25 13.0296L18.25 13.0316L18.25 13.0336L18.25 13.0356L18.25 13.0376L18.25 13.0396L18.25 13.0416L18.25 13.0437L18.25 13.0457L18.25 13.0476L18.25 13.0496L18.25 13.0516L18.25 13.0536L18.25 13.0556L18.25 13.0576L18.25 13.0596L18.25 13.0616L18.25 13.0636L18.25 13.0656L18.25 13.0675L18.25 13.0695L18.25 13.0715L18.25 13.0735L18.25 13.0754L18.25 13.0774L18.25 13.0794L18.25 13.0814L18.25 13.0833L18.25 13.0853L18.25 13.0873L18.25 13.0892L18.25 13.0912L18.25 13.0931L18.25 13.0951L18.25 13.097L18.25 13.099L18.25 13.101L18.25 13.1029L18.25 13.1049L18.25 13.1068L18.25 13.1087L18.25 13.1107L18.25 13.1126L18.25 13.1146L18.25 13.1165L18.25 13.1184L18.25 13.1204L18.25 13.1223L18.25 13.1242L18.25 13.1262L18.25 13.1281L18.25 13.13L18.25 13.1319L18.25 13.1339L18.25 13.1358L18.25 13.1377L18.25 13.1396L18.25 13.1415L18.25 13.1434L18.25 13.1454L18.25 13.1473L18.25 13.1492L18.25 13.1511L18.25 13.153L18.25 13.1549L18.25 13.1568L18.25 13.1587L18.25 13.1606L18.25 13.1625L18.25 13.1644L18.25 13.1663L18.25 13.1682L18.25 13.17L18.25 13.1719L18.25 13.2066C18.2499 13.3759 18.2498 13.5248 18.2692 13.6724C18.3208 14.0639 18.4745 14.435 18.7149 14.7484C18.8055 14.8665 18.911 14.9718 19.0308 15.0915L19.0554 15.1161L19.0703 15.131C19.4125 15.4732 19.6896 15.7503 19.9154 15.9546C20.1335 16.152 20.3726 16.3471 20.6389 16.4574C21.787 16.933 23.1032 16.3878 23.5787 15.2398C23.689 14.9734 23.7201 14.6664 23.7348 14.3726C23.75 14.0684 23.75 13.6767 23.75 13.1927L23.75 13.1716L23.75 10.7793L23.75 10.7417C23.75 10.0041 23.75 9.39867 23.7071 8.92874C23.6646 8.46197 23.5711 7.98332 23.273 7.6018C22.8578 7.07048 22.2263 6.75334 21.5522 6.73769C21.0682 6.72646 20.6284 6.93735 20.2286 7.18196C20.0472 7.29298 19.8488 7.42744 19.6315 7.582C19.5064 6.38846 19.2407 5.43066 18.6518 4.62023C18.2972 4.13209 17.8679 3.70281 17.3798 3.34815C16.5734 2.76232 15.6291 2.50001 14.4635 2.37373C13.3214 2.24999 11.8818 2.24999 10.0453 2.25L10.0453 2.25L10 2.25L9.98892 2.25C8.82887 2.25 7.83151 2.25 6.97432 2.27937C6.56035 2.29355 6.23626 2.64064 6.25044 3.05461C6.26462 3.46858 6.61171 3.79267 7.02568 3.77849C7.85445 3.75009 8.82692 3.75 10 3.75Z" fill="#2F384C"/>
</svg>
