<svg width="24" height="24" viewBox="0 0 24 24" fill="none" xmlns="http://www.w3.org/2000/svg">
<path fill-rule="evenodd" clip-rule="evenodd" d="M14.6 3.92697C14.75 4.34024 14.75 5.23729 14.75 7.03138L14.75 16.9687L14.75 16.9687C14.75 18.7628 14.75 19.6598 14.6 20.0731C14.0304 21.6424 12.1122 22.2232 10.7678 21.2334C10.4137 20.9727 9.91616 20.2263 8.92099 18.7336L8.92097 18.7336L8.92096 18.7335C8.64524 18.32 8.50738 18.1132 8.35218 17.9369C7.7951 17.3043 7.02842 16.894 6.19304 16.7814C5.96031 16.75 5.71177 16.75 5.2147 16.75L4.87932 16.75C3.82764 16.75 3.3018 16.75 2.88152 16.5943C2.19794 16.3411 1.65894 15.8021 1.4057 15.1185C1.25 14.6982 1.25 14.1724 1.25 13.1207L1.25 10.8793C1.25 9.82767 1.25 9.30183 1.4057 8.88155C1.65894 8.19797 2.19794 7.65897 2.88152 7.40573C3.3018 7.25003 3.82764 7.25003 4.87932 7.25003L5.2147 7.25003L5.21471 7.25003C5.71178 7.25003 5.96031 7.25003 6.19304 7.21865C7.02842 7.10604 7.7951 6.69573 8.35218 6.06312C8.50738 5.88688 8.64524 5.68008 8.92097 5.26649L8.92097 5.26649C9.91615 3.77371 10.4137 3.02733 10.7678 2.76667C12.1122 1.77686 14.0304 2.35767 14.6 3.92697ZM18.4164 5.37616C18.0719 5.14613 17.6062 5.23889 17.3761 5.58335C17.1461 5.92782 17.2389 6.39354 17.5833 6.62358C19.1509 7.67039 20.2499 9.66476 20.2499 11.9999C20.2499 14.335 19.1509 16.3294 17.5833 17.3762C17.2389 17.6062 17.1461 18.0719 17.3761 18.4164C17.6062 18.7609 18.0719 18.8536 18.4164 18.6236C20.4357 17.2751 21.7499 14.7925 21.7499 11.9999C21.7499 9.20729 20.4357 6.72466 18.4164 5.37616ZM17.4164 9.37616C17.0719 9.14613 16.6062 9.23889 16.3761 9.58335C16.1461 9.92782 16.2389 10.3935 16.5833 10.6236C16.9553 10.872 17.2499 11.374 17.2499 11.9999C17.2499 12.6258 16.9553 13.1278 16.5833 13.3762C16.2389 13.6062 16.1461 14.0719 16.3761 14.4164C16.6062 14.7609 17.0719 14.8536 17.4164 14.6236C18.2401 14.0735 18.7499 13.0832 18.7499 11.9999C18.7499 10.9165 18.2401 9.92623 17.4164 9.37616Z" fill="#2F384C"/>
</svg>
