<svg width="24" height="24" viewBox="0 0 24 24" fill="none" xmlns="http://www.w3.org/2000/svg">
<path fill-rule="evenodd" clip-rule="evenodd" d="M2.53033 1.46967C2.23744 1.17678 1.76256 1.17678 1.46967 1.46967C1.17678 1.76256 1.17678 2.23744 1.46967 2.53033L4.47382 5.53448C3.69648 6.84207 3.25 8.36976 3.25 10C3.25 12.6044 4.38865 14.9434 6.19285 16.5453C7.73772 17.9169 9.77157 18.75 12 18.75C13.6313 18.75 15.1583 18.3036 16.4656 17.5263L17.555 18.6157C15.9544 19.6498 14.0473 20.25 12 20.25C9.46681 20.25 7.14827 19.3311 5.35951 17.8084C5.22743 17.9749 5.08674 18.1529 4.95625 18.3311C4.64174 18.7605 4.29501 19.3076 4.21218 19.9388C4.12089 20.6344 4.36192 21.2999 4.9461 21.9069C5.43137 22.4112 6.11628 22.5877 6.85158 22.6688C7.58729 22.75 8.55212 22.75 9.75293 22.75L14.2471 22.75C15.4479 22.75 16.4127 22.75 17.1484 22.6688C17.8837 22.5877 18.5686 22.4112 19.0539 21.9069C19.401 21.5462 19.6064 21.1582 19.7028 20.7635L21.4697 22.5303C21.7626 22.8232 22.2374 22.8232 22.5303 22.5303C22.8232 22.2374 22.8232 21.7626 22.5303 21.4697L18.8086 17.7479L18.763 17.7024L17.6998 16.6391L5.36088 4.30022L2.53033 1.46967ZM8.37555 3.7195C9.44117 3.10308 10.6782 2.75004 12 2.75004C16.0041 2.75004 19.25 5.99598 19.25 10C19.25 11.3218 18.897 12.5589 18.2805 13.6245C18.0731 13.983 18.1957 14.4418 18.5542 14.6492C18.9128 14.8567 19.3715 14.7341 19.579 14.3756C20.3239 13.0878 20.75 11.5925 20.75 10C20.75 5.16755 16.8325 1.25004 12 1.25004C10.4075 1.25004 8.91224 1.67616 7.62446 2.42109C7.26592 2.6285 7.1434 3.0873 7.3508 3.44584C7.55821 3.80439 8.01701 3.92691 8.37555 3.7195ZM12 7.25C11.5858 7.25 11.25 7.58579 11.25 8C11.25 8.41422 11.5858 8.75 12 8.75C12.6904 8.75 13.25 9.30965 13.25 10C13.25 10.4142 13.5858 10.75 14 10.75C14.4142 10.75 14.75 10.4142 14.75 10C14.75 8.48122 13.5188 7.25 12 7.25Z" fill="#2F384C"/>
</svg>
