<svg width="24" height="24" viewBox="0 0 24 24" fill="none" xmlns="http://www.w3.org/2000/svg">
<path fill-rule="evenodd" clip-rule="evenodd" d="M11.9999 1.25C7.16744 1.25 3.24994 5.16751 3.24994 10C3.24994 14.8325 7.16744 18.75 11.9999 18.75C16.8324 18.75 20.7499 14.8325 20.7499 10C20.7499 5.16751 16.8324 1.25 11.9999 1.25ZM11.9999 12C13.1045 12 13.9999 11.1046 13.9999 10C13.9999 8.89543 13.1045 8 11.9999 8C10.8954 8 9.99994 8.89543 9.99994 10C9.99994 11.1046 10.8954 12 11.9999 12Z" fill="#2F384C"/>
<path d="M5.80851 18.1695C5.62882 18.0331 5.53898 17.9649 5.46316 17.9388C5.30216 17.8834 5.14656 17.9064 5.00839 18.0058C4.94333 18.0527 4.88237 18.1365 4.76045 18.3041C3.96974 19.3914 3.57438 19.935 3.49034 20.3738C3.31846 21.2712 3.77667 22.171 4.60355 22.5599C5.00786 22.75 5.68003 22.75 7.02439 22.75H16.9755C18.3198 22.75 18.992 22.75 19.3963 22.5599C20.2232 22.171 20.6814 21.2712 20.5095 20.3738C20.4255 19.935 20.0301 19.3914 19.2394 18.3041C19.1175 18.1365 19.0565 18.0527 18.9915 18.0059C18.8533 17.9064 18.6977 17.8834 18.5367 17.9388C18.4609 17.9649 18.371 18.0331 18.1914 18.1695C16.4712 19.4751 14.3261 20.25 11.9999 20.25C9.67381 20.25 7.52865 19.4751 5.80851 18.1695Z" fill="#2F384C"/>
</svg>
