<svg width="24" height="24" viewBox="0 0 24 24" fill="none" xmlns="http://www.w3.org/2000/svg">
<path fill-rule="evenodd" clip-rule="evenodd" d="M4.49279 4.30556C4.33451 4.84394 4.24993 5.41118 4.24993 6.00001C4.24993 9.83223 7.83236 12.75 11.9999 12.75C15.5643 12.75 18.2499 15.2048 18.2499 18C18.2499 19.518 17.4579 20.9356 16.1631 21.9142C14.8827 22.4525 13.4761 22.75 12 22.75C6.06294 22.75 1.25 17.9371 1.25 12C1.25 8.98385 2.49215 6.25782 4.49279 4.30556ZM7.83661 2.08594C6.54194 3.06449 5.74993 4.48205 5.74993 6.00001C5.74993 8.7952 8.43552 11.25 11.9999 11.25C16.1675 11.25 19.7499 14.1678 19.7499 18C19.7499 18.5889 19.6653 19.1562 19.507 19.6946C21.5078 17.7423 22.75 15.0162 22.75 12C22.75 6.06294 17.9371 1.25 12 1.25C10.5238 1.25 9.11711 1.54755 7.83661 2.08594ZM10.9999 4.75025C10.3096 4.75025 9.74993 5.3099 9.74993 6.00025C9.74993 6.69061 10.3096 7.25025 10.9999 7.25025C11.6903 7.25025 12.2499 6.69061 12.2499 6.00025C12.2499 5.3099 11.6903 4.75025 10.9999 4.75025ZM12.9999 16.7503C12.3096 16.7503 11.7499 17.3099 11.7499 18.0002C11.7499 18.6906 12.3096 19.2502 12.9999 19.2503C13.6903 19.2503 14.2499 18.6906 14.2499 18.0003C14.2499 17.3099 13.6903 16.7503 12.9999 16.7503Z" fill="#2F384C"/>
</svg>
