<svg width="24" height="24" viewBox="0 0 24 24" fill="none" xmlns="http://www.w3.org/2000/svg">
<path d="M5.33333 5.33321C6.32099 5.13568 7.31388 4.52906 7.87258 3.691C8.57693 2.63448 9.7627 1.99988 11.0325 1.99988H12.9675C14.2373 1.99988 15.4231 2.63448 16.1274 3.691C16.7223 4.58329 17.6399 5.12785 18.6783 5.33554C20.6097 5.72182 22 7.41768 22 9.38735V13.2077C22 16.759 22 18.5347 21.1389 19.8052C20.9609 20.0677 20.7588 20.3121 20.5355 20.5354M5.33333 5.33321L2 1.99988M5.33333 5.33321L20.5355 20.5354M22.5 22.4999L20.5355 20.5354M17 21.9244C16.012 21.9999 14.785 21.9999 13.2078 21.9999H10.7922C7.24083 21.9999 5.46517 21.9999 4.19468 21.1387C3.6696 20.7828 3.21704 20.3303 2.86114 19.8052C2 18.5347 2 16.759 2 13.2077V9.38735C2 8.5057 2.27855 7.67891 2.75949 6.99988M9.71586 9.71599C10.3635 9.26473 11.1508 9.00012 12 9.00012C14.2091 9.00012 16 10.791 16 13.0001C16 13.8493 15.7354 14.6367 15.2841 15.2843M8.12602 12.0001C8.04375 12.3197 8 12.6548 8 13.0001C8 15.2093 9.79086 17.0001 12 17.0001C12.3453 17.0001 12.6804 16.9564 13 16.8741" stroke="#2F384C" stroke-width="1.5" stroke-linecap="round" stroke-linejoin="round"/>
</svg>
