<svg width="24" height="24" viewBox="0 0 24 24" fill="none" xmlns="http://www.w3.org/2000/svg">
<path d="M8.97723 18.8681C8.61252 18.8003 8.26555 18.7063 7.92983 18.5862C7.20097 18.3255 6.83653 18.1951 6.69669 18.1622C5.40646 17.8588 4.87122 18.7431 3.7592 18.9284C3.21302 19.0194 2.72704 18.5722 2.77236 18.0203C2.812 17.5378 3.14571 17.0814 3.27886 16.6181C3.55569 15.6548 3.18005 14.9244 2.78319 14.0677C2.28062 12.9828 2 11.7742 2 10.5C2 5.80558 5.80558 2 10.5 2C13.5419 2 16.2105 3.59785 17.7124 6M11 15C11 18.3137 13.6863 21 17 21C17.6836 21 18.2699 20.9026 18.8142 20.7079C19.3287 20.5239 19.586 20.4319 19.6847 20.4086C20.5954 20.1945 20.9733 20.8186 21.7582 20.9494C22.1437 21.0137 22.4868 20.698 22.4548 20.3085C22.4268 19.9679 22.1913 19.6457 22.0973 19.3186C21.9019 18.6387 22.167 18.1231 22.4472 17.5184C22.8019 16.7526 23 15.8994 23 15C23 11.6863 20.3137 9 17 9C13.6863 9 11 11.6863 11 15Z" stroke="#2F384C" stroke-width="1.5" stroke-linecap="round" stroke-linejoin="round"/>
</svg>
