<svg width="24" height="24" viewBox="0 0 24 24" fill="none" xmlns="http://www.w3.org/2000/svg">
<path d="M8 8H16M16 21.5V16.2C16 15.0799 16 14.5198 15.782 14.092C15.5903 13.7157 15.2843 13.4097 14.908 13.218C14.4802 13 13.9201 13 12.8 13H11.2C10.0799 13 9.51984 13 9.09202 13.218C8.71569 13.4097 8.40973 13.7157 8.21799 14.092C8 14.5198 8 15.0799 8 16.2V21.5M14.349 2H8.4C6.15979 2 5.03968 2 4.18404 2.43597C3.43139 2.81947 2.81947 3.43139 2.43597 4.18404C2 5.03968 2 6.15979 2 8.4V15.6C2 17.8402 2 18.9603 2.43597 19.816C2.81947 20.5686 3.43139 21.1805 4.18404 21.564C5.03968 22 6.15979 22 8.4 22H15.6C17.8402 22 18.9603 22 19.816 21.564C20.5686 21.1805 21.1805 20.5686 21.564 19.816C22 18.9603 22 17.8402 22 15.6V9.65097C22 8.6726 22 8.18342 21.8895 7.72307C21.7915 7.31493 21.6299 6.92475 21.4106 6.56686C21.1632 6.16319 20.8173 5.81729 20.1255 5.12549L18.8745 3.87452C18.1827 3.18271 17.8368 2.83681 17.4331 2.58944C17.0753 2.37012 16.6851 2.20851 16.2769 2.11052C15.8166 2 15.3274 2 14.349 2Z" stroke="#2F384C" stroke-width="1.5" stroke-linecap="round"/>
</svg>
