<svg width="24" height="24" viewBox="0 0 24 24" fill="none" xmlns="http://www.w3.org/2000/svg">
<path d="M14.9998 21.9995H6.79976C5.1196 21.9995 4.27952 21.9995 3.63778 21.6725C3.0733 21.3849 2.61436 20.926 2.32674 20.3615C1.99976 19.7197 1.99976 18.8797 1.99976 17.1995V6.79951C1.99976 5.11935 1.99976 4.27928 2.32674 3.63754C2.61436 3.07305 3.0733 2.61411 3.63778 2.32649C4.27952 1.99951 5.1196 1.99951 6.79976 1.99951H7.76369C8.1325 1.99951 8.3169 1.99951 8.48704 2.019C9.37473 2.12067 10.1709 2.61274 10.6588 3.36124C10.7524 3.5047 10.8348 3.66964 10.9998 3.99951V3.99951C11.1647 4.32939 11.2472 4.49432 11.3407 4.63778C11.8286 5.38629 12.6248 5.87835 13.5125 5.98002C13.6826 5.99951 13.867 5.99951 14.2358 5.99951H15.9995C16.9297 5.99951 17.3948 5.99951 17.7764 6.10178C18.8115 6.37922 19.6201 7.18774 19.8975 8.22287C19.9998 8.60446 19.9998 9.06956 19.9998 9.99976V9.99976M5.99976 22L7.33128 14.0109C7.56877 12.5859 7.68751 11.8735 8.04306 11.3388C8.35647 10.8675 8.79681 10.4945 9.31322 10.2628C9.89905 10 10.6214 10 12.066 10H19.2223C20.5219 10 21.1717 10 21.634 10.2651C22.0396 10.4978 22.3509 10.8653 22.5137 11.3036C22.6992 11.8032 22.5924 12.4441 22.3787 13.7261L21.6682 17.9891C21.4307 19.4141 21.312 20.1265 20.9565 20.6612C20.643 21.1325 20.2027 21.5055 19.6863 21.7372C19.1005 22 18.3782 22 16.9335 22H5.99976Z" stroke="#2F384C" stroke-width="1.5" stroke-linecap="round" stroke-linejoin="round"/>
</svg>
