<svg width="24" height="24" viewBox="0 0 24 24" fill="none" xmlns="http://www.w3.org/2000/svg">
<path d="M4.10712 13.3126C4.20724 13.9191 4.11531 14.5536 3.75798 15.0539L2.37808 16.9857C1.80981 17.7813 1.90001 18.8711 2.59133 19.5624L4.43793 21.409C5.12926 22.1004 6.21905 22.1906 7.01462 21.6223L8.94685 20.2421C9.44706 19.8848 10.0815 19.7929 10.688 19.8929C11.1149 19.9634 11.5531 20 12 20C12.4468 20 12.8852 19.9634 13.3121 19.8929C13.9186 19.7928 14.5531 19.8848 15.0533 20.2421L16.9852 21.6221C17.7808 22.1903 18.8706 22.1001 19.5619 21.4088L21.4085 19.5622C22.0999 18.8709 22.1901 17.7811 21.6218 16.9855L20.242 15.0538C19.8847 14.5535 19.7927 13.919 19.8928 13.3125C19.9633 12.8854 20 12.447 20 12C20 11.5531 19.9633 11.1148 19.8929 10.6879C19.7928 10.0814 19.8848 9.44694 20.2421 8.94672L21.6218 7.01516C22.19 6.21959 22.0998 5.1298 21.4085 4.43847L19.5619 2.59187C18.8706 1.90055 17.7808 1.81035 16.9852 2.37862L15.054 3.75804C14.5537 4.11538 13.9192 4.2073 13.3126 4.10718C12.8855 4.03668 12.447 4 12 4C11.5529 4 11.1145 4.03667 10.6874 4.10715C10.0809 4.20727 9.44638 4.11533 8.94612 3.75801L7.01467 2.3784C6.2191 1.81013 5.1293 1.90033 4.43798 2.59165L2.59137 4.43825C1.90005 5.12958 1.80986 6.21937 2.37812 7.01494L3.75789 8.94663C4.1152 9.44685 4.20714 10.0813 4.10706 10.6878C4.03661 11.1148 3.99997 11.5531 3.99997 12C3.99997 12.447 4.03664 12.8855 4.10712 13.3126Z" stroke="#2F384C" stroke-width="1.5" stroke-linecap="round" stroke-linejoin="round"/>
<path d="M15 12.0001C15 13.6569 13.6569 15.0001 12 15.0001C10.3431 15.0001 9 13.6569 9 12.0001C9 10.3432 10.3431 9.00008 12 9.00008C13.6569 9.00008 15 10.3432 15 12.0001Z" stroke="#2F384C" stroke-width="1.5" stroke-linecap="round" stroke-linejoin="round"/>
</svg>
