<svg width="24" height="24" viewBox="0 0 24 24" fill="none" xmlns="http://www.w3.org/2000/svg">
<path d="M10 7.00021H6C3.79086 7.00021 2 8.79107 2 11.0002V11.0002C2 13.2094 3.79086 15.0002 6 15.0002H10M10 7.00021V15.0002M10 7.00021L14.9648 3.52458C16.5944 2.38382 17.4092 1.81344 18.0874 1.8431C18.678 1.86893 19.2269 2.15471 19.5867 2.62372C20 3.16232 20 4.1569 20 6.14607V8.00021M10 15.0002L14.965 18.4755C16.5945 19.6161 17.4093 20.1863 18.0875 20.1567C18.6781 20.1308 19.2269 19.845 19.5868 19.376C20 18.8374 20 17.8429 20 15.8539V14.0002M6 15.0002V19.5002C6 20.3286 6.67157 21.0002 7.5 21.0002V21.0002C8.32843 21.0002 9 20.3286 9 19.5002V15.0002M20 8.00021V8.00021C21.6569 8.00021 23 9.34336 23 11.0002V11.0002C23 12.6571 21.6569 14.0002 20 14.0002V14.0002M20 8.00021V14.0002" stroke="#2F384C" stroke-width="1.5" stroke-linecap="round" stroke-linejoin="round"/>
</svg>
