<svg width="24" height="24" viewBox="0 0 24 24" fill="none" xmlns="http://www.w3.org/2000/svg">
<path d="M12 13V8M12.5 16C12.5 16.2761 12.2761 16.5 12 16.5C11.7239 16.5 11.5 16.2761 11.5 16M12.5 16C12.5 15.7239 12.2761 15.5 12 15.5C11.7239 15.5 11.5 15.7239 11.5 16M12.5 16H11.5M7.61218 4H6.36578C5.52571 4 5.10567 4 4.7848 4.16349C4.50256 4.3073 4.27308 4.53677 4.12927 4.81901C3.96578 5.13988 3.96578 5.55992 3.96578 6.4V7.6199C3.96578 7.94576 3.96578 8.10869 3.93255 8.26393C3.90307 8.40164 3.85435 8.5345 3.78782 8.65862C3.71281 8.79854 3.60748 8.92284 3.39682 9.17145L2.31474 10.4484C1.84766 10.9997 1.61412 11.2753 1.52501 11.5838C1.44647 11.8557 1.44647 12.1443 1.52501 12.4162C1.61412 12.7247 1.84766 13.0003 2.31474 13.5516L3.39682 14.8285C3.60748 15.0772 3.71281 15.2015 3.78782 15.3414C3.85435 15.4655 3.90307 15.5984 3.93255 15.7361C3.96578 15.8913 3.96578 16.0542 3.96578 16.3801V17.6C3.96578 18.4401 3.96578 18.8601 4.12927 19.181C4.27308 19.4632 4.50256 19.6927 4.7848 19.8365C5.10567 20 5.52571 20 6.36578 20H7.61218C7.94083 20 8.10516 20 8.2616 20.0338C8.40037 20.0637 8.53418 20.1132 8.65903 20.1808C8.79979 20.257 8.92455 20.3639 9.17408 20.5778L10.4381 21.6612C10.9925 22.1364 11.2696 22.374 11.5805 22.4645C11.8545 22.5443 12.1455 22.5443 12.4195 22.4645C12.7304 22.374 13.0075 22.1364 13.5619 21.6612L14.8259 20.5778C15.0754 20.3639 15.2002 20.257 15.341 20.1808C15.4658 20.1132 15.5996 20.0637 15.7384 20.0338C15.8948 20 16.0592 20 16.3878 20H17.6C18.4401 20 18.8601 20 19.181 19.8365C19.4632 19.6927 19.6927 19.4632 19.8365 19.181C20 18.8601 20 18.4401 20 17.6V16.3878C20 16.0592 20 15.8948 20.0338 15.7384C20.0637 15.5996 20.1132 15.4658 20.1808 15.341C20.257 15.2002 20.3639 15.0754 20.5778 14.8259L21.6612 13.5619C22.1364 13.0075 22.374 12.7304 22.4645 12.4195C22.5443 12.1455 22.5443 11.8545 22.4645 11.5805C22.374 11.2696 22.1364 10.9925 21.6612 10.4381L20.5778 9.17408C20.3639 8.92455 20.257 8.79979 20.1808 8.65903C20.1132 8.53418 20.0637 8.40037 20.0338 8.2616C20 8.10516 20 7.94083 20 7.61218V6.4C20 5.55992 20 5.13988 19.8365 4.81901C19.6927 4.53677 19.4632 4.3073 19.181 4.16349C18.8601 4 18.4401 4 17.6 4H16.3878C16.0592 4 15.8948 4 15.7384 3.96623C15.5996 3.93628 15.4658 3.88678 15.341 3.81921C15.2002 3.74304 15.0754 3.6361 14.8259 3.42222L13.5619 2.33877C13.0075 1.86361 12.7304 1.62602 12.4195 1.53547C12.1455 1.45566 11.8545 1.45566 11.5805 1.53547C11.2696 1.62602 10.9925 1.86361 10.4381 2.33877L9.17408 3.42222C8.92455 3.6361 8.79979 3.74304 8.65903 3.81921C8.53418 3.88678 8.40037 3.93628 8.2616 3.96623C8.10516 4 7.94083 4 7.61218 4Z" stroke="#2F384C" stroke-width="1.5" stroke-linecap="round" stroke-linejoin="round"/>
</svg>
