<svg width="24" height="24" viewBox="0 0 24 24" fill="none" xmlns="http://www.w3.org/2000/svg">
<path d="M9.00012 7V9C9.00012 10.6569 10.3433 12 12.0001 12V12C13.657 12 15.0001 10.6569 15.0001 9V7M12 22V22C15.0682 22 16.6022 22 17.7659 21.4827C19.3242 20.79 20.5141 19.467 21.0382 17.8443C21.4297 16.6324 21.2676 15.107 20.9434 12.056L20.707 9.83092C20.4607 7.51216 20.3375 6.35278 19.9013 5.43185C19.2143 3.98121 17.9747 2.86632 16.4596 2.33641C15.4977 2 14.3318 2 12 2V2C9.66819 2 8.50228 2 7.54042 2.33641C6.02531 2.86632 4.7857 3.98121 4.09867 5.43185C3.66252 6.35278 3.53933 7.51216 3.29296 9.83093L3.05655 12.056C2.73239 15.107 2.5703 16.6324 2.96176 17.8443C3.48593 19.467 4.67581 20.79 6.23406 21.4827C7.39777 22 8.93184 22 12 22Z" stroke="#2F384C" stroke-width="1.5" stroke-linecap="round" stroke-linejoin="round"/>
</svg>
