<svg width="24" height="24" viewBox="0 0 24 24" fill="none" xmlns="http://www.w3.org/2000/svg">
<path d="M1 1.00009L3.62103 3.62112M21.5 21.5001L18.379 18.3791M3.62103 3.62112C3.42228 3.71689 3.23667 3.82742 3.06107 3.95501C2.6366 4.2634 2.26331 4.63669 1.95491 5.06117C1 6.37549 1 8.25036 1 12.0001C1 15.7498 1 17.6247 1.95491 18.939C2.26331 19.3635 2.6366 19.7368 3.06107 20.0452C4.3754 21.0001 6.25027 21.0001 10 21.0001C13.7497 21.0001 15.6246 21.0001 16.9389 20.0452C17.3634 19.7368 17.7367 19.3635 18.0451 18.939C18.1727 18.7634 18.2832 18.5778 18.379 18.3791M3.62103 3.62112L18.379 18.3791M7 3.02902C7.84435 3.00009 8.83107 3.00009 10 3.00009C13.7497 3.00009 15.6246 3.00009 16.9389 3.95501C17.3634 4.2634 17.7367 4.63669 18.0451 5.06117C18.7023 5.96577 18.9072 7.13591 18.9711 9.00009M18.9711 9.00009C19 9.84444 19 10.8312 19 12.0001C19 12.4502 19 12.8502 19 13.172C19 13.3754 19 13.4771 19.0128 13.5746C19.0472 13.8356 19.1497 14.083 19.31 14.2919C19.3698 14.3699 19.4418 14.4419 19.5858 14.5859V14.5859C20.2955 15.2956 20.6503 15.6504 20.926 15.7646C21.6913 16.0817 22.5688 15.7182 22.8858 14.9528C23 14.6772 23 14.1753 23 13.1717V10.7794C23 9.24025 23 8.47066 22.682 8.06365C22.4052 7.70944 21.9842 7.49801 21.5348 7.48758C21.0184 7.4756 20.4012 7.93522 19.1666 8.85447L18.9711 9.00009Z" stroke="#2F384C" stroke-width="1.5" stroke-linecap="round" stroke-linejoin="round"/>
</svg>
