<svg width="24" height="24" viewBox="0 0 24 24" fill="none" xmlns="http://www.w3.org/2000/svg">
<path d="M16.9996 9.99957C17.5974 10.3988 17.9996 11.145 17.9996 11.9996C17.9996 12.3578 17.929 12.697 17.8028 12.9996M17.9996 5.99957C19.793 7.19723 20.9996 9.43573 20.9996 11.9996C20.9996 13.0743 20.7876 14.0919 20.4092 14.9996C20.263 15.3503 20.0919 15.6847 19.8987 15.9996M13.9996 13.9996V15.6912C13.9996 17.8495 13.9996 18.9287 13.7329 19.392C13.2057 20.3075 12.0575 20.6551 11.1111 20.1858C10.6321 19.9483 10.0335 19.0504 8.8363 17.2546C8.59974 16.8997 8.48146 16.7223 8.33828 16.5802C8.06161 16.3055 7.71069 16.1177 7.32869 16.0399C7.13101 15.9996 6.91778 15.9996 6.49131 15.9996H5.19963C4.07953 15.9996 3.51948 15.9996 3.09165 15.7816C2.71533 15.5898 2.40937 15.2839 2.21762 14.9076C1.99963 14.4797 1.99963 13.9197 1.99963 12.7996V11.1996C1.99963 10.0795 1.99963 9.51942 2.21762 9.09159C2.40937 8.71527 2.71533 8.40931 3.09165 8.21756C3.51948 7.99957 4.07923 7.99957 5.19875 7.99957C5.45152 7.99957 5.71857 7.99957 5.99963 7.99957H6.49131C6.91778 7.99957 7.13101 7.99957 7.32869 7.95928C7.49269 7.92586 7.65097 7.87216 7.80009 7.80003M13.9996 13.9996L7.80009 7.80003M13.9996 13.9996L20.9996 20.9996M2.99963 2.99957L7.80009 7.80003M9.6723 5.49957C10.3429 4.51851 10.7593 3.98781 11.1111 3.81335C12.0575 3.34401 13.2057 3.69166 13.7329 4.60716C13.9996 5.07049 13.9996 6.14962 13.9996 8.3079V9.99957" stroke="#2F384C" stroke-width="1.5" stroke-linecap="round" stroke-linejoin="round"/>
</svg>
