<svg width="24" height="24" viewBox="0 0 24 24" fill="none" xmlns="http://www.w3.org/2000/svg">
<path d="M2 4V17.2C2 18.8802 2 19.7202 2.32698 20.362C2.6146 20.9265 3.07354 21.3854 3.63803 21.673C4.27976 22 5.11984 22 6.8 22H17.2C18.8802 22 19.7202 22 20.362 21.673C20.9265 21.3854 21.3854 20.9265 21.673 20.362C22 19.7202 22 18.8802 22 17.2V10.8C22 9.11984 22 8.27976 21.673 7.63803C21.3854 7.07354 20.9265 6.6146 20.362 6.32698C19.7202 6 18.8802 6 17.2 6H12M22 11H21.5C19.8431 11 18.5 12.3431 18.5 14V14C18.5 15.6569 19.8431 17 21.5 17H22M17 6L15.92 4.56C15.216 3.62134 14.864 3.15201 14.4179 2.8135C14.0228 2.5137 13.5754 2.28999 13.0985 2.15378C12.56 2 11.9733 2 10.8 2H4C2.89543 2 2 2.89543 2 4V4C2 5.10457 2.89543 6 4 6H17Z" stroke="#2F384C" stroke-width="1.5" stroke-linecap="round" stroke-linejoin="round"/>
</svg>
