<svg width="24" height="24" viewBox="0 0 24 24" fill="none" xmlns="http://www.w3.org/2000/svg">
<path d="M6.99988 16.2456C8.36948 17.3435 10.108 18.0002 11.9999 18.0002C13.6982 18.0002 15.2729 17.471 16.5681 16.5685M6.99988 16.2456C5.17095 14.7795 3.99988 12.5266 3.99988 10.0002C3.99988 8.30188 4.52909 6.72715 5.43161 5.43194M6.99988 16.2456C6.99988 18.0234 3.66788 19.4975 5.48637 21.3871C6.07646 22.0002 7.31784 22.0002 9.80061 22.0002H14.1991C16.6819 22.0002 17.9233 22.0002 18.5134 21.3871C19.4757 20.3871 18.8886 19.221 18.2256 18.2259M18.2256 18.2259L21.9999 22.0002M18.2256 18.2259L16.5681 16.5685M16.5681 16.5685L5.43161 5.43194M18.9296 14.0002C19.6103 12.8235 19.9999 11.4574 19.9999 10.0002C19.9999 5.58194 16.4182 2.00021 11.9999 2.00021C10.5427 2.00021 9.17657 2.38979 7.99988 3.07047M5.43161 5.43194L1.99988 2.00021M11.9999 8.00021C13.1044 8.00021 13.9999 8.89564 13.9999 10.0002" stroke="#2F384C" stroke-width="1.5" stroke-linecap="round" stroke-linejoin="round"/>
</svg>
