<svg width="24" height="24" viewBox="0 0 24 24" fill="none" xmlns="http://www.w3.org/2000/svg">
<path d="M12 22.0002C17.5228 22.0002 22 17.523 22 12.0002C22 6.4773 17.5228 2.00015 12 2.00015M12 22.0002C6.47715 22.0002 2 17.523 2 12.0002C2 6.4773 6.47715 2.00015 12 2.00015M12 22.0002C15.3137 22.0002 18 19.7616 18 17.0002C18 14.2387 15.3137 12.0002 12 12.0002C8.68629 12.0002 6 9.76158 6 7.00015C6 4.23873 8.68629 2.00015 12 2.00015M11.5 7.00015C11.5 7.27629 11.2761 7.50015 11 7.50015C10.7239 7.50015 10.5 7.27629 10.5 7.00015M11.5 7.00015C11.5 6.72401 11.2761 6.50015 11 6.50015C10.7239 6.50015 10.5 6.72401 10.5 7.00015M11.5 7.00015H10.5M13.5 17.0002C13.5 17.2763 13.2761 17.5002 13 17.5002C12.7239 17.5002 12.5 17.2763 12.5 17.0002M13.5 17.0002C13.5 16.724 13.2761 16.5002 13 16.5002C12.7239 16.5002 12.5 16.724 12.5 17.0002M13.5 17.0002H12.5" stroke="#2F384C" stroke-width="1.5" stroke-linecap="round" stroke-linejoin="round"/>
</svg>
