<svg width="24" height="24" viewBox="0 0 24 24" fill="none" xmlns="http://www.w3.org/2000/svg">
<path opacity="0.4" d="M8 19.5455C8.6586 21.0273 10.3784 22 12 22C13.6216 22 15.3414 21.0273 16 19.5455M20 14.5L18.9735 13.3762C18.3539 12.8185 18 12.0239 18 11.1902V8C18 4.68629 15.3137 2 12 2C10.7733 2 9.63251 2.36815 8.68221 3" stroke="#2F384C" stroke-width="1.5" stroke-linecap="round" stroke-linejoin="round"/>
<path d="M3 2L6.53025 5.53025M22 21L19.3332 18.3332M6.53025 5.53025C6.18961 6.28347 5.99999 7.11959 5.99999 8V11.1902C5.99999 12.0239 5.64614 12.8185 5.02646 13.3762L3.91853 14.3733C2.59603 15.5636 3.01796 17.7338 4.69008 18.3419L4.90108 18.4186C9.4868 20.0861 14.5132 20.0861 19.0989 18.4186C19.177 18.3902 19.2554 18.3624 19.3332 18.3332M6.53025 5.53025L19.3332 18.3332" stroke="#2F384C" stroke-width="1.5" stroke-linecap="round" stroke-linejoin="round"/>
</svg>
