<svg width="24" height="24" viewBox="0 0 24 24" fill="none" xmlns="http://www.w3.org/2000/svg">
<path opacity="0.4" d="M12 2H12.5V2C14.8297 2 15.9946 2 16.9134 2.3806C18.1386 2.88807 19.1119 3.86144 19.6194 5.08658C20 6.00544 20 7.17029 20 9.5V13.5V14" stroke="#2F384C" stroke-width="1.5" stroke-linecap="round" stroke-linejoin="round"/>
<path d="M12 2H11.5V2C9.17029 2 8.00544 2 7.08658 2.3806C5.86144 2.88807 4.88807 3.86144 4.3806 5.08658C4 6.00544 4 7.17029 4 9.5V22L6.27567 20.8622C8.37458 19.8127 9.42404 19.288 10.5248 19.0815C11.4998 18.8985 12.5002 18.8985 13.4752 19.0815C14.576 19.288 15.6254 19.8127 17.7243 20.8622L20 22V15V14.125" stroke="#2F384C" stroke-width="1.5" stroke-linecap="round" stroke-linejoin="round"/>
</svg>
