<svg width="24" height="24" viewBox="0 0 24 24" fill="none" xmlns="http://www.w3.org/2000/svg">
<path opacity="0.4" d="M16.1668 8V8C17.8742 8 18.7279 8 19.4091 8.25638C20.4872 8.66213 21.338 9.51294 21.7437 10.591C22.0001 11.2722 22.0001 12.1259 22.0001 13.8333V15.6C22.0001 17.8402 22.0001 18.9603 21.5641 19.816C21.1807 20.5686 20.5687 21.1805 19.8161 21.564C18.9604 22 17.8403 22 15.6001 22H13.8335C12.126 22 11.2723 22 10.5911 21.7436C9.51306 21.3379 8.66225 20.4871 8.2565 19.409C8.00012 18.7278 8.00012 17.8741 8.00012 16.1667V16.1667" stroke="#2F384C" stroke-width="1.5" stroke-linecap="round" stroke-linejoin="round"/>
<rect x="2.00012" y="2" width="14" height="14" rx="4" stroke="#2F384C" stroke-width="1.5" stroke-linecap="round" stroke-linejoin="round"/>
</svg>
