<svg width="24" height="24" viewBox="0 0 24 24" fill="none" xmlns="http://www.w3.org/2000/svg">
<path opacity="0.4" d="M14 12.5555C14 15.8148 10 15.8148 10 12.5555C10 10.4815 11.9999 9 11.9999 9C11.9999 9 14 10.4815 14 12.5555Z" stroke="#2F384C" stroke-width="1.5" stroke-linecap="round" stroke-linejoin="round"/>
<path d="M22 12C22 17.5228 17.5228 22 12 22C6.47715 22 2 17.5228 2 12M22 12C22 6.47715 17.5228 2 12 2M22 12H20M2 12C2 6.47715 6.47715 2 12 2M2 12H4M12 2V4M19.0004 5L18 6M19.0004 19L18 18M5 19L6.00037 18M5 5L6 6" stroke="#2F384C" stroke-width="1.5" stroke-linecap="round" stroke-linejoin="round"/>
</svg>
