<svg width="24" height="24" viewBox="0 0 24 24" fill="none" xmlns="http://www.w3.org/2000/svg">
<path opacity="0.4" d="M4.5 6L7 4V4C8.78522 2.57183 9.67783 1.85774 10.6668 1.58413C11.5392 1.34279 12.4608 1.34279 13.3332 1.58413C14.3222 1.85774 15.2148 2.57183 17 4V4L19.5 6" stroke="#2F384C" stroke-width="1.5" stroke-linecap="round" stroke-linejoin="round"/>
<path d="M19 5.6001L19.5 6.0001V6.0001C20.1097 6.48789 20.4146 6.73178 20.668 7.00529C21.3508 7.74236 21.7957 8.66805 21.9447 9.66168C22 10.0304 22 10.4208 22 11.2017V17.0001C22 19.7615 19.7614 22.0001 17 22.0001V22.0001C15.8954 22.0001 15 21.1047 15 20.0001V16C15 14.3432 13.6569 13 12 13V13C10.3431 13 9 14.3432 9 16V20.0001C9 21.1047 8.10457 22.0001 7 22.0001V22.0001C4.23858 22.0001 2 19.7615 2 17.0001V11.2017C2 10.4208 2 10.0304 2.05529 9.66168C2.2043 8.66805 2.64921 7.74236 3.33202 7.00529C3.58539 6.73178 3.89026 6.48789 4.5 6.0001V6.0001L5 5.6001" stroke="#2F384C" stroke-width="1.5" stroke-linecap="round" stroke-linejoin="round"/>
</svg>
