<svg width="24" height="24" viewBox="0 0 24 24" fill="none" xmlns="http://www.w3.org/2000/svg">
<path opacity="0.4" d="M9 7H15M10 11H14" stroke="#2F384C" stroke-width="1.5" stroke-linecap="round" stroke-linejoin="round"/>
<path d="M2.49994 14H5.2872C5.91334 14 6.22641 14 6.51059 14.0863C6.76217 14.1627 6.99622 14.288 7.19934 14.4549C7.42878 14.6435 7.60244 14.904 7.94976 15.425L8.04981 15.575C8.39713 16.096 8.5708 16.3565 8.80024 16.5451C9.00336 16.712 9.2374 16.8373 9.48898 16.9137C9.77316 17 10.0862 17 10.7124 17H13.2872C13.9133 17 14.2264 17 14.5106 16.9137C14.7622 16.8373 14.9962 16.712 15.1993 16.5451C15.4288 16.3565 15.6024 16.096 15.9498 15.575L16.0498 15.425C16.3971 14.904 16.5708 14.6435 16.8002 14.4549C17.0034 14.288 17.2374 14.1627 17.489 14.0863C17.7732 14 18.0862 14 18.7124 14H21.4999M3.48499 8.05962L2.86895 10.5237C2.72842 11.0858 2.65815 11.3668 2.6021 11.6471C2.29151 13.2003 2.2915 14.7997 2.60208 16.3529C2.65812 16.6332 2.72838 16.9143 2.86891 17.4764V17.4764C3.0438 18.1759 3.13124 18.5257 3.24908 18.8261C3.91509 20.5237 5.45256 21.7241 7.26107 21.9585C7.58105 22 7.94159 22 8.66268 22H15.3368C16.058 22 16.4186 22 16.7386 21.9585C18.5471 21.7241 20.0845 20.5237 20.7505 18.8261C20.8684 18.5257 20.9558 18.1759 21.1308 17.4763V17.4763C21.2713 16.9141 21.3416 16.633 21.3976 16.3527C21.7081 14.7996 21.7082 13.2004 21.3976 11.6473C21.3416 11.367 21.2713 11.0859 21.1308 10.5237L20.5148 8.05981C19.9732 5.89312 19.7024 4.80977 19.0984 4.00314C18.5655 3.29144 17.8525 2.73471 17.0328 2.39032C16.1037 2 14.987 2 12.7537 2H11.2461C9.01279 2 7.89613 2 6.96712 2.39031C6.14743 2.73469 5.4344 3.2914 4.9015 4.00308C4.29751 4.80968 4.02667 5.89299 3.48499 8.05962Z" stroke="#2F384C" stroke-width="1.5" stroke-linecap="round"/>
</svg>
