<svg width="24" height="24" viewBox="0 0 24 24" fill="none" xmlns="http://www.w3.org/2000/svg">
<path opacity="0.4" d="M19.6014 5.45904C19.8943 5.16615 19.8943 4.69127 19.6014 4.39838C19.3085 4.10549 18.8337 4.10549 18.5408 4.39838L19.6014 5.45904ZM14.4697 8.46945C14.1768 8.76234 14.1768 9.23722 14.4697 9.53011C14.7626 9.823 15.2375 9.823 15.5304 9.53011L14.4697 8.46945ZM9.53035 15.5301C9.82325 15.2372 9.82325 14.7623 9.53035 14.4694C9.23746 14.1766 8.76259 14.1766 8.46969 14.4694L9.53035 15.5301ZM4.39862 18.5405C4.10573 18.8334 4.10573 19.3083 4.39862 19.6012C4.69152 19.8941 5.16639 19.8941 5.45929 19.6012L4.39862 18.5405ZM5.45929 4.39838C5.16639 4.10549 4.69152 4.10549 4.39862 4.39838C4.10573 4.69127 4.10573 5.16615 4.39862 5.45904L5.45929 4.39838ZM8.46969 9.53011C8.76259 9.823 9.23746 9.823 9.53035 9.53011C9.82325 9.23722 9.82325 8.76234 9.53035 8.46945L8.46969 9.53011ZM15.5304 14.4694C15.2375 14.1766 14.7626 14.1766 14.4697 14.4694C14.1768 14.7623 14.1768 15.2372 14.4697 15.5301L15.5304 14.4694ZM18.5408 19.6012C18.8337 19.8941 19.3085 19.8941 19.6014 19.6012C19.8943 19.3083 19.8943 18.8334 19.6014 18.5405L18.5408 19.6012ZM18.5408 4.39838L14.4697 8.46945L15.5304 9.53011L19.6014 5.45904L18.5408 4.39838ZM8.46969 14.4694L4.39862 18.5405L5.45929 19.6012L9.53035 15.5301L8.46969 14.4694ZM4.39862 5.45904L8.46969 9.53011L9.53035 8.46945L5.45929 4.39838L4.39862 5.45904ZM14.4697 15.5301L18.5408 19.6012L19.6014 18.5405L15.5304 14.4694L14.4697 15.5301ZM15.25 12C15.25 13.7949 13.7949 15.25 12 15.25V16.75C14.6234 16.75 16.75 14.6234 16.75 12H15.25ZM12 15.25C10.2051 15.25 8.75 13.7949 8.75 12H7.25C7.25 14.6234 9.37665 16.75 12 16.75V15.25ZM8.75 12C8.75 10.2051 10.2051 8.75 12 8.75V7.25C9.37665 7.25 7.25 9.37665 7.25 12H8.75ZM12 8.75C13.7949 8.75 15.25 10.2051 15.25 12H16.75C16.75 9.37665 14.6234 7.25 12 7.25V8.75Z" fill="#2F384C"/>
<path d="M22 12C22 17.5228 17.5228 22 12 22C6.47715 22 2 17.5228 2 12C2 6.47715 6.47715 2 12 2C17.5228 2 22 6.47715 22 12Z" stroke="#2F384C" stroke-width="1.5" stroke-linecap="round" stroke-linejoin="round"/>
</svg>
