<svg width="24" height="24" viewBox="0 0 24 24" fill="none" xmlns="http://www.w3.org/2000/svg">
<path opacity="0.4" d="M9.00012 12L22.0001 12M22.0001 12L18.0001 8M22.0001 12L18.0001 16" stroke="#2F384C" stroke-width="1.5" stroke-linecap="round" stroke-linejoin="round"/>
<path d="M14.0001 16.0005L14.0001 16.5V16.5C14.0001 17.896 14.0001 18.594 13.8278 19.1619C13.4399 20.4401 12.4397 21.4403 11.1615 21.8281C10.5936 22.0005 9.89561 22.0005 8.49963 22.0005H8.00009C6.13635 22.0005 5.20449 22.0005 4.46941 21.696C3.48928 21.29 2.71057 20.5113 2.30459 19.5312C2.00012 18.7961 2.00012 17.8643 2.00012 16.0005L2.00012 8.00049C2.00012 6.13672 2.00012 5.20484 2.30461 4.46975C2.71058 3.48964 3.48928 2.71095 4.46939 2.30497C5.20448 2.00049 6.13636 2.00049 8.00012 2.00049L8.50061 2.00049C9.89572 2.00049 10.5933 2.00049 11.1609 2.17262C12.4396 2.56037 13.4402 3.56101 13.828 4.83972C14.0001 5.40734 14.0001 6.10489 14.0001 7.5V7.5L14.0001 8.00049" stroke="#2F384C" stroke-width="1.5" stroke-linecap="round" stroke-linejoin="round"/>
</svg>
