<svg width="24" height="24" viewBox="0 0 24 24" fill="none" xmlns="http://www.w3.org/2000/svg">
<path opacity="0.4" d="M6 15.0002V19.5002C6 20.3287 6.67157 21.0002 7.5 21.0002V21.0002C8.32843 21.0002 9 20.3287 9 19.5002V15.0002M20 7.99976V7.99976C21.6569 7.99976 23 9.3429 23 10.9998V10.9998C23 12.6566 21.6569 13.9998 20 13.9998V13.9998" stroke="#2F384C" stroke-width="1.5" stroke-linecap="round" stroke-linejoin="round"/>
<path d="M10 7H6C3.79086 7 2 8.79086 2 11V11C2 13.2091 3.79086 15 6 15H10M10 7V15M10 7L14.9648 3.52437C16.5944 2.38361 17.4092 1.81322 18.0874 1.84289C18.678 1.86872 19.2269 2.1545 19.5867 2.6235C20 3.1621 20 4.15669 20 6.14586V15.8537C20 17.8427 20 18.8372 19.5868 19.3758C19.2269 19.8448 18.6781 20.1306 18.0875 20.1564C17.4093 20.1861 16.5945 19.6158 14.965 18.4753L10 15" stroke="#2F384C" stroke-width="1.5" stroke-linecap="round" stroke-linejoin="round"/>
</svg>
