<svg width="24" height="24" viewBox="0 0 24 24" fill="none" xmlns="http://www.w3.org/2000/svg">
<path opacity="0.4" d="M19 8L19 12M19 8V8C20.6569 8 22 6.65685 22 5V5C22 3.34315 20.6569 2 19 2V2C17.3431 2 16 3.34315 16 5V5C16 6.65685 17.3431 8 19 8Z" stroke="#2F384C" stroke-width="1.5" stroke-linecap="round" stroke-linejoin="round"/>
<path d="M12 19H16M5 12L5 16M8 5H12M5 8V8C6.65685 8 8 6.65685 8 5V5C8 3.34315 6.65685 2 5 2V2C3.34315 2 2 3.34315 2 5V5C2 6.65685 3.34315 8 5 8ZM5 22V22C6.65685 22 8 20.6569 8 19V19C8 17.3431 6.65685 16 5 16V16C3.34315 16 2 17.3431 2 19V19C2 20.6569 3.34315 22 5 22ZM19 22V22C20.6569 22 22 20.6569 22 19V19C22 17.3431 20.6569 16 19 16V16C17.3431 16 16 17.3431 16 19V19C16 20.6569 17.3431 22 19 22Z" stroke="#2F384C" stroke-width="1.5" stroke-linecap="round" stroke-linejoin="round"/>
</svg>
