<svg width="24" height="24" viewBox="0 0 24 24" fill="none" xmlns="http://www.w3.org/2000/svg">
<path opacity="0.4" d="M7 17H13M7 9H11M7 13H13" stroke="#2F384C" stroke-width="1.5" stroke-linecap="round" stroke-linejoin="round"/>
<path d="M18 12V2L15.2874 3.20562C14.6759 3.47739 14.3701 3.61328 14.0607 3.64727C13.7214 3.68455 13.3782 3.63437 13.0638 3.50149C12.777 3.38032 12.523 3.16258 12.0149 2.7271V2.7271C11.3403 2.14881 11.0029 1.85966 10.6296 1.73584C10.2208 1.60026 9.77918 1.60026 9.3704 1.73584C8.99706 1.85966 8.65972 2.14881 7.98505 2.7271V2.7271C7.47699 3.16258 7.22295 3.38032 6.93623 3.50149C6.6218 3.63437 6.2786 3.68455 5.93929 3.64727C5.62988 3.61328 5.32414 3.47739 4.71265 3.20562L2 2V15.6C2 17.8402 2 18.9603 2.43597 19.816C2.81947 20.5686 3.43139 21.1805 4.18404 21.564C5.03968 22 6.15979 22 8.4 22H20M18 12H18.8C19.9201 12 20.4802 12 20.908 12.218C21.2843 12.4097 21.5903 12.7157 21.782 13.092C22 13.5198 22 14.0799 22 15.2V20C22 21.1046 21.1046 22 20 22V22C18.8954 22 18 21.1046 18 20V12Z" stroke="#2F384C" stroke-width="1.5" stroke-linecap="round" stroke-linejoin="round"/>
</svg>
