<svg width="24" height="24" viewBox="0 0 24 24" fill="none" xmlns="http://www.w3.org/2000/svg">
<path opacity="0.4" d="M3.49951 3.5L7.49997 7.50046M12.9999 11C12.9999 12.1046 12.1045 13 10.9999 13C9.89537 13 8.99994 12.1046 8.99994 11C8.99994 9.89543 9.89537 9 10.9999 9C12.1045 9 12.9999 9.89543 12.9999 11Z" stroke="#2F384C" stroke-width="1.5" stroke-linecap="round" stroke-linejoin="round"/>
<path d="M13.9989 19L18.9989 14V10.3695C18.9989 8.46035 18.9989 7.50578 18.6532 6.72913C18.3483 6.04444 17.8573 5.45915 17.236 5.03999C16.5312 4.56453 15.5912 4.39864 13.7111 4.06686L6.50077 2.79445C4.9863 2.52719 4.22907 2.39356 3.68364 2.62504C3.20641 2.82758 2.82648 3.20751 2.62394 3.68474C2.39246 4.23017 2.52609 4.9874 2.79335 6.50187L4.06576 13.7122C4.39754 15.5923 4.56343 16.5323 5.03889 17.2371C5.45805 17.8584 6.04334 18.3494 6.72803 18.6542C7.50469 19 8.45925 19 10.3684 19H13.9989ZM14.9989 22L21.4989 15.5C22.0512 14.9477 22.0512 14.0523 21.4989 13.5V13.5C20.9466 12.9477 20.0512 12.9477 19.4989 13.5L12.9989 20C12.4466 20.5523 12.4466 21.4477 12.9989 22V22C13.5512 22.5523 14.4466 22.5523 14.9989 22Z" stroke="#2F384C" stroke-width="1.5" stroke-linecap="round" stroke-linejoin="round"/>
</svg>
