<svg width="24" height="24" viewBox="0 0 24 24" fill="none" xmlns="http://www.w3.org/2000/svg">
<path opacity="0.4" d="M8 9V11M12 7V11M16 8V11" stroke="#2F384C" stroke-width="1.5" stroke-linecap="round" stroke-linejoin="round"/>
<path d="M3 2H21M3 2V9.6C3 11.8402 3 12.9603 3.43597 13.816C3.81947 14.5686 4.43139 15.1805 5.18404 15.564C6.03968 16 7.15979 16 9.4 16H14.6C16.8402 16 17.9603 16 18.816 15.564C19.5686 15.1805 20.1805 14.5686 20.564 13.816C21 12.9603 21 11.8402 21 9.6V2M3 2H1.5M21 2H22.5M12 16V19M12 19L7 22M12 19L17 22M12 19V22" stroke="#2F384C" stroke-width="1.5" stroke-linecap="round" stroke-linejoin="round"/>
</svg>
