<svg width="24" height="24" viewBox="0 0 24 24" fill="none" xmlns="http://www.w3.org/2000/svg">
<path opacity="0.4" d="M8.75 5.5L9 5L9.13783 4.72433C10.059 2.8819 10.5197 1.96069 11.143 1.66507C11.6854 1.40782 12.3146 1.40782 12.8571 1.66508C13.4803 1.96069 13.941 2.88191 14.8622 4.72433L15.2215 5.4429C15.5059 6.01177 15.6481 6.29621 15.8562 6.51399C16.0403 6.70676 16.2612 6.86077 16.5058 6.96694C16.782 7.08689 17.0981 7.12201 17.7302 7.19225L19.5748 7.3972C20.4889 7.49876 20.9459 7.54954 21.211 7.66043C22.3331 8.1297 22.7801 9.48355 22.1579 10.5286C22.0109 10.7756 21.6739 11.0885 21 11.7143V11.7143L20 12.6429" stroke="#2F384C" stroke-width="1.5" stroke-linecap="round" stroke-linejoin="round"/>
<path d="M10 3L9.5 4.00001L8.77855 5.44291C8.49411 6.01178 8.35189 6.29621 8.14383 6.51399C7.95965 6.70676 7.73879 6.86077 7.49423 6.96694C7.21795 7.08689 6.90189 7.12201 6.26976 7.19225L5.9436 7.22849C3.73538 7.47385 2.63127 7.59653 2.13229 8.10561C1.69867 8.54802 1.49453 9.16639 1.57953 9.78001C1.67734 10.4861 2.49141 11.242 4.11954 12.7539L4.46388 13.0736C5.01964 13.5897 5.29751 13.8477 5.45811 14.1604C5.60005 14.4368 5.67565 14.7424 5.67891 15.0531C5.68261 15.4046 5.55541 15.7671 5.30101 16.4921V16.4921C4.47062 18.8587 4.05543 20.042 4.32703 20.7338C4.56261 21.3339 5.07298 21.7836 5.69791 21.9418C6.41838 22.1241 7.52325 21.5717 9.73299 20.4668L10.5689 20.0489C11.0937 19.7865 11.356 19.6553 11.6312 19.6037C11.8749 19.558 12.1251 19.558 12.3688 19.6037C12.644 19.6553 12.9064 19.7865 13.4311 20.0489L14.267 20.4668C16.4767 21.5717 17.5816 22.1241 18.3021 21.9418C18.927 21.7836 19.4374 21.3339 19.673 20.7338C19.9446 20.042 19.5294 18.8587 18.699 16.4921V16.4921C18.4446 15.7671 18.3174 15.4046 18.3211 15.0531C18.3244 14.7424 18.4 14.4368 18.5419 14.1604C18.7025 13.8477 18.9804 13.5897 19.5361 13.0736L20 12.6429L21 11.7143" stroke="#2F384C" stroke-width="1.5" stroke-linecap="round" stroke-linejoin="round"/>
</svg>
