<svg width="24" height="24" viewBox="0 0 24 24" fill="none" xmlns="http://www.w3.org/2000/svg">
<path opacity="0.4" d="M12 6.99964L13.1188 5.88079C13.8252 5.17434 14.1784 4.82111 14.5501 4.61598C15.4522 4.11817 16.5467 4.11812 17.4488 4.61586C17.8206 4.82096 18.1738 5.17415 18.8803 5.88055V5.88055C19.5286 6.52882 19.8528 6.85296 20.0513 7.19863C20.5321 8.03603 20.5805 9.0537 20.1813 9.93293C20.0165 10.2959 19.7245 10.6493 19.1406 11.3562L12 20M8 22L17.5 22C18.8978 22 19.5967 22 20.1481 21.7716C20.8831 21.4671 21.4672 20.8831 21.7716 20.148C22 19.5967 22 18.8978 22 17.5V17C22 16.07 22 15.605 21.8978 15.2235C21.6204 14.1882 20.8117 13.3796 19.7765 13.1022C19.395 13 18.93 13 18 13V13M7.5 17C7.5 17.2761 7.27614 17.5 7 17.5C6.72386 17.5 6.5 17.2761 6.5 17M7.5 17C7.5 16.7239 7.27614 16.5 7 16.5C6.72386 16.5 6.5 16.7239 6.5 17M7.5 17H6.5" stroke="#2F384C" stroke-width="1.5" stroke-linecap="round" stroke-linejoin="round"/>
<path d="M2 6.8C2 5.11984 2 4.27976 2.32698 3.63803C2.6146 3.07354 3.07354 2.6146 3.63803 2.32698C4.27976 2 5.11984 2 6.8 2H7.2C8.88016 2 9.72024 2 10.362 2.32698C10.9265 2.6146 11.3854 3.07354 11.673 3.63803C12 4.27976 12 5.11984 12 6.8V22H6.8C5.11984 22 4.27976 22 3.63803 21.673C3.07354 21.3854 2.6146 20.9265 2.32698 20.362C2 19.7202 2 18.8802 2 17.2V6.8Z" stroke="#2F384C" stroke-width="1.5" stroke-linecap="round" stroke-linejoin="round"/>
</svg>
