<svg width="24" height="24" viewBox="0 0 24 24" fill="none" xmlns="http://www.w3.org/2000/svg">
<path opacity="0.4" d="M10 10V17M14 10V14M16 5L15.7294 4.18807C15.4671 3.40125 15.3359 3.00784 15.0927 2.71698C14.8779 2.46013 14.6021 2.26132 14.2905 2.13878C13.9376 2 13.523 2 12.6936 2H11.3064C10.477 2 10.0624 2 9.70951 2.13878C9.39792 2.26132 9.12208 2.46013 8.90729 2.71698C8.66405 3.00784 8.53292 3.40125 8.27064 4.18807L8 5" stroke="#2F384C" stroke-width="1.5" stroke-linecap="round" stroke-linejoin="round"/>
<path d="M4 5L4.64564 15.9758C4.77037 18.0962 4.83273 19.1564 5.28528 19.961C5.68366 20.6692 6.28832 21.2394 7.01876 21.5955C7.84851 22 8.91054 22 11.0346 22H12.9654C15.0895 22 16.1515 22 16.9812 21.5955C17.7117 21.2394 18.3163 20.6692 18.7147 19.961C19.1673 19.1564 19.2296 18.0962 19.3544 15.9758L20 5M4 5H2M4 5H20M20 5H22" stroke="#2F384C" stroke-width="1.5" stroke-linecap="round" stroke-linejoin="round"/>
</svg>
