<svg width="24" height="24" viewBox="0 0 24 24" fill="none" xmlns="http://www.w3.org/2000/svg">
<path opacity="0.4" d="M7 3.02893C7.84435 3 8.83107 3 10 3C13.7497 3 15.6246 3 16.9389 3.95491C17.3634 4.26331 17.7367 4.6366 18.0451 5.06107C18.7023 5.96568 18.9072 7.13581 18.9711 9M18.9711 9C19 9.84435 19 10.8311 19 12C19 12.4501 19 12.8502 19 13.1719C19 13.3753 19 13.477 19.0128 13.5745C19.0472 13.8355 19.1497 14.0829 19.31 14.2918C19.3698 14.3698 19.4418 14.4418 19.5858 14.5858V14.5858C20.2955 15.2955 20.6503 15.6503 20.926 15.7645C21.6913 16.0816 22.5688 15.7181 22.8858 14.9527C23 14.6771 23 14.1753 23 13.1716V10.7793C23 9.24016 23 8.47057 22.682 8.06356C22.4052 7.70935 21.9842 7.49792 21.5348 7.48749C21.0184 7.4755 20.4012 7.93513 19.1666 8.85437L18.9711 9Z" stroke="#2F384C" stroke-width="1.5" stroke-linecap="round" stroke-linejoin="round"/>
<path d="M1 1.00012L3.62103 3.62115M21.5 21.5001L18.379 18.3791M3.62103 3.62115C3.42228 3.71692 3.23667 3.82746 3.06107 3.95504C2.6366 4.26343 2.26331 4.63672 1.95491 5.0612C1 6.37552 1 8.25039 1 12.0001C1 15.7499 1 17.6247 1.95491 18.939C2.26331 19.3635 2.6366 19.7368 3.06107 20.0452C4.3754 21.0001 6.25027 21.0001 10 21.0001C13.7497 21.0001 15.6246 21.0001 16.9389 20.0452C17.3634 19.7368 17.7367 19.3635 18.0451 18.939C18.1727 18.7634 18.2832 18.5778 18.379 18.3791M3.62103 3.62115L18.379 18.3791" stroke="#2F384C" stroke-width="1.5" stroke-linecap="round" stroke-linejoin="round"/>
</svg>
