<svg width="24" height="24" viewBox="0 0 24 24" fill="none" xmlns="http://www.w3.org/2000/svg">
<path opacity="0.4" d="M14 8.5C14 8.77614 13.7761 9 13.5 9C13.2239 9 13 8.77614 13 8.5M14 8.5C14 8.22386 13.7761 8 13.5 8C13.2239 8 13 8.22386 13 8.5M14 8.5H13M19 12C19 12.7647 19 13.4675 19 14.0003C19 14.2443 19 14.3662 19.0179 14.481C19.0658 14.7889 19.2085 15.0742 19.426 15.2972C19.5071 15.3804 19.6047 15.4536 19.8 15.6001V15.6001C20.4827 16.1121 20.824 16.3681 21.0935 16.444C21.8381 16.6536 22.62 16.2626 22.899 15.5412C23 15.2801 23 14.8534 23 14.0001V10.0001C23 9.14675 23 8.72008 22.899 8.45896C22.62 7.73749 21.838 7.34654 21.0935 7.5562C20.824 7.63208 20.4826 7.88808 19.8 8.40009V8.40009C19.6047 8.54655 19.5071 8.61978 19.426 8.70294C19.2085 8.92603 19.0658 9.21131 19.0179 9.51918C19 9.63394 19 9.75598 19 10.0001C19 10.6676 19 11.3558 19 12Z" stroke="#2F384C" stroke-width="1.5" stroke-linecap="round" stroke-linejoin="round"/>
<path d="M1 11C1 8.19974 1 6.79961 1.54497 5.73005C2.02433 4.78924 2.78924 4.02433 3.73005 3.54497C4.79961 3 6.19974 3 9 3H11C13.8003 3 15.2004 3 16.27 3.54497C17.2108 4.02433 17.9757 4.78924 18.455 5.73005C19 6.79961 19 8.19974 19 11V13C19 15.8003 19 17.2004 18.455 18.27C17.9757 19.2108 17.2108 19.9757 16.27 20.455C15.2004 21 13.8003 21 11 21H9C6.19974 21 4.79961 21 3.73005 20.455C2.78924 19.9757 2.02433 19.2108 1.54497 18.27C1 17.2004 1 15.8003 1 13V11Z" stroke="#2F384C" stroke-width="1.5" stroke-linecap="round" stroke-linejoin="round"/>
</svg>
