<svg width="24" height="24" viewBox="0 0 24 24" fill="none" xmlns="http://www.w3.org/2000/svg">
<path opacity="0.4" d="M18.9296 14.0002C19.6103 12.8236 19.9999 11.4574 19.9999 10.0002C19.9999 5.58197 16.4182 2.00024 11.9999 2.00024C10.5427 2.00024 9.17657 2.38982 7.99988 3.0705M11.9999 8.00024C13.1044 8.00024 13.9999 8.89567 13.9999 10.0002" stroke="#2F384C" stroke-width="1.5" stroke-linecap="round" stroke-linejoin="round"/>
<path d="M2 2L5.43173 5.43173M22 22L18.2257 18.2257M7 16.2454C8.3696 17.3433 10.1081 18 12 18C13.6983 18 15.2731 17.4708 16.5683 16.5683M7 16.2454C5.17107 14.7792 4 12.5264 4 10C4 8.30167 4.52921 6.72694 5.43173 5.43173M7 16.2454C7 18.0232 3.66801 19.4973 5.48649 21.3869C6.07658 22 7.31796 22 9.80074 22H14.1993C16.682 22 17.9234 22 18.5135 21.3869C19.4758 20.3869 18.8888 19.2208 18.2257 18.2257M18.2257 18.2257L16.5683 16.5683M16.5683 16.5683L5.43173 5.43173" stroke="#2F384C" stroke-width="1.5" stroke-linecap="round" stroke-linejoin="round"/>
</svg>
