<svg width="24" height="24" viewBox="0 0 24 24" fill="none" xmlns="http://www.w3.org/2000/svg">
<path opacity="0.4" d="M12 22.0005C15.3137 22.0005 18 19.7619 18 17.0005C18 14.2391 15.3137 12.0005 12 12.0005C8.68629 12.0005 6 9.76191 6 7.00049C6 4.23906 8.68629 2.00049 12 2.00049M11.5 7.00049C11.5 7.27663 11.2761 7.50049 11 7.50049C10.7239 7.50049 10.5 7.27663 10.5 7.00049M11.5 7.00049C11.5 6.72435 11.2761 6.50049 11 6.50049C10.7239 6.50049 10.5 6.72435 10.5 7.00049M11.5 7.00049H10.5M13.5 17.0005C13.5 17.2766 13.2761 17.5005 13 17.5005C12.7239 17.5005 12.5 17.2766 12.5 17.0005M13.5 17.0005C13.5 16.7243 13.2761 16.5005 13 16.5005C12.7239 16.5005 12.5 16.7243 12.5 17.0005M13.5 17.0005H12.5" stroke="#2F384C" stroke-width="1.5" stroke-linecap="round" stroke-linejoin="round"/>
<path d="M22 12.0005C22 17.5233 17.5228 22.0005 12 22.0005C6.47715 22.0005 2 17.5233 2 12.0005C2 6.47764 6.47715 2.00049 12 2.00049C17.5228 2.00049 22 6.47764 22 12.0005Z" stroke="#2F384C" stroke-width="1.5" stroke-linecap="round" stroke-linejoin="round"/>
</svg>
