<svg width="24" height="24" viewBox="0 0 24 24" fill="none" xmlns="http://www.w3.org/2000/svg">
<path d="M18 7.72594C16.2866 4.7221 15.2162 3.13469 13.8569 2.59099C12.6649 2.1142 11.3352 2.1142 10.1431 2.59099C8.50144 3.24765 7.28113 5.42679 4.84049 9.78506C2.49449 13.9743 1.3215 16.069 1.59194 17.7805C1.78851 19.0246 2.44733 20.1486 3.4367 20.9279C4.79789 22.0001 7.19861 22.0001 12 22.0001C16.8015 22.0001 19.2022 22.0001 20.5634 20.9279C21.5528 20.1486 22.2116 19.0246 22.4082 17.7805C22.6261 16.4012 21.9066 14.773 20.391 12.0001M12 13V9M12.5 16.5C12.5 16.7761 12.2761 17 12 17C11.7239 17 11.5 16.7761 11.5 16.5M12.5 16.5C12.5 16.2239 12.2761 16 12 16C11.7239 16 11.5 16.2239 11.5 16.5M12.5 16.5H11.5" stroke="#2F384C" stroke-width="1.5" stroke-linecap="round" stroke-linejoin="round"/>
</svg>
