<svg width="24" height="24" viewBox="0 0 24 24" fill="none" xmlns="http://www.w3.org/2000/svg">
<path d="M7.99999 19.5455C8.65859 21.0273 10.3784 22 12 22C13.6216 22 15.3414 21.0273 16 19.5455M20 14.5L18.9735 13.3762C18.3538 12.8185 18 12.0239 18 11.1902V8C18 4.68629 15.3137 2 12 2C10.7733 2 9.6325 2.36815 8.6822 3M3 2L6.53025 5.53025L19.3332 18.3332M22 21L19.3332 18.3332M19.3332 18.3332C19.2554 18.3624 19.177 18.3902 19.0989 18.4186C14.5132 20.0861 9.4868 20.0861 4.90108 18.4186L4.69008 18.3419C3.01796 17.7338 2.59603 15.5636 3.91853 14.3733L5.02646 13.3762C5.64614 12.8185 5.99999 12.0239 5.99999 11.1902V9" stroke="#2F384C" stroke-width="1.5" stroke-linecap="round" stroke-linejoin="round"/>
</svg>
