<svg width="24" height="24" viewBox="0 0 24 24" fill="none" xmlns="http://www.w3.org/2000/svg">
<path d="M8 12H5C4.06812 12 3.60218 12 3.23463 11.8478C2.74458 11.6448 2.35523 11.2554 2.15224 10.7654C2 10.3978 2 9.93188 2 9V9C2 8.06812 2 7.60218 2.15224 7.23463C2.35523 6.74458 2.74458 6.35523 3.23463 6.15224C3.60218 6 4.06812 6 5 6H19C19.9319 6 20.3978 6 20.7654 6.15224C21.2554 6.35523 21.6448 6.74458 21.8478 7.23463C22 7.60218 22 8.06812 22 9V9C22 9.93188 22 10.3978 21.8478 10.7654C21.6448 11.2554 21.2554 11.6448 20.7654 11.8478C20.3978 12 19.9319 12 19 12H11M16 6C16 3.79086 14.2091 2 12 2C9.79086 2 8 3.79086 8 6M8 10.5V13.5M16 10.5V13.5M3 12V15.6C3 17.8402 3 18.9603 3.43597 19.816C3.81947 20.5686 4.43139 21.1805 5.18404 21.564C6.03968 22 7.15979 22 9.4 22H14.6C16.8402 22 17.9603 22 18.816 21.564C19.5686 21.1805 20.1805 20.5686 20.564 19.816C21 18.9603 21 17.8402 21 15.6V15.5V15" stroke="#2F384C" stroke-width="1.5" stroke-linecap="round" stroke-linejoin="round"/>
</svg>
