<svg width="24" height="24" viewBox="0 0 24 24" fill="none" xmlns="http://www.w3.org/2000/svg">
<path d="M1.46503 14.1492C1.54743 14.5551 1.9433 14.8174 2.34924 14.735C2.75517 14.6526 3.01745 14.2567 2.93505 13.8508L1.46503 14.1492ZM5.39414 18.475C5.10417 18.1792 4.62932 18.1745 4.33353 18.4644C4.03774 18.7544 4.03303 19.2292 4.32299 19.525L5.39414 18.475ZM12.75 8C12.75 7.58579 12.4142 7.25 12 7.25C11.5858 7.25 11.25 7.58579 11.25 8H12.75ZM12 12H11.25C11.25 12.2508 11.3753 12.4849 11.584 12.624L12 12ZM14.584 14.624C14.9286 14.8538 15.3943 14.7607 15.624 14.416C15.8538 14.0714 15.7607 13.6057 15.416 13.376L14.584 14.624ZM4.53033 1.53033C4.82322 1.23744 4.82322 0.762563 4.53033 0.46967C4.23744 0.176777 3.76256 0.176777 3.46967 0.46967L4.53033 1.53033ZM0.46967 3.46967C0.176777 3.76256 0.176777 4.23744 0.46967 4.53033C0.762563 4.82322 1.23744 4.82322 1.53033 4.53033L0.46967 3.46967ZM20.5303 0.46967C20.2374 0.176777 19.7626 0.176777 19.4697 0.46967C19.1768 0.762563 19.1768 1.23744 19.4697 1.53033L20.5303 0.46967ZM22.4697 4.53033C22.7626 4.82322 23.2374 4.82322 23.5303 4.53033C23.8232 4.23744 23.8232 3.76256 23.5303 3.46967L22.4697 4.53033ZM21.25 12C21.25 17.1086 17.1086 21.25 12 21.25V22.75C17.9371 22.75 22.75 17.9371 22.75 12H21.25ZM12 2.75C17.1086 2.75 21.25 6.89137 21.25 12H22.75C22.75 6.06294 17.9371 1.25 12 1.25V2.75ZM12 1.25C6.06294 1.25 1.25 6.06294 1.25 12H2.75C2.75 6.89137 6.89137 2.75 12 2.75V1.25ZM2.93505 13.8508C2.81378 13.2534 2.75 12.6345 2.75 12H1.25C1.25 12.7353 1.32394 13.4541 1.46503 14.1492L2.93505 13.8508ZM12 21.25C9.41225 21.25 7.07382 20.1884 5.39414 18.475L4.32299 19.525C6.27316 21.5144 8.99296 22.75 12 22.75V21.25ZM11.25 8V12H12.75V8H11.25ZM11.584 12.624L14.584 14.624L15.416 13.376L12.416 11.376L11.584 12.624ZM3.46967 0.46967L0.46967 3.46967L1.53033 4.53033L4.53033 1.53033L3.46967 0.46967ZM19.4697 1.53033L22.4697 4.53033L23.5303 3.46967L20.5303 0.46967L19.4697 1.53033Z" fill="#2F384C"/>
</svg>
