<svg width="24" height="24" viewBox="0 0 24 24" fill="none" xmlns="http://www.w3.org/2000/svg">
<path d="M4 5.99902C2.74418 7.67051 2 9.74835 2 12C2 13.499 2.33015 14.921 2.9214 16.1973C3.38829 17.2052 3.83022 18.0644 3.50454 19.1977C3.34789 19.7429 2.95529 20.2798 2.90866 20.8475C2.85534 21.4967 3.42708 22.0228 4.06965 21.9157C5.3779 21.6977 6.0076 20.6574 7.52552 21.0144C7.69003 21.0531 8.11879 21.2065 8.97627 21.5132C9.88354 21.8377 10.8606 22 12 22C17.5228 22 22 17.5228 22 12C22 6.47715 17.5228 2 12 2C10.5778 2 9.22492 2.29689 8 2.83209M8 10H16M8 14H12" stroke="#2F384C" stroke-width="1.5" stroke-linecap="round" stroke-linejoin="round"/>
</svg>
