<svg width="24" height="24" viewBox="0 0 24 24" fill="none" xmlns="http://www.w3.org/2000/svg">
<path d="M8 2.83209C9.22493 2.2969 10.5778 2 12 2C17.5228 2 22 6.47715 22 12C22 17.5228 17.5228 22 12 22C6.47715 22 2 17.5228 2 12C2 9.74835 2.74418 7.67051 4 5.99902M16 8L11.5924 10.0034C11.1882 10.1872 10.986 10.2791 10.813 10.4084C10.6594 10.5232 10.5232 10.6594 10.4084 10.813C10.2791 10.986 10.1872 11.1882 10.0034 11.5924L8 16L12.4076 13.9966C12.8118 13.8128 13.014 13.7209 13.187 13.5916C13.3406 13.4768 13.4768 13.3406 13.5916 13.187C13.7209 13.014 13.8128 12.8118 13.9966 12.4076L16 8Z" stroke="#2F384C" stroke-width="1.5" stroke-linecap="round" stroke-linejoin="round"/>
</svg>
