<svg width="24" height="24" viewBox="0 0 24 24" fill="none" xmlns="http://www.w3.org/2000/svg">
<path d="M2 7V6.5V6.5C2 6.03566 2 5.80349 2.01926 5.60793C2.20631 3.70882 3.70882 2.20631 5.60793 2.01926C5.80349 2 6.03566 2 6.5 2H9.6C11.8402 2 12.9603 2 13.816 2.43597C14.5686 2.81947 15.1805 3.43139 15.564 4.18404C16 5.03968 16 6.15979 16 8.4V9.6C16 11.8402 16 12.9603 15.564 13.816C15.1805 14.5686 14.5686 15.1805 13.816 15.564C12.9603 16 11.8402 16 9.6 16H6.5C6.03566 16 5.80349 16 5.60793 15.9807C3.70882 15.7937 2.20631 14.2912 2.01926 12.3921C2 12.1965 2 11.9643 2 11.5V11.5V11M16.1667 8V8C17.8741 8 18.7278 8 19.409 8.25638C20.4871 8.66213 21.3379 9.51294 21.7436 10.591C22 11.2722 22 12.1259 22 13.8333V15.6C22 17.8402 22 18.9603 21.564 19.816C21.1805 20.5686 20.5686 21.1805 19.816 21.564C18.9603 22 17.8402 22 15.6 22H13.8333C12.1259 22 11.2722 22 10.591 21.7436C9.51294 21.3379 8.66213 20.4871 8.25638 19.409C8 18.7278 8 17.8741 8 16.1667V16.1667" stroke="#2F384C" stroke-width="1.5" stroke-linecap="round" stroke-linejoin="round"/>
</svg>
