<svg width="24" height="24" viewBox="0 0 24 24" fill="none" xmlns="http://www.w3.org/2000/svg">
<path d="M22 12C22 17.5228 17.5228 22 12 22C6.47715 22 2 17.5228 2 12M22 12C22 7.89936 19.5318 4.3752 16 2.83209M22 12H20M2 12C2 6.47715 6.47715 2 12 2V4M2 12H4M19.0004 5L18 6M19.0004 19L18 18M5 19L6.00037 18M5 5L6 6M11.9999 9C11.9999 9 9.99994 10.4815 9.99994 12.5555C9.99994 15.8148 13.9999 15.8148 13.9999 12.5555C13.9999 10.4815 11.9999 9 11.9999 9Z" stroke="#2F384C" stroke-width="1.5" stroke-linecap="round" stroke-linejoin="round"/>
</svg>
