<svg width="24" height="24" viewBox="0 0 24 24" fill="none" xmlns="http://www.w3.org/2000/svg">
<path d="M8.74405 2.55447C10.2385 4.72197 11.5433 6.98037 12.6579 9.30691M16.5454 20.9044C16.2102 19.2534 15.7909 17.6164 15.2874 16M21.9755 12.8911C19.3466 12.3161 16.712 12.3846 14.2466 12.9995M4.92951 19.0711C8.83483 22.9763 15.1656 22.9763 19.071 19.071C22.9763 15.1658 22.9763 8.83414 19.071 4.92891M4.92951 19.0711C1.02416 15.1659 1.02316 8.83417 4.92851 4.92895C8.83386 1.02371 15.1657 1.02367 19.071 4.92891M4.92951 19.0711C7.27243 16.0473 10.5714 13.9162 14.2466 12.9995M2.06166 10.9289C4.37618 11.1743 6.72353 11.0358 9 10.5125M19.071 4.92891C17.1661 6.8333 14.9856 8.29225 12.6579 9.30691M14.2466 12.9995C13.7689 11.7523 13.2393 10.5203 12.6579 9.30691" stroke="#2F384C" stroke-width="1.5" stroke-linecap="round" stroke-linejoin="round"/>
</svg>
