<svg width="24" height="24" viewBox="0 0 24 24" fill="none" xmlns="http://www.w3.org/2000/svg">
<path d="M16 10L16.5 10V10C17.8956 10 18.5933 10 19.1611 10.1722C20.4395 10.56 21.44 11.5605 21.8278 12.8389C22 13.4067 22 14.1044 22 15.5V16C22 17.8638 22 18.7956 21.6955 19.5307C21.2895 20.5108 20.5108 21.2895 19.5307 21.6955C18.7956 22 17.8638 22 16 22L14.5 22H14M8 10H7.5V10C6.10444 10 5.40666 10 4.83886 10.1722C3.56046 10.56 2.56004 11.5605 2.17224 12.8389C2 13.4067 2 14.1044 2 15.5L2 16C2 17.8638 2 18.7956 2.30448 19.5307C2.71046 20.5108 3.48915 21.2895 4.46927 21.6955C5.20435 22 6.13623 22 8 22L9.5 22H10M12 15L12 2L8 6M14.5 4.5L16 6" stroke="#2F384C" stroke-width="1.5" stroke-linecap="round" stroke-linejoin="round"/>
</svg>
