<svg width="24" height="24" viewBox="0 0 24 24" fill="none" xmlns="http://www.w3.org/2000/svg">
<path d="M3 3L5.82578 5.82578M21 21L18.1742 18.1742M18.1742 18.1742C16.6292 19.2482 14.588 20 12 20C10.1455 20 8.57181 19.614 7.26022 19M18.1742 18.1742L14.1213 14.1213M5.82578 5.82578C3.19179 7.65676 2 10.4243 2 12C2 13.0245 2.50382 14.5528 3.58028 16M5.82578 5.82578L9.87863 9.87863M9.87863 9.87863C9.33571 10.4215 8.99991 11.1715 8.99991 12C8.99991 13.6569 10.3431 15 11.9999 15C12.8284 15 13.5784 14.6642 14.1213 14.1213M9.87863 9.87863L14.1213 14.1213M20.4197 16C20.5431 15.8341 20.659 15.6671 20.7674 15.5C21.6051 14.2091 22 12.9071 22 12C22 9.5 19 4 12 4C10.903 4 9.90427 4.13507 8.99991 4.3725C8.82995 4.41712 8.66332 4.46536 8.5 4.517" stroke="#2F384C" stroke-width="1.5" stroke-linecap="round" stroke-linejoin="round"/>
</svg>
