<svg width="24" height="24" viewBox="0 0 24 24" fill="none" xmlns="http://www.w3.org/2000/svg">
<path d="M17 8H16.2C15.0799 8 14.5198 8 14.092 8.21799C13.7157 8.40973 13.4097 8.71569 13.218 9.09202C13 9.51984 13 10.0799 13 11.2V22H14C16.8003 22 18.2004 22 19.27 21.455C20.2108 20.9757 20.9757 20.2108 21.455 19.27C22 18.2004 22 16.8003 22 14V10C22 7.19974 22 5.79961 21.455 4.73005C20.9757 3.78924 20.2108 3.02433 19.27 2.54497C18.2004 2 16.8003 2 14 2H10C7.19974 2 5.79961 2 4.73005 2.54497C3.78924 3.02433 3.02433 3.78924 2.54497 4.73005C2 5.79961 2 7.19974 2 10V15.5C2 16.8945 2 17.5918 2.13815 18.1672C2.57707 19.9955 4.00453 21.4229 5.83277 21.8618C6.40821 22 7.10547 22 8.5 22V22H9M10 14H17" stroke="#2F384C" stroke-width="1.5" stroke-linecap="round" stroke-linejoin="round"/>
</svg>
