<svg width="24" height="24" viewBox="0 0 24 24" fill="none" xmlns="http://www.w3.org/2000/svg">
<path d="M21.6664 18L21.5831 18.5V18.5C21.4267 19.4386 21.3484 19.9079 21.168 20.2876C20.7982 21.0659 20.1115 21.6476 19.283 21.8844C18.8788 22 18.403 22 17.4515 22H5.99976L7.33128 14.0109C7.56877 12.5859 7.68751 11.8735 8.04306 11.3388C8.35647 10.8675 8.79681 10.4945 9.31322 10.2628C9.89905 10 10.6214 10 12.066 10H19.4515C20.5388 10 21.0824 10 21.4844 10.1875C22.014 10.4346 22.409 10.9009 22.5656 11.4639C22.6845 11.8912 22.5952 12.4275 22.4164 13.5V13.5L22.3331 14M14.9998 21.9995H6.79976C5.1196 21.9995 4.27952 21.9995 3.63778 21.6725C3.0733 21.3849 2.61436 20.926 2.32674 20.3615C1.99976 19.7197 1.99976 18.8797 1.99976 17.1995V13.4998V12.9998M19.9998 9.99976V9.99976C19.9998 9.06956 19.9998 8.60446 19.8975 8.22287C19.6201 7.18774 18.8115 6.37922 17.7764 6.10178C17.3948 5.99951 16.9297 5.99951 15.9995 5.99951H14.2358C13.867 5.99951 13.6826 5.99951 13.5125 5.98002C12.6248 5.87835 11.8286 5.38629 11.3407 4.63778C11.2472 4.49432 11.1647 4.32939 10.9998 3.99951V3.99951C10.8348 3.66964 10.7524 3.5047 10.6588 3.36124C10.1709 2.61274 9.37473 2.12067 8.48704 2.019C8.3169 1.99951 8.1325 1.99951 7.76369 1.99951H6.79976C5.1196 1.99951 4.27952 1.99951 3.63778 2.32649C3.0733 2.61411 2.61436 3.07305 2.32674 3.63754C1.99976 4.27928 1.99976 5.11935 1.99976 6.79951V8.49976V8.99976" stroke="#2F384C" stroke-width="1.5" stroke-linecap="round" stroke-linejoin="round"/>
</svg>
