<svg width="24" height="24" viewBox="0 0 24 24" fill="none" xmlns="http://www.w3.org/2000/svg">
<path d="M15.9227 20.8631C16.9323 21.5843 17.4371 21.9448 17.9907 21.9884C18.2054 22.0053 18.4214 21.9875 18.6304 21.9355C19.1693 21.8015 19.608 21.3628 20.4853 20.4855C21.3626 19.6082 21.8012 19.1695 21.9352 18.6307C21.9872 18.4217 22.0051 18.2057 21.9882 17.991C21.9446 17.4374 21.584 16.9326 20.8629 15.923L20.242 15.0538C19.8847 14.5535 19.7928 13.9191 19.8929 13.3125C19.9633 12.8855 20 12.4472 20 12.0002C20 11.5533 19.9633 11.1149 19.8929 10.6879C19.7928 10.0814 19.8847 9.44694 20.242 8.94671L20.8629 8.07751C21.584 7.06791 21.9446 6.56311 21.9882 6.00952C22.0051 5.79483 21.9872 5.57882 21.9352 5.36984C21.8012 4.83095 21.3626 4.39229 20.4853 3.51499C19.608 2.63768 19.1693 2.19902 18.6304 2.06501C18.4214 2.01304 18.2054 1.99516 17.9907 2.01207C17.4372 2.05567 16.9324 2.41624 15.9228 3.13738L15.0536 3.75818C14.5534 4.1155 13.9189 4.20744 13.3124 4.10734C12.8853 4.03687 12.4469 4.00021 12 4.00021C11.553 4.00021 11.1146 4.03686 10.6876 4.10733C10.0811 4.20742 9.44662 4.11548 8.94638 3.75817L8.07723 3.13734C7.06763 2.4162 6.56283 2.05563 6.00924 2.01203C5.79455 1.99513 5.57854 2.013 5.36956 2.06497C4.83067 2.19899 4.39201 2.63764 3.5147 3.51495C2.6374 4.39226 2.19874 4.83091 2.06473 5.3698C2.01276 5.57879 1.99488 5.79479 2.01179 6.00948C2.05538 6.56307 2.41596 7.06787 3.1371 8.07747L3.75793 8.94663C4.11524 9.44687 4.20718 10.0813 4.10708 10.6879C4.03662 11.1149 3.99997 11.5533 3.99997 12.0002C3.99997 12.4472 4.03662 12.8856 4.10709 13.3126C4.20719 13.9191 4.11526 14.5536 3.75794 15.0539L3.1371 15.923C2.41596 16.9326 2.05539 17.4374 2.01179 17.991C1.99489 18.2057 2.01277 18.4217 2.06474 18.6307C2.19875 19.1696 2.6374 19.6082 3.51471 20.4855C4.39202 21.3629 4.83067 21.8015 5.36956 21.9355C5.57855 21.9875 5.79456 22.0054 6.00924 21.9885C6.56283 21.9449 7.06763 21.5843 8.07723 20.8632L8.94647 20.2423C9.44671 19.885 10.0812 19.793 10.6877 19.8931C11.1147 19.9636 11.553 20.0002 12 20.0002M12 9C13.6569 9 15 10.3431 15 12C15 13.6569 13.6569 15 12 15C10.3431 15 9 13.6569 9 12C9 11.6494 9.06015 11.3128 9.17071 11" stroke="#2F384C" stroke-width="1.5" stroke-linecap="round" stroke-linejoin="round"/>
</svg>
