<svg width="24" height="24" viewBox="0 0 24 24" fill="none" xmlns="http://www.w3.org/2000/svg">
<path d="M12 21C7.02944 21 3 16.9706 3 12M12 21C14.4853 21 16.7353 19.9926 18.364 18.364M12 21V23M3 12C3 9.51472 4.00736 7.26472 5.63604 5.63604M3 12H1M18.364 18.364L22 22M18.364 18.364L14.129 14.1136L9.87868 9.87868M2 2L5.63604 5.63604M5.63604 5.63604L9.87868 9.87868M9.87868 9.87868C9.69388 10.0635 9.53308 10.2723 9.40135 10.5C9.14609 10.9413 9 11.4536 9 12C9 13.6569 10.3431 15 12 15C12.7684 15 13.4692 14.7111 14 14.2361M8 3.93552C9.20496 3.33671 10.5632 3 12 3M12 3C15.5337 3 18.5918 5.03656 20.0645 8M12 3V1M20.0645 16C20.6633 14.795 21 13.4368 21 12H23" stroke="#2F384C" stroke-width="1.5" stroke-linecap="round" stroke-linejoin="round"/>
</svg>
