<svg width="24" height="24" viewBox="0 0 24 24" fill="none" xmlns="http://www.w3.org/2000/svg">
<path d="M5 21.1962C6.39231 22 8.26154 22 12 22C15.3687 22 17.2197 22 18.5716 21.4118M14.4861 17.3264L14.9832 16.8293C16.3171 15.4954 16.9841 14.8284 17.8125 14.8284C18.6409 14.8284 19.3076 15.4951 20.6409 16.8284L21.6601 17.8476M14.4861 17.3264L11.8278 14.7455C10.4931 13.4496 9.82573 12.8017 9.00597 12.8077C8.1862 12.8138 7.52848 13.4715 6.21305 14.787L5.10723 15.8928C4.50772 16.4923 4.20796 16.792 3.66328 16.8392C3.26496 16.8737 2.67643 16.6389 2.41126 16.3396C2.04866 15.9305 2.03958 15.5824 2.02141 14.8862C2 14.0661 2 13.1164 2 12C2 8.26154 2 6.39231 2.80385 5C3.33046 4.08788 4.08788 3.33046 5 2.80385C6.39231 2 8.26154 2 12 2C15.7385 2 17.6077 2 19 2.80385C19.9121 3.33046 20.6695 4.08788 21.1962 5C22 6.39231 22 8.26154 22 12C22 14.806 22 16.559 21.6601 17.8476M14.4861 17.3264L18.5716 21.4118M21.6601 17.8476C21.5471 18.2758 21.3966 18.6527 21.1962 19C20.6695 19.9121 19.9121 20.6695 19 21.1962C18.8623 21.2757 18.7199 21.3473 18.5716 21.4118M18 8C18 9.10457 17.1046 10 16 10C14.8954 10 14 9.10457 14 8C14 6.89543 14.8954 6 16 6" stroke="#2F384C" stroke-width="1.5" stroke-linecap="round" stroke-linejoin="round"/>
</svg>
