<svg width="24" height="24" viewBox="0 0 24 24" fill="none" xmlns="http://www.w3.org/2000/svg">
<path d="M16 8L16.5 8V8C17.8956 8 18.5933 8 19.1611 8.17224C20.4395 8.56004 21.44 9.56046 21.8278 10.8389C22 11.4067 22 12.1044 22 13.5V15.6C22 17.8402 22 18.9603 21.564 19.816C21.1805 20.5686 20.5686 21.1805 19.816 21.564C18.9603 22 17.8402 22 15.6 22H14.5H14M8 8H7.5V8C6.10444 8 5.40666 8 4.83886 8.17224C3.56046 8.56004 2.56004 9.56046 2.17224 10.8389C2 11.4067 2 12.1044 2 13.5L2 15.6C2 17.8402 2 18.9603 2.43597 19.816C2.81947 20.5686 3.43139 21.1805 4.18404 21.564C5.03968 22 6.15979 22 8.4 22H9.5H10M12 2V17L8 13M14.5 14.5L16 13" stroke="#2F384C" stroke-width="1.5" stroke-linecap="round" stroke-linejoin="round"/>
</svg>
