<svg width="24" height="24" viewBox="0 0 24 24" fill="none" xmlns="http://www.w3.org/2000/svg">
<path d="M18.5 14C18.5 14 17.7308 14 17.4103 14.112C17.2147 14.1804 17.0308 14.2788 16.8654 14.4037C16.5944 14.6082 16.3962 14.9054 15.9999 15.5C15.6035 16.0946 15.4053 16.3918 15.1344 16.5963C14.9689 16.7212 14.7851 16.8196 14.5894 16.888C14.2689 17 13.9117 17 13.1971 17H10.8026C10.0881 17 9.73079 17 9.41035 16.888C9.21467 16.8196 9.03081 16.7212 8.86536 16.5963C8.59442 16.3918 8.39624 16.0946 7.99987 15.5C7.60349 14.9054 7.40531 14.6082 7.13437 14.4037C6.96892 14.2788 6.78506 14.1804 6.58938 14.112C6.26895 14 5.71458 14 5.00001 14V14C3.54706 14 2.36996 12.813 2.66834 11.391C2.72905 11.1017 2.79668 10.8129 2.869 10.5237L3.30357 8.78543C4.02044 5.91811 4.37888 4.48444 5.31351 3.52013C5.63445 3.18901 5.99965 2.90388 6.39872 2.67284C7.56093 2 9.0406 2 11.9999 2C14.9593 2 16.439 2 17.6013 2.67287C18.0003 2.90391 18.3655 3.18905 18.6865 3.52018C19.6211 4.48452 19.9795 5.91823 20.6963 8.78566L21.1308 10.5237C21.2714 11.0859 21.3416 11.367 21.3977 11.6473C21.7082 13.2004 21.7082 14.7996 21.3977 16.3527C21.3416 16.633 21.2713 16.9141 21.1308 17.4763C20.9559 18.1759 20.8684 18.5257 20.7506 18.8261C20.0846 20.5237 18.5471 21.7241 16.7387 21.9585C16.4187 22 16.0581 22 15.3369 22H8.66273C7.94164 22 7.5811 22 7.26112 21.9585C5.45261 21.7241 3.91514 20.5237 3.24913 18.8261C3.13129 18.5257 3.04385 18.1759 2.86896 17.4764C2.8224 17.2901 2.78355 17.1347 2.75038 17C2.70076 16.7985 2.66384 16.6432 2.6328 16.5M9.00006 7H15.0001M10.0001 11H14.0001" stroke="#2F384C" stroke-width="1.5" stroke-linecap="round"/>
</svg>
