<svg width="24" height="24" viewBox="0 0 24 24" fill="none" xmlns="http://www.w3.org/2000/svg">
<path d="M19.0711 4.92893L19.6014 4.3986L19.0711 4.92893ZM4.92893 4.92893L4.3986 4.3986L4.92893 4.92893ZM14.4697 8.46967C14.1768 8.76256 14.1768 9.23744 14.4697 9.53033C14.7626 9.82322 15.2374 9.82322 15.5303 9.53033L14.4697 8.46967ZM9.53033 15.5303C9.82322 15.2374 9.82322 14.7626 9.53033 14.4697C9.23744 14.1768 8.76256 14.1768 8.46967 14.4697L9.53033 15.5303ZM8.46967 9.53033C8.76256 9.82322 9.23744 9.82322 9.53033 9.53033C9.82322 9.23744 9.82322 8.76256 9.53033 8.46967L8.46967 9.53033ZM15.5303 14.4697C15.2374 14.1768 14.7626 14.1768 14.4697 14.4697C14.1768 14.7626 14.1768 15.2374 14.4697 15.5303L15.5303 14.4697ZM21.5422 15L20.8267 14.7753V14.7753L21.5422 15ZM21.5422 9L20.8267 9.22474L20.8267 9.22474L21.5422 9ZM22.4113 14.6869C22.5145 14.2858 22.273 13.8769 21.8719 13.7737C21.4708 13.6704 21.0619 13.9119 20.9586 14.3131L22.4113 14.6869ZM20.9586 9.68695C21.0619 10.0881 21.4708 10.3296 21.8719 10.2263C22.273 10.1231 22.5145 9.7142 22.4113 9.31306L20.9586 9.68695ZM12 21.25C9.44548 21.25 7.134 20.2155 5.45926 18.5407L4.3986 19.6014C6.34315 21.5459 9.03168 22.75 12 22.75V21.25ZM5.45926 18.5407C3.78452 16.866 2.75 14.5545 2.75 12H1.25C1.25 14.9683 2.45406 17.6569 4.3986 19.6014L5.45926 18.5407ZM18.5407 18.5407C16.866 20.2155 14.5545 21.25 12 21.25V22.75C14.9683 22.75 17.6569 21.5459 19.6014 19.6014L18.5407 18.5407ZM12 2.75C14.5545 2.75 16.866 3.78452 18.5407 5.45926L19.6014 4.3986C17.6569 2.45406 14.9683 1.25 12 1.25V2.75ZM2.75 12C2.75 9.44548 3.78452 7.134 5.45926 5.45926L4.3986 4.3986C2.45406 6.34315 1.25 9.03168 1.25 12H2.75ZM5.45926 5.45926C7.134 3.78452 9.44548 2.75 12 2.75V1.25C9.03168 1.25 6.34315 2.45406 4.3986 4.3986L5.45926 5.45926ZM18.5407 4.3986L14.4697 8.46967L15.5303 9.53033L19.6014 5.45926L18.5407 4.3986ZM8.46967 14.4697L4.3986 18.5407L5.45926 19.6014L9.53033 15.5303L8.46967 14.4697ZM4.3986 5.45926L8.46967 9.53033L9.53033 8.46967L5.45926 4.3986L4.3986 5.45926ZM14.4697 15.5303L18.5407 19.6014L19.6014 18.5407L15.5303 14.4697L14.4697 15.5303ZM20.8267 14.7753C20.3752 16.2126 19.5818 17.4997 18.5407 18.5407L19.6014 19.6014C20.8097 18.3931 21.7324 16.8975 22.2577 15.2247L20.8267 14.7753ZM18.5407 5.45926C19.5818 6.50032 20.3752 7.78744 20.8267 9.22474L22.2577 8.77526C21.7324 7.1025 20.8097 5.60692 19.6014 4.3986L18.5407 5.45926ZM20.9586 14.3131C20.9186 14.4688 20.8745 14.6229 20.8267 14.7753L22.2577 15.2247C22.3134 15.0474 22.3647 14.8681 22.4113 14.6869L20.9586 14.3131ZM20.8267 9.22474C20.8745 9.37714 20.9186 9.53125 20.9586 9.68695L22.4113 9.31306C22.3647 9.13191 22.3134 8.9526 22.2577 8.77526L20.8267 9.22474ZM15.25 12C15.25 13.7949 13.7949 15.25 12 15.25V16.75C14.6234 16.75 16.75 14.6234 16.75 12H15.25ZM12 15.25C10.2051 15.25 8.75 13.7949 8.75 12H7.25C7.25 14.6234 9.37665 16.75 12 16.75V15.25ZM8.75 12C8.75 10.2051 10.2051 8.75 12 8.75V7.25C9.37665 7.25 7.25 9.37665 7.25 12H8.75ZM12 8.75C13.7949 8.75 15.25 10.2051 15.25 12H16.75C16.75 9.37665 14.6234 7.25 12 7.25V8.75Z" fill="#2F384C"/>
</svg>
