<svg width="24" height="24" viewBox="0 0 24 24" fill="none" xmlns="http://www.w3.org/2000/svg">
<path d="M8.91284 5.35894C10.9131 2.85861 11.9132 1.60845 12.8265 1.81212C12.9418 1.83782 13.0536 1.87704 13.1596 1.92897C14 2.34045 14 3.94144 14 7.14342V7.40311C14 8.42968 14 8.94297 14.2407 9.31488C14.3558 9.49275 14.5072 9.64423 14.6851 9.75932C15.057 9.99998 15.5703 9.99998 16.5969 9.99998C18.5536 9.99998 19.5319 9.99998 19.9768 10.4778C20.184 10.7003 20.3187 10.9805 20.363 11.2813C20.4582 11.9272 19.847 12.6912 18.6247 14.2191L15.0872 18.641C13.0869 21.1414 12.0868 22.3915 11.1735 22.1878C11.0583 22.1621 10.9464 22.1229 10.8404 22.071C10 21.6595 10 20.0585 10 16.8565V16.5969C10 15.5703 10 15.057 9.75935 14.6851C9.64425 14.5072 9.49278 14.3557 9.31491 14.2406C8.94299 14 8.42971 14 7.40313 14C5.44643 14 4.46808 14 4.02318 13.5222C3.81597 13.2997 3.68128 13.0194 3.63696 12.7186C3.5418 12.0727 4.15297 11.3088 5.37531 9.78085" stroke="#2F384C" stroke-width="1.5" stroke-linecap="round" stroke-linejoin="round"/>
</svg>
