<svg width="24" height="24" viewBox="0 0 24 24" fill="none" xmlns="http://www.w3.org/2000/svg">
<path d="M8 8L8 7.50003V7.50003C8 6.10444 8 5.40665 8.17225 4.83884C8.56005 3.56045 9.56045 2.56005 10.8388 2.17225C11.4066 2 12.1044 2 13.5 2L15.6 2C17.8402 2 18.9603 2 19.816 2.43597C20.5686 2.81947 21.1805 3.43139 21.564 4.18404C22 5.03969 22 6.15979 22 8.4V9.5L22 10M8 16L8 16.5V16.5C8 17.8956 8 18.5933 8.17223 19.1611C8.56003 20.4395 9.56046 21.44 10.8389 21.8278C11.4067 22 12.1044 22 13.5 22H15.6C17.8402 22 18.9603 22 19.816 21.564C20.5686 21.1805 21.1805 20.5686 21.564 19.816C22 18.9603 22 17.8402 22 15.6V14.5L22 14M2 12H17L13 8M14.5 14.5L13 16" stroke="#2F384C" stroke-width="1.5" stroke-linecap="round" stroke-linejoin="round"/>
</svg>
