<svg width="24" height="24" viewBox="0 0 24 24" fill="none" xmlns="http://www.w3.org/2000/svg">
<path d="M10 15.0002H6C3.79086 15.0002 2 13.2094 2 11.0002V11.0002C2 8.7911 3.79086 7.00024 6 7.00024H10L13 4.89996M10 15.0002V10.0002M10 15.0002L13.7061 17.5943C16.4669 19.5268 17.8472 20.493 18.9236 19.9326C20 19.3722 20 17.6872 20 14.3173V7.68258C20 4.31268 20 2.62773 18.9236 2.06731C18.1545 1.66685 17.2301 2.04592 15.7578 3.00006M6 15.0002V19.5002C6 20.3287 6.67157 21.0002 7.5 21.0002V21.0002C8.32843 21.0002 9 20.3287 9 19.5002V17.5001M20 8.00023V8.00023C21.6569 8.00023 23 9.34338 23 11.0002V11.0002C23 12.6571 21.6569 14.0002 20 14.0002V14.0002V8.00023Z" stroke="#2F384C" stroke-width="1.5" stroke-linecap="round" stroke-linejoin="round"/>
</svg>
