<svg width="24" height="24" viewBox="0 0 24 24" fill="none" xmlns="http://www.w3.org/2000/svg">
<path d="M4 11C4 14.6108 6.384 17.1785 9 18.3266M20 11C20 12.5303 19.5718 13.8733 18.8792 15.0002M12 22V21.5V20.6C12 20.0461 12 19.7691 12.0793 19.582C12.1617 19.3876 12.2367 19.2926 12.4067 19.1673C12.5702 19.0468 12.9083 18.9661 13.5844 18.8048C14.7796 18.5196 16.0066 17.9273 17.0632 17.0632M7 7V11C7 13.7614 9.23858 16 12 16C13.1257 16 14.1645 15.628 15.0002 15.0002M3 3L15.0002 15.0002M21 21L17.0632 17.0632M15.0002 15.0002L17.0632 17.0632M8 3.99951C8.91223 2.78534 10.3644 2 12 2C12.7111 2 13.3875 2.14845 14 2.41604M16.9 12C16.9656 11.6769 17 11.3425 17 11V7C17 6.2889 16.8516 5.61246 16.584 5" stroke="#2F384C" stroke-width="1.5" stroke-linecap="round" stroke-linejoin="round"/>
</svg>
