<svg width="24" height="24" viewBox="0 0 24 24" fill="none" xmlns="http://www.w3.org/2000/svg">
<path d="M8 5H12M8 5C8 6.65685 6.65685 8 5 8C3.34315 8 2 6.65685 2 5C2 3.34315 3.34315 2 5 2C6.65685 2 8 3.34315 8 5ZM5 12L5 16M5 16C6.65685 16 8 17.3431 8 19C8 20.6569 6.65685 22 5 22C4.64936 22 4.31278 21.9398 4 21.8293M5 16C3.34315 16 2 17.3431 2 19M19 8V12M19 8C17.3431 8 16 6.65685 16 5C16 3.34315 17.3431 2 19 2M19 8C20.6569 8 22 6.65685 22 5C22 4.64936 21.9398 4.31278 21.8293 4M12 19H16M16 19C16 20.6569 17.3431 22 19 22C20.6569 22 22 20.6569 22 19C22 17.3431 20.6569 16 19 16C17.3431 16 16 17.3431 16 19Z" stroke="#2F384C" stroke-width="1.5" stroke-linecap="round" stroke-linejoin="round"/>
</svg>
