<svg width="24" height="24" viewBox="0 0 24 24" fill="none" xmlns="http://www.w3.org/2000/svg">
<path d="M2 10V9.5V9.5C2 8.10603 2 7.40905 2.11529 6.82946C2.58873 4.44931 4.44931 2.58873 6.82946 2.11529C7.40905 2 8.10603 2 9.5 2H12.4C15.7603 2 17.4405 2 18.7239 2.65396C19.8529 3.2292 20.7708 4.14708 21.346 5.27606C22 6.55953 22 8.23969 22 11.6V15.1716C22 15.5088 22 15.6774 21.9912 15.8399C21.9171 17.2049 21.3791 18.5036 20.4663 19.5212C20.3577 19.6423 20.2385 19.7615 20 20V20C19.7615 20.2385 19.6423 20.3577 19.5212 20.4663C18.5036 21.3791 17.2049 21.9171 15.8399 21.9912C15.6774 22 15.5088 22 15.1716 22H9.5C8.10603 22 7.40905 22 6.82946 21.8847C4.44931 21.4113 2.58873 19.5507 2.11529 17.1705C2 16.5909 2 15.894 2 14.5V14.5V14M16 21.5V19C16 18.0681 16 17.6021 16.1522 17.2346C16.3552 16.7445 16.7446 16.3552 17.2346 16.1522C17.6022 16 18.0681 16 19 16V16H19.5M7 7H15M7 11H13M7 15H9" stroke="#2F384C" stroke-width="1.5" stroke-linecap="round" stroke-linejoin="round"/>
</svg>
