<svg width="24" height="24" viewBox="0 0 24 24" fill="none" xmlns="http://www.w3.org/2000/svg">
<path d="M18.9999 10.5L18.9989 9.5V9.5C18.9989 8.41847 18.9989 7.87771 18.8862 7.41297C18.5917 6.19917 17.7472 5.19258 16.6031 4.69168C16.165 4.4999 15.6324 4.40592 14.5674 4.21797L6.50077 2.79445C4.9863 2.52719 4.22907 2.39356 3.68364 2.62504C3.20641 2.82758 2.82648 3.20751 2.62394 3.68474C2.39246 4.23017 2.52609 4.9874 2.79335 6.50187L4.06576 13.7122C4.39754 15.5923 4.56343 16.5323 5.03889 17.2371C5.45805 17.8584 6.04334 18.3494 6.72803 18.6542C7.50469 19 8.45925 19 10.3684 19H11.3479C12.3263 19 12.8155 19 13.2758 18.8895C13.684 18.7915 14.0742 18.6299 14.432 18.4106C14.8357 18.1632 15.1816 17.8173 15.8734 17.1255L19.4989 13.5C20.0512 12.9477 20.9466 12.9477 21.4989 13.5V13.5C22.0512 14.0523 22.0512 14.9477 21.4989 15.5L15.9989 21M3.49939 3.5L7.49985 7.50046M12.9999 11C12.9999 12.1046 12.1044 13 10.9999 13C9.89531 13 8.99988 12.1046 8.99988 11C8.99988 9.89543 9.89531 9 10.9999 9C12.1044 9 12.9999 9.89543 12.9999 11Z" stroke="#2F384C" stroke-width="1.5" stroke-linecap="round" stroke-linejoin="round"/>
</svg>
