<svg width="24" height="24" viewBox="0 0 24 24" fill="none" xmlns="http://www.w3.org/2000/svg">
<g clip-path="url(#clip0_3115_5330)">
<path d="M14 10L13.5 10.5L12.4705 11.5295C11.9382 12.0618 11.6721 12.3279 11.356 12.4765C11.0767 12.6079 10.7707 12.6729 10.462 12.6663C10.1129 12.6588 9.76158 12.5237 9.05902 12.2535L7.00993 11.4654C4.26729 10.4105 2.89597 9.88306 2.55106 9.17484C2.25275 8.56231 2.28678 7.84005 2.64136 7.25828C3.05133 6.58563 4.46617 6.18947 7.29584 5.39716L17.5217 2.53391C19.3133 2.03228 20.209 1.78147 20.8237 2.01427C21.3596 2.21724 21.7827 2.64035 21.9857 3.17628C22.2185 3.79096 21.9677 4.68672 21.466 6.47824L18.6027 16.7041C17.8104 19.5338 17.4142 20.9486 16.7415 21.3586C16.1598 21.7132 15.4375 21.7472 14.825 21.4489C14.1168 21.1039 13.5893 19.7326 12.5345 16.9899L12.3461 16.5L12.1538 16" stroke="#2F384C" stroke-width="1.5" stroke-linecap="round" stroke-linejoin="round"/>
</g>
<defs>
<clipPath id="clip0_3115_5330">
<rect width="24" height="24" fill="white"/>
</clipPath>
</defs>
</svg>
