<svg width="24" height="24" viewBox="0 0 24 24" fill="none" xmlns="http://www.w3.org/2000/svg">
<path d="M21 12C21 13.6569 16.9706 15 12 15C11.662 15 11.3283 14.9938 11 14.9817M6 14.2361C4.15875 13.6868 3 12.8885 3 12M3 5C3 6.65685 7.02944 8 12 8C12.6874 8 13.3568 7.97431 14 7.92566M3 5C3 3.34315 7.02944 2 12 2C16.9706 2 21 3.34315 21 5M3 5V19C3 20.6569 7.02944 22 12 22C16.9706 22 21 20.6569 21 19V5M21 5C21 5.71443 20.2508 6.37054 19 6.88578" stroke="#2F384C" stroke-width="1.5" stroke-linecap="round" stroke-linejoin="round"/>
</svg>
