<svg width="24" height="24" viewBox="0 0 24 24" fill="none" xmlns="http://www.w3.org/2000/svg">
<path d="M13 6H10.5823C8.83656 6 7.96372 6 7.23295 6.18667C5.25294 6.69246 3.66652 8.17126 3.0231 10.1109C2.78563 10.8268 2.72441 11.6975 2.60196 13.4389C2.46303 15.4148 2.39357 16.4028 2.56027 17.2114C3.01339 19.4094 4.65527 21.1708 6.81609 21.777C7.61105 22 8.60145 22 10.5823 22H13.4178C15.3986 22 16.389 22 17.1839 21.777C19.3447 21.1708 20.9866 19.4094 21.4398 17.2114C21.5117 16.8626 21.5396 16.4804 21.537 16M16 6.0589C16.286 6.08651 16.5338 6.12708 16.7671 6.18667C18.7471 6.69246 20.3335 8.17126 20.9769 10.1109C21.1377 10.5956 21.2177 11.1512 21.2906 12M8.00006 8V6C8.00006 3.79086 9.79092 2 12.0001 2C14.2092 2 16.0001 3.79086 16.0001 6V8M8.50006 11.5C8.50006 11.7761 8.2762 12 8.00006 12C7.72392 12 7.50006 11.7761 7.50006 11.5M8.50006 11.5C8.50006 11.2239 8.2762 11 8.00006 11C7.72392 11 7.50006 11.2239 7.50006 11.5M8.50006 11.5H7.50006M16.5001 11.5C16.5001 11.7761 16.2762 12 16.0001 12C15.7239 12 15.5001 11.7761 15.5001 11.5M16.5001 11.5C16.5001 11.2239 16.2762 11 16.0001 11C15.7239 11 15.5001 11.2239 15.5001 11.5M16.5001 11.5H15.5001" stroke="#2F384C" stroke-width="1.5" stroke-linecap="round" stroke-linejoin="round"/>
</svg>
