<svg width="24" height="24" viewBox="0 0 24 24" fill="none" xmlns="http://www.w3.org/2000/svg">
<path d="M20.725 10L20.6719 9.5V9.5C20.4587 7.49394 20.3522 6.49091 20.0118 5.67933C19.3179 4.025 17.9202 2.76793 16.2018 2.25274C15.3588 2 14.3501 2 12.3328 2H12C9.66819 2 8.50228 2 7.54042 2.33641C6.02531 2.86632 4.7857 3.98121 4.09867 5.43185C3.66252 6.35278 3.53933 7.51216 3.29296 9.83093L3.05655 12.056C2.73239 15.107 2.5703 16.6324 2.96176 17.8443C3.48593 19.467 4.67581 20.79 6.23406 21.4827C7.39777 22 8.93184 22 12 22H14.4578C15.2575 22 15.6574 22 15.9841 21.9641C19.0177 21.6308 21.3177 19.0734 21.3287 16.0216C21.3299 15.6929 21.2876 15.2953 21.2031 14.5V14.5L21.15 14M9 7V9C9 10.6569 10.3431 12 12 12V12C13.6569 12 15 10.6569 15 9V7" stroke="#2F384C" stroke-width="1.5" stroke-linecap="round" stroke-linejoin="round"/>
</svg>
