<svg width="24" height="24" viewBox="0 0 24 24" fill="none" xmlns="http://www.w3.org/2000/svg">
<path d="M2 18H5M19 6H22M16 18H22M2 6H8M16.5 10H17V10C18.1046 10 19 9.10457 19 8V5.2C19 4.07989 19 3.51984 18.782 3.09202C18.5903 2.71569 18.2843 2.40973 17.908 2.21799C17.4802 2 16.9201 2 15.8 2H14.2C13.0799 2 12.5198 2 12.092 2.21799C11.7157 2.40973 11.4097 2.71569 11.218 3.09202C11 3.51984 11 4.07989 11 5.2V8C11 9.10457 11.8954 10 13 10V10H13.5M7.5 14H7V14C5.89543 14 5 14.8954 5 16V18.8C5 19.9201 5 20.4802 5.21799 20.908C5.40973 21.2843 5.71569 21.5903 6.09202 21.782C6.51984 22 7.07989 22 8.2 22H9.8C10.9201 22 11.4802 22 11.908 21.782C12.2843 21.5903 12.5903 21.2843 12.782 20.908C13 20.4802 13 19.9201 13 18.8V16C13 14.8954 12.1046 14 11 14V14H10.5" stroke="#2F384C" stroke-width="1.5" stroke-linecap="round"/>
</svg>
