<svg width="24" height="24" viewBox="0 0 24 24" fill="none" xmlns="http://www.w3.org/2000/svg">
<path d="M4.77911 18C4.30824 19.4079 4.1187 20.2242 4.33701 20.7589C4.57349 21.3381 5.06735 21.7732 5.6717 21.9349C6.40453 22.131 7.53077 21.5679 9.78325 20.4417L10.4281 20.1192C11.0913 19.7876 11.4229 19.6218 11.7755 19.582C11.9246 19.5652 12.0752 19.5652 12.2244 19.582C12.577 19.6218 12.9086 19.7876 13.5718 20.1192L14.2166 20.4416C16.4691 21.5679 17.5953 22.131 18.3282 21.9349C18.9325 21.7732 19.4264 21.3381 19.6629 20.7589C19.9496 20.0565 19.5327 18.8684 18.6989 16.4921C18.443 15.7628 18.3151 15.3981 18.3212 15.0398C18.3264 14.7381 18.3997 14.4415 18.5358 14.1721C18.6974 13.8523 18.9806 13.5893 19.547 13.0634L19.6879 12.9326C21.4826 11.266 22.38 10.4327 22.4346 9.64341C22.4707 9.12094 22.3004 8.60516 21.9603 8.20688C21.4466 7.60515 20.2295 7.46992 17.7952 7.19945C17.0994 7.12213 16.7514 7.08347 16.4511 6.94222C16.2463 6.84591 16.0593 6.71555 15.8982 6.55668C15.6618 6.32367 15.5052 6.01055 15.1921 5.38432L15.1446 5.28921C13.9748 2.9496 13.3899 1.77979 12.5296 1.54353C12.1829 1.4483 11.817 1.4483 11.4702 1.54353C10.61 1.77979 10.0251 2.94959 8.85532 5.28921L8.80776 5.38433C8.49465 6.01055 8.33809 6.32367 8.10171 6.55668C7.94054 6.71555 7.75359 6.84591 7.5488 6.94222C7.24843 7.08347 6.9005 7.12213 6.20464 7.19945C3.77042 7.46992 2.55331 7.60515 2.03954 8.20688C1.69948 8.60516 1.52921 9.12094 1.56531 9.64341C1.61985 10.4327 2.51723 11.266 4.31198 12.9326L4.45288 13.0634C4.82954 13.4132 5.15243 13.7881 5.32647 14" stroke="#2F384C" stroke-width="1.5" stroke-linecap="round" stroke-linejoin="round"/>
</svg>
