<svg width="24" height="24" viewBox="0 0 24 24" fill="none" xmlns="http://www.w3.org/2000/svg">
<path d="M10 3H9.5H5.6C5.0426 3 4.76389 3 4.5307 3.03693C3.24702 3.24025 2.24025 4.24702 2.03693 5.5307C2 5.76389 2 6.0426 2 6.6V8.82353C2 8.92099 2.07901 9 2.17647 9V9C3.73586 9 5 10.2641 5 11.8235V12.1765C5 13.7359 3.73586 15 2.17647 15V15C2.07901 15 2 15.079 2 15.1765V17.4C2 17.9574 2 18.2361 2.03693 18.4693C2.24025 19.753 3.24702 20.7598 4.5307 20.9631C4.76389 21 5.0426 21 5.6 21H18.4C18.9574 21 19.2361 21 19.4693 20.9631C20.753 20.7598 21.7598 19.753 21.9631 18.4693C22 18.2361 22 17.9574 22 17.4V15.1765C22 15.079 21.921 15 21.8235 15V15C20.2641 15 19 13.7359 19 12.1765V11.8235C19 10.2641 20.2641 9 21.8235 9V9C21.921 9 22 8.92099 22 8.82353V6.6C22 6.0426 22 5.76389 21.9631 5.5307C21.7598 4.24702 20.753 3.24025 19.4693 3.03693C19.2361 3 18.9574 3 18.4 3H14.5H14M9 11V13M9 6V8M9 16V18" stroke="#2F384C" stroke-width="1.5" stroke-linecap="round" stroke-linejoin="round"/>
</svg>
