<svg width="24" height="24" viewBox="0 0 24 24" fill="none" xmlns="http://www.w3.org/2000/svg">
<path d="M1 1.00012L3.62103 3.62115M21.5 21.5001L18.379 18.3791M3.62103 3.62115C3.42228 3.71692 3.23667 3.82746 3.06107 3.95504C2.6366 4.26343 2.26331 4.63672 1.95491 5.0612C1.1873 6.11772 1.03674 7.53646 1.00721 10.0001M3.62103 3.62115L18.379 18.3791M18.379 18.3791C18.2832 18.5778 18.1727 18.7634 18.0451 18.939C17.7367 19.3635 17.3634 19.7368 16.9389 20.0452C15.6246 21.0001 13.7497 21.0001 10 21.0001C6.25027 21.0001 4.3754 21.0001 3.06107 20.0452C2.6366 19.7368 2.26331 19.3635 1.95491 18.939C1.1873 17.8825 1.03674 16.4638 1.00721 14.0001M7 3.02905C7.84435 3.00012 8.83107 3.00012 10 3.00012C13.7497 3.00012 15.6246 3.00012 16.9389 3.95504C17.3634 4.26343 17.7367 4.63672 18.0451 5.0612C18.7023 5.9658 18.9072 7.13594 18.9711 9.00012M18.9711 9.00012C19 9.84447 19 10.8312 19 12.0001C19 12.4503 19 12.8503 19 13.172C19 13.3754 19 13.4771 19.0128 13.5746C19.0472 13.8356 19.1497 14.0831 19.31 14.2919C19.3698 14.3699 19.4418 14.4419 19.5858 14.5859V14.5859C20.2955 15.2956 20.6503 15.6505 20.926 15.7646C21.6913 16.0817 22.5688 15.7182 22.8858 14.9529C23 14.6772 23 14.1754 23 13.1717V10.7795C23 9.24028 23 8.47069 22.682 8.06368C22.4052 7.70947 21.9842 7.49804 21.5348 7.48761C21.0184 7.47563 20.4012 7.93525 19.1666 8.8545L18.9711 9.00012Z" stroke="#2F384C" stroke-width="1.5" stroke-linecap="round" stroke-linejoin="round"/>
</svg>
