<svg width="24" height="24" viewBox="0 0 24 24" fill="none" xmlns="http://www.w3.org/2000/svg">
<path d="M19 15V15C19 15.929 19 16.3935 18.9384 16.7822C18.5996 18.9216 16.9216 20.5996 14.7822 20.9384C14.3935 21 13.929 21 13 21H9C6.19974 21 4.79961 21 3.73005 20.455C2.78924 19.9757 2.02433 19.2108 1.54497 18.27C1 17.2004 1 15.8003 1 13V9.5C1 8.10547 1 7.40821 1.13815 6.83277C1.57707 5.00453 3.00453 3.57707 4.83277 3.13815C5.40821 3 6.10547 3 7.5 3V3H8M19 15L19.16 15.12C20.3959 16.047 21.0139 16.5105 21.5312 16.4997C21.9813 16.4904 22.4035 16.2793 22.681 15.9248C23 15.5174 23 14.745 23 13.2V10.8001C23 9.25514 23 8.48267 22.681 8.0753C22.4035 7.7208 21.9813 7.50973 21.5312 7.50038C21.0139 7.48963 20.3959 7.95312 19.16 8.88011L19 9.00009M19 15V9.00009M12 3H12.5H12.9999C13.929 3 14.3935 3 14.7822 3.06157C16.9216 3.40045 18.5996 5.07835 18.9384 7.21776C19 7.60646 19 8.071 19 9.00009V9.00009M14 8.5C14 8.77614 13.7761 9 13.5 9C13.2239 9 13 8.77614 13 8.5M14 8.5C14 8.22386 13.7761 8 13.5 8C13.2239 8 13 8.22386 13 8.5M14 8.5H13" stroke="#2F384C" stroke-width="1.5" stroke-linecap="round" stroke-linejoin="round"/>
</svg>
