<svg width="24" height="24" viewBox="0 0 24 24" fill="none" xmlns="http://www.w3.org/2000/svg">
<path d="M16.9995 9.99951C17.5973 10.3987 17.9995 11.1449 17.9995 11.9995C17.9995 12.3578 17.9288 12.6969 17.8027 12.9995M17.9995 5.99951C19.7929 7.19716 20.9995 9.43567 20.9995 11.9995C20.9995 13.0742 20.7875 14.0918 20.4091 14.9995C20.2629 15.3503 20.0918 15.6846 19.8985 15.9995M13.9995 13.9995V15.6912C13.9995 17.8495 13.9995 18.9286 13.7327 19.3919C13.2056 20.3074 12.0574 20.6551 11.1109 20.1857C10.632 19.9482 10.0334 19.0503 8.83616 17.2545C8.59959 16.8997 8.48131 16.7222 8.33814 16.5801C8.06146 16.3055 7.71054 16.1177 7.32854 16.0398C7.13086 15.9995 6.91763 15.9995 6.49116 15.9995H5.19949C4.07938 15.9995 3.51933 15.9995 3.09151 15.7815C2.71518 15.5898 2.40922 15.2838 2.21747 14.9075C2.09646 14.67 2.04262 14.3917 2.01868 13.9995M13.9995 13.9995L7.79995 7.79997M13.9995 13.9995L20.9995 20.9995M2.99949 2.99951L7.79995 7.79997M7.79995 7.79997C7.65082 7.8721 7.49255 7.92579 7.32854 7.95922C7.13086 7.99951 6.91763 7.99951 6.49116 7.99951H5.99949C5.71842 7.99951 5.45138 7.99951 5.1986 7.99951C4.07909 7.99951 3.51933 7.99951 3.09151 8.2175C2.71518 8.40925 2.40922 8.71521 2.21747 9.09153C2.09646 9.32904 2.04262 9.6073 2.01868 9.99951M9.67216 5.49951C10.3428 4.51845 10.7591 3.98775 11.1109 3.81329C12.0574 3.34395 13.2056 3.6916 13.7327 4.6071C13.9995 5.07043 13.9995 6.14956 13.9995 8.30784V9.99951" stroke="#2F384C" stroke-width="1.5" stroke-linecap="round" stroke-linejoin="round"/>
</svg>
