<svg width="24" height="24" viewBox="0 0 24 24" fill="none" xmlns="http://www.w3.org/2000/svg">
<path d="M6.99988 16.2456C8.36948 17.3435 10.108 18.0002 11.9999 18.0002C12.3385 18.0002 12.6723 17.9792 12.9999 17.9384M6.99988 16.2456C5.17095 14.7795 3.99988 12.5266 3.99988 10.0002C3.99988 8.30191 4.52909 6.72719 5.43161 5.43197M6.99988 16.2456C6.99988 18.0234 3.66788 19.4976 5.48637 21.3871C6.07646 22.0002 7.31784 22.0002 9.80061 22.0002H14.1991C16.6819 22.0002 17.9233 22.0002 18.5134 21.3871C19.4757 20.3872 18.8886 19.221 18.2256 18.2259M18.2256 18.2259L21.9999 22.0002M18.2256 18.2259L5.43161 5.43197M18.9296 14.0002C19.6103 12.8236 19.9999 11.4574 19.9999 10.0002C19.9999 8.5431 19.6103 7.17694 18.9296 6.00024M7.99988 3.0705C9.17657 2.38982 10.5427 2.00024 11.9999 2.00024C13.457 2.00024 14.8232 2.38982 15.9999 3.0705M5.43161 5.43197L1.99988 2.00024M11.9999 8.00024C13.1044 8.00024 13.9999 8.89567 13.9999 10.0002" stroke="#2F384C" stroke-width="1.5" stroke-linecap="round" stroke-linejoin="round"/>
</svg>
