<svg width="24" height="24" viewBox="0 0 24 24" fill="none" xmlns="http://www.w3.org/2000/svg">
<path d="M7.14279 16.3572C8.48951 17.3877 10.1733 18 12 18C12.6906 18 13.3608 17.9125 14 17.748M7.14279 16.3572C5.23225 14.8953 4 12.5915 4 10C4 5.58172 7.58172 2 12 2C16.4183 2 20 5.58172 20 10C20 11.9347 19.3132 13.709 18.1701 15.0924C17.6847 15.68 17.4419 15.9738 17.3836 16.1652C17.3169 16.3846 17.3144 16.4625 17.3669 16.6857C17.4128 16.8805 17.6219 17.1694 18.04 17.7471C18.6538 18.5954 19.1766 19.59 19.0416 20.3497C18.9723 20.7401 18.7885 21.1011 18.5135 21.3869C17.9234 22 16.682 22 14.1993 22H9.80074C7.31796 22 6.07658 22 5.48649 21.3869C5.21152 21.1011 5.02769 20.7401 4.95835 20.3497C4.73334 19.0827 6.33746 17.1625 7.14279 16.3572ZM14 10C14 11.1046 13.1046 12 12 12C10.8954 12 10 11.1046 10 10C10 8.89543 10.8954 8 12 8" stroke="#2F384C" stroke-width="1.5" stroke-linecap="round" stroke-linejoin="round"/>
</svg>
