<svg width="24" height="24" viewBox="0 0 24 24" fill="none" xmlns="http://www.w3.org/2000/svg">
<path opacity="0.12" d="M22 13.2076V9.38722C22 7.41756 20.6098 5.7217 18.6784 5.33542C17.6399 5.12773 16.7223 4.58317 16.1275 3.69088C15.4231 2.63436 14.2373 1.99976 12.9676 1.99976H11.0325C9.76274 1.99976 8.57697 2.63436 7.87262 3.69088C7.31392 4.52894 6.32103 5.13556 5.33337 5.33309L9.71582 9.71574C10.3634 9.26448 11.1508 8.99988 12 8.99988C14.2091 8.99988 16 10.7907 16 12.9999C16 13.849 15.7353 14.6364 15.2841 15.284L20.5356 20.5353C20.7588 20.312 20.961 20.0676 21.1389 19.8051C22 18.5346 22 16.7589 22 13.2076Z" fill="#2F384C"/>
<path d="M5.33333 5.33284C6.32099 5.13531 7.31388 4.5287 7.87258 3.69064C8.57693 2.63412 9.7627 1.99951 11.0325 1.99951H12.9675C14.2373 1.99951 15.4231 2.63412 16.1274 3.69064C16.7223 4.58292 17.6399 5.12749 18.6783 5.33517C20.6097 5.72146 22 7.41731 22 9.38698V13.2074C22 16.7587 22 18.5343 21.1389 19.8048C20.9609 20.0674 20.7588 20.3118 20.5355 20.535M5.33333 5.33284L2 1.99951M5.33333 5.33284L20.5355 20.535M22.5 22.4995L20.5355 20.535M17 21.9241C16.012 21.9995 14.785 21.9995 13.2078 21.9995H10.7922C7.24083 21.9995 5.46517 21.9995 4.19468 21.1384C3.6696 20.7825 3.21704 20.3299 2.86114 19.8048C2 18.5343 2 16.7587 2 13.2074V9.38698C2 8.50533 2.27855 7.67855 2.75949 6.99951M9.71586 9.71562C10.3635 9.26436 11.1508 8.99976 12 8.99976C14.2091 8.99976 16 10.7906 16 12.9998C16 13.8489 15.7354 14.6363 15.2841 15.2839M8.12602 11.9998C8.04375 12.3194 8 12.6545 8 12.9998C8 15.2089 9.79086 16.9998 12 16.9998C12.3453 16.9998 12.6804 16.956 13 16.8737" stroke="#2F384C" stroke-width="1.5" stroke-linecap="round" stroke-linejoin="round"/>
</svg>
