<svg width="24" height="24" viewBox="0 0 24 24" fill="none" xmlns="http://www.w3.org/2000/svg">
<path opacity="0.12" d="M12 22C17.5228 22 22 17.5228 22 12C22 6.47715 17.5228 2 12 2C6.47715 2 2 6.47715 2 12C2 13.499 2.33015 14.921 2.9214 16.1973C3.38829 17.2052 3.83022 18.0644 3.50454 19.1977C3.34789 19.7429 2.95529 20.2798 2.90866 20.8475C2.85534 21.4967 3.42708 22.0228 4.06965 21.9157C5.3779 21.6977 6.0076 20.6574 7.52552 21.0144C7.69003 21.0531 8.11879 21.2065 8.97627 21.5132C9.88354 21.8377 10.8606 22 12 22Z" fill="#2F384C"/>
<path d="M8 10H16M8 14H12M22 12C22 17.5228 17.5228 22 12 22C10.8606 22 9.88354 21.8377 8.97627 21.5132C8.11879 21.2065 7.69003 21.0531 7.52552 21.0144C6.0076 20.6574 5.3779 21.6977 4.06965 21.9157C3.42708 22.0228 2.85534 21.4967 2.90866 20.8475C2.95529 20.2798 3.34789 19.7429 3.50454 19.1977C3.83022 18.0644 3.38829 17.2052 2.9214 16.1973C2.33015 14.921 2 13.499 2 12C2 6.47715 6.47715 2 12 2C17.5228 2 22 6.47715 22 12Z" stroke="#2F384C" stroke-width="1.5" stroke-linecap="round" stroke-linejoin="round"/>
</svg>
