<svg width="24" height="24" viewBox="0 0 24 24" fill="none" xmlns="http://www.w3.org/2000/svg">
<path opacity="0.12" d="M18.364 18.3637C16.7353 19.9923 14.4853 20.9997 12 20.9997C7.02944 20.9997 3 16.9703 3 11.9997C3 9.51442 4.00736 7.26442 5.63604 5.63574L9.87868 9.87838C9.33577 10.4213 9 11.1713 9 11.9998C9 13.6566 10.3431 14.9998 12 14.9998C12.8324 14.9998 13.5856 14.6608 14.1291 14.1133L18.364 18.3637Z" fill="#2F384C"/>
<path d="M12 21C7.02944 21 3 16.9706 3 12M12 21C14.4853 21 16.7353 19.9926 18.364 18.364M12 21V23M3 12C3 9.51472 4.00736 7.26472 5.63604 5.63604M3 12H1M12 3C16.9706 3 21 7.02944 21 12M12 3C10.5632 3 9.20496 3.33671 8 3.93552M12 3V1M21 12C21 13.4368 20.6633 14.795 20.0645 16M21 12H23M18.364 18.364L22 22M18.364 18.364L14.129 14.1136L9.87868 9.87868M2 2L5.63604 5.63604M5.63604 5.63604L9.87868 9.87868M9.87868 9.87868C9.69388 10.0635 9.53308 10.2723 9.40135 10.5C9.14609 10.9413 9 11.4536 9 12C9 13.6569 10.3431 15 12 15C12.7684 15 13.4692 14.7111 14 14.2361" stroke="#2F384C" stroke-width="1.5" stroke-linecap="round" stroke-linejoin="round"/>
</svg>
