<svg width="24" height="24" viewBox="0 0 24 24" fill="none" xmlns="http://www.w3.org/2000/svg">
<path opacity="0.12" fill-rule="evenodd" clip-rule="evenodd" d="M12 22C17.5228 22 22 17.5228 22 12C22 6.47715 17.5228 2 12 2C6.47715 2 2 6.47715 2 12C2 17.5228 6.47715 22 12 22ZM12 16C14.2091 16 16 14.2091 16 12C16 9.79086 14.2091 8 12 8C9.79086 8 8 9.79086 8 12C8 14.2091 9.79086 16 12 16Z" fill="#2F384C"/>
<path d="M19.0711 4.92893L19.6014 4.3986L19.0711 4.92893ZM14.4697 8.46967C14.1768 8.76256 14.1768 9.23744 14.4697 9.53033C14.7626 9.82322 15.2374 9.82322 15.5303 9.53033L14.4697 8.46967ZM9.53033 15.5303C9.82322 15.2374 9.82322 14.7626 9.53033 14.4697C9.23744 14.1768 8.76256 14.1768 8.46967 14.4697L9.53033 15.5303ZM8.46967 9.53033C8.76256 9.82322 9.23744 9.82322 9.53033 9.53033C9.82322 9.23744 9.82322 8.76256 9.53033 8.46967L8.46967 9.53033ZM15.5303 14.4697C15.2374 14.1768 14.7626 14.1768 14.4697 14.4697C14.1768 14.7626 14.1768 15.2374 14.4697 15.5303L15.5303 14.4697ZM12 21.25C9.44548 21.25 7.134 20.2155 5.45926 18.5407L4.3986 19.6014C6.34315 21.5459 9.03168 22.75 12 22.75V21.25ZM5.45926 18.5407C3.78452 16.866 2.75 14.5545 2.75 12H1.25C1.25 14.9683 2.45406 17.6569 4.3986 19.6014L5.45926 18.5407ZM21.25 12C21.25 14.5545 20.2155 16.866 18.5407 18.5407L19.6014 19.6014C21.5459 17.6569 22.75 14.9683 22.75 12H21.25ZM18.5407 18.5407C16.866 20.2155 14.5545 21.25 12 21.25V22.75C14.9683 22.75 17.6569 21.5459 19.6014 19.6014L18.5407 18.5407ZM12 2.75C14.5545 2.75 16.866 3.78452 18.5407 5.45926L19.6014 4.3986C17.6569 2.45406 14.9683 1.25 12 1.25V2.75ZM18.5407 5.45926C20.2155 7.134 21.25 9.44548 21.25 12H22.75C22.75 9.03168 21.5459 6.34315 19.6014 4.3986L18.5407 5.45926ZM2.75 12C2.75 9.44548 3.78452 7.134 5.45926 5.45926L4.3986 4.3986C2.45406 6.34315 1.25 9.03168 1.25 12H2.75ZM5.45926 5.45926C7.134 3.78452 9.44548 2.75 12 2.75V1.25C9.03168 1.25 6.34315 2.45406 4.3986 4.3986L5.45926 5.45926ZM18.5407 4.3986L14.4697 8.46967L15.5303 9.53033L19.6014 5.45926L18.5407 4.3986ZM8.46967 14.4697L4.3986 18.5407L5.45926 19.6014L9.53033 15.5303L8.46967 14.4697ZM4.3986 5.45926L8.46967 9.53033L9.53033 8.46967L5.45926 4.3986L4.3986 5.45926ZM14.4697 15.5303L18.5407 19.6014L19.6014 18.5407L15.5303 14.4697L14.4697 15.5303ZM15.25 12C15.25 13.7949 13.7949 15.25 12 15.25V16.75C14.6234 16.75 16.75 14.6234 16.75 12H15.25ZM12 15.25C10.2051 15.25 8.75 13.7949 8.75 12H7.25C7.25 14.6234 9.37665 16.75 12 16.75V15.25ZM8.75 12C8.75 10.2051 10.2051 8.75 12 8.75V7.25C9.37665 7.25 7.25 9.37665 7.25 12H8.75ZM12 8.75C13.7949 8.75 15.25 10.2051 15.25 12H16.75C16.75 9.37665 14.6234 7.25 12 7.25V8.75Z" fill="#2F384C"/>
</svg>
