<svg width="24" height="24" viewBox="0 0 24 24" fill="none" xmlns="http://www.w3.org/2000/svg">
<path opacity="0.12" d="M7.6 13.9999H6.9935C5.39495 13.9999 4.59567 13.9999 4.18516 13.6722C3.82814 13.3873 3.62044 12.9551 3.62094 12.4983C3.62151 11.973 4.12081 11.3489 5.11941 10.1007L5.11941 10.1007L7.33333 7.33325L16.6667 16.6666L14.2741 19.6573L14.2741 19.6573C12.9632 21.2959 12.3078 22.1151 11.7331 22.2055C11.2355 22.2838 10.732 22.1071 10.3924 21.7352C10 21.3056 10 20.2564 10 18.158V16.3999C10 15.5598 10 15.1398 9.83651 14.8189C9.6927 14.5367 9.46323 14.3072 9.18099 14.1634C8.86012 13.9999 8.44008 13.9999 7.6 13.9999Z" fill="#2F384C"/>
<path d="M3 3L7.33333 7.33333M21 21L16.6667 16.6667M16.6667 16.6667L14.2741 19.6574C12.9632 21.2959 12.3078 22.1152 11.7331 22.2056C11.2355 22.2839 10.732 22.1072 10.3924 21.7353C10 21.3057 10 20.2565 10 18.1581V16.4C10 15.5599 10 15.1399 9.83651 14.819C9.6927 14.5368 9.46323 14.3073 9.18099 14.1635C8.86012 14 8.44008 14 7.6 14H6.9935C5.39495 14 4.59567 14 4.18516 13.6723C3.82814 13.3873 3.62044 12.9552 3.62094 12.4984C3.62151 11.9731 4.12081 11.349 5.11941 10.1007L7.33333 7.33333M16.6667 16.6667L7.33333 7.33333M9.2 5L9.6 4.5L9.72592 4.34261C11.0368 2.70406 11.6922 1.88479 12.2669 1.79439C12.7645 1.71614 13.268 1.89278 13.6076 2.26468C14 2.69433 14 3.74351 14 5.84187V7.6C14 8.44008 14 8.86012 14.1635 9.18099C14.3073 9.46323 14.5368 9.6927 14.819 9.83651C15.1399 10 15.5599 10 16.4 10H17.1977C18.6306 10 19.3471 10 19.7321 10.2662C20.1678 10.5674 20.4124 11.0762 20.3754 11.6047C20.3427 12.0716 19.8952 12.631 19 13.75V13.75L18.8 14" stroke="#2F384C" stroke-width="1.5" stroke-linecap="round" stroke-linejoin="round"/>
</svg>
