<svg width="24" height="24" viewBox="0 0 24 24" fill="none" xmlns="http://www.w3.org/2000/svg">
<path opacity="0.12" d="M10 6.99951L14.9649 3.52407C16.5945 2.38339 17.4092 1.81306 18.0874 1.84273C18.678 1.86858 19.2269 2.15436 19.5868 2.62337C20 3.16196 20 4.15651 20 6.14561V15.8534C20 17.8425 20 18.8371 19.5868 19.3757C19.2269 19.8447 18.678 20.1304 18.0874 20.1563C17.4092 20.186 16.5945 19.6156 14.9649 18.475L10 14.9995V6.99951Z" fill="#2F384C"/>
<path d="M10 7H6C3.79086 7 2 8.79086 2 11V11C2 13.2091 3.79086 15 6 15H10M10 7V15M10 7L14.9648 3.52437C16.5944 2.38361 17.4092 1.81322 18.0874 1.84289C18.678 1.86872 19.2269 2.1545 19.5867 2.6235C20 3.1621 20 4.15669 20 6.14586V8M10 15L14.965 18.4753C16.5945 19.6158 17.4093 20.1861 18.0875 20.1564C18.6781 20.1306 19.2269 19.8448 19.5868 19.3758C20 18.8372 20 17.8427 20 15.8537V14M6 15V19.5C6 20.3284 6.67157 21 7.5 21V21C8.32843 21 9 20.3284 9 19.5V15M20 8V8C21.6569 8 23 9.34315 23 11V11C23 12.6569 21.6569 14 20 14V14M20 8V14" stroke="#2F384C" stroke-width="1.5" stroke-linecap="round" stroke-linejoin="round"/>
</svg>
