<svg width="24" height="24" viewBox="0 0 24 24" fill="none" xmlns="http://www.w3.org/2000/svg">
<path opacity="0.12" fill-rule="evenodd" clip-rule="evenodd" d="M13.999 19L18.999 14V10.3695C18.999 8.46035 18.999 7.50578 18.6533 6.72913C18.3485 6.04444 17.8574 5.45915 17.2361 5.03999C16.5314 4.56453 15.5913 4.39864 13.7112 4.06686L6.50089 2.79445C4.98642 2.52719 4.22919 2.39356 3.68376 2.62504C3.20654 2.82758 2.8266 3.20751 2.62407 3.68474C2.39258 4.23017 2.52621 4.9874 2.79347 6.50187L4.06589 13.7122C4.39767 15.5923 4.56355 16.5323 5.03901 17.2371C5.45818 17.8584 6.04346 18.3494 6.72815 18.6542C7.50481 19 8.45937 19 10.3685 19H13.999ZM11 13C12.1046 13 13 12.1046 13 11C13 9.89543 12.1046 9 11 9C9.89543 9 9 9.89543 9 11C9 12.1046 9.89543 13 11 13Z" fill="#2F384C"/>
<path d="M3.49951 3.5L7.49997 7.50046M13.999 19L18.999 14V10.3695C18.999 8.46035 18.999 7.50578 18.6533 6.72913C18.3485 6.04444 17.8574 5.45915 17.2361 5.03999C16.5314 4.56453 15.5913 4.39864 13.7112 4.06686L6.50089 2.79445C4.98642 2.52719 4.22919 2.39356 3.68376 2.62504C3.20654 2.82758 2.8266 3.20751 2.62407 3.68474C2.39258 4.23017 2.52621 4.9874 2.79347 6.50187L4.06589 13.7122C4.39767 15.5923 4.56355 16.5323 5.03901 17.2371C5.45818 17.8584 6.04346 18.3494 6.72815 18.6542C7.50481 19 8.45937 19 10.3685 19H13.999ZM13 11C13 12.1046 12.1046 13 11 13C9.89543 13 9 12.1046 9 11C9 9.89543 9.89543 9 11 9C12.1046 9 13 9.89543 13 11ZM12.999 20L19.499 13.5C20.0513 12.9477 20.9467 12.9477 21.499 13.5V13.5C22.0513 14.0523 22.0513 14.9477 21.499 15.5L14.999 22C14.4467 22.5523 13.5513 22.5523 12.999 22V22C12.4467 21.4477 12.4467 20.5523 12.999 20Z" stroke="#2F384C" stroke-width="1.5" stroke-linecap="round" stroke-linejoin="round"/>
</svg>
