<svg width="24" height="24" viewBox="0 0 24 24" fill="none" xmlns="http://www.w3.org/2000/svg">
<path opacity="0.12" d="M2.60195 13.4389C2.7244 11.6975 2.78562 10.8268 3.02309 10.1109C3.66651 8.17126 5.25293 6.69246 7.23294 6.18667C7.9637 6 8.83655 6 10.5822 6H13.4178C15.1634 6 16.0363 6 16.7671 6.18667C18.7471 6.69246 20.3335 8.17126 20.9769 10.1109C21.2144 10.8268 21.2756 11.6975 21.398 13.4389V13.4389C21.537 15.4148 21.6064 16.4028 21.4397 17.2114C20.9866 19.4094 19.3447 21.1708 17.1839 21.777C16.389 22 15.3986 22 13.4178 22H10.5822C8.60144 22 7.61104 22 6.81608 21.777C4.65526 21.1708 3.01338 19.4094 2.56026 17.2114C2.39355 16.4028 2.46302 15.4148 2.60195 13.4389V13.4389Z" fill="#2F384C"/>
<path d="M8 8V6C8 3.79086 9.79086 2 12 2C14.2091 2 16 3.79086 16 6V8M8.5 11.5C8.5 11.7761 8.27614 12 8 12C7.72386 12 7.5 11.7761 7.5 11.5M8.5 11.5C8.5 11.2239 8.27614 11 8 11C7.72386 11 7.5 11.2239 7.5 11.5M8.5 11.5H7.5M16.5 11.5C16.5 11.7761 16.2761 12 16 12C15.7239 12 15.5 11.7761 15.5 11.5M16.5 11.5C16.5 11.2239 16.2761 11 16 11C15.7239 11 15.5 11.2239 15.5 11.5M16.5 11.5H15.5M10.5822 22H13.4178C15.3986 22 16.389 22 17.1839 21.777C19.3447 21.1708 20.9866 19.4094 21.4397 17.2114C21.6064 16.4028 21.537 15.4148 21.398 13.4389V13.4389C21.2756 11.6975 21.2144 10.8268 20.9769 10.1109C20.3335 8.17126 18.7471 6.69246 16.7671 6.18667C16.0363 6 15.1634 6 13.4178 6H10.5822C8.83655 6 7.9637 6 7.23294 6.18667C5.25293 6.69246 3.66651 8.17126 3.02309 10.1109C2.78562 10.8268 2.7244 11.6975 2.60195 13.4389V13.4389C2.46302 15.4148 2.39355 16.4028 2.56026 17.2114C3.01338 19.4094 4.65526 21.1708 6.81608 21.777C7.61104 22 8.60144 22 10.5822 22Z" stroke="#2F384C" stroke-width="1.5" stroke-linecap="round" stroke-linejoin="round"/>
</svg>
