<svg width="24" height="24" viewBox="0 0 24 24" fill="none" xmlns="http://www.w3.org/2000/svg">
<g opacity="0.12">
<path d="M2 18.8C2 16.149 4.14903 14 6.8 14H11.2C13.851 14 16 16.149 16 18.8V18.8C16 20.5673 14.5673 22 12.8 22H5.2C3.43269 22 2 20.5673 2 18.8V18.8Z" fill="#2F384C"/>
<path d="M13 6C13 8.20914 11.2091 10 9 10C6.79086 10 5 8.20914 5 6C5 3.79086 6.79086 2 9 2C11.2091 2 13 3.79086 13 6Z" fill="#2F384C"/>
</g>
<path d="M20 7V10M20 10V13M20 10H17M20 10H23M13 6C13 8.20914 11.2091 10 9 10C6.79086 10 5 8.20914 5 6C5 3.79086 6.79086 2 9 2C11.2091 2 13 3.79086 13 6ZM5.2 22H12.8C14.5673 22 16 20.5673 16 18.8V18.8C16 16.149 13.851 14 11.2 14H6.8C4.14903 14 2 16.149 2 18.8V18.8C2 20.5673 3.43269 22 5.2 22Z" stroke="#2F384C" stroke-width="1.5" stroke-linecap="round" stroke-linejoin="round"/>
</svg>
