<svg width="24" height="24" viewBox="0 0 24 24" fill="none" xmlns="http://www.w3.org/2000/svg">
<path opacity="0.12" d="M6.49119 15.9996H5.19951C4.07941 15.9996 3.51935 15.9996 3.09153 15.7816C2.71521 15.5899 2.40925 15.2839 2.2175 14.9076C1.99951 14.4797 1.99951 13.9197 1.99951 12.7996V11.1996C1.99951 10.0795 1.99951 9.51943 2.2175 9.09161C2.40925 8.71528 2.71521 8.40932 3.09153 8.21758C3.51935 7.99959 4.07911 7.99959 5.19862 7.99959C5.4514 7.99959 5.71845 7.99959 5.99951 7.99959H6.49119C6.91765 7.99959 7.13089 7.99959 7.32857 7.9593C7.49257 7.92587 7.65084 7.87218 7.79997 7.80005L13.9995 13.9996V15.6913C13.9995 17.8495 13.9995 18.9287 13.7327 19.392C13.2056 20.3075 12.0574 20.6552 11.111 20.1858C10.632 19.9483 10.0334 19.0504 8.83618 17.2546C8.59962 16.8997 8.48134 16.7223 8.33816 16.5802C8.06148 16.3055 7.71057 16.1177 7.32857 16.0399C7.13089 15.9996 6.91765 15.9996 6.49119 15.9996Z" fill="#2F384C"/>
<path d="M16.9995 9.99951C17.5973 10.3987 17.9995 11.1449 17.9995 11.9995C17.9995 12.3578 17.9288 12.6969 17.8027 12.9995M17.9995 5.99951C19.7929 7.19716 20.9995 9.43567 20.9995 11.9995C20.9995 13.0742 20.7875 14.0918 20.4091 14.9995C20.2629 15.3503 20.0918 15.6846 19.8985 15.9995M13.9995 13.9995V15.6912C13.9995 17.8495 13.9995 18.9286 13.7327 19.3919C13.2056 20.3074 12.0574 20.6551 11.111 20.1857C10.632 19.9482 10.0334 19.0503 8.83618 17.2545C8.59962 16.8997 8.48134 16.7222 8.33816 16.5801C8.06148 16.3055 7.71057 16.1177 7.32857 16.0398C7.13089 15.9995 6.91765 15.9995 6.49119 15.9995H5.19951C4.07941 15.9995 3.51935 15.9995 3.09153 15.7815C2.71521 15.5898 2.40925 15.2838 2.2175 14.9075C1.99951 14.4797 1.99951 13.9196 1.99951 12.7995V11.1995C1.99951 10.0794 1.99951 9.51935 2.2175 9.09153C2.40925 8.71521 2.71521 8.40925 3.09153 8.2175C3.51935 7.99951 4.07911 7.99951 5.19862 7.99951C5.4514 7.99951 5.71845 7.99951 5.99951 7.99951H6.49119C6.91765 7.99951 7.13089 7.99951 7.32857 7.95922C7.49257 7.92579 7.65084 7.8721 7.79997 7.79997M13.9995 13.9995L7.79997 7.79997M13.9995 13.9995L20.9995 20.9995M2.99951 2.99951L7.79997 7.79997M9.67218 5.49951C10.3428 4.51845 10.7592 3.98775 11.111 3.81329C12.0574 3.34395 13.2056 3.6916 13.7327 4.6071C13.9995 5.07043 13.9995 6.14956 13.9995 8.30784V9.99951" stroke="#2F384C" stroke-width="1.5" stroke-linecap="round" stroke-linejoin="round"/>
</svg>
