<svg width="24" height="24" viewBox="0 0 24 24" fill="none" xmlns="http://www.w3.org/2000/svg">
<path opacity="0.12" d="M7 16.2453C8.3696 17.3432 10.1081 17.9999 12 17.9999C13.6983 17.9999 15.2731 17.4707 16.5683 16.5682L5.43173 5.43164C4.52921 6.72685 4 8.30158 4 9.99991C4 12.5263 5.17107 14.7792 7 16.2453Z" fill="#2F384C"/>
<path d="M6.99988 16.2456C8.36948 17.3435 10.108 18.0002 11.9999 18.0002C13.6982 18.0002 15.2729 17.471 16.5681 16.5685M6.99988 16.2456C5.17095 14.7795 3.99988 12.5266 3.99988 10.0002C3.99988 8.30191 4.52909 6.72719 5.43161 5.43197M6.99988 16.2456C6.99988 18.0234 3.66788 19.4976 5.48637 21.3871C6.07646 22.0002 7.31784 22.0002 9.80061 22.0002H14.1991C16.6819 22.0002 17.9233 22.0002 18.5134 21.3871C19.4757 20.3872 18.8886 19.221 18.2256 18.2259M18.2256 18.2259L21.9999 22.0002M18.2256 18.2259L16.5681 16.5685M16.5681 16.5685L5.43161 5.43197M18.9296 14.0002C19.6103 12.8236 19.9999 11.4574 19.9999 10.0002C19.9999 5.58197 16.4182 2.00024 11.9999 2.00024C10.5427 2.00024 9.17657 2.38982 7.99988 3.0705M5.43161 5.43197L1.99988 2.00024M11.9999 8.00024C13.1044 8.00024 13.9999 8.89567 13.9999 10.0002" stroke="#2F384C" stroke-width="1.5" stroke-linecap="round" stroke-linejoin="round"/>
</svg>
