<svg width="24" height="24" viewBox="0 0 24 24" fill="none" xmlns="http://www.w3.org/2000/svg">
<path opacity="0.32" d="M10.85 1.25C7.48969 1.25 5.80953 1.25 4.52606 1.90396C3.39709 2.4792 2.4792 3.39708 1.90396 4.52606C1.25 5.80953 1.25 7.48968 1.25 10.85L1.25 13.15C1.25 16.5103 1.25 18.1905 1.90396 19.4739C2.4792 20.6029 3.39708 21.5208 4.52606 22.096C5.80953 22.75 7.48969 22.75 10.85 22.75H13.15C16.5103 22.75 18.1905 22.75 19.4739 22.096C20.6029 21.5208 21.5208 20.6029 22.096 19.4739C22.75 18.1905 22.75 16.5103 22.75 13.15V10.85C22.75 7.48969 22.75 5.80953 22.096 4.52606C21.5208 3.39709 20.6029 2.4792 19.4739 1.90396C18.1905 1.25 16.5103 1.25 13.15 1.25L10.85 1.25Z" fill="#2F384C"/>
<path fill-rule="evenodd" clip-rule="evenodd" d="M14 8.25C14.2508 8.25 14.4849 8.37533 14.624 8.58398L16.4014 11.25L18 11.25C18.4142 11.25 18.75 11.5858 18.75 12C18.75 12.4142 18.4142 12.75 18 12.75L16 12.75C15.7492 12.75 15.5151 12.6247 15.376 12.416L14 10.3521L10.624 15.416C10.4849 15.6247 10.2508 15.75 10 15.75C9.74923 15.75 9.51506 15.6247 9.37596 15.416L7.59861 12.75L6 12.75C5.58579 12.75 5.25 12.4142 5.25 12C5.25 11.5858 5.58579 11.25 6 11.25L8 11.25C8.25076 11.25 8.48494 11.3753 8.62404 11.584L10 13.6479L13.376 8.58398C13.5151 8.37533 13.7492 8.25 14 8.25Z" fill="#2F384C"/>
</svg>
