<svg width="24" height="24" viewBox="0 0 24 24" fill="none" xmlns="http://www.w3.org/2000/svg">
<path opacity="0.32" d="M9.25 1.25C6.44974 1.25 5.04961 1.25 3.98005 1.79497C3.03924 2.27433 2.27433 3.03924 1.79497 3.98005C1.25 5.04961 1.25 6.44974 1.25 9.25V14.75C1.25 17.5503 1.25 18.9504 1.79497 20.02C2.27433 20.9608 3.03924 21.7257 3.98005 22.205C5.04961 22.75 6.44974 22.75 9.25 22.75H14.75C17.5503 22.75 18.9504 22.75 20.02 22.205C20.9608 21.7257 21.7257 20.9608 22.205 20.02C22.75 18.9504 22.75 17.5503 22.75 14.75V9.25C22.75 6.44974 22.75 5.04961 22.205 3.98005C21.7257 3.03924 20.9608 2.27433 20.02 1.79497C18.9504 1.25 17.5503 1.25 14.75 1.25H9.25Z" fill="#2F384C"/>
<path fill-rule="evenodd" clip-rule="evenodd" d="M12 6.25C12.4142 6.25 12.75 6.58579 12.75 7L12.75 15.1894L15.4697 12.4697C15.7626 12.1768 16.2375 12.1768 16.5304 12.4697C16.8233 12.7626 16.8233 13.2374 16.5304 13.5303L12.5303 17.5303C12.2374 17.8232 11.7626 17.8232 11.4697 17.5303L7.46967 13.5303C7.17678 13.2374 7.17678 12.7626 7.46967 12.4697C7.76256 12.1768 8.23744 12.1768 8.53033 12.4697L11.25 15.1893L11.25 7C11.25 6.58579 11.5858 6.25 12 6.25Z" fill="#2F384C"/>
</svg>
