<svg width="24" height="24" viewBox="0 0 24 24" fill="none" xmlns="http://www.w3.org/2000/svg">
<path opacity="0.32" d="M9.25 1.25C6.44974 1.25 5.04961 1.25 3.98005 1.79497C3.03924 2.27433 2.27433 3.03924 1.79497 3.98005C1.25 5.04961 1.25 6.44974 1.25 9.25V14.75C1.25 17.5503 1.25 18.9504 1.79497 20.02C2.27433 20.9608 3.03924 21.7257 3.98005 22.205C5.04961 22.75 6.44974 22.75 9.25 22.75H14.75C17.5503 22.75 18.9504 22.75 20.02 22.205C20.9608 21.7257 21.7257 20.9608 22.205 20.02C22.75 18.9504 22.75 17.5503 22.75 14.75V9.25C22.75 6.44974 22.75 5.04961 22.205 3.98005C21.7257 3.03924 20.9608 2.27433 20.02 1.79497C18.9504 1.25 17.5503 1.25 14.75 1.25H9.25Z" fill="#2F384C"/>
<path fill-rule="evenodd" clip-rule="evenodd" d="M12.4697 7.46967C12.7626 7.17677 13.2374 7.17678 13.5303 7.46967L17.5303 11.4697C17.8232 11.7626 17.8232 12.2375 17.5303 12.5304L13.5303 16.5304C13.2374 16.8233 12.7626 16.8233 12.4697 16.5304C12.1768 16.2375 12.1768 15.7626 12.4697 15.4697L15.1893 12.7501H7C6.58579 12.7501 6.25 12.4143 6.25 12.0001C6.25 11.5859 6.58579 11.2501 7 11.2501H15.1894L12.4697 8.53033C12.1768 8.23743 12.1768 7.76256 12.4697 7.46967Z" fill="#2F384C"/>
</svg>
