<svg width="24" height="24" viewBox="0 0 24 24" fill="none" xmlns="http://www.w3.org/2000/svg">
<path opacity="0.32" d="M9.25 1.25C6.44974 1.25 5.04961 1.25 3.98005 1.79497C3.03924 2.27433 2.27433 3.03924 1.79497 3.98005C1.25 5.04961 1.25 6.44974 1.25 9.25V14.75C1.25 17.5503 1.25 18.9504 1.79497 20.02C2.27433 20.9608 3.03924 21.7257 3.98005 22.205C5.04961 22.75 6.44974 22.75 9.25 22.75H14.75C17.5503 22.75 18.9504 22.75 20.02 22.205C20.9608 21.7257 21.7257 20.9608 22.205 20.02C22.75 18.9504 22.75 17.5503 22.75 14.75V9.25C22.75 6.44974 22.75 5.04961 22.205 3.98005C21.7257 3.03924 20.9608 2.27433 20.02 1.79497C18.9504 1.25 17.5503 1.25 14.75 1.25H9.25Z" fill="#2F384C"/>
<path fill-rule="evenodd" clip-rule="evenodd" d="M11.4697 6.46967C11.7626 6.17678 12.2375 6.17678 12.5304 6.46967L16.5304 10.4697C16.8233 10.7626 16.8233 11.2374 16.5304 11.5303C16.2375 11.8232 15.7626 11.8232 15.4697 11.5303L12.7501 8.81066L12.7501 17C12.7501 17.4142 12.4143 17.75 12.0001 17.75C11.5859 17.75 11.2501 17.4142 11.2501 17L11.2501 8.81064L8.53033 11.5303C8.23743 11.8232 7.76256 11.8232 7.46967 11.5303C7.17677 11.2374 7.17678 10.7626 7.46967 10.4697L11.4697 6.46967Z" fill="#2F384C"/>
</svg>
