<svg width="24" height="24" viewBox="0 0 24 24" fill="none" xmlns="http://www.w3.org/2000/svg">
<path opacity="0.32" d="M20.8911 13.5049L19.4904 11.9749C19.014 11.4546 18.7498 10.7747 18.7498 10.0692V8C18.7498 4.27208 15.7277 1.25 11.9998 1.25C9.34949 1.25 7.05594 2.77742 5.95142 5L18.9676 18.0162C19.2917 17.9056 19.6138 17.7871 19.9336 17.6606C21.6206 16.9935 22.1161 14.843 20.8911 13.5049Z" fill="#2F384C"/>
<path fill-rule="evenodd" clip-rule="evenodd" d="M3.53033 1.46967C3.23744 1.17678 2.76256 1.17678 2.46967 1.46967C2.17678 1.76256 2.17678 2.23744 2.46967 2.53033L5.64845 5.70911C5.39041 6.42438 5.24976 7.19577 5.24976 8V10.0692C5.24976 10.7747 4.98555 11.4546 4.50918 11.9749L3.10847 13.5049C1.88345 14.843 2.37893 16.9935 4.06597 17.6606C8.59238 19.4506 13.5731 19.651 18.2013 18.2619L21.4697 21.5303C21.7626 21.8232 22.2374 21.8232 22.5303 21.5303C22.8232 21.2374 22.8232 20.7626 22.5303 20.4697L3.53033 1.46967ZM11.9999 23.0002C10.1678 23.0002 8.62334 21.7684 8.14954 20.0879C10.6972 20.5299 13.3026 20.5299 15.8502 20.0879C15.3764 21.7684 13.832 23.0002 11.9999 23.0002Z" fill="#2F384C"/>
</svg>
