<svg width="24" height="24" viewBox="0 0 24 24" fill="none" xmlns="http://www.w3.org/2000/svg">
<g opacity="0.32">
<path d="M22.75 9.421C22.75 8.96165 22.75 8.73197 22.6536 8.60015C22.5696 8.48519 22.4405 8.41153 22.2987 8.39765C22.1362 8.38173 21.9385 8.49857 21.543 8.73226L13.143 13.6959C12.9998 13.7806 12.9281 13.8229 12.8761 13.8815C12.83 13.9334 12.7952 13.9943 12.774 14.0604C12.75 14.135 12.75 14.2182 12.75 14.3846V22.0119C12.75 22.4744 12.75 22.7056 12.847 22.8377C12.9315 22.9528 13.0613 23.0263 13.2036 23.0396C13.3667 23.0548 13.565 22.9358 13.9616 22.6979L21.1964 18.357C21.7629 18.0171 22.0462 17.8471 22.2519 17.6131C22.434 17.406 22.5713 17.1635 22.6552 16.9009C22.75 16.604 22.75 16.2737 22.75 15.613V9.421Z" fill="#2F384C"/>
<path d="M10.0384 22.6979C10.435 22.9358 10.6333 23.0548 10.7964 23.0396C10.9387 23.0263 11.0685 22.9528 11.153 22.8377C11.25 22.7056 11.25 22.4744 11.25 22.0119V14.3846C11.25 14.2182 11.25 14.135 11.226 14.0604C11.2048 13.9943 11.17 13.9334 11.1239 13.8815C11.0719 13.8229 11.0002 13.7806 10.857 13.6959L2.45698 8.73226C2.06151 8.49857 1.86378 8.38173 1.70126 8.39765C1.55953 8.41153 1.43044 8.48519 1.34638 8.60015C1.25 8.73197 1.25 8.96165 1.25 9.421V15.613C1.25 16.2737 1.25 16.604 1.34479 16.9009C1.42868 17.1635 1.56597 17.406 1.74806 17.6131C1.95382 17.8471 2.23708 18.0171 2.80361 18.357L10.0384 22.6979Z" fill="#2F384C"/>
</g>
<path d="M12.4115 0.372446C12.2619 0.282656 12.1871 0.237761 12.1072 0.22022C12.0365 0.204705 11.9634 0.204705 11.8927 0.22022C11.8128 0.237761 11.738 0.282656 11.5883 0.372446L2.65292 5.7337C2.27331 5.96147 2.0835 6.07536 2.01961 6.2223C1.96386 6.35053 1.96435 6.49625 2.02096 6.6241C2.08583 6.77061 2.2764 6.88322 2.65754 7.10844L5.87274 9.00833C6.02294 9.09708 6.09803 9.14146 6.178 9.15847C6.24873 9.17351 6.32189 9.17303 6.39242 9.15706C6.47215 9.13901 6.54666 9.09366 6.69568 9.00295L15.5426 3.61784C15.916 3.39061 16.1026 3.27699 16.1657 3.13088C16.2208 3.00335 16.2203 2.85865 16.1644 2.73147C16.1004 2.58577 15.913 2.47334 15.5383 2.24849L12.4115 0.372446Z" fill="#2F384C"/>
<path d="M8.88904 9.42389C8.51325 9.65263 8.32536 9.76701 8.26233 9.91375C8.20733 10.0418 8.20828 10.187 8.26495 10.3144C8.32989 10.4603 8.51927 10.5722 8.89802 10.796L11.593 12.3885C11.7411 12.476 11.8151 12.5197 11.894 12.5368C11.9638 12.552 12.0361 12.552 12.1059 12.5368C12.1848 12.5197 12.2588 12.476 12.4069 12.3885L21.3424 7.10844C21.7235 6.88322 21.9141 6.77061 21.9789 6.6241C22.0355 6.49625 22.036 6.35053 21.9803 6.2223C21.9164 6.07535 21.7266 5.96147 21.347 5.7337L18.5408 4.05C18.3901 3.9596 18.3148 3.9144 18.2344 3.8969C18.1633 3.88143 18.0897 3.88167 18.0187 3.89759C17.9384 3.91559 17.8633 3.96128 17.7132 4.05264L8.88904 9.42389Z" fill="#2F384C"/>
</svg>
