<svg width="24" height="24" viewBox="0 0 24 24" fill="none" xmlns="http://www.w3.org/2000/svg">
<path opacity="0.32" d="M21.75 12.25V16.35C21.75 18.5902 21.75 19.7103 21.314 20.566C20.9305 21.3186 20.3186 21.9305 19.566 22.314C18.7103 22.75 17.5902 22.75 15.35 22.75H8.65C6.40979 22.75 5.28968 22.75 4.43404 22.314C3.68139 21.9305 3.06947 21.3186 2.68597 20.566C2.25 19.7103 2.25 18.5902 2.25 16.35V12.25H21.75Z" fill="#2F384C"/>
<path fill-rule="evenodd" clip-rule="evenodd" d="M8.83697 5.25C9.17555 3.81665 10.4632 2.75 12 2.75C13.5368 2.75 14.8245 3.81665 15.163 5.25H8.83697ZM7.30888 5.25C7.66846 2.98301 9.63185 1.25 12 1.25C14.3682 1.25 16.3315 2.98301 16.6911 5.25H16.75H19.55C20.6701 5.25 21.2302 5.25 21.658 5.46799C22.0343 5.65973 22.3403 5.96569 22.532 6.34202C22.75 6.76984 22.75 7.3299 22.75 8.45V9.55C22.75 10.6701 22.75 11.2302 22.532 11.658C22.3403 12.0343 22.0343 12.3403 21.658 12.532C21.2302 12.75 20.6701 12.75 19.55 12.75H16.75V13.5C16.75 13.9142 16.4142 14.25 16 14.25C15.5858 14.25 15.25 13.9142 15.25 13.5V12.75H8.75V13.5C8.75 13.9142 8.41421 14.25 8 14.25C7.58579 14.25 7.25 13.9142 7.25 13.5V12.75H4.45C3.3299 12.75 2.76984 12.75 2.34202 12.532C1.96569 12.3403 1.65973 12.0343 1.46799 11.658C1.25 11.2302 1.25 10.6701 1.25 9.55V8.45C1.25 7.3299 1.25 6.76984 1.46799 6.34202C1.65973 5.96569 1.96569 5.65973 2.34202 5.46799C2.76984 5.25 3.3299 5.25 4.45 5.25H7.30888Z" fill="#2F384C"/>
</svg>
