<svg width="24" height="24" viewBox="0 0 24 24" fill="none" xmlns="http://www.w3.org/2000/svg">
<path opacity="0.32" d="M19.8424 15.1877L18.7882 14.9241C17.7036 14.653 17.1613 14.5174 16.6256 14.5288C16.1511 14.5389 15.6821 14.6334 15.2406 14.8079C14.7424 15.0049 14.2949 15.3399 13.4 16.01L12.4298 16.7365C11.7873 17.2175 11.466 17.4581 11.063 17.5542C10.7429 17.6306 10.301 17.6137 9.98773 17.5131C9.59322 17.3865 9.3399 17.1647 8.83327 16.7212C8.17335 16.1434 7.56129 15.5153 7 14.8398V17.0607C7.97901 18.0351 9.06993 18.8975 10.2624 19.6374C12.931 21.2932 15.8754 22.1633 18.9199 22.5312C19.9878 22.6603 20.5217 22.7248 21.0659 22.5369C21.6472 22.3362 22.2292 21.8203 22.4982 21.2673C22.75 20.7495 22.75 20.1369 22.75 18.9116C22.75 17.9159 22.75 17.4181 22.5942 16.9977C22.4144 16.5125 22.0885 16.0951 21.6614 15.803C21.2913 15.5499 20.8084 15.4291 19.8424 15.1877Z" fill="#2F384C"/>
<path fill-rule="evenodd" clip-rule="evenodd" d="M7.71584 10.6911L7.12375 11.3948C6.69013 11.9101 6.47332 12.1678 6.35235 12.4951C6.20394 12.8966 6.20217 13.4678 6.34809 13.8703C6.46703 14.1983 6.64468 14.4121 6.99998 14.8397L6.99999 14.8397V17.0606C5.90389 15.9697 4.94808 14.7384 4.14703 13.3812C2.6247 10.8021 1.81716 7.98616 1.4675 5.08015C1.33892 4.01151 1.27463 3.4772 1.46268 2.93321C1.6636 2.35198 2.17922 1.7706 2.73229 1.50169C3.24991 1.25 3.86279 1.25 5.08853 1.25C6.08418 1.25 6.58201 1.25 7.00244 1.40583C7.48759 1.58563 7.90499 1.91153 8.19709 2.33858C8.45023 2.70867 8.57098 3.19163 8.81246 4.15755L8.81246 4.15756L9.02766 5.01836L9.02766 5.01836L9.02766 5.01838C9.31812 6.18019 9.46334 6.7611 9.44146 7.33118C9.42209 7.83603 9.30725 8.33264 9.10302 8.79474C8.87239 9.31655 8.48688 9.77472 7.71584 10.6911ZM20.4697 2.46967C20.7626 2.17678 21.2374 2.17678 21.5303 2.46967C21.8232 2.76256 21.8232 3.23744 21.5303 3.53033L16.8106 8.25H20C20.4142 8.25 20.75 8.58579 20.75 9C20.75 9.41421 20.4142 9.75 20 9.75H15C14.5858 9.75 14.25 9.41421 14.25 9V4C14.25 3.58579 14.5858 3.25 15 3.25C15.4142 3.25 15.75 3.58579 15.75 4V7.18934L20.4697 2.46967Z" fill="#2F384C"/>
</svg>
