<svg width="24" height="24" viewBox="0 0 24 24" fill="none" xmlns="http://www.w3.org/2000/svg">
<path opacity="0.32" d="M17.3451 22.6795C18.2252 22.6076 18.9523 22.4587 19.6104 22.1234C19.9255 21.9629 20.2233 21.7745 20.5009 21.5614L14.7981 15.8586C14.0767 16.5647 13.0892 17.0001 12 17.0001C9.79086 17.0001 8 15.2092 8 13.0001C8 11.9109 8.43535 10.9234 9.14153 10.202L3.96049 5.021C2.34559 5.83463 1.25 7.51503 1.25 9.38756L1.25 14.0337C1.25 15.4054 1.24999 16.4808 1.32061 17.3452C1.39252 18.2253 1.54138 18.9524 1.87671 19.6105C2.42799 20.6925 3.30762 21.5721 4.38956 22.1234C5.04769 22.4587 5.7748 22.6076 6.65494 22.6795C7.51926 22.7501 8.59471 22.7501 9.96637 22.7501H14.0336C15.4053 22.7501 16.4807 22.7501 17.3451 22.6795Z" fill="#2F384C"/>
<path fill-rule="evenodd" clip-rule="evenodd" d="M2.53033 1.46943C2.23744 1.17653 1.76256 1.17653 1.46967 1.46943C1.17678 1.76232 1.17678 2.23719 1.46967 2.53009L9.14152 10.2019C9.86763 9.46026 10.8801 9 12 9C14.2091 9 16 10.7909 16 13C16 14.1199 15.5397 15.1324 14.7981 15.8585L21.9697 23.0301C22.2626 23.323 22.7374 23.323 23.0303 23.0301C23.3232 22.7372 23.3232 22.2623 23.0303 21.9694L21.5616 20.5007C21.7746 20.2231 21.9628 19.9254 22.1233 19.6104C22.4586 18.9523 22.6075 18.2252 22.6794 17.3451C22.75 16.4807 22.75 15.4053 22.75 14.0336V9.38747C22.75 7.06029 21.1074 5.05662 18.8254 4.60023L18.6896 4.57307C17.897 4.41455 17.1998 3.94765 16.7515 3.2751C15.908 2.00993 14.4881 1.25 12.9675 1.25H11.0325C9.51194 1.25 8.09199 2.00993 7.24854 3.2751C6.84985 3.87315 6.25441 4.30858 5.57008 4.50917L2.53033 1.46943Z" fill="#2F384C"/>
</svg>
