<svg width="24" height="24" viewBox="0 0 24 24" fill="none" xmlns="http://www.w3.org/2000/svg">
<path opacity="0.32" d="M9.75 2.45821C9.75 2.15157 9.75 1.99826 9.69606 1.89175C9.62414 1.74973 9.4889 1.65045 9.33186 1.62439C9.21408 1.60485 9.06781 1.65079 8.77526 1.74267V1.74267C4.41455 3.11229 1.25 7.18581 1.25 12.0004C1.25 17.9375 6.06294 22.7504 12 22.7504C16.8146 22.7504 20.8881 19.5859 22.2577 15.2251V15.2251C22.3496 14.9326 22.3956 14.7863 22.376 14.6685C22.35 14.5115 22.2507 14.3763 22.1087 14.3043C22.0021 14.2504 21.8488 14.2504 21.5422 14.2504H16.15C13.9098 14.2504 12.7897 14.2504 11.934 13.8144C11.1814 13.4309 10.5695 12.819 10.186 12.0664C9.75 11.2107 9.75 10.0906 9.75 7.8504V2.45821Z" fill="#2F384C"/>
<path d="M12.0508 1.27035C11.7847 1.25668 11.6517 1.24985 11.5392 1.30219C11.4434 1.34672 11.3574 1.4284 11.308 1.52173C11.25 1.63144 11.25 1.77096 11.25 2.05V7.95C11.25 9.63016 11.25 10.4702 11.577 11.112C11.8646 11.6765 12.3235 12.1354 12.888 12.423C13.5298 12.75 14.3698 12.75 16.05 12.75H21.95C22.2291 12.75 22.3687 12.75 22.4783 12.692C22.5716 12.6427 22.6532 12.557 22.6978 12.4613C22.7502 12.3489 22.7435 12.2156 22.7302 11.949C22.4059 5.46912 18.1263 1.58241 12.0508 1.27035Z" fill="#2F384C"/>
</svg>
