<svg width="24" height="24" viewBox="0 0 24 24" fill="none" xmlns="http://www.w3.org/2000/svg">
<path opacity="0.32" d="M12 1.5C6.20101 1.5 1.5 6.20101 1.5 12C1.5 17.799 6.20101 22.5 12 22.5C17.799 22.5 22.5 17.799 22.5 12C22.5 6.20101 17.799 1.5 12 1.5Z" fill="#2F384C"/>
<path fill-rule="evenodd" clip-rule="evenodd" d="M23.5303 2.46967C23.8232 2.76256 23.8232 3.23744 23.5303 3.53033L12.5303 14.5303C12.2374 14.8232 11.7626 14.8232 11.4697 14.5303L8.46967 11.5303C8.17678 11.2374 8.17678 10.7626 8.46967 10.4697C8.76256 10.1768 9.23744 10.1768 9.53033 10.4697L12 12.9393L22.4697 2.46967C22.7626 2.17678 23.2374 2.17678 23.5303 2.46967Z" fill="#2F384C"/>
</svg>
