<svg width="24" height="24" viewBox="0 0 24 24" fill="none" xmlns="http://www.w3.org/2000/svg">
<path opacity="0.32" d="M8.04946 1.75442C11.7066 0.70665 16.0159 1.72939 18.3562 5.64338C18.5001 5.88413 18.4977 6.18509 18.3499 6.42349C18.202 6.66189 17.9335 6.79787 17.6539 6.77597C12.9375 6.40661 8.75 10.2563 8.75 15.0005C8.75 16.2629 9.03304 17.4571 9.53842 18.525C9.65989 18.7817 9.62599 19.0849 9.45083 19.3084C9.27567 19.532 8.9893 19.6374 8.71103 19.5808C8.35395 19.5082 8.01079 19.4122 7.67722 19.2929C7.29751 19.157 6.91626 18.9942 6.525 18.8928C6.10656 18.7944 5.83146 18.8743 5.48304 19.0399C5.15299 19.1968 4.5761 19.5531 3.88246 19.6686C2.85435 19.8399 1.93956 18.9982 2.02488 17.9594C2.07229 17.3822 2.40428 16.9464 2.55804 16.4114C2.74338 15.7665 2.52822 15.302 2.11145 14.4024L2.10266 14.3834C1.5553 13.2018 1.25 11.8858 1.25 10.5005C1.25 5.95571 4.39451 2.80157 8.04946 1.75442Z" fill="#2F384C"/>
<path d="M10.25 15.0005C10.25 11.2726 13.2721 8.25049 17 8.25049C20.7279 8.25049 23.75 11.2726 23.75 15.0005C23.75 16.0111 23.5272 16.9716 23.1277 17.8341C22.8219 18.4942 22.7129 18.7458 22.8181 19.112C22.9308 19.5042 23.1673 19.822 23.2023 20.2476C23.2743 21.124 22.5024 21.8342 21.635 21.6897C21.1048 21.6014 20.6491 21.3237 20.4467 21.2276C20.226 21.1227 20.0851 21.0854 19.8565 21.1392C19.5891 21.2149 19.3282 21.3211 19.0668 21.4146C18.4313 21.6419 17.7583 21.7505 17 21.7505C13.2721 21.7505 10.25 18.7284 10.25 15.0005Z" fill="#2F384C"/>
</svg>
