<svg width="24" height="24" viewBox="0 0 24 24" fill="none" xmlns="http://www.w3.org/2000/svg">
<path opacity="0.32" d="M2.24087 16.5125C2.60252 17.2931 3.03665 18.1104 2.78372 18.9906C2.60548 19.6108 2.216 20.1186 2.16118 20.7861C2.06787 21.9222 3.06842 22.8429 4.1929 22.6555C5.24137 22.4808 6.24918 21.4847 7.35382 21.7445C7.46428 21.7705 7.83036 21.8998 8.72366 22.2194C9.72211 22.5765 10.786 22.75 12 22.75C17.9371 22.75 22.75 17.9371 22.75 12C22.75 6.06294 17.9371 1.25 12 1.25C6.06294 1.25 1.25 6.06294 1.25 12C1.25 13.6102 1.60482 15.1395 2.24087 16.5125Z" fill="#2F384C"/>
<path fill-rule="evenodd" clip-rule="evenodd" d="M7.25 10C7.25 9.58579 7.58579 9.25 8 9.25H16C16.4142 9.25 16.75 9.58579 16.75 10C16.75 10.4142 16.4142 10.75 16 10.75H8C7.58579 10.75 7.25 10.4142 7.25 10ZM7.25 14C7.25 13.5858 7.58579 13.25 8 13.25H12C12.4142 13.25 12.75 13.5858 12.75 14C12.75 14.4142 12.4142 14.75 12 14.75H8C7.58579 14.75 7.25 14.4142 7.25 14Z" fill="#2F384C"/>
</svg>
