<svg width="24" height="24" viewBox="0 0 24 24" fill="none" xmlns="http://www.w3.org/2000/svg">
<path opacity="0.32" fill-rule="evenodd" clip-rule="evenodd" d="M1.25 11.35C1.25 10.7899 1.25 10.5099 1.35899 10.296C1.45487 10.1078 1.60785 9.95487 1.79601 9.85899C2.00992 9.75 2.28995 9.75 2.85 9.75H21.15C21.7101 9.75 21.9901 9.75 22.204 9.85899C22.3922 9.95487 22.5451 10.1078 22.641 10.296C22.75 10.5099 22.75 10.7899 22.75 11.35V15.35C22.75 17.5902 22.75 18.7103 22.314 19.566C21.9305 20.3186 21.3186 20.9305 20.566 21.314C19.7103 21.75 18.5902 21.75 16.35 21.75H7.65C5.40979 21.75 4.28968 21.75 3.43404 21.314C2.68139 20.9305 2.06947 20.3186 1.68597 19.566C1.25 18.7103 1.25 17.5902 1.25 15.35V11.35Z" fill="#2F384C"/>
<path d="M6.05 2.25C5.3068 2.25 4.93519 2.25 4.62426 2.29925C2.91269 2.57033 1.57033 3.91269 1.29925 5.62426C1.25 5.93519 1.25 6.3068 1.25 7.05V7.05C1.25 7.2358 1.25 7.3287 1.26231 7.40643C1.33008 7.83433 1.66567 8.16992 2.09357 8.23769C2.1713 8.25 2.2642 8.25 2.45 8.25H21.55C21.7358 8.25 21.8287 8.25 21.9064 8.23769C22.3343 8.16992 22.6699 7.83433 22.7377 7.40643C22.75 7.3287 22.75 7.2358 22.75 7.05V7.05C22.75 6.3068 22.75 5.93519 22.7008 5.62426C22.4297 3.91269 21.0873 2.57033 19.3757 2.29925C19.0648 2.25 18.6932 2.25 17.95 2.25H6.05Z" fill="#2F384C"/>
<path d="M6 12.25C5.58579 12.25 5.25 12.5858 5.25 13C5.25 13.4142 5.58579 13.75 6 13.75H10C10.4142 13.75 10.75 13.4142 10.75 13C10.75 12.5858 10.4142 12.25 10 12.25H6Z" fill="#2F384C"/>
</svg>
