<svg width="24" height="24" viewBox="0 0 24 24" fill="none" xmlns="http://www.w3.org/2000/svg">
<path opacity="0.32" d="M12 1.25C6.06294 1.25 1.25 6.06294 1.25 12C1.25 17.9371 6.06294 22.75 12 22.75C17.9371 22.75 22.75 17.9371 22.75 12C22.75 6.06294 17.9371 1.25 12 1.25Z" fill="#2F384C"/>
<path fill-rule="evenodd" clip-rule="evenodd" d="M8.31825 1.93706C8.65926 1.70193 9.12631 1.78777 9.36144 2.12878C10.7362 4.12269 11.9529 6.1924 13.011 8.32071C15.01 7.36244 16.8835 6.05528 18.5407 4.39855C18.8336 4.1057 19.3085 4.10576 19.6013 4.39869C19.8942 4.69163 19.8941 5.1665 19.6012 5.45935C17.8203 7.23975 15.8069 8.64422 13.6588 9.67376C14.0315 10.4829 14.3818 11.2999 14.7097 12.1237C17.096 11.6223 19.6183 11.6079 22.1357 12.1585C22.5403 12.247 22.7966 12.6468 22.7081 13.0514C22.6196 13.4561 22.2198 13.7123 21.8152 13.6238C19.5928 13.1377 17.366 13.1328 15.2506 13.5448C16.1082 15.9043 16.7849 18.3147 17.2803 20.7553C17.3627 21.1612 17.1004 21.5571 16.6945 21.6395C16.2886 21.7219 15.8927 21.4596 15.8103 21.0537C15.3187 18.632 14.6432 16.2409 13.7841 13.9021C10.5308 14.8572 7.62406 16.8179 5.5223 19.5305C5.2686 19.8579 4.79751 19.9177 4.47008 19.664C4.14265 19.4103 4.08288 18.9392 4.33657 18.6118C6.60704 15.6815 9.73738 13.5539 13.2437 12.4978C12.9429 11.7506 12.623 11.0093 12.2841 10.2746C8.99568 11.5771 5.4528 12.0428 1.9825 11.6748C1.57059 11.6311 1.27209 11.2618 1.31577 10.8499C1.35945 10.438 1.72877 10.1394 2.14067 10.1831C5.33881 10.5223 8.60067 10.1015 11.6331 8.9187C10.6145 6.8781 9.44552 4.89325 8.12652 2.98024C7.8914 2.63923 7.97724 2.17218 8.31825 1.93706Z" fill="#2F384C"/>
</svg>
