<svg width="24" height="24" viewBox="0 0 24 24" fill="none" xmlns="http://www.w3.org/2000/svg">
<path opacity="0.32" d="M12 1.25C6.06294 1.25 1.25 6.06294 1.25 12C1.25 17.9371 6.06294 22.75 12 22.75C17.9371 22.75 22.75 17.9371 22.75 12C22.75 6.06294 17.9371 1.25 12 1.25Z" fill="#2F384C"/>
<path fill-rule="evenodd" clip-rule="evenodd" d="M7.75004 10C7.75004 9.30964 8.30969 8.75 9.00004 8.75C9.6904 8.75 10.25 9.30964 10.25 10C10.25 10.6904 9.6904 11.25 9.00004 11.25C8.30969 11.25 7.75004 10.6904 7.75004 10ZM13.75 10C13.75 9.30964 14.3097 8.75 15 8.75C15.6904 8.75 16.25 9.30964 16.25 10C16.25 10.6904 15.6904 11.25 15 11.25C14.3097 11.25 13.75 10.6904 13.75 10ZM7.54912 14.4003C7.88031 14.1516 8.35046 14.2184 8.59923 14.5496C9.37588 15.5835 10.61 16.25 11.9999 16.25C13.3899 16.25 14.624 15.5835 15.4006 14.5496C15.6494 14.2184 16.1195 14.1516 16.4507 14.4003C16.7819 14.6491 16.8487 15.1192 16.6 15.4504C15.5522 16.8454 13.8816 17.75 11.9999 17.75C10.1182 17.75 8.44765 16.8454 7.39988 15.4504C7.15111 15.1192 7.21793 14.6491 7.54912 14.4003Z" fill="#2F384C"/>
</svg>
