<svg width="24" height="24" viewBox="0 0 24 24" fill="none" xmlns="http://www.w3.org/2000/svg">
<path opacity="0.32" d="M7.65 9.25C5.40979 9.25 4.28968 9.25 3.43404 9.68597C2.68139 10.0695 2.06947 10.6814 1.68597 11.434C1.25 12.2897 1.25 13.4098 1.25 15.65V16.35C1.25 18.5902 1.25 19.7103 1.68597 20.566C2.06947 21.3186 2.68139 21.9305 3.43404 22.314C4.28968 22.75 5.40979 22.75 7.65 22.75H16.35C18.5902 22.75 19.7103 22.75 20.566 22.314C21.3186 21.9305 21.9305 21.3186 22.314 20.566C22.75 19.7103 22.75 18.5902 22.75 16.35V15.65C22.75 13.4098 22.75 12.2897 22.314 11.434C21.9305 10.6814 21.3186 10.0695 20.566 9.68597C19.7103 9.25 18.5902 9.25 16.35 9.25H7.65Z" fill="#2F384C"/>
<path fill-rule="evenodd" clip-rule="evenodd" d="M11.4697 1.46967C11.7626 1.17678 12.2374 1.17678 12.5303 1.46967L16.5303 5.46967C16.8232 5.76256 16.8232 6.23744 16.5303 6.53033C16.2374 6.82322 15.7626 6.82322 15.4697 6.53033L12.75 3.81066L12.75 16C12.75 16.4142 12.4142 16.75 12 16.75C11.5858 16.75 11.25 16.4142 11.25 16L11.25 3.81066L8.53033 6.53033C8.23744 6.82322 7.76256 6.82322 7.46967 6.53033C7.17678 6.23744 7.17678 5.76256 7.46967 5.46967L11.4697 1.46967Z" fill="#2F384C"/>
</svg>
