<svg width="24" height="24" viewBox="0 0 24 24" fill="none" xmlns="http://www.w3.org/2000/svg">
<path opacity="0.32" d="M10.05 1.25C6.96971 1.25 5.42957 1.25 4.25305 1.84946C3.21816 2.37677 2.37677 3.21816 1.84946 4.25305C1.25 5.42957 1.25 6.96971 1.25 10.05V13.95C1.25 17.0303 1.25 18.5704 1.84946 19.7469C2.37677 20.7818 3.21816 21.6232 4.25305 22.1505C5.42957 22.75 6.96971 22.75 10.05 22.75H13.95C17.0303 22.75 18.5704 22.75 19.7469 22.1505C20.7818 21.6232 21.6232 20.7818 22.1505 19.7469C22.75 18.5704 22.75 17.0303 22.75 13.95V10.05C22.75 6.96971 22.75 5.42957 22.1505 4.25305C21.6232 3.21816 20.7818 2.37677 19.7469 1.84946C18.5704 1.25 17.0303 1.25 13.95 1.25H10.05Z" fill="#2F384C"/>
<path fill-rule="evenodd" clip-rule="evenodd" d="M16.1696 7.25L16.2 7.25H17C17.4142 7.25 17.75 7.58579 17.75 8C17.75 8.41421 17.4142 8.75 17 8.75H16.2C15.6276 8.75 15.2434 8.75058 14.9475 8.77476C14.6604 8.79822 14.5231 8.8401 14.4325 8.88624C14.1973 9.00608 14.0061 9.19731 13.8862 9.43251C13.8401 9.52307 13.7982 9.66036 13.7748 9.94748C13.7506 10.2434 13.75 10.6276 13.75 11.2V13.25H17C17.4142 13.25 17.75 13.5858 17.75 14C17.75 14.4142 17.4142 14.75 17 14.75H13.75V22V22.75H12.25V22V14.75H10C9.58579 14.75 9.25 14.4142 9.25 14C9.25 13.5858 9.58579 13.25 10 13.25H12.25V11.2L12.25 11.1696C12.25 10.6354 12.25 10.1896 12.2797 9.82533C12.3108 9.44545 12.3779 9.08879 12.5497 8.75153C12.8134 8.23408 13.2341 7.81338 13.7515 7.54973C14.0888 7.37789 14.4454 7.31078 14.8253 7.27974C15.1896 7.24998 15.6354 7.24999 16.1696 7.25Z" fill="#2F384C"/>
</svg>
