<svg width="24" height="24" viewBox="0 0 24 24" fill="none" xmlns="http://www.w3.org/2000/svg">
<path opacity="0.32" d="M13.25 2.85C13.25 2.28995 13.25 2.00992 13.141 1.79601C13.0451 1.60785 12.8922 1.45487 12.704 1.35899C12.4901 1.25 12.2101 1.25 11.65 1.25H11.25C8.44974 1.25 7.04961 1.25 5.98005 1.79497C5.03924 2.27433 4.27433 3.03924 3.79497 3.98005C3.25 5.04961 3.25 6.44974 3.25 9.25V14.75C3.25 17.5503 3.25 18.9504 3.79497 20.02C4.27433 20.9608 5.03924 21.7257 5.98005 22.205C7.04961 22.75 8.44974 22.75 11.25 22.75H12.75C15.5503 22.75 16.9504 22.75 18.02 22.205C18.9608 21.7257 19.7257 20.9608 20.205 20.02C20.75 18.9504 20.75 17.5503 20.75 14.75V10.35C20.75 9.78996 20.75 9.50993 20.641 9.29602C20.5451 9.10786 20.3922 8.95488 20.204 8.85901C19.9901 8.75001 19.7101 8.75001 19.15 8.75001H16.45C15.3299 8.75001 14.7698 8.75001 14.342 8.53203C13.9657 8.34028 13.6597 8.03432 13.468 7.65799C13.25 7.23017 13.25 6.67012 13.25 5.55001V2.85Z" fill="#2F384C"/>
<path fill-rule="evenodd" clip-rule="evenodd" d="M20.3535 6.29288C20.6074 6.54673 20.75 6.89102 20.75 7.25001H16.35C15.7899 7.25001 15.5099 7.25001 15.296 7.14102C15.1078 7.04515 14.9549 6.89217 14.859 6.704C14.75 6.49009 14.75 6.21007 14.75 5.65001V1.25C15.109 1.25 15.4533 1.39261 15.7071 1.64645L20.3535 6.29288ZM12.75 11C12.75 10.5858 12.4142 10.25 12 10.25C11.5858 10.25 11.25 10.5858 11.25 11V15.1893L10.0303 13.9697C9.73744 13.6768 9.26256 13.6768 8.96967 13.9697C8.67678 14.2626 8.67678 14.7374 8.96967 15.0303L11.4697 17.5303C11.7626 17.8232 12.2374 17.8232 12.5303 17.5303L15.0303 15.0303C15.3232 14.7374 15.3232 14.2626 15.0303 13.9697C14.7374 13.6768 14.2626 13.6768 13.9697 13.9697L12.75 15.1893V11Z" fill="#2F384C"/>
</svg>
