<svg width="24" height="24" viewBox="0 0 24 24" fill="none" xmlns="http://www.w3.org/2000/svg">
<path opacity="0.32" d="M5.75 15.5856L6.18426 15.477C7.91065 15.0454 9.73777 15.3173 11.2637 16.2328C12.9433 17.2406 14.9794 17.4641 16.8376 16.8447L20.5198 15.6173C20.6573 15.5715 20.75 15.4428 20.75 15.2979V3.40044C20.75 3.18347 20.5374 3.03026 20.3316 3.09887L16.9835 4.21491C15.147 4.82707 13.1347 4.60617 11.4748 3.61021C9.96671 2.70536 8.16095 2.43665 6.45476 2.8632L5.75 3.03939V15.5856Z" fill="#2F384C"/>
<path fill-rule="evenodd" clip-rule="evenodd" d="M5 1.25C5.41421 1.25 5.75 1.58579 5.75 2V4V15V22C5.75 22.4142 5.41421 22.75 5 22.75C4.58579 22.75 4.25 22.4142 4.25 22V15V4V2C4.25 1.58579 4.58579 1.25 5 1.25Z" fill="#2F384C"/>
</svg>
