<svg width="24" height="24" viewBox="0 0 24 24" fill="none" xmlns="http://www.w3.org/2000/svg">
<path opacity="0.32" d="M11.4307 9.25C9.9861 9.25 9.2638 9.25 8.67796 9.51281C8.16155 9.74447 7.72121 10.1175 7.4078 10.5888C7.05226 11.1235 6.93351 11.8359 6.69602 13.2609L5.42501 20.887C5.31818 21.5279 5.26477 21.8484 5.35754 22.0982C5.43895 22.3174 5.59459 22.5011 5.7974 22.6174C6.02852 22.75 6.35343 22.75 7.00324 22.75H17.569C19.0136 22.75 19.7359 22.75 20.3217 22.4872C20.8381 22.2555 21.2785 21.8825 21.5919 21.4112C21.9474 20.8765 22.0662 20.1641 22.3037 18.7391L23.2642 12.9761C23.4778 11.6941 23.5847 11.0532 23.3991 10.5536C23.2363 10.1153 22.925 9.74781 22.5194 9.51514C22.0572 9.25 21.4073 9.25 20.1077 9.25H11.4307Z" fill="#2F384C"/>
<path d="M1.24976 6.04951C1.24976 4.36935 1.24976 3.52928 1.57674 2.88754C1.86436 2.32305 2.3233 1.86411 2.88778 1.57649C3.52952 1.24951 4.3696 1.24951 6.04975 1.24951H7.78C8.58163 1.24951 8.98244 1.24951 9.34432 1.34098C9.94235 1.49213 10.4792 1.82395 10.8819 2.29125C11.1255 2.57402 11.3048 2.93252 11.6633 3.64951V3.64951C11.9023 4.12751 12.0218 4.36651 12.1842 4.55502C12.4526 4.86655 12.8106 5.08777 13.2093 5.18854C13.4505 5.24951 13.7177 5.24951 14.2521 5.24951H18.2493C19.6303 5.24951 20.7498 6.36901 20.7498 7.74999V7.74999H11.5153C9.58919 7.74999 8.62612 7.74999 7.845 8.1004C7.15646 8.40929 6.56934 8.90666 6.15146 9.53505C5.6774 10.2479 5.51907 11.1979 5.20241 13.0978L3.66115 22.3454C3.62228 22.5786 3.42053 22.7495 3.18413 22.7495V22.7495C2.11581 22.7495 1.24976 21.8835 1.24976 20.8151V6.04951Z" fill="#2F384C"/>
</svg>
