<svg width="24" height="24" viewBox="0 0 24 24" fill="none" xmlns="http://www.w3.org/2000/svg">
<path opacity="0.32" d="M6.05 1.25C4.36984 1.25 3.52976 1.25 2.88803 1.57698C2.32354 1.8646 1.8646 2.32354 1.57698 2.88803C1.25 3.52976 1.25 4.36984 1.25 6.05V16.35C1.25 18.5902 1.25 19.7103 1.68597 20.566C2.06947 21.3186 2.68139 21.9305 3.43404 22.314C4.28968 22.75 5.40979 22.75 7.65 22.75H16.35C18.5902 22.75 19.7103 22.75 20.566 22.314C21.3186 21.9305 21.9305 21.3186 22.314 20.566C22.75 19.7103 22.75 18.5902 22.75 16.35V11.65C22.75 9.40979 22.75 8.28968 22.314 7.43404C21.9305 6.68139 21.3186 6.06947 20.566 5.68597C19.7103 5.25 18.5902 5.25 16.35 5.25H15.2524C14.718 5.25 14.4508 5.25 14.2095 5.18902C13.8108 5.08825 13.4529 4.86704 13.1845 4.55551C13.022 4.36699 12.9025 4.128 12.6635 3.65V3.65C12.305 2.933 12.1258 2.57451 11.8821 2.29174C11.4795 1.82444 10.9426 1.49262 10.3446 1.34146C9.98268 1.25 9.58187 1.25 8.78024 1.25H6.05Z" fill="#2F384C"/>
<path d="M6.05 1.25C4.36984 1.25 3.52976 1.25 2.88803 1.57698C2.32354 1.8646 1.8646 2.32354 1.57698 2.88803C1.25 3.52976 1.25 4.36984 1.25 6.05V11C1.25 11 5 13 12 13C19 13 22.75 11 22.75 11V11C22.75 9.37062 22.75 8.55593 22.5162 7.90244C22.1127 6.77481 21.2252 5.8873 20.0976 5.48382C19.4441 5.25 18.6294 5.25 17 5.25H15.2524C14.718 5.25 14.4508 5.25 14.2095 5.18902C13.8108 5.08825 13.4529 4.86704 13.1845 4.55551C13.022 4.36699 12.9025 4.128 12.6635 3.65V3.65C12.305 2.933 12.1258 2.57451 11.8821 2.29174C11.4795 1.82444 10.9426 1.49262 10.3446 1.34146C9.98268 1.25 9.58187 1.25 8.78024 1.25H6.05Z" fill="#2F384C"/>
</svg>
