<svg width="24" height="24" viewBox="0 0 24 24" fill="none" xmlns="http://www.w3.org/2000/svg">
<path opacity="0.32" fill-rule="evenodd" clip-rule="evenodd" d="M7.76077 1.98969C6.97709 1.42991 6.58524 1.15003 6.1656 1.06559C5.79568 0.991161 5.41226 1.02289 5.05961 1.15712C4.65956 1.3094 4.31906 1.6499 3.63807 2.33089L2.33057 3.63839C1.64957 4.31938 1.30908 4.65988 1.1568 5.05994C1.02257 5.41258 0.990838 5.796 1.06527 6.16592C1.1497 6.58557 1.42959 6.97741 1.98936 7.76109L2.65024 8.68632C2.94707 9.10187 3.09548 9.30965 3.17921 9.50135C3.27161 9.71289 3.2977 9.8061 3.32852 10.0349C3.35645 10.2422 3.32913 10.6082 3.27448 11.3402C3.25822 11.5581 3.24994 11.7781 3.24994 12C3.24994 12.222 3.25823 12.4422 3.27451 12.6602C3.32919 13.3923 3.35653 13.7583 3.3286 13.9656C3.29778 14.1944 3.2717 14.2876 3.1793 14.4992C3.09556 14.6909 2.94714 14.8987 2.65029 15.3143L1.98932 16.2396C1.42955 17.0233 1.14966 17.4152 1.06522 17.8348C0.990794 18.2047 1.02253 18.5881 1.15676 18.9408C1.30903 19.3408 1.64953 19.6813 2.33053 20.3623L3.63802 21.6698C4.31902 22.3508 4.65951 22.6913 5.05957 22.8436C5.41222 22.9778 5.79564 23.0096 6.16555 22.9351C6.5852 22.8507 6.97704 22.5708 7.76073 22.011L8.68652 21.3498C9.10206 21.0529 9.30983 20.9045 9.50152 20.8208C9.71306 20.7284 9.80626 20.7023 10.035 20.6715C10.2423 20.6436 10.6083 20.6709 11.3403 20.7255C11.5581 20.7418 11.7781 20.75 11.9999 20.75C12.2218 20.75 12.4418 20.7417 12.6597 20.7255C13.3917 20.6708 13.7577 20.6435 13.965 20.6715C14.1938 20.7023 14.287 20.7284 14.4985 20.8208C14.6902 20.9045 14.898 21.0529 15.3136 21.3497L16.2391 22.0108C17.0228 22.5706 17.4146 22.8505 17.8343 22.9349C18.2042 23.0093 18.5876 22.9776 18.9402 22.8434C19.3403 22.6911 19.6808 22.3506 20.3618 21.6696L21.6693 20.3621C22.3503 19.6811 22.6908 19.3406 22.8431 18.9406C22.9773 18.5879 23.009 18.2045 22.9346 17.8346C22.8502 17.4149 22.5703 17.0231 22.0105 16.2394L21.3496 15.3142C21.0528 14.8986 20.9043 14.6908 20.8206 14.4991C20.7282 14.2875 20.7021 14.1943 20.6713 13.9655C20.6434 13.7582 20.6707 13.3922 20.7254 12.6602C20.7417 12.4422 20.7499 12.222 20.7499 12C20.7499 11.7782 20.7417 11.5581 20.7254 11.3402C20.6708 10.6083 20.6435 10.2423 20.6714 10.035C20.7022 9.80618 20.7283 9.71298 20.8207 9.50144C20.9044 9.30974 21.0528 9.10197 21.3497 8.68642L22.0105 7.76131C22.5702 6.97763 22.8501 6.58579 22.9345 6.16614C23.009 5.79622 22.9772 5.4128 22.843 5.06016C22.6907 4.6601 22.3502 4.3196 21.6692 3.63861L20.3618 2.33111C19.6808 1.65012 19.3403 1.30962 18.9402 1.15734C18.5876 1.02311 18.2041 0.991379 17.8342 1.06581C17.4146 1.15024 17.0227 1.43013 16.239 1.98991L15.3144 2.65039C14.8988 2.94724 14.691 3.09567 14.4993 3.1794C14.2877 3.27181 14.1945 3.29789 13.9657 3.32871C13.7584 3.35663 13.3923 3.32929 12.6603 3.2746C12.4422 3.25831 12.222 3.25002 11.9999 3.25002C11.7779 3.25002 11.5578 3.25831 11.3398 3.27459C10.6077 3.32926 10.2417 3.3566 10.0344 3.32868C9.80557 3.29786 9.71236 3.27177 9.5008 3.17937C9.3091 3.09564 9.1013 2.94721 8.68572 2.65037L7.76077 1.98969Z" fill="#2F384C"/>
<path fill-rule="evenodd" clip-rule="evenodd" d="M15 12C15 13.6569 13.6569 15 12 15C10.3431 15 9 13.6569 9 12C9 10.3431 10.3431 9 12 9C13.6569 9 15 10.3431 15 12Z" fill="#2F384C"/>
</svg>
