<svg width="24" height="24" viewBox="0 0 24 24" fill="none" xmlns="http://www.w3.org/2000/svg">
<path opacity="0.32" fill-rule="evenodd" clip-rule="evenodd" d="M6.16637 5.10566C6.45926 5.39855 6.45926 5.87342 6.16637 6.16632C4.67259 7.66009 3.75 9.72157 3.75 11.9999C3.75 16.5563 7.44365 20.2499 12 20.2499C14.2784 20.2499 16.3399 19.3274 17.8336 17.8336C18.1265 17.5407 18.6014 17.5407 18.8943 17.8336C19.1872 18.1265 19.1872 18.6013 18.8943 18.8942C17.296 20.4925 15.1434 21.5393 12.75 21.7215V22.9999C12.75 23.4142 12.4142 23.7499 12 23.7499C11.5858 23.7499 11.25 23.4142 11.25 22.9999V21.7215C6.4632 21.3574 2.64256 17.5368 2.27842 12.7499H1C0.585786 12.7499 0.25 12.4142 0.25 11.9999C0.25 11.5857 0.585786 11.2499 1 11.2499H2.27844C2.46063 8.85656 3.50743 6.70393 5.10571 5.10566C5.3986 4.81276 5.87348 4.81276 6.16637 5.10566Z" fill="#2F384C"/>
<path fill-rule="evenodd" clip-rule="evenodd" d="M12.75 1C12.75 0.585786 12.4142 0.25 12 0.25C11.5858 0.25 11.25 0.585786 11.25 1V2.27845C9.97147 2.37581 8.76065 2.72 7.66623 3.26388C7.29529 3.44822 7.14403 3.89836 7.32836 4.26929C7.5127 4.64023 7.96284 4.79149 8.33377 4.60716C9.43734 4.05873 10.6815 3.75 12 3.75C16.5563 3.75 20.25 7.44365 20.25 12C20.25 13.3185 19.9413 14.5627 19.3928 15.6662C19.2085 16.0372 19.3598 16.4873 19.7307 16.6716C20.1016 16.856 20.5518 16.7047 20.7361 16.3338C21.28 15.2394 21.6242 14.0285 21.7215 12.75H23C23.4142 12.75 23.75 12.4142 23.75 12C23.75 11.5858 23.4142 11.25 23 11.25H21.7216C21.3574 6.4632 17.5368 2.64256 12.75 2.27842V1ZM2.53033 1.46967C2.23744 1.17678 1.76256 1.17678 1.46967 1.46967C1.17678 1.76256 1.17678 2.23744 1.46967 2.53033L8.87138 9.93204C8.479 10.5247 8.25 11.236 8.25 12C8.25 14.0711 9.92893 15.75 12 15.75C12.764 15.75 13.4753 15.521 14.068 15.1286L21.4697 22.5303C21.7626 22.8232 22.2374 22.8232 22.5303 22.5303C22.8232 22.2374 22.8232 21.7626 22.5303 21.4697L14.6517 13.591L10.409 9.34835L2.53033 1.46967Z" fill="#2F384C"/>
</svg>
