<svg width="24" height="24" viewBox="0 0 24 24" fill="none" xmlns="http://www.w3.org/2000/svg">
<path opacity="0.32" fill-rule="evenodd" clip-rule="evenodd" d="M12 0.25C12.4142 0.25 12.75 0.585786 12.75 1V2.27842C17.5368 2.64256 21.3574 6.4632 21.7216 11.25H23C23.4142 11.25 23.75 11.5858 23.75 12C23.75 12.4142 23.4142 12.75 23 12.75H21.7216C21.3574 17.5368 17.5368 21.3574 12.75 21.7216V23C12.75 23.4142 12.4142 23.75 12 23.75C11.5858 23.75 11.25 23.4142 11.25 23V21.7216C6.4632 21.3574 2.64256 17.5368 2.27842 12.75H1C0.585786 12.75 0.25 12.4142 0.25 12C0.25 11.5858 0.585786 11.25 1 11.25H2.27842C2.64256 6.4632 6.4632 2.64256 11.25 2.27842V1C11.25 0.585786 11.5858 0.25 12 0.25ZM12 3.75C7.44365 3.75 3.75 7.44365 3.75 12C3.75 16.5563 7.44365 20.25 12 20.25C16.5563 20.25 20.25 16.5563 20.25 12C20.25 7.44365 16.5563 3.75 12 3.75Z" fill="#2F384C"/>
<path d="M12 8.25C9.92893 8.25 8.25 9.92893 8.25 12C8.25 14.0711 9.92893 15.75 12 15.75C14.0711 15.75 15.75 14.0711 15.75 12C15.75 9.92893 14.0711 8.25 12 8.25Z" fill="#2F384C"/>
</svg>
