<svg width="24" height="24" viewBox="0 0 24 24" fill="none" xmlns="http://www.w3.org/2000/svg">
<path opacity="0.32" d="M1.25 9.00042C1.25 5.04651 4.62678 2.25064 8 2.25064C9.37536 2.25064 10.86 2.64677 11.9984 3.81005C13.1283 2.6447 14.5981 2.23028 16.0109 2.25072C19.3659 2.29926 22.75 5.03776 22.75 9.00042C22.75 15.0194 16.9805 19.3484 12 21.8385C7.01949 19.3484 1.25 15.0194 1.25 9.00042Z" fill="#2F384C"/>
<path d="M12 21.8385C9.61009 20.6436 7.0385 19.0253 5.00989 17C5.00989 17 6 11 11.9984 11C17.9969 11 18.9901 17 18.9901 17C16.9615 19.0253 14.3899 20.6436 12 21.8385Z" fill="#2F384C"/>
</svg>
