<svg width="24" height="24" viewBox="0 0 24 24" fill="none" xmlns="http://www.w3.org/2000/svg">
<path opacity="0.32" fill-rule="evenodd" clip-rule="evenodd" d="M10.85 22.75C7.48969 22.75 5.80953 22.75 4.52606 22.096C3.39708 21.5208 2.4792 20.6029 1.90396 19.4739C1.25 18.1905 1.25 16.5103 1.25 13.15V10.85C1.25 7.48969 1.25 5.80953 1.90396 4.52606C2.4792 3.39708 3.39708 2.4792 4.52606 1.90396C5.80953 1.25 7.48968 1.25 10.85 1.25H13.15C16.5103 1.25 18.1905 1.25 19.4739 1.90396C20.6029 2.4792 21.5208 3.39708 22.096 4.52606C22.75 5.80953 22.75 7.48968 22.75 10.85V13.15C22.75 16.5103 22.75 18.1905 22.096 19.4739C21.5208 20.6029 20.6029 21.5208 19.4739 22.096C18.1905 22.75 16.5103 22.75 13.15 22.75H10.85Z" fill="#2F384C"/>
<path d="M4.52605 22.096C5.80952 22.75 7.48968 22.75 10.85 22.75H13.15C16.5103 22.75 18.1905 22.75 19.4739 22.096C20.6029 21.5208 21.5208 20.6029 22.096 19.4739V19.4739C22.2009 19.2682 22.2533 19.1653 22.272 18.9783C22.2863 18.8351 22.2504 18.6084 22.1926 18.4766C22.117 18.3046 22.0017 18.1893 21.7712 17.9588L20.0409 16.2285C19.2812 15.4688 18.9013 15.0889 18.4666 14.9385C18.0428 14.7918 17.5821 14.7918 17.1584 14.9385C16.7236 15.0889 16.3437 15.4688 15.584 16.2285V16.2285C15.2091 16.6034 15.0217 16.7908 14.8068 16.8662C14.5972 16.9397 14.3692 16.9414 14.1586 16.871C13.9426 16.7987 13.7524 16.6141 13.3721 16.2449L11.2622 14.1964C10.4692 13.4265 10.0727 13.0416 9.61902 12.8993C9.21986 12.7742 8.7915 12.7773 8.39423 12.9084C7.94269 13.0573 7.55192 13.4481 6.77039 14.2296L2.54781 18.4522C2.28045 18.7195 2.14678 18.8532 2.07058 19.0505C2.01324 19.199 1.99128 19.4405 2.0209 19.5969C2.06026 19.8047 2.14208 19.9233 2.30573 20.1604C2.86894 20.9765 3.65119 21.6503 4.52605 22.096Z" fill="#2F384C"/>
<path d="M18 8C18 9.10457 17.1045 10 16 10C14.8954 10 14 9.10457 14 8C14 6.89543 14.8954 6 16 6C17.1045 6 18 6.89543 18 8Z" fill="#2F384C"/>
</svg>
