<svg width="24" height="24" viewBox="0 0 24 24" fill="none" xmlns="http://www.w3.org/2000/svg">
<path opacity="0.32" d="M7.65 7.25C5.40979 7.25 4.28969 7.25 3.43404 7.68597C2.68139 8.06947 2.06947 8.68139 1.68597 9.43404C1.25 10.2897 1.25 11.4098 1.25 13.65L1.25 16.35C1.25 18.5902 1.25 19.7103 1.68597 20.566C2.06947 21.3186 2.68139 21.9305 3.43404 22.314C4.28969 22.75 5.40979 22.75 7.65 22.75L16.35 22.75C18.5902 22.75 19.7103 22.75 20.566 22.314C21.3186 21.9305 21.9305 21.3186 22.314 20.566C22.75 19.7103 22.75 18.5902 22.75 16.35V13.65C22.75 11.4098 22.75 10.2897 22.314 9.43404C21.9305 8.68139 21.3186 8.06947 20.566 7.68597C19.7103 7.25 18.5902 7.25 16.35 7.25L7.65 7.25Z" fill="#2F384C"/>
<path fill-rule="evenodd" clip-rule="evenodd" d="M12 1.25C12.4142 1.25 12.75 1.58579 12.75 2V15.1893L15.4697 12.4697C15.7626 12.1768 16.2374 12.1768 16.5303 12.4697C16.8232 12.7626 16.8232 13.2374 16.5303 13.5303L12.5303 17.5303C12.3897 17.671 12.1989 17.75 12 17.75C11.8011 17.75 11.6103 17.671 11.4697 17.5303L7.46967 13.5303C7.17678 13.2374 7.17678 12.7626 7.46967 12.4697C7.76256 12.1768 8.23744 12.1768 8.53033 12.4697L11.25 15.1893L11.25 2C11.25 1.58579 11.5858 1.25 12 1.25Z" fill="#2F384C"/>
</svg>
