<svg width="24" height="24" viewBox="0 0 24 24" fill="none" xmlns="http://www.w3.org/2000/svg">
<path opacity="0.32" d="M2.43894 13.25C2.08968 13.25 1.91505 13.25 1.79561 13.1776C1.69092 13.1142 1.61314 13.0146 1.577 12.8976C1.53576 12.7642 1.57812 12.5948 1.66283 12.256L2.89948 7.30962C3.44116 5.14299 3.712 4.05968 4.31599 3.25308C4.84889 2.5414 5.56192 1.98469 6.38161 1.64031C7.31062 1.25 8.42728 1.25 10.6606 1.25H13.3393C15.5727 1.25 16.6894 1.25 17.6184 1.64032C18.4381 1.98471 19.1511 2.54144 19.684 3.25314C20.288 4.05977 20.5589 5.14312 21.1005 7.30981L22.337 12.256C22.4217 12.5948 22.464 12.7642 22.4228 12.8976C22.3866 13.0146 22.3089 13.1142 22.2042 13.1776C22.0847 13.25 21.9101 13.25 21.5609 13.25H18.7618C18.2188 13.25 17.9473 13.25 17.6943 13.2936C17.0568 13.4035 16.4719 13.7165 16.0268 14.186C15.8502 14.3723 15.6996 14.5982 15.3985 15.05V15.05C15.1977 15.3512 15.0973 15.5018 14.9795 15.626C14.6828 15.939 14.2929 16.1477 13.8679 16.2209C13.6992 16.25 13.5182 16.25 13.1562 16.25H10.8434C10.4815 16.25 10.3005 16.25 10.1318 16.2209C9.70681 16.1477 9.31687 15.939 9.02016 15.626C8.90242 15.5018 8.80202 15.3512 8.60123 15.05V15.05C8.30003 14.5982 8.14944 14.3723 7.97283 14.186C7.52776 13.7165 6.94285 13.4035 6.30534 13.2936C6.05237 13.25 5.78088 13.25 5.2379 13.25H2.43894Z" fill="#2F384C"/>
<path fill-rule="evenodd" clip-rule="evenodd" d="M8.99999 6.25C8.58577 6.25 8.24999 6.58579 8.24999 7C8.24999 7.41421 8.58577 7.75 8.99999 7.75H15C15.4142 7.75 15.75 7.41421 15.75 7C15.75 6.58579 15.4142 6.25 15 6.25H8.99999ZM9.99999 10.25C9.58577 10.25 9.24999 10.5858 9.24999 11C9.24999 11.4142 9.58577 11.75 9.99999 11.75H14C14.4142 11.75 14.75 11.4142 14.75 11C14.75 10.5858 14.4142 10.25 14 10.25H9.99999ZM1.79559 14.8224C1.91503 14.75 2.08966 14.75 2.43891 14.75H5.74215C6.05522 14.75 6.21176 14.75 6.35385 14.7932C6.47964 14.8314 6.59666 14.894 6.69822 14.9775C6.81294 15.0717 6.89977 15.202 7.07342 15.4625L7.07343 15.4625L7.17348 15.6126L7.17349 15.6126C7.69447 16.394 7.95496 16.7848 8.29912 17.0676C8.6038 17.3181 8.95487 17.5059 9.33224 17.6205C9.75851 17.75 10.2281 17.75 11.1673 17.75H13.2379C13.7809 17.75 14.0524 17.75 14.3053 17.7064C14.9428 17.5965 15.5278 17.2835 15.9728 16.814C16.1494 16.6277 16.3 16.4018 16.6012 15.95L16.6012 15.95C16.802 15.6488 16.9024 15.4982 17.0201 15.374C17.3169 15.061 17.7068 14.8523 18.1318 14.7791C18.3005 14.75 18.4815 14.75 18.8434 14.75H21.5608C21.9101 14.75 22.0847 14.75 22.2042 14.8224C22.3088 14.8858 22.3866 14.9854 22.4228 15.1024C22.464 15.2358 22.4217 15.4052 22.337 15.744L22.1004 16.6903C21.5587 18.8569 21.2879 19.9403 20.6839 20.7469C20.151 21.4586 19.438 22.0153 18.6183 22.3597C17.6893 22.75 16.5726 22.75 14.3392 22.75H9.6605C7.42716 22.75 6.31049 22.75 5.38147 22.3597C4.56178 22.0153 3.84875 21.4586 3.31584 20.7469C2.71186 19.9403 2.44103 18.8569 1.89936 16.6903L1.6628 15.744C1.57809 15.4052 1.53574 15.2358 1.57698 15.1024C1.61312 14.9854 1.6909 14.8858 1.79559 14.8224Z" fill="#2F384C"/>
</svg>
