<svg width="24" height="24" viewBox="0 0 24 24" fill="none" xmlns="http://www.w3.org/2000/svg">
<path opacity="0.32" fill-rule="evenodd" clip-rule="evenodd" d="M14.8284 9.17165L19.6014 4.39868C21.5459 6.34323 22.75 9.03176 22.75 12.0001C22.75 14.9684 21.5459 17.6569 19.6014 19.6015L14.8284 14.8285C15.5523 14.1046 16 13.1046 16 12.0001C16 10.8955 15.5523 9.89551 14.8284 9.17165ZM9.17157 14.8285C8.44772 14.1046 8 13.1046 8 12.0001C8 10.8955 8.44771 9.89551 9.17157 9.17165L4.3986 4.39868C2.45406 6.34323 1.25 9.03176 1.25 12.0001C1.25 14.9684 2.45406 17.6569 4.3986 19.6015L9.17157 14.8285Z" fill="#2F384C"/>
<path fill-rule="evenodd" clip-rule="evenodd" d="M12 1.25C9.03163 1.25 6.34311 2.45406 4.39856 4.3986L9.17153 9.17157C9.89539 8.44771 10.8954 8 12 8C13.1045 8 14.1045 8.44771 14.8284 9.17157L19.6014 4.3986C17.6568 2.45406 14.9683 1.25 12 1.25ZM9.17153 14.8284L4.39856 19.6014C6.34311 21.5459 9.03163 22.75 12 22.75C14.9683 22.75 17.6568 21.5459 19.6014 19.6014L14.8284 14.8284C14.1045 15.5523 13.1045 16 12 16C10.8954 16 9.89539 15.5523 9.17153 14.8284Z" fill="#2F384C"/>
</svg>
