<svg width="24" height="24" viewBox="0 0 24 24" fill="none" xmlns="http://www.w3.org/2000/svg">
<path opacity="0.32" d="M14.1648 1.71142C13.6583 1.15421 12.9066 0.887334 12.1621 1.00039C11.6031 1.08528 11.1417 1.48744 10.7422 1.90182C10.3209 2.33867 9.81354 2.96311 9.17921 3.74385L6.49133 7.05203L17.0074 17.5681L19.5623 14.3163C20.0315 13.7192 20.4157 13.2303 20.6785 12.8249C20.9386 12.4239 21.1662 11.9806 21.1637 11.4886C21.1602 10.8062 20.8472 10.1622 20.3128 9.73783C19.9274 9.4319 19.4382 9.33702 18.9622 9.29373C18.4811 9.24997 17.8593 9.24998 17.0999 9.24999H16.3999C15.9675 9.24999 15.6883 9.24941 15.4758 9.23205C15.272 9.2154 15.1965 9.18714 15.1594 9.16825C15.0183 9.09634 14.9036 8.98161 14.8317 8.84048C14.8128 8.8034 14.7845 8.72786 14.7679 8.52412C14.7505 8.31161 14.7499 8.03241 14.7499 7.59999V5.72166C14.7499 4.71572 14.7499 3.91115 14.6985 3.30646C14.6496 2.73287 14.5452 2.12985 14.1648 1.71142Z" fill="#2F384C"/>
<path fill-rule="evenodd" clip-rule="evenodd" d="M3.53033 2.46967C3.23744 2.17678 2.76256 2.17678 2.46967 2.46967C2.17678 2.76256 2.17678 3.23744 2.46967 3.53033L6.32834 7.389L4.53376 9.63221L4.51009 9.6618L4.51009 9.6618C4.0309 10.2608 3.63888 10.7508 3.37028 11.1571C3.10493 11.5584 2.87147 12.0029 2.87094 12.4976C2.8702 13.1828 3.18174 13.831 3.71727 14.2585C4.10391 14.5671 4.59679 14.6624 5.07597 14.706C5.56101 14.75 6.18852 14.75 6.95558 14.75H6.9935H7.6C8.03241 14.75 8.31162 14.7506 8.52412 14.7679C8.72787 14.7846 8.80341 14.8128 8.84049 14.8317C8.98161 14.9037 9.09635 15.0184 9.16825 15.1595C9.18715 15.1966 9.21541 15.2721 9.23205 15.4759C9.24942 15.6884 9.25 15.9676 9.25 16.4V18.1581V18.1962V18.1963C9.24999 19.2131 9.24999 20.0258 9.30173 20.6359C9.35072 21.2136 9.45538 21.8215 9.83853 22.2411C10.3479 22.7989 11.1033 23.0639 11.8496 22.9465C12.4109 22.8582 12.8723 22.4489 13.2715 22.0284C13.693 21.5843 14.2007 20.9498 14.8359 20.1557L14.8597 20.1259L16.7289 17.7895L20.4697 21.5303C20.7626 21.8232 21.2374 21.8232 21.5303 21.5303C21.8232 21.2374 21.8232 20.7626 21.5303 20.4697L17.197 16.1363L7.86366 6.803L3.53033 2.46967Z" fill="#2F384C"/>
</svg>
