<svg width="24" height="24" viewBox="0 0 24 24" fill="none" xmlns="http://www.w3.org/2000/svg">
<path opacity="0.32" d="M9.24996 16.35V18.0156C9.24996 20.8134 9.24996 22.2123 9.7731 22.7851C10.2259 23.281 10.8973 23.5165 11.5607 23.4122C12.3271 23.2917 13.201 22.1993 14.9488 20.0146L19.4012 14.449C20.7327 12.7846 21.3984 11.9525 21.3992 11.2521C21.3998 10.643 21.1229 10.0669 20.6469 9.68688C20.0995 9.24996 19.0338 9.24996 16.9024 9.24996H16.35C15.7899 9.24996 15.5099 9.24996 15.296 9.14097C15.202 9.09308 15.1168 9.03094 15.0431 8.95728L8.95728 15.0431C9.03094 15.1168 9.09308 15.202 9.14097 15.296C9.24996 15.5099 9.24996 15.7899 9.24996 16.35V16.35Z" fill="#2F384C"/>
<path d="M14.7498 7.65003V5.98444V5.98443C14.7498 3.18662 14.7498 1.78771 14.2267 1.21485C13.7739 0.718989 13.1024 0.483463 12.4391 0.587793C11.6727 0.708326 10.7988 1.80069 9.05102 3.98542L9.05102 3.98543L4.59856 9.551C3.26708 11.2153 2.60134 12.0475 2.60059 12.7479C2.59993 13.357 2.87686 13.9331 3.35288 14.3131C3.90024 14.75 4.96594 14.75 7.09734 14.75H7.6498C8.20986 14.75 8.48988 14.75 8.7038 14.859C8.79796 14.907 8.88332 14.9693 8.95712 15.0431L15.0429 8.95734C14.9691 8.88354 14.9068 8.79819 14.8588 8.70402C14.7498 8.49011 14.7498 8.21008 14.7498 7.65003Z" fill="#2F384C"/>
</svg>
