<svg width="24" height="24" viewBox="0 0 24 24" fill="none" xmlns="http://www.w3.org/2000/svg">
<path opacity="0.32" fill-rule="evenodd" clip-rule="evenodd" d="M8.65 22.75C6.40979 22.75 5.28968 22.75 4.43404 22.314C3.68139 21.9305 3.06947 21.3186 2.68597 20.566C2.25 19.7103 2.25 18.5902 2.25 16.35V13.65C2.25 11.4098 2.25 10.2897 2.68597 9.43404C3.06947 8.68139 3.68139 8.06947 4.43404 7.68597C5.28968 7.25 6.40979 7.25 8.65 7.25H15.35C17.5902 7.25 18.7103 7.25 19.566 7.68597C20.3186 8.06947 20.9305 8.68139 21.314 9.43404C21.75 10.2897 21.75 11.4098 21.75 13.65V16.35C21.75 18.5902 21.75 19.7103 21.314 20.566C20.9305 21.3186 20.3186 21.9305 19.566 22.314C18.7103 22.75 17.5902 22.75 15.35 22.75H8.65Z" fill="#2F384C"/>
<path fill-rule="evenodd" clip-rule="evenodd" d="M11.7679 1.25L11.8 1.25H12.2L12.2321 1.25C13.0449 1.24999 13.7006 1.24999 14.2315 1.29336C14.7781 1.33803 15.2582 1.43238 15.7025 1.65873C16.4081 2.01825 16.9817 2.59193 17.3413 3.29754C17.5676 3.74175 17.662 4.22189 17.7066 4.76853C17.75 5.29944 17.75 5.95505 17.75 6.76788V6.8V8C17.75 8.41421 17.4142 8.75 17 8.75C16.5858 8.75 16.25 8.41421 16.25 8V6.8C16.25 5.94755 16.2494 5.35331 16.2116 4.89068C16.1745 4.4368 16.1054 4.17604 16.0048 3.97852C15.789 3.55516 15.4448 3.21095 15.0215 2.99524C14.824 2.8946 14.5632 2.82546 14.1093 2.78838C13.6467 2.75058 13.0525 2.75 12.2 2.75H11.8C10.9475 2.75 10.3533 2.75058 9.89068 2.78838C9.4368 2.82546 9.17604 2.8946 8.97852 2.99524C8.55516 3.21095 8.21095 3.55516 7.99524 3.97852C7.8946 4.17604 7.82546 4.4368 7.78838 4.89068C7.75058 5.35331 7.75 5.94755 7.75 6.8V8C7.75 8.41421 7.41421 8.75 7 8.75C6.58579 8.75 6.25 8.41421 6.25 8V6.8L6.25 6.7679C6.24999 5.95506 6.24999 5.29944 6.29336 4.76853C6.33803 4.22189 6.43238 3.74175 6.65873 3.29754C7.01825 2.59193 7.59193 2.01825 8.29754 1.65873C8.74175 1.43238 9.22189 1.33803 9.76853 1.29336C10.2994 1.24999 10.9551 1.24999 11.7679 1.25ZM12 13.25C12.4142 13.25 12.75 13.5858 12.75 14V16C12.75 16.4142 12.4142 16.75 12 16.75C11.5858 16.75 11.25 16.4142 11.25 16V14C11.25 13.5858 11.5858 13.25 12 13.25Z" fill="#2F384C"/>
</svg>
