<svg width="24" height="24" viewBox="0 0 24 24" fill="none" xmlns="http://www.w3.org/2000/svg">
<path opacity="0.32" fill-rule="evenodd" clip-rule="evenodd" d="M8.65 22.75C6.40979 22.75 5.28968 22.75 4.43404 22.314C3.68139 21.9305 3.06947 21.3186 2.68597 20.566C2.25 19.7103 2.25 18.5902 2.25 16.35V13.65C2.25 11.4098 2.25 10.2897 2.68597 9.43404C3.06947 8.68139 3.68139 8.06947 4.43404 7.68597C5.28968 7.25 6.40979 7.25 8.65 7.25H15.35C17.5902 7.25 18.7103 7.25 19.566 7.68597C20.3186 8.06947 20.9305 8.68139 21.314 9.43404C21.75 10.2897 21.75 11.4098 21.75 13.65V16.35C21.75 18.5902 21.75 19.7103 21.314 20.566C20.9305 21.3186 20.3186 21.9305 19.566 22.314C18.7103 22.75 17.5902 22.75 15.35 22.75H8.65Z" fill="#2F384C"/>
<path fill-rule="evenodd" clip-rule="evenodd" d="M17.75 4C17.75 2.48122 16.5188 1.25 15 1.25H11.8H11.7679C11.1583 1.24999 10.6371 1.24999 10.1906 1.26829C10.0418 1.27439 9.90126 1.28252 9.76853 1.29336C9.2219 1.33803 8.74175 1.43239 8.29754 1.65873C8.29478 1.66013 8.29203 1.66154 8.28927 1.66295C7.58745 2.02273 7.01685 2.59468 6.65873 3.29754C6.63043 3.35306 6.6042 3.40915 6.57987 3.46586C6.40957 3.86283 6.33244 4.29022 6.29336 4.76853C6.28794 4.8349 6.2832 4.90321 6.27905 4.97353C6.24999 5.4658 6.24999 6.05665 6.25 6.76788V6.7679V6.8V8C6.25 8.02589 6.25131 8.05147 6.25387 8.07668C6.29228 8.45487 6.61168 8.75 7 8.75C7.41421 8.75 7.75 8.41421 7.75 8V6.8C7.75 5.94755 7.75058 5.35331 7.78838 4.89068C7.82547 4.4368 7.8946 4.17604 7.99524 3.97852C8.21095 3.55516 8.55516 3.21095 8.97852 2.99524C9.17604 2.8946 9.4368 2.82546 9.89068 2.78838C10.3533 2.75058 10.9475 2.75 11.8 2.75H15C15.6904 2.75 16.25 3.30964 16.25 4V4.5C16.25 4.52589 16.2513 4.55147 16.2539 4.57668C16.2923 4.95488 16.6117 5.25 17 5.25C17.4142 5.25 17.75 4.91421 17.75 4.5V4ZM12.75 14C12.75 13.5858 12.4142 13.25 12 13.25C11.5858 13.25 11.25 13.5858 11.25 14V16C11.25 16.4142 11.5858 16.75 12 16.75C12.4142 16.75 12.75 16.4142 12.75 16V14Z" fill="#2F384C"/>
</svg>
