<svg width="24" height="24" viewBox="0 0 24 24" fill="none" xmlns="http://www.w3.org/2000/svg">
<path opacity="0.32" d="M7.65 1.25C5.40979 1.25 4.28968 1.25 3.43404 1.68597C2.68139 2.06947 2.06947 2.68139 1.68597 3.43404C1.25 4.28968 1.25 5.40979 1.25 7.65V16.35C1.25 18.5902 1.25 19.7103 1.68597 20.566C2.06947 21.3186 2.68139 21.9305 3.43404 22.314C4.28968 22.75 5.40979 22.75 7.65 22.75H8.35C10.5902 22.75 11.7103 22.75 12.566 22.314C13.3186 21.9305 13.9305 21.3186 14.314 20.566C14.75 19.7103 14.75 18.5902 14.75 16.35V7.65C14.75 5.40979 14.75 4.28968 14.314 3.43404C13.9305 2.68139 13.3186 2.06947 12.566 1.68597C11.7103 1.25 10.5902 1.25 8.35 1.25H7.65Z" fill="#2F384C"/>
<path fill-rule="evenodd" clip-rule="evenodd" d="M17.4698 7.46967C17.7627 7.17678 18.2376 7.17678 18.5305 7.46967L22.5305 11.4697C22.8233 11.7626 22.8233 12.2374 22.5305 12.5303L18.5305 16.5303C18.2376 16.8232 17.7627 16.8232 17.4698 16.5303C17.1769 16.2374 17.1769 15.7626 17.4698 15.4697L20.1895 12.75L8 12.75C7.58579 12.75 7.25 12.4142 7.25 12C7.25 11.5858 7.58579 11.25 8 11.25L20.1895 11.25L17.4698 8.53033C17.1769 8.23744 17.1769 7.76256 17.4698 7.46967Z" fill="#2F384C"/>
</svg>
