<svg width="24" height="24" viewBox="0 0 24 24" fill="none" xmlns="http://www.w3.org/2000/svg">
<path opacity="0.32" d="M13.65 1.25C11.4098 1.25 10.2897 1.25 9.43404 1.68597C8.68139 2.06947 8.06947 2.68139 7.68597 3.43404C7.25 4.28968 7.25 5.40979 7.25 7.65V16.35C7.25 18.5902 7.25 19.7103 7.68597 20.566C8.06947 21.3186 8.68139 21.9305 9.43404 22.314C10.2897 22.75 11.4098 22.75 13.65 22.75H16.35C18.5902 22.75 19.7103 22.75 20.566 22.314C21.3186 21.9305 21.9305 21.3186 22.314 20.566C22.75 19.7103 22.75 18.5902 22.75 16.35V7.65C22.75 5.40979 22.75 4.28968 22.314 3.43404C21.9305 2.68139 21.3186 2.06947 20.566 1.68597C19.7103 1.25 18.5902 1.25 16.35 1.25H13.65Z" fill="#2F384C"/>
<path fill-rule="evenodd" clip-rule="evenodd" d="M12.4697 7.46967C12.7626 7.17678 13.2374 7.17678 13.5303 7.46967L17.5303 11.4697C17.8232 11.7626 17.8232 12.2374 17.5303 12.5303L13.5303 16.5303C13.2374 16.8232 12.7626 16.8232 12.4697 16.5303C12.1768 16.2374 12.1768 15.7626 12.4697 15.4697L15.1893 12.75L2 12.75C1.58579 12.75 1.25 12.4142 1.25 12C1.25 11.5858 1.58579 11.25 2 11.25L15.1893 11.25L12.4697 8.53033C12.1768 8.23744 12.1768 7.76256 12.4697 7.46967Z" fill="#2F384C"/>
</svg>
