<svg width="24" height="24" viewBox="0 0 24 24" fill="none" xmlns="http://www.w3.org/2000/svg">
<path opacity="0.32" d="M20.75 4.70567C20.75 2.71657 20.75 1.72202 20.3368 1.18342C19.9769 0.714421 19.428 0.428636 18.8374 0.402793C18.1592 0.373116 17.3445 0.943453 15.7149 2.08413L12.1149 4.60413C11.6153 4.95387 11.3655 5.12874 11.1849 5.3557C11.025 5.55666 10.9053 5.78654 10.8324 6.03277C10.75 6.31085 10.75 6.61579 10.75 7.22567L10.75 14.7745C10.75 15.3843 10.75 15.6893 10.8324 15.9674C10.9053 16.2136 11.025 16.4435 11.1849 16.6444C11.3655 16.8714 11.6153 17.0463 12.1149 17.396L15.7149 19.916C17.3445 21.0567 18.1592 21.627 18.8374 21.5973C19.428 21.5715 19.9769 21.2857 20.3368 20.8167C20.75 20.2781 20.75 19.2836 20.75 17.2945L20.75 4.70567Z" fill="#2F384C"/>
<path fill-rule="evenodd" clip-rule="evenodd" d="M9.25 6.49243C9.25 6.35854 9.14146 6.25 9.00758 6.25L6 6.25C3.37665 6.25 1.25 8.37665 1.25 11L1.25 11.5C1.25 13.8472 3.15279 15.75 5.5 15.75L5.5 19.875C5.5 20.9105 6.33947 21.75 7.375 21.75C8.41053 21.75 9.25 20.9105 9.25 19.875L9.25 6.49243ZM21.752 13.332L20.75 14L20.75 8L21.7519 8.66789C22.5316 9.18771 23 10.0628 23 11C23 11.9371 22.5317 12.8122 21.752 13.332Z" fill="#2F384C"/>
</svg>
