<svg width="24" height="24" viewBox="0 0 24 24" fill="none" xmlns="http://www.w3.org/2000/svg">
<path opacity="0.32" d="M12 1.25C8.82436 1.25 6.25 3.82436 6.25 7V11C6.25 14.1756 8.82436 16.75 12 16.75V16.75C15.1756 16.75 17.75 14.1756 17.75 11V7C17.75 3.82436 15.1756 1.25 12 1.25V1.25Z" fill="#2F384C"/>
<path fill-rule="evenodd" clip-rule="evenodd" d="M4 10.25C4.41421 10.25 4.75 10.5858 4.75 11C4.75 13.2524 5.77436 15.056 7.20816 16.3106C8.65637 17.5778 10.4846 18.25 12 18.25C13.5154 18.25 15.3436 17.5778 16.7918 16.3106C18.2256 15.056 19.25 13.2524 19.25 11C19.25 10.5858 19.5858 10.25 20 10.25C20.4142 10.25 20.75 10.5858 20.75 11C20.75 13.7476 19.4886 15.944 17.7796 17.4394C16.3031 18.7314 14.4643 19.5261 12.75 19.7092V22C12.75 22.4142 12.4142 22.75 12 22.75C11.5858 22.75 11.25 22.4142 11.25 22V19.7092C9.53571 19.5261 7.69694 18.7314 6.22041 17.4394C4.51136 15.944 3.25 13.7476 3.25 11C3.25 10.5858 3.58579 10.25 4 10.25Z" fill="#2F384C"/>
</svg>
