<svg width="24" height="24" viewBox="0 0 24 24" fill="none" xmlns="http://www.w3.org/2000/svg">
<path opacity="0.32" fill-rule="evenodd" clip-rule="evenodd" d="M12 22.75C7.16751 22.75 3.25 18.8325 3.25 14V10C3.25 5.16751 7.16751 1.25 12 1.25V1.25C16.8325 1.25 20.75 5.16751 20.75 10V14C20.75 18.8325 16.8325 22.75 12 22.75V22.75Z" fill="#2F384C"/>
<path fill-rule="evenodd" clip-rule="evenodd" d="M12 7.25C12.4142 7.25 12.75 7.58579 12.75 8V10C12.75 10.4142 12.4142 10.75 12 10.75C11.5858 10.75 11.25 10.4142 11.25 10V8C11.25 7.58579 11.5858 7.25 12 7.25Z" fill="#2F384C"/>
</svg>
