<svg width="24" height="24" viewBox="0 0 24 24" fill="none" xmlns="http://www.w3.org/2000/svg">
<path opacity="0.32" fill-rule="evenodd" clip-rule="evenodd" d="M20.25 15.9998V6.96036L9.75 9.58536V18.9998C9.75 19.414 9.41421 19.7498 9 19.7498C8.58579 19.7498 8.25 19.414 8.25 18.9998V8.99977V7.35775V7.33151V7.3315C8.24999 6.90122 8.24998 6.5386 8.27191 6.23796C8.29497 5.92179 8.34474 5.62425 8.46913 5.33159C8.66245 4.87678 8.97475 4.48247 9.37319 4.19013C9.62958 4.00201 9.90781 3.88541 10.2103 3.79055C10.4979 3.70035 10.8509 3.6173 11.2697 3.51876L11.2698 3.51876L11.2953 3.51275L16.9346 2.18587L16.967 2.17824L16.967 2.17823C17.5927 2.03099 18.1089 1.90953 18.532 1.84756C18.9679 1.78371 19.3878 1.76864 19.7998 1.89384C20.4649 2.09603 21.0289 2.54266 21.378 3.14384C21.5942 3.51613 21.6757 3.92834 21.7134 4.36729C21.75 4.79335 21.75 5.32363 21.75 5.96645V5.99977V15.9998C21.75 16.414 21.4142 16.7498 21 16.7498C20.5858 16.7498 20.25 16.414 20.25 15.9998Z" fill="#2F384C"/>
<path d="M18 12.25C15.9289 12.25 14.25 13.9289 14.25 16C14.25 18.0711 15.9289 19.75 18 19.75C20.0711 19.75 21.75 18.0711 21.75 16C21.75 13.9289 20.0711 12.25 18 12.25Z" fill="#2F384C"/>
<path d="M6 15.25C3.92893 15.25 2.25 16.9289 2.25 19C2.25 21.0711 3.92893 22.75 6 22.75C8.07107 22.75 9.75 21.0711 9.75 19C9.75 16.9289 8.07107 15.25 6 15.25Z" fill="#2F384C"/>
</svg>
