<svg width="24" height="24" viewBox="0 0 24 24" fill="none" xmlns="http://www.w3.org/2000/svg">
<path opacity="0.32" d="M14.0822 1.79772C13.343 1.16417 12.9735 0.847392 12.559 0.726659C12.1937 0.620248 11.8056 0.620248 11.4403 0.726659C11.0258 0.847392 10.6563 1.16417 9.91712 1.79772L9.12099 2.48012C8.78828 2.7653 8.62193 2.90789 8.43425 3.00945C8.26778 3.09954 8.08937 3.16554 7.90434 3.20548C7.69575 3.2505 7.47665 3.2505 7.03845 3.2505H6.41544C5.29533 3.2505 4.73528 3.2505 4.30746 3.46849C3.93113 3.66024 3.62517 3.9662 3.43343 4.34252C3.21544 4.77035 3.21544 5.3304 3.21544 6.4505L3.21544 7.052C3.21544 7.48649 3.21544 7.70373 3.17113 7.91071C3.13182 8.09432 3.06686 8.27148 2.97815 8.43697C2.87814 8.62353 2.7377 8.78927 2.45681 9.12075L1.76958 9.93176C1.14681 10.6667 0.835428 11.0342 0.71662 11.4455C0.611893 11.8081 0.611893 12.1929 0.71662 12.5555C0.835428 12.9668 1.14681 13.3343 1.76958 14.0692L2.45681 14.8803C2.7377 15.2117 2.87814 15.3775 2.97815 15.564C3.06686 15.7295 3.13182 15.9067 3.17113 16.0903C3.21544 16.2973 3.21544 16.5145 3.21544 16.949V17.5505C3.21544 18.6706 3.21544 19.2307 3.43343 19.6585C3.62517 20.0348 3.93113 20.3408 4.30746 20.5325C4.73528 20.7505 5.29533 20.7505 6.41544 20.7505H7.03845C7.47665 20.7505 7.69575 20.7505 7.90434 20.7955C8.08937 20.8355 8.26778 20.9015 8.43425 20.9916C8.62193 21.0931 8.78828 21.2357 9.12099 21.5209L9.91712 22.2033C10.6563 22.8368 11.0258 23.1536 11.4403 23.2743C11.8056 23.3808 12.1937 23.3808 12.559 23.2743C12.9735 23.1536 13.343 22.8368 14.0822 22.2033L14.8783 21.5209C15.211 21.2357 15.3774 21.0931 15.5651 20.9916C15.7315 20.9015 15.9099 20.8355 16.095 20.7955C16.3036 20.7505 16.5227 20.7505 16.9609 20.7505H17.5497C18.6698 20.7505 19.2298 20.7505 19.6576 20.5325C20.034 20.3408 20.3399 20.0348 20.5317 19.6585C20.7497 19.2307 20.7497 18.6706 20.7497 17.5505L20.7497 16.9617C20.7497 16.5235 20.7497 16.3044 20.7947 16.0958C20.8346 15.9108 20.9006 15.7324 20.9907 15.5659C21.0923 15.3782 21.2349 15.2119 21.52 14.8792L22.2024 14.083C22.836 13.3439 23.1528 12.9743 23.2735 12.5598C23.3799 12.1945 23.3799 11.8065 23.2735 11.4412C23.1528 11.0267 22.836 10.6571 22.2024 9.91797L21.52 9.12184C21.2349 8.78913 21.0923 8.62278 20.9907 8.4351C20.9006 8.26863 20.8346 8.09022 20.7947 7.90519C20.7497 7.6966 20.7497 7.47751 20.7497 7.03931L20.7497 6.4505C20.7497 5.3304 20.7497 4.77035 20.5317 4.34252C20.3399 3.9662 20.034 3.66024 19.6576 3.46849C19.2298 3.2505 18.6698 3.2505 17.5497 3.2505L16.9609 3.2505C16.5227 3.2505 16.3036 3.2505 16.095 3.20548C15.9099 3.16554 15.7315 3.09954 15.5651 3.00945C15.3774 2.90789 15.211 2.7653 14.8783 2.48013L14.0822 1.79772Z" fill="#2F384C"/>
<path fill-rule="evenodd" clip-rule="evenodd" d="M12 7.25C12.4142 7.25 12.75 7.58579 12.75 8L12.75 13C12.75 13.4142 12.4142 13.75 12 13.75C11.5858 13.75 11.25 13.4142 11.25 13L11.25 8C11.25 7.58579 11.5858 7.25 12 7.25ZM10.75 16C10.75 15.3096 11.3096 14.75 12 14.75C12.6904 14.75 13.25 15.3096 13.25 16C13.25 16.6904 12.6904 17.25 12 17.25C11.3096 17.25 10.75 16.6904 10.75 16Z" fill="#2F384C"/>
</svg>
