<svg width="24" height="24" viewBox="0 0 24 24" fill="none" xmlns="http://www.w3.org/2000/svg">
<path opacity="0.32" d="M12.0888 1.80264C11.3455 1.16548 10.9738 0.846904 10.5593 0.72617C10.194 0.61976 9.80596 0.61976 9.44066 0.72617C9.02619 0.846904 8.65451 1.16548 7.91116 1.80264V1.80264C7.35158 2.28228 7.07179 2.5221 6.75365 2.64571C6.47236 2.75499 6.16999 2.79921 5.86918 2.77504C5.52897 2.74771 5.19409 2.59887 4.52433 2.3012L2.37491 1.3459C2.00001 1.17928 1.81256 1.09597 1.66123 1.12327C1.52899 1.14712 1.41191 1.22321 1.3364 1.33436C1.25 1.46156 1.25 1.66669 1.25 2.07696V14.75C1.25 17.5503 1.25 18.9504 1.79497 20.02C2.27433 20.9608 3.03924 21.7257 3.98005 22.205C5.04961 22.75 6.44974 22.75 9.25 22.75H18.75V2.07695C18.75 1.66669 18.75 1.46156 18.6636 1.33436C18.5881 1.22321 18.471 1.14712 18.3388 1.12327C18.1874 1.09597 18 1.17928 17.6251 1.3459L15.4757 2.3012C14.8059 2.59887 14.471 2.74771 14.1308 2.77504C13.83 2.79921 13.5276 2.75499 13.2464 2.64571C12.9282 2.5221 12.6484 2.28228 12.0888 1.80264V1.80264Z" fill="#2F384C"/>
<path fill-rule="evenodd" clip-rule="evenodd" d="M7 8.25C6.58579 8.25 6.25 8.58579 6.25 9C6.25 9.41421 6.58579 9.75 7 9.75H11C11.4142 9.75 11.75 9.41421 11.75 9C11.75 8.58579 11.4142 8.25 11 8.25H7ZM7 12.25C6.58579 12.25 6.25 12.5858 6.25 13C6.25 13.4142 6.58579 13.75 7 13.75H13C13.4142 13.75 13.75 13.4142 13.75 13C13.75 12.5858 13.4142 12.25 13 12.25H7ZM7 16.25C6.58579 16.25 6.25 16.5858 6.25 17C6.25 17.4142 6.58579 17.75 7 17.75H13C13.4142 17.75 13.75 17.4142 13.75 17C13.75 16.5858 13.4142 16.25 13 16.25H7ZM20.5265 22.6478C20.145 22.75 19.68 22.75 18.75 22.75V11.25H19.55C20.6701 11.25 21.2302 11.25 21.658 11.468C22.0343 11.6597 22.3403 11.9657 22.532 12.342C22.75 12.7698 22.75 13.3299 22.75 14.45V18.75C22.75 19.68 22.75 20.145 22.6478 20.5265C22.3704 21.5617 21.5617 22.3704 20.5265 22.6478Z" fill="#2F384C"/>
</svg>
