<svg width="24" height="24" viewBox="0 0 24 24" fill="none" xmlns="http://www.w3.org/2000/svg">
<path opacity="0.32" d="M19.8424 15.1877L18.7882 14.9241C17.7036 14.653 17.1613 14.5174 16.6256 14.5288C16.1511 14.5389 15.6821 14.6334 15.2406 14.8079C14.7424 15.0049 14.2949 15.3399 13.4 16.01L12.4298 16.7365C11.7873 17.2175 11.466 17.4581 11.063 17.5542C10.7429 17.6306 10.301 17.6137 9.98773 17.5131C9.59322 17.3865 9.3399 17.1647 8.83327 16.7212C8.17335 16.1434 7.56129 15.5153 7 14.8398V17.0607C7.97901 18.0351 9.06993 18.8975 10.2624 19.6374C12.931 21.2932 15.8754 22.1633 18.9199 22.5312C19.9878 22.6603 20.5217 22.7248 21.0659 22.5369C21.6472 22.3362 22.2292 21.8203 22.4982 21.2673C22.75 20.7495 22.75 20.1369 22.75 18.9116C22.75 17.9159 22.75 17.4181 22.5942 16.9977C22.4144 16.5125 22.0885 16.0951 21.6614 15.803C21.2913 15.5499 20.8084 15.4291 19.8424 15.1877Z" fill="#2F384C"/>
<path d="M7.12377 11.3948L7.71586 10.6911C8.48689 9.77472 8.87241 9.31655 9.10303 8.79474C9.30726 8.33264 9.4221 7.83603 9.44148 7.33118C9.46336 6.7611 9.31813 6.18019 9.02767 5.01836L9.02767 5.01836L8.81247 4.15756L8.81247 4.15755C8.57099 3.19163 8.45025 2.70867 8.19711 2.33858C7.905 1.91153 7.4876 1.58563 7.00246 1.40583C6.58202 1.25 6.0842 1.25 5.08854 1.25C3.8628 1.25 3.24993 1.25 2.7323 1.50169C2.17924 1.7706 1.66362 2.35198 1.4627 2.93321C1.27465 3.4772 1.33894 4.01151 1.46752 5.08015C1.81717 7.98616 2.62472 10.8021 4.14704 13.3812C4.94809 14.7384 5.90391 15.9697 7 17.0606V14.8397L6.99999 14.8397C6.6447 14.4121 6.46705 14.1983 6.34811 13.8703C6.20218 13.4678 6.20395 12.8966 6.35236 12.4951C6.47333 12.1678 6.69014 11.9101 7.12377 11.3948Z" fill="#2F384C"/>
</svg>
