<svg width="24" height="24" viewBox="0 0 24 24" fill="none" xmlns="http://www.w3.org/2000/svg">
<g clip-path="url(#clip0_3115_6530)">
<path opacity="0.32" d="M7.36683 4.59817L17.234 1.83536C19.4734 1.20832 20.5931 0.894806 21.3615 1.1858C22.0314 1.43952 22.5603 1.96841 22.814 2.63831C23.1049 3.40666 22.7914 4.52637 22.1644 6.76577L19.4015 16.6327C18.4016 20.2036 17.9017 21.9891 17.0575 22.5014C16.3274 22.9444 15.4217 22.9841 14.6557 22.6067C13.7698 22.1703 13.1156 20.4354 11.807 16.9656L11.1384 15.1927C10.9034 14.5698 10.786 14.2583 10.601 13.9967C10.4372 13.765 10.235 13.5628 10.0033 13.3989C9.74174 13.214 9.43026 13.0965 8.80729 12.8616L8.80728 12.8616L7.03377 12.1927C3.56413 10.8841 1.82932 10.2298 1.39291 9.34392C1.01551 8.57789 1.05523 7.67221 1.49824 6.94216C2.01052 6.09793 3.79596 5.59801 7.36683 4.59817Z" fill="#2F384C"/>
<path fill-rule="evenodd" clip-rule="evenodd" d="M10.3276 13.6722C10.4276 13.7721 10.5191 13.8806 10.6011 13.9965C10.786 14.258 10.9035 14.5695 11.1384 15.1925L11.807 16.9654L11.807 16.9654C13.1156 20.4351 13.7699 22.17 14.6557 22.6064C15.4217 22.9839 16.3274 22.9441 17.0575 22.5011C17.9017 21.9889 18.4017 20.2034 19.4016 16.6325L22.1644 6.76553C22.7915 4.52612 23.105 3.40642 22.814 2.63807C22.6872 2.30317 22.4916 2.00351 22.2439 1.75586L10.3276 13.6722Z" fill="#2F384C"/>
</g>
<defs>
<clipPath id="clip0_3115_6530">
<rect width="24" height="24" fill="white"/>
</clipPath>
</defs>
</svg>
