<svg width="24" height="24" viewBox="0 0 24 24" fill="none" xmlns="http://www.w3.org/2000/svg">
<path opacity="0.32" d="M10.5823 5.25C8.17868 5.25 6.97689 5.25 5.99594 5.60129C4.44406 6.15705 3.18917 7.3268 2.52593 8.83589C2.1067 9.78978 2.02241 10.9886 1.85382 13.3863V13.3863C1.66249 16.1074 1.56682 17.468 1.9106 18.5567C2.4549 20.2804 3.74729 21.6669 5.42856 22.3307C6.49045 22.75 7.85439 22.75 10.5823 22.75H13.4178C16.1456 22.75 17.5096 22.75 18.5715 22.3307C20.2528 21.6669 21.5451 20.2804 22.0894 18.5567C22.4332 17.468 22.3376 16.1074 22.1462 13.3863V13.3863C21.9776 10.9886 21.8933 9.78978 21.4741 8.83589C20.8109 7.3268 19.556 6.15705 18.0041 5.60129C17.0232 5.25 15.8214 5.25 13.4178 5.25H10.5823Z" fill="#2F384C"/>
<path fill-rule="evenodd" clip-rule="evenodd" d="M12 2.75C10.2051 2.75 8.75 4.20507 8.75 6V8C8.75 8.41421 8.41421 8.75 8 8.75C7.58579 8.75 7.25 8.41421 7.25 8V6C7.25 3.37665 9.37665 1.25 12 1.25C14.6234 1.25 16.75 3.37665 16.75 6V8C16.75 8.41421 16.4142 8.75 16 8.75C15.5858 8.75 15.25 8.41421 15.25 8V6C15.25 4.20507 13.7949 2.75 12 2.75ZM6.75 11.5C6.75 10.8096 7.30964 10.25 8 10.25C8.69036 10.25 9.25 10.8096 9.25 11.5C9.25 12.1904 8.69036 12.75 8 12.75C7.30964 12.75 6.75 12.1904 6.75 11.5ZM14.75 11.5C14.75 10.8096 15.3096 10.25 16 10.25C16.6904 10.25 17.25 10.8096 17.25 11.5C17.25 12.1904 16.6904 12.75 16 12.75C15.3096 12.75 14.75 12.1904 14.75 11.5Z" fill="#2F384C"/>
</svg>
