<svg width="24" height="24" viewBox="0 0 24 24" fill="none" xmlns="http://www.w3.org/2000/svg">
<path opacity="0.32" d="M11.9999 1.25C9.88194 1.25 8.82294 1.25 7.9314 1.4893C5.77202 2.0689 4.01941 3.64515 3.21491 5.73121C2.88275 6.59248 2.77086 7.64555 2.54709 9.75168L2.31068 11.9767C2.01404 14.7686 1.86573 16.1645 2.1221 17.2964C2.65926 19.6679 4.38865 21.5908 6.69015 22.3755C7.78861 22.75 9.19238 22.75 11.9999 22.75V22.75C14.8075 22.75 16.2112 22.75 17.3097 22.3755C19.6112 21.5908 21.3406 19.6679 21.8777 17.2964C22.1341 16.1645 21.9858 14.7686 21.6892 11.9767L21.4528 9.75168C21.229 7.64555 21.1171 6.59248 20.7849 5.73121C19.9804 3.64515 18.2278 2.0689 16.0684 1.4893C15.1769 1.25 14.1179 1.25 11.9999 1.25V1.25Z" fill="#2F384C"/>
<path fill-rule="evenodd" clip-rule="evenodd" d="M12.0001 11.25C10.7575 11.25 9.75012 10.2426 9.75012 9V7C9.75012 6.58579 9.41434 6.25 9.00012 6.25C8.58591 6.25 8.25012 6.58579 8.25012 7V9C8.25012 11.0711 9.92905 12.75 12.0001 12.75C14.0712 12.75 15.7501 11.0711 15.7501 9V7C15.7501 6.58579 15.4143 6.25 15.0001 6.25C14.5859 6.25 14.2501 6.58579 14.2501 7V9C14.2501 10.2426 13.2428 11.25 12.0001 11.25Z" fill="#2F384C"/>
</svg>
