<svg width="24" height="24" viewBox="0 0 24 24" fill="none" xmlns="http://www.w3.org/2000/svg">
<path opacity="0.32" d="M15.5621 4.44699C14.4311 2.18496 13.8656 1.05395 13.126 0.680849C12.4179 0.323616 11.5822 0.323616 10.874 0.680847C10.1344 1.05395 9.56892 2.18496 8.43791 4.44699V4.44699C8.131 5.06082 7.97754 5.36773 7.76834 5.60771C7.49876 5.91695 7.15723 6.1551 6.77386 6.30115C6.47635 6.41449 6.14153 6.45169 5.47188 6.52609V6.52609C3.13977 6.78522 1.97372 6.91478 1.39896 7.38928C0.657283 8.00158 0.332614 8.98505 0.563974 9.91858C0.743268 10.642 1.61602 11.4524 3.36154 13.0733V13.0733C3.90529 13.5782 4.17717 13.8306 4.35485 14.118C4.62987 14.5629 4.75847 15.0827 4.72253 15.6045C4.69931 15.9416 4.57828 16.2865 4.33623 16.9764V16.9764C3.54952 19.2185 3.15617 20.3395 3.30443 21.0284C3.53549 22.102 4.4401 22.8991 5.53423 22.9932C6.23626 23.0535 7.29889 22.5222 9.42416 21.4596L10.2112 21.0661C10.8671 20.7381 11.195 20.5742 11.539 20.5096C11.8437 20.4525 12.1564 20.4525 12.461 20.5096C12.805 20.5742 13.133 20.7381 13.7889 21.0661L14.5759 21.4596C16.7012 22.5222 17.7638 23.0535 18.4658 22.9932C19.5599 22.8991 20.4646 22.102 20.6956 21.0284C20.8439 20.3395 20.4505 19.2185 19.6638 16.9764V16.9764C19.4218 16.2865 19.3007 15.9416 19.2775 15.6045C19.2416 15.0827 19.3702 14.5629 19.6452 14.118C19.8229 13.8306 20.0948 13.5782 20.6385 13.0733V13.0733C22.384 11.4524 23.2568 10.642 23.4361 9.91858C23.6674 8.98505 23.3428 8.00158 22.6011 7.38928C22.0263 6.91478 20.8603 6.78522 18.5282 6.52609V6.52609C17.8585 6.45169 17.5237 6.41449 17.2262 6.30115C16.8428 6.1551 16.5013 5.91695 16.2317 5.60771C16.0225 5.36772 15.8691 5.06081 15.5621 4.44699V4.44699Z" fill="#2F384C"/>
<path d="M9.42412 21.4595L10.2111 21.066C10.867 20.7381 11.195 20.5741 11.539 20.5095C11.8437 20.4524 12.1563 20.4524 12.461 20.5095C12.805 20.5741 13.1329 20.7381 13.7888 21.066L13.7888 21.066L14.5759 21.4595L14.5759 21.4595C16.7011 22.5222 17.7637 23.0535 18.4658 22.9931C19.5599 22.899 20.4645 22.1019 20.6956 21.0283C20.8438 20.3394 20.4505 19.2184 19.6638 16.9763L19.6638 16.9763C19.4217 16.2864 19.3007 15.9415 19.2775 15.6044C19.2415 15.0827 19.3701 14.5628 19.6452 14.1179C19.6452 14.1179 16.9999 10.9998 11.9999 10.9998C6.99988 10.9998 4.35481 14.1179 4.35481 14.1179C4.62983 14.5628 4.75843 15.0827 4.72249 15.6044C4.69927 15.9415 4.57824 16.2864 4.33619 16.9763L4.33619 16.9763C3.54948 19.2184 3.15613 20.3394 3.30439 21.0283C3.53545 22.1019 4.44006 22.899 5.53419 22.9931C6.23622 23.0535 7.29885 22.5222 9.42412 21.4595Z" fill="#2F384C"/>
</svg>
