<svg width="24" height="24" viewBox="0 0 24 24" fill="none" xmlns="http://www.w3.org/2000/svg">
<path opacity="0.32" fill-rule="evenodd" clip-rule="evenodd" d="M6.05 1.25C4.36984 1.25 3.52976 1.25 2.88803 1.57698C2.32354 1.8646 1.8646 2.32354 1.57698 2.88803C1.25 3.52976 1.25 4.36984 1.25 6.05V17.95C1.25 19.6302 1.25 20.4702 1.57698 21.112C1.8646 21.6765 2.32354 22.1354 2.88803 22.423C3.52976 22.75 4.36984 22.75 6.05 22.75H7.99829L8 22.75L11.95 22.75C12.23 22.75 12.37 22.75 12.477 22.6955C12.5711 22.6476 12.6476 22.5711 12.6955 22.477C12.75 22.37 12.75 22.23 12.75 21.95V6.05C12.75 4.36984 12.75 3.52976 12.423 2.88803C12.1354 2.32354 11.6765 1.8646 11.112 1.57698C10.4702 1.25 9.63016 1.25 7.95 1.25H6.05Z" fill="#2F384C"/>
<path d="M14.6285 3.31036C14.3862 3.55275 14.25 3.88149 14.25 4.22427V18.5514C15.9315 16.4839 17.5414 14.0932 19.2958 11.906C20.3798 10.5545 20.9218 9.87883 21.0916 9.36391C21.3555 8.56338 21.3217 7.94682 20.972 7.1799C20.747 6.68659 20.2176 6.15726 19.1589 5.09861L17.3703 3.31025C16.6132 2.55317 15.3856 2.55322 14.6285 3.31036V3.31036Z" fill="#2F384C"/>
<path d="M21.7801 12.2501C21.4885 12.2501 21.2124 12.3813 21.0282 12.6073L14.25 20.9261V21.9501C14.25 22.2301 14.25 22.3701 14.3045 22.4771C14.3524 22.5712 14.4289 22.6477 14.523 22.6956C14.63 22.7501 14.77 22.7501 15.05 22.7501H17.5C18.6622 22.7501 19.2434 22.7501 19.7219 22.6302C21.1536 22.2716 22.2715 21.1537 22.6301 19.722C22.75 19.2435 22.75 18.6623 22.75 17.5001V13.22C22.75 12.6843 22.3158 12.2501 21.7801 12.2501V12.2501Z" fill="#2F384C"/>
<path d="M8 17C8 17.5523 7.55228 18 7 18C6.44772 18 6 17.5523 6 17C6 16.4477 6.44772 16 7 16C7.55228 16 8 16.4477 8 17Z" fill="#2F384C"/>
</svg>
