<svg width="24" height="24" viewBox="0 0 24 24" fill="none" xmlns="http://www.w3.org/2000/svg">
<path opacity="0.32" d="M22.75 15.35V14.5833C22.75 14.3992 22.6008 14.25 22.4167 14.25H22C20.7574 14.25 19.75 13.2426 19.75 12C19.75 10.7574 20.7574 9.75 22 9.75H22.4167C22.6008 9.75 22.75 9.60076 22.75 9.41667V8.65C22.75 6.40979 22.75 5.28969 22.314 4.43404C21.9305 3.68139 21.3186 3.06947 20.566 2.68597C19.7103 2.25 18.5902 2.25 16.35 2.25H9V21.75H16.35C18.5902 21.75 19.7103 21.75 20.566 21.314C21.3186 20.9305 21.9305 20.3186 22.314 19.566C22.75 18.7103 22.75 17.5902 22.75 15.35Z" fill="#2F384C"/>
<path d="M1.25 8.65V9.41667C1.25 9.60076 1.39924 9.75 1.58333 9.75H2C3.24264 9.75 4.25 10.7574 4.25 12C4.25 13.2426 3.24264 14.25 2 14.25H1.58333C1.39924 14.25 1.25 14.3992 1.25 14.5833V15.35C1.25 17.5902 1.25 18.7103 1.68597 19.566C2.06947 20.3186 2.68139 20.9305 3.43404 21.314C4.28969 21.75 5.40979 21.75 7.65 21.75H9V2.25H7.65C5.40979 2.25 4.28969 2.25 3.43404 2.68597C2.68139 3.06947 2.06947 3.68139 1.68597 4.43404C1.25 5.28969 1.25 6.40979 1.25 8.65Z" fill="#2F384C"/>
</svg>
