<svg width="24" height="24" viewBox="0 0 24 24" fill="none" xmlns="http://www.w3.org/2000/svg">
<path opacity="0.32" d="M3.20459 4.25L3.84987 15.2198C4.00578 17.8703 4.08374 19.1955 4.64942 20.2012C5.1474 21.0866 5.90322 21.7992 6.81627 22.2444C7.85347 22.75 9.181 22.75 11.8361 22.75H12.1639C14.819 22.75 16.1465 22.75 17.1837 22.2444C18.0968 21.7992 18.8526 21.0866 19.3506 20.2012C19.9163 19.1955 19.9942 17.8703 20.1501 15.2198L20.7954 4.25H3.20459Z" fill="#2F384C"/>
<path fill-rule="evenodd" clip-rule="evenodd" d="M10.621 1.24986C10.657 1.24991 10.6932 1.24997 10.7298 1.24997H13.2702C13.3068 1.24997 13.343 1.24991 13.379 1.24986C13.8916 1.2491 14.3415 1.24842 14.7424 1.40609C15.0929 1.54396 15.4032 1.76762 15.6449 2.05657C15.9212 2.38703 16.0629 2.81406 16.2242 3.3006C16.2355 3.33473 16.247 3.36915 16.2585 3.40385L16.5406 4.24997H20H22C22.4142 4.24997 22.75 4.58576 22.75 4.99997C22.75 5.41418 22.4142 5.74997 22 5.74997H20H16.0173C16.0057 5.75024 15.9941 5.75024 15.9825 5.74997H8.01751C8.00594 5.75024 7.99433 5.75024 7.9827 5.74997H4H2C1.58579 5.74997 1.25 5.41418 1.25 4.99997C1.25 4.58576 1.58579 4.24997 2 4.24997H4H7.45943L7.74147 3.40385C7.75304 3.36915 7.76445 3.33473 7.77577 3.30061C7.93715 2.81406 8.07878 2.38703 8.35513 2.05657C8.59677 1.76762 8.90709 1.54396 9.25763 1.40609C9.65851 1.24842 10.1084 1.2491 10.621 1.24986ZM9.04057 4.24997H14.9594L14.8355 3.87819C14.6186 3.22737 14.5633 3.10149 14.4942 3.01884C14.4137 2.92252 14.3102 2.84796 14.1934 2.80201C14.0931 2.76257 13.9562 2.74997 13.2702 2.74997H10.7298C10.0438 2.74997 9.9069 2.76257 9.80663 2.80201C9.68979 2.84796 9.58635 2.92252 9.5058 3.01884C9.43668 3.10149 9.38144 3.22737 9.16449 3.87819L9.04057 4.24997ZM10 9.24997C10.4142 9.24997 10.75 9.58576 10.75 9.99997V17C10.75 17.4142 10.4142 17.75 10 17.75C9.58579 17.75 9.25 17.4142 9.25 17V9.99997C9.25 9.58576 9.58579 9.24997 10 9.24997ZM14 9.24997C14.4142 9.24997 14.75 9.58576 14.75 9.99997V14C14.75 14.4142 14.4142 14.75 14 14.75C13.5858 14.75 13.25 14.4142 13.25 14V9.99997C13.25 9.58576 13.5858 9.24997 14 9.24997Z" fill="#2F384C"/>
</svg>
