<svg width="24" height="24" viewBox="0 0 24 24" fill="none" xmlns="http://www.w3.org/2000/svg">
<path opacity="0.32" d="M0.25 11.5V12.5C0.25 15.5306 0.25 17.0459 0.784817 18.2262C1.38557 19.5521 2.44786 20.6144 3.77376 21.2152C4.95412 21.75 6.46942 21.75 9.5 21.75C12.5306 21.75 14.0459 21.75 15.2262 21.2152C16.5521 20.6144 17.6144 19.5521 18.2152 18.2262C18.75 17.0459 18.75 15.5306 18.75 12.5V11.5C18.75 8.46942 18.75 6.95412 18.2152 5.77376C17.6144 4.44786 16.5521 3.38557 15.2262 2.78482C14.0459 2.25 12.5306 2.25 9.5 2.25C6.46942 2.25 4.95412 2.25 3.77376 2.78482C2.44786 3.38557 1.38557 4.44786 0.784817 5.77376C0.25 6.95412 0.25 8.46942 0.25 11.5Z" fill="#2F384C"/>
<path d="M23.75 10.6465C23.75 9.61944 23.75 9.10591 23.6625 8.81982C23.2899 7.6023 21.8895 7.03829 20.7771 7.65768C20.5157 7.80322 20.1598 8.1734 19.4479 8.91374V8.91374C19.3106 9.05656 19.2419 9.12796 19.1824 9.20305C18.943 9.50523 18.796 9.87018 18.7592 10.254C18.75 10.3493 18.75 10.4484 18.75 10.6465V13.3536C18.75 13.5517 18.75 13.6508 18.7592 13.7461C18.796 14.1299 18.943 14.4948 19.1824 14.797C19.2419 14.8721 19.3106 14.9435 19.4479 15.0863V15.0863C20.1598 15.8267 20.5157 16.1968 20.7771 16.3424C21.8895 16.9617 23.2899 16.3977 23.6625 15.1802C23.75 14.8941 23.75 14.3806 23.75 13.3536L23.75 10.6465Z" fill="#2F384C"/>
<path d="M13.5 9C14.3284 9 15 8.32843 15 7.5C15 6.67157 14.3284 6 13.5 6C12.6716 6 12 6.67157 12 7.5C12 8.32843 12.6716 9 13.5 9Z" fill="#2F384C"/>
</svg>
