<svg width="24" height="24" viewBox="0 0 24 24" fill="none" xmlns="http://www.w3.org/2000/svg">
<path opacity="0.32" fill-rule="evenodd" clip-rule="evenodd" d="M14.3829 4.23299C13.6581 2.97418 12.0793 2.49615 10.7779 3.14149C10.4566 3.30086 10.1823 3.57851 9.93614 3.87274C9.67914 4.17987 9.38999 4.58372 9.05321 5.07638C8.85272 5.36968 8.88552 5.76341 9.13177 6.01949L13.4591 10.5195C13.6712 10.7401 13.9961 10.8097 14.2799 10.6953C14.5638 10.581 14.7497 10.3057 14.7497 9.99963L14.7497 8.30796L14.7497 8.282C14.7497 7.22479 14.7497 6.39863 14.7152 5.78019C14.6825 5.19513 14.6163 4.63829 14.3829 4.23299ZM18.4162 5.37592C18.0718 5.14589 17.606 5.23865 17.376 5.58311C17.146 5.92758 17.2387 6.3933 17.5832 6.62334C19.1507 7.67015 20.2497 9.66453 20.2497 11.9996C20.2497 12.9757 20.0572 13.8951 19.717 14.7111C19.5856 15.0263 19.4322 15.3259 19.2595 15.6073C19.0429 15.9603 19.1534 16.4222 19.5064 16.6388C19.8594 16.8555 20.3213 16.745 20.5379 16.3919C20.7518 16.0435 20.9405 15.6745 21.1015 15.2882C21.5182 14.2888 21.7497 13.1731 21.7497 11.9996C21.7497 9.20705 20.4355 6.72442 18.4162 5.37592ZM17.4162 9.37592C17.0718 9.14589 16.606 9.23865 16.376 9.58311C16.146 9.92758 16.2387 10.3933 16.5832 10.6233C16.9551 10.8717 17.2497 11.3738 17.2497 11.9996C17.2497 12.2592 17.1985 12.5002 17.1106 12.7111C16.9513 13.0934 17.132 13.5325 17.5143 13.6919C17.8966 13.8513 18.3358 13.6705 18.4952 13.2882C18.6595 12.8939 18.7497 12.4566 18.7497 11.9996C18.7497 10.9163 18.2399 9.92599 17.4162 9.37592Z" fill="#2F384C"/>
<path fill-rule="evenodd" clip-rule="evenodd" d="M3.52984 2.46919C3.23695 2.17629 2.76208 2.17629 2.46918 2.46919C2.17629 2.76208 2.17629 3.23695 2.46918 3.52985L6.18885 7.24952L5.99951 7.24952L5.99787 7.24952L5.99622 7.24952L5.99458 7.24952L5.99293 7.24952L5.99128 7.24952L5.98964 7.24952L5.98799 7.24952L5.98635 7.24952L5.98471 7.24952L5.98306 7.24952L5.98142 7.24952L5.97978 7.24952L5.97813 7.24952L5.97649 7.24952L5.97485 7.24952L5.97321 7.24952L5.97156 7.24952L5.96992 7.24952L5.96828 7.24952L5.96664 7.24952L5.965 7.24952L5.96336 7.24952L5.96172 7.24952L5.96008 7.24952L5.95844 7.24952L5.9568 7.24952L5.95517 7.24952L5.95353 7.24952L5.95189 7.24952L5.95025 7.24952L5.94862 7.24952L5.94698 7.24952L5.94534 7.24952L5.94371 7.24952L5.94207 7.24952L5.94044 7.24952L5.9388 7.24952L5.93717 7.24952L5.93553 7.24952L5.9339 7.24952L5.93226 7.24952L5.93063 7.24952L5.929 7.24952L5.92736 7.24952L5.92573 7.24952L5.9241 7.24952L5.92247 7.24952L5.92084 7.24952L5.9192 7.24952L5.91757 7.24952L5.91594 7.24952L5.91431 7.24952L5.91268 7.24952L5.91105 7.24952L5.90942 7.24952L5.90779 7.24952L5.90617 7.24952L5.90454 7.24952L5.90291 7.24952L5.90128 7.24952L5.89965 7.24952L5.89803 7.24952L5.8964 7.24952L5.89477 7.24952L5.89315 7.24952L5.89152 7.24952L5.8899 7.24952L5.88827 7.24952L5.88665 7.24952L5.88502 7.24952L5.8834 7.24952L5.88177 7.24952L5.88015 7.24952L5.87853 7.24952L5.8769 7.24952L5.87528 7.24952L5.87366 7.24952L5.87204 7.24952L5.87041 7.24952L5.86879 7.24952L5.86717 7.24952L5.86555 7.24952L5.86393 7.24952L5.86231 7.24952L5.86069 7.24952L5.85907 7.24952L5.85745 7.24952L5.85583 7.24952L5.85422 7.24952L5.8526 7.24952L5.85098 7.24952L5.84936 7.24952L5.84775 7.24952L5.84613 7.24952L5.84451 7.24952L5.8429 7.24952L5.84128 7.24952L5.83966 7.24952L5.83805 7.24952L5.83643 7.24952L5.83482 7.24952L5.83321 7.24952L5.83159 7.24952L5.82998 7.24952L5.82836 7.24952L5.82675 7.24952L5.82514 7.24952L5.82353 7.24952L5.82192 7.24952L5.8203 7.24952L5.81869 7.24952L5.81708 7.24952L5.81547 7.24952L5.81386 7.24952L5.81225 7.24952L5.81064 7.24952L5.80903 7.24952L5.80742 7.24952L5.80581 7.24952L5.8042 7.24952L5.8026 7.24952L5.80099 7.24952L5.79938 7.24952L5.79777 7.24952L5.79617 7.24952L5.79456 7.24952L5.79295 7.24952L5.79135 7.24952L5.78974 7.24952L5.78814 7.24952L5.78653 7.24952L5.78493 7.24952L5.78332 7.24952L5.78172 7.24952L5.78012 7.24952L5.77851 7.24952L5.77691 7.24952L5.77531 7.24952L5.77371 7.24952L5.7721 7.24952L5.7705 7.24952L5.7689 7.24952L5.7673 7.24952L5.7657 7.24952L5.7641 7.24952L5.7625 7.24952L5.7609 7.24952L5.7593 7.24952L5.7577 7.24952L5.7561 7.24952L5.7545 7.24952L5.7529 7.24952L5.75131 7.24952L5.74971 7.24952L5.74811 7.24952L5.74652 7.24952L5.74492 7.24952L5.74332 7.24952L5.74173 7.24952L5.74013 7.24952L5.73854 7.24952L5.73694 7.24952L5.73535 7.24952L5.73375 7.24952L5.73216 7.24952L5.73057 7.24952L5.72897 7.24952L5.72738 7.24952L5.72579 7.24952L5.72419 7.24952L5.7226 7.24952L5.72101 7.24952L5.71942 7.24952L5.71783 7.24952L5.71624 7.24952L5.71465 7.24952L5.71306 7.24952L5.71147 7.24952L5.70988 7.24952L5.70829 7.24952L5.7067 7.24952L5.70511 7.24952L5.70352 7.24952L5.70194 7.24952L5.70035 7.24952L5.69876 7.24952L5.69717 7.24952L5.69559 7.24952L5.694 7.24952L5.69242 7.24952L5.69083 7.24952L5.68924 7.24952L5.68766 7.24952L5.68607 7.24952L5.68449 7.24952L5.68291 7.24952L5.68132 7.24952L5.67974 7.24952L5.67816 7.24952L5.67657 7.24952L5.67499 7.24952L5.67341 7.24952L5.67183 7.24952L5.67025 7.24952L5.66867 7.24952L5.66709 7.24952L5.66551 7.24952L5.66392 7.24952L5.66235 7.24952L5.66077 7.24952L5.65919 7.24952L5.65761 7.24952L5.65603 7.24952L5.65445 7.24952L5.65287 7.24952L5.6513 7.24952L5.64972 7.24952L5.64814 7.24952L5.64657 7.24952L5.64499 7.24952L5.64341 7.24952L5.64184 7.24952L5.64026 7.24952L5.63869 7.24952L5.63711 7.24952L5.63554 7.24952L5.63397 7.24952L5.63239 7.24952L5.63082 7.24952L5.62925 7.24952L5.62767 7.24952L5.6261 7.24952L5.62453 7.24952L5.62296 7.24952L5.62139 7.24952L5.61981 7.24952L5.61824 7.24952L5.61667 7.24952L5.6151 7.24952L5.61353 7.24952L5.61196 7.24952L5.6104 7.24952L5.60883 7.24952L5.60726 7.24952L5.60569 7.24952L5.60412 7.24952L5.60256 7.24952L5.60099 7.24952L5.59942 7.24952L5.59786 7.24952L5.59629 7.24952L5.59472 7.24952L5.59316 7.24952L5.59159 7.24952L5.59003 7.24952L5.58846 7.24952L5.5869 7.24952L5.58533 7.24952L5.58377 7.24952L5.58221 7.24952L5.58065 7.24952L5.57908 7.24952L5.57752 7.24952L5.57596 7.24952L5.5744 7.24952L5.57284 7.24952L5.57127 7.24952L5.56971 7.24952L5.56815 7.24952L5.56659 7.24952L5.56503 7.24952L5.56347 7.24952L5.56192 7.24952L5.56036 7.24952L5.5588 7.24952L5.55724 7.24952L5.55568 7.24952L5.55413 7.24952L5.55257 7.24952L5.55101 7.24952L5.54946 7.24952L5.5479 7.24952L5.54634 7.24952L5.54479 7.24952L5.54323 7.24952L5.54168 7.24952L5.54012 7.24952L5.53857 7.24952L5.53702 7.24952L5.53546 7.24952L5.53391 7.24952L5.53236 7.24952L5.5308 7.24952L5.52925 7.24952L5.5277 7.24952L5.52615 7.24952L5.5246 7.24952L5.52305 7.24952L5.52149 7.24952L5.51994 7.24952L5.51839 7.24952L5.51685 7.24952L5.5153 7.24952L5.51375 7.24952L5.5122 7.24952L5.51065 7.24952L5.5091 7.24952L5.50755 7.24952L5.50601 7.24952L5.50446 7.24952L5.50291 7.24952L5.50137 7.24952L5.49982 7.24952L5.49827 7.24952L5.49673 7.24952L5.49518 7.24952L5.49364 7.24952L5.4921 7.24952L5.49055 7.24952L5.48901 7.24952L5.48746 7.24952L5.48592 7.24952L5.48438 7.24952L5.48284 7.24952L5.48129 7.24952L5.47975 7.24952L5.47821 7.24952L5.47667 7.24952L5.47513 7.24952L5.47359 7.24952L5.47205 7.24952L5.47051 7.24952L5.46897 7.24952L5.46743 7.24952L5.46589 7.24952L5.46435 7.24952L5.46281 7.24952L5.46127 7.24952L5.45974 7.24952L5.4582 7.24952L5.45666 7.24952L5.45513 7.24952L5.45359 7.24952L5.45205 7.24952L5.45052 7.24952L5.44898 7.24952L5.44745 7.24952L5.44591 7.24952L5.44438 7.24952L5.44284 7.24952L5.44131 7.24952L5.43978 7.24952L5.43824 7.24952L5.43671 7.24952L5.43518 7.24952L5.43365 7.24952L5.43212 7.24952L5.43058 7.24952L5.42905 7.24952L5.42752 7.24952L5.42599 7.24952L5.42446 7.24952L5.42293 7.24952L5.4214 7.24952L5.41987 7.24952L5.41834 7.24952L5.41682 7.24952L5.41529 7.24952L5.41376 7.24952L5.41223 7.24952L5.41071 7.24952L5.40918 7.24952L5.40765 7.24952L5.40613 7.24952L5.4046 7.24952L5.40307 7.24952L5.40155 7.24952L5.40002 7.24952L5.3985 7.24952L5.39697 7.24952L5.39545 7.24952L5.39393 7.24952L5.3924 7.24952L5.39088 7.24952L5.38936 7.24952L5.38784 7.24952L5.38631 7.24952L5.38479 7.24952L5.38327 7.24952L5.38175 7.24952L5.38023 7.24952L5.37871 7.24952L5.37719 7.24952L5.37567 7.24952L5.37415 7.24952L5.37263 7.24952L5.37111 7.24952L5.36959 7.24952L5.36807 7.24952L5.36656 7.24952L5.36504 7.24952L5.36352 7.24952L5.36201 7.24952L5.36049 7.24952L5.35897 7.24952L5.35746 7.24952L5.35594 7.24952L5.35443 7.24952L5.35291 7.24952L5.3514 7.24952L5.34988 7.24952L5.34837 7.24952L5.34686 7.24952L5.34534 7.24952L5.34383 7.24952L5.34232 7.24952L5.3408 7.24952L5.33929 7.24952L5.33778 7.24952L5.33627 7.24952L5.33476 7.24952L5.33325 7.24952L5.33174 7.24952L5.33023 7.24952L5.32872 7.24952L5.32721 7.24952L5.3257 7.24952L5.32419 7.24952L5.32268 7.24952L5.32117 7.24952L5.31967 7.24952L5.31816 7.24952L5.31665 7.24952L5.31515 7.24952L5.31364 7.24952L5.31213 7.24952L5.31063 7.24952L5.30912 7.24952L5.30762 7.24952L5.30611 7.24952L5.30461 7.24952L5.3031 7.24952L5.3016 7.24952L5.3001 7.24952L5.29859 7.24952L5.29709 7.24952L5.29559 7.24952L5.29409 7.24952L5.29258 7.24952L5.29108 7.24952L5.28958 7.24952L5.28808 7.24952L5.28658 7.24952L5.28508 7.24952L5.28358 7.24952L5.28208 7.24952L5.28058 7.24952L5.27908 7.24952L5.27758 7.24952L5.27609 7.24952L5.27459 7.24952L5.27309 7.24952L5.27159 7.24952L5.2701 7.24952L5.2686 7.24952L5.2671 7.24952L5.26561 7.24952L5.26411 7.24952L5.26262 7.24952L5.26112 7.24952L5.25963 7.24952L5.25813 7.24952L5.25664 7.24952L5.25514 7.24952L5.25365 7.24952L5.25216 7.24952L5.25067 7.24952L5.24917 7.24952L5.24768 7.24952L5.24619 7.24952L5.2447 7.24952L5.24321 7.24952L5.24172 7.24952L5.24023 7.24952L5.23874 7.24952L5.23725 7.24952L5.23576 7.24952L5.23427 7.24952L5.23278 7.24952L5.23129 7.24952L5.2298 7.24952L5.22831 7.24952L5.22683 7.24952L5.22534 7.24952L5.22385 7.24952L5.22237 7.24952L5.22088 7.24952L5.21939 7.24952L5.21791 7.24952L5.21642 7.24952L5.21494 7.24952L5.21345 7.24952L5.21197 7.24952L5.21049 7.24952L5.209 7.24952L5.20752 7.24952L5.20604 7.24952L5.20455 7.24952L5.20307 7.24952L5.20159 7.24952L5.20011 7.24952L5.19863 7.24952L5.16819 7.24952C4.63434 7.2495 4.1887 7.2495 3.8246 7.27926C3.44481 7.3103 3.08826 7.37742 2.75104 7.54925C2.23359 7.8129 1.8129 8.2336 1.54925 8.75104C1.3774 9.0883 1.31029 9.44496 1.27925 9.82485C1.24949 10.1891 1.2495 10.6349 1.24951 11.1691L1.24951 11.1995L1.24951 12.7995L1.24951 12.83C1.2495 13.3641 1.24949 13.81 1.27925 14.1742C1.31029 14.5541 1.3774 14.9107 1.54925 15.248C1.8129 15.7654 2.23359 16.1861 2.75104 16.4498C3.0883 16.6216 3.44496 16.6887 3.82484 16.7198C4.18905 16.7495 4.63486 16.7495 5.16897 16.7495L5.16906 16.7495L5.19951 16.7495L6.49119 16.7495C6.94909 16.7495 7.07274 16.7531 7.17879 16.7747C7.41754 16.8234 7.63686 16.9407 7.80978 17.1124C7.88659 17.1886 7.95814 17.2895 8.21214 17.6705L8.22654 17.6921C8.81298 18.5718 9.27125 19.2592 9.64302 19.7546C9.99472 20.2233 10.3587 20.6499 10.7777 20.8577C12.0791 21.503 13.6579 21.025 14.3827 19.7662C14.6161 19.3609 14.6823 18.804 14.715 18.219C14.7485 17.6188 14.7495 16.823 14.7495 15.8102L20.4692 21.5298C20.7621 21.8227 21.237 21.8227 21.5298 21.5298C21.8227 21.237 21.8227 20.7621 21.5298 20.4692L14.5298 13.4692L8.33031 7.26965L3.52984 2.46919Z" fill="#2F384C"/>
</svg>
