<svg width="24" height="24" viewBox="0 0 24 24" fill="none" xmlns="http://www.w3.org/2000/svg">
<path opacity="0.32" d="M4.87932 16.75H5.2147C5.71177 16.75 5.96031 16.75 6.19305 16.7814C7.02842 16.894 7.7951 17.3043 8.35218 17.9369C8.50738 18.1132 8.64524 18.3199 8.92097 18.7335C9.91615 20.2263 10.4137 20.9727 10.7678 21.2334C12.1122 22.2232 14.0304 21.6424 14.6 20.0731C14.75 19.6598 14.75 18.7627 14.75 16.9686V12H1.25V13.1207C1.25 14.1724 1.25 14.6982 1.4057 15.1185C1.65894 15.8021 2.19794 16.3411 2.88153 16.5943C3.30181 16.75 3.82764 16.75 4.87931 16.75H4.87932Z" fill="#2F384C"/>
<path fill-rule="evenodd" clip-rule="evenodd" d="M4.8792 7.25003L5.21458 7.25003L5.21459 7.25003C5.71165 7.25003 5.96019 7.25003 6.19292 7.21865C7.0283 7.10604 7.79497 6.69573 8.35205 6.06312C8.50725 5.88688 8.64512 5.68009 8.92084 5.26651L8.92084 5.26649C9.91603 3.77372 10.4136 3.02733 10.7677 2.76667C12.1121 1.77686 14.0303 2.35767 14.5999 3.92697C14.7499 4.34024 14.7499 5.23729 14.7499 7.03138L14.7499 12L1.24988 12L1.24988 10.8793C1.24988 9.82767 1.24988 9.30183 1.40557 8.88155C1.65882 8.19797 2.19782 7.65897 2.8814 7.40573C3.30168 7.25003 3.82752 7.25003 4.8792 7.25003ZM17.3762 5.58356C17.6063 5.23909 18.072 5.14633 18.4165 5.37637C20.4358 6.72486 21.75 9.2075 21.75 12.0001C21.75 14.7927 20.4358 17.2753 18.4165 18.6238C18.072 18.8538 17.6063 18.7611 17.3762 18.4166C17.1462 18.0721 17.239 17.6064 17.5834 17.3764C19.151 16.3296 20.25 14.3352 20.25 12.0001C20.25 9.66497 19.151 7.67059 17.5834 6.62378C17.239 6.39375 17.1462 5.92802 17.3762 5.58356ZM16.3762 9.58356C16.6063 9.23909 17.072 9.14633 17.4165 9.37637C18.2402 9.92643 18.75 10.9167 18.75 12.0001C18.75 13.0834 18.2402 14.0737 17.4165 14.6238C17.072 14.8538 16.6063 14.7611 16.3762 14.4166C16.1462 14.0721 16.239 13.6064 16.5834 13.3764C16.9554 13.128 17.25 12.626 17.25 12.0001C17.25 11.3742 16.9554 10.8722 16.5834 10.6238C16.239 10.3937 16.1462 9.92802 16.3762 9.58356Z" fill="#2F384C"/>
</svg>
