<svg width="24" height="24" viewBox="0 0 24 24" fill="none" xmlns="http://www.w3.org/2000/svg">
<path opacity="0.32" fill-rule="evenodd" clip-rule="evenodd" d="M12 1.25C7.16751 1.25 3.25 5.16751 3.25 10C3.25 14.8325 7.16751 18.75 12 18.75C16.8325 18.75 20.75 14.8325 20.75 10C20.75 5.16751 16.8325 1.25 12 1.25Z" fill="#2F384C"/>
<path d="M5.80875 18.1696C5.62906 18.0332 5.53922 17.965 5.4634 17.9389C5.30241 17.8835 5.14681 17.9065 5.00864 18.006C4.94357 18.0528 4.88261 18.1366 4.7607 18.3042V18.3042C3.96998 19.3915 3.57463 19.9351 3.49058 20.3739C3.31871 21.2713 3.77691 22.1711 4.60379 22.56C5.0081 22.7501 5.68028 22.7501 7.02463 22.7501H16.9757C18.3201 22.7501 18.9922 22.7501 19.3965 22.56C20.2234 22.1711 20.6816 21.2713 20.5098 20.3739C20.4257 19.9351 20.0304 19.3915 19.2397 18.3043V18.3043C19.1177 18.1366 19.0568 18.0528 18.9917 18.006C18.8535 17.9065 18.6979 17.8835 18.5369 17.9389C18.4611 17.965 18.3713 18.0332 18.1916 18.1696C16.4715 19.4753 14.3263 20.2501 12.0002 20.2501C9.67405 20.2501 7.5289 19.4753 5.80875 18.1696Z" fill="#2F384C"/>
<path d="M12 12C13.1046 12 14 11.1046 14 10C14 8.89543 13.1046 8 12 8C10.8954 8 10 8.89543 10 10C10 11.1046 10.8954 12 12 12Z" fill="#2F384C"/>
</svg>
