<svg width="24" height="24" viewBox="0 0 24 24" fill="none" xmlns="http://www.w3.org/2000/svg">
<path opacity="0.32" fill-rule="evenodd" clip-rule="evenodd" d="M12 2.75024C10.6782 2.75024 9.44116 3.10328 8.37555 3.71971C8.017 3.92711 7.55821 3.80459 7.3508 3.44605C7.14339 3.0875 7.26591 2.62871 7.62446 2.4213C8.91223 1.67636 10.4075 1.25024 12 1.25024C16.8325 1.25024 20.75 5.16775 20.75 10.0002C20.75 11.5928 20.3239 13.088 19.5789 14.3758C19.3715 14.7343 18.9127 14.8569 18.5542 14.6494C18.1957 14.442 18.0731 13.9832 18.2805 13.6247C18.897 12.5591 19.25 11.322 19.25 10.0002C19.25 5.99618 16.0041 2.75024 12 2.75024ZM11.25 8.00021C11.25 7.58599 11.5858 7.25021 12 7.25021C13.5188 7.25021 14.75 8.48143 14.75 10.0002C14.75 10.4144 14.4142 10.7502 14 10.7502C13.5858 10.7502 13.25 10.4144 13.25 10.0002C13.25 9.30985 12.6903 8.75021 12 8.75021C11.5858 8.75021 11.25 8.41442 11.25 8.00021Z" fill="#2F384C"/>
<path d="M2.53033 1.46991C2.23744 1.17702 1.76256 1.17702 1.46967 1.46991C1.17678 1.76281 1.17678 2.23768 1.46967 2.53057L4.47376 5.53466C3.69645 6.84223 3.25 8.36988 3.25 10.0001C3.25 12.6045 4.38865 14.9435 6.19285 16.5454C7.73772 17.917 9.77157 18.7501 12 18.7501C13.6312 18.7501 15.1582 18.3037 16.4655 17.5264L17.5549 18.6158C15.9544 19.6499 14.0473 20.2501 12 20.2501C9.46682 20.2501 7.14827 19.3311 5.35952 17.8084C5.22743 17.975 5.08674 18.153 4.95625 18.3311C4.64174 18.7605 4.29501 19.3076 4.21218 19.9388C4.12089 20.6345 4.36192 21.3 4.9461 21.907C5.43137 22.4112 6.11628 22.5878 6.85158 22.6689C7.58729 22.7501 8.55212 22.7501 9.75293 22.7501L14.2471 22.7501C15.4479 22.7501 16.4127 22.7501 17.1484 22.6689C17.8837 22.5878 18.5686 22.4112 19.0539 21.907C19.401 21.5464 19.6064 21.1584 19.7028 20.7637L21.4697 22.5306C21.7626 22.8235 22.2374 22.8235 22.5303 22.5306C22.8232 22.2377 22.8232 21.7628 22.5303 21.4699L18.8089 17.7485L18.763 17.7024C18.7631 17.7024 18.763 17.7025 18.763 17.7024L17.6997 16.6393C17.6996 16.6393 17.6997 16.6392 17.6997 16.6393L5.36088 4.30029C5.36091 4.30026 5.36086 4.30032 5.36088 4.30029L2.53033 1.46991Z" fill="#2F384C"/>
</svg>
