<svg width="24" height="24" viewBox="0 0 24 24" fill="none" xmlns="http://www.w3.org/2000/svg">
<path opacity="0.32" d="M1.25012 12C1.25012 17.9371 6.06306 22.75 12.0001 22.75C14.3114 22.75 16.4524 22.0206 18.2053 20.7794C18.7129 19.9485 19 19.003 19 18C19 14.6863 15.866 12 12 12C8.13401 12 5 9.31372 5 6.00001C5 4.99717 5.28703 4.05179 5.79452 3.22095C3.04494 5.16807 1.25012 8.37444 1.25012 12Z" fill="#2F384C"/>
<path fill-rule="evenodd" clip-rule="evenodd" d="M12.0001 1.25C17.9372 1.25 22.7501 6.06294 22.7501 12C22.7501 15.6258 20.9551 18.8323 18.2053 20.7794C18.7129 19.9484 19 19.003 19 18C19 14.6863 15.866 12 12 12C8.13401 12 5 9.31371 5 6C5 4.99716 5.28703 4.05179 5.79452 3.22094C7.54753 1.97954 9.68863 1.25 12.0001 1.25ZM11 7C11.5523 7 12 6.55228 12 6C12 5.44772 11.5523 5 11 5C10.4477 5 10 5.44772 10 6C10 6.55228 10.4477 7 11 7Z" fill="#2F384C"/>
<path d="M13 19C13.5523 19 14 18.5523 14 18C14 17.4477 13.5523 17 13 17C12.4477 17 12 17.4477 12 18C12 18.5523 12.4477 19 13 19Z" fill="#2F384C"/>
</svg>
